  0
SECTION
  2
HEADER
  9
$EXTMIN
 10
-0.127000
 20
-0.139000
  9
$EXTMAX
 10
2.565000
 20
2.025000
  9
$LIMMIN
 10
-0.127000
 20
-0.139000
  9
$LIMMAX
 10
2.565000
 20
2.025000
  9
$FILLMODE
 70
  1
  0
ENDSEC
  0
SECTION
  2
TABLES
  0
TABLE
  2
LTYPE
 70
  1
  0
LTYPE
  2
CONTINUOUS
 70
 64
  3
Solid line
 72
 65
 73
  0
 40
0.0
  0
ENDTAB
  0
TABLE
  2
LAYER
 70
 1
  0
LAYER
  2
0
 70
  0
 62
7
  6
CONTINUOUS
  0
LAYER
  2
gg1
 70
  0
 62
1
  6
CONTINUOUS
  0
ENDTAB
  0
TABLE
  2
STYLE
 70
  1
  0
STYLE
  2
STANDARD
 70
  0
 40
0.0
 41
1.0
 50
0.0
 71
  0
 42
0.2
  3
txt
  4

  0
ENDTAB
  0
ENDSEC
  0
SECTION
  2
BLOCKS
  0
BLOCK
  8
0
  2
D10
 70
64
 10
0.0
 20
0.0
  3
D10
  0
CIRCLE
  8
0
 10
0.000000
 20
0.000000
 40
0.005000
 0
ENDBLK
  8
0
  0
BLOCK
  8
0
  2
D11
 70
64
 10
0.0
 20
0.0
  3
D11
  0
CIRCLE
  8
0
 10
0.000000
 20
0.000000
 40
0.002500
 0
ENDBLK
  8
0
  0
BLOCK
  8
0
  2
D12
 70
64
 10
0.0
 20
0.0
  3
D12
  0
CIRCLE
  8
0
 10
0.000000
 20
0.000000
 40
0.003000
 0
ENDBLK
  8
0
  0
ENDSEC
  0
SECTION
  2
ENTITIES
  0
POLYLINE
  8
gg1
 62
1
 40
0.000000
 41
0.000000
 66
  1
  0
VERTEX
  8
gg1
 10
2.560000
 20
-0.110000
  0
VERTEX
  8
gg1
 10
2.560000
 20
-0.012500
  0
SEQEND
  8
gg1
  0
POLYLINE
  8
gg1
 62
1
 40
0.000000
 41
0.000000
 66
  1
  0
VERTEX
  8
gg1
 10
0.000000
 20
-0.110000
  0
VERTEX
  8
gg1
 10
0.000000
 20
-0.012500
  0
SEQEND
  8
gg1
  0
POLYLINE
  8
gg1
 62
1
 40
0.000000
 41
0.000000
 66
  1
  0
VERTEX
  8
gg1
 10
1.464900
 20
-0.100000
  0
VERTEX
  8
gg1
 10
2.560000
 20
-0.100000
  0
SEQEND
  8
gg1
  0
POLYLINE
  8
gg1
 62
1
 40
0.000000
 41
0.000000
 66
  1
  0
VERTEX
  8
gg1
 10
0.000000
 20
-0.100000
  0
VERTEX
  8
gg1
 10
1.063100
 20
-0.100000
  0
SEQEND
  8
gg1
  0
POLYLINE
  8
gg1
 62
1
 40
0.000000
 41
0.000000
 66
  1
  0
VERTEX
  8
gg1
 10
2.500000
 20
-0.080000
  0
VERTEX
  8
gg1
 10
2.560000
 20
-0.100000
  0
SEQEND
  8
gg1
  0
POLYLINE
  8
gg1
 62
1
 40
0.000000
 41
0.000000
 66
  1
  0
VERTEX
  8
gg1
 10
2.500000
 20
-0.120000
  0
VERTEX
  8
gg1
 10
2.560000
 20
-0.100000
  0
SEQEND
  8
gg1
  0
POLYLINE
  8
gg1
 62
1
 40
0.000000
 41
0.000000
 66
  1
  0
VERTEX
  8
gg1
 10
0.000000
 20
-0.100000
  0
VERTEX
  8
gg1
 10
0.060000
 20
-0.120000
  0
SEQEND
  8
gg1
  0
POLYLINE
  8
gg1
 62
1
 40
0.000000
 41
0.000000
 66
  1
  0
VERTEX
  8
gg1
 10
0.000000
 20
-0.100000
  0
VERTEX
  8
gg1
 10
0.060000
 20
-0.080000
  0
SEQEND
  8
gg1
  0
POLYLINE
  8
gg1
 62
1
 40
0.000000
 41
0.000000
 66
  1
  0
VERTEX
  8
gg1
 10
-0.110000
 20
2.020000
  0
VERTEX
  8
gg1
 10
-0.012500
 20
2.020000
  0
SEQEND
  8
gg1
  0
POLYLINE
  8
gg1
 62
1
 40
0.000000
 41
0.000000
 66
  1
  0
VERTEX
  8
gg1
 10
-0.110000
 20
0.000000
  0
VERTEX
  8
gg1
 10
-0.012500
 20
0.000000
  0
SEQEND
  8
gg1
  0
POLYLINE
  8
gg1
 62
1
 40
0.000000
 41
0.000000
 66
  1
  0
VERTEX
  8
gg1
 10
-0.100000
 20
1.194900
  0
VERTEX
  8
gg1
 10
-0.100000
 20
2.020000
  0
SEQEND
  8
gg1
  0
POLYLINE
  8
gg1
 62
1
 40
0.000000
 41
0.000000
 66
  1
  0
VERTEX
  8
gg1
 10
-0.100000
 20
0.000000
  0
VERTEX
  8
gg1
 10
-0.100000
 20
0.793100
  0
SEQEND
  8
gg1
  0
POLYLINE
  8
gg1
 62
1
 40
0.000000
 41
0.000000
 66
  1
  0
VERTEX
  8
gg1
 10
-0.120000
 20
1.960000
  0
VERTEX
  8
gg1
 10
-0.100000
 20
2.020000
  0
VERTEX
  8
gg1
 10
-0.080000
 20
1.960000
  0
SEQEND
  8
gg1
  0
POLYLINE
  8
gg1
 62
1
 40
0.000000
 41
0.000000
 66
  1
  0
VERTEX
  8
gg1
 10
-0.100000
 20
0.000000
  0
VERTEX
  8
gg1
 10
-0.080000
 20
0.060000
  0
SEQEND
  8
gg1
  0
POLYLINE
  8
gg1
 62
1
 40
0.000000
 41
0.000000
 66
  1
  0
VERTEX
  8
gg1
 10
-0.120000
 20
0.060000
  0
VERTEX
  8
gg1
 10
-0.100000
 20
0.000000
  0
SEQEND
  8
gg1
  0
POLYLINE
  8
gg1
 62
1
 40
0.000000
 41
0.000000
 66
  1
  0
VERTEX
  8
gg1
 10
0.000000
 20
0.000000
  0
VERTEX
  8
gg1
 10
0.000000
 20
2.020000
  0
VERTEX
  8
gg1
 10
2.560000
 20
2.020000
  0
SEQEND
  8
gg1
  0
POLYLINE
  8
gg1
 62
1
 40
0.000000
 41
0.000000
 66
  1
  0
VERTEX
  8
gg1
 10
2.560000
 20
0.000000
  0
VERTEX
  8
gg1
 10
2.560000
 20
2.020000
  0
SEQEND
  8
gg1
  0
POLYLINE
  8
gg1
 62
1
 40
0.000000
 41
0.000000
 66
  1
  0
VERTEX
  8
gg1
 10
0.000000
 20
0.000000
  0
VERTEX
  8
gg1
 10
2.560000
 20
0.000000
  0
SEQEND
  8
gg1
  0
POLYLINE
  8
gg1
 62
1
 40
0.000000
 41
0.000000
 66
  1
  0
VERTEX
  8
gg1
 10
0.087500
 20
1.860000
  0
VERTEX
  8
gg1
 10
0.212500
 20
1.860000
  0
SEQEND
  8
gg1
  0
POLYLINE
  8
gg1
 62
1
 40
0.000000
 41
0.000000
 66
  1
  0
VERTEX
  8
gg1
 10
0.150000
 20
1.797500
  0
VERTEX
  8
gg1
 10
0.150000
 20
1.922500
  0
SEQEND
  8
gg1
  0
POLYLINE
  8
gg1
 62
1
 40
0.000000
 41
0.000000
 66
  1
  0
VERTEX
  8
gg1
 10
0.387500
 20
0.160000
  0
VERTEX
  8
gg1
 10
0.512500
 20
0.160000
  0
SEQEND
  8
gg1
  0
POLYLINE
  8
gg1
 62
1
 40
0.000000
 41
0.000000
 66
  1
  0
VERTEX
  8
gg1
 10
0.450000
 20
0.097500
  0
VERTEX
  8
gg1
 10
0.450000
 20
0.222500
  0
SEQEND
  8
gg1
  0
POLYLINE
  8
gg1
 62
1
 40
0.000000
 41
0.000000
 66
  1
  0
VERTEX
  8
gg1
 10
0.040000
 20
0.960000
  0
VERTEX
  8
gg1
 10
0.080000
 20
0.960000
  0
SEQEND
  8
gg1
  0
POLYLINE
  8
gg1
 62
1
 40
0.000000
 41
0.000000
 66
  1
  0
VERTEX
  8
gg1
 10
0.060000
 20
0.940000
  0
VERTEX
  8
gg1
 10
0.060000
 20
0.980000
  0
SEQEND
  8
gg1
  0
POLYLINE
  8
gg1
 62
1
 40
0.000000
 41
0.000000
 66
  1
  0
VERTEX
  8
gg1
 10
0.040000
 20
0.860000
  0
VERTEX
  8
gg1
 10
0.080000
 20
0.860000
  0
SEQEND
  8
gg1
  0
POLYLINE
  8
gg1
 62
1
 40
0.000000
 41
0.000000
 66
  1
  0
VERTEX
  8
gg1
 10
0.060000
 20
0.840000
  0
VERTEX
  8
gg1
 10
0.060000
 20
0.880000
  0
SEQEND
  8
gg1
  0
POLYLINE
  8
gg1
 62
1
 40
0.000000
 41
0.000000
 66
  1
  0
VERTEX
  8
gg1
 10
0.040000
 20
0.760000
  0
VERTEX
  8
gg1
 10
0.080000
 20
0.760000
  0
SEQEND
  8
gg1
  0
POLYLINE
  8
gg1
 62
1
 40
0.000000
 41
0.000000
 66
  1
  0
VERTEX
  8
gg1
 10
0.060000
 20
0.740000
  0
VERTEX
  8
gg1
 10
0.060000
 20
0.780000
  0
SEQEND
  8
gg1
  0
POLYLINE
  8
gg1
 62
1
 40
0.000000
 41
0.000000
 66
  1
  0
VERTEX
  8
gg1
 10
0.040000
 20
0.660000
  0
VERTEX
  8
gg1
 10
0.080000
 20
0.660000
  0
SEQEND
  8
gg1
  0
POLYLINE
  8
gg1
 62
1
 40
0.000000
 41
0.000000
 66
  1
  0
VERTEX
  8
gg1
 10
0.060000
 20
0.640000
  0
VERTEX
  8
gg1
 10
0.060000
 20
0.680000
  0
SEQEND
  8
gg1
  0
POLYLINE
  8
gg1
 62
1
 40
0.000000
 41
0.000000
 66
  1
  0
VERTEX
  8
gg1
 10
0.040000
 20
0.560000
  0
VERTEX
  8
gg1
 10
0.080000
 20
0.560000
  0
SEQEND
  8
gg1
  0
POLYLINE
  8
gg1
 62
1
 40
0.000000
 41
0.000000
 66
  1
  0
VERTEX
  8
gg1
 10
0.060000
 20
0.540000
  0
VERTEX
  8
gg1
 10
0.060000
 20
0.580000
  0
SEQEND
  8
gg1
  0
POLYLINE
  8
gg1
 62
1
 40
0.000000
 41
0.000000
 66
  1
  0
VERTEX
  8
gg1
 10
0.040000
 20
1.260000
  0
VERTEX
  8
gg1
 10
0.080000
 20
1.260000
  0
SEQEND
  8
gg1
  0
POLYLINE
  8
gg1
 62
1
 40
0.000000
 41
0.000000
 66
  1
  0
VERTEX
  8
gg1
 10
0.060000
 20
1.240000
  0
VERTEX
  8
gg1
 10
0.060000
 20
1.280000
  0
SEQEND
  8
gg1
  0
POLYLINE
  8
gg1
 62
1
 40
0.000000
 41
0.000000
 66
  1
  0
VERTEX
  8
gg1
 10
0.040000
 20
1.160000
  0
VERTEX
  8
gg1
 10
0.080000
 20
1.160000
  0
SEQEND
  8
gg1
  0
POLYLINE
  8
gg1
 62
1
 40
0.000000
 41
0.000000
 66
  1
  0
VERTEX
  8
gg1
 10
0.060000
 20
1.140000
  0
VERTEX
  8
gg1
 10
0.060000
 20
1.180000
  0
SEQEND
  8
gg1
  0
POLYLINE
  8
gg1
 62
1
 40
0.000000
 41
0.000000
 66
  1
  0
VERTEX
  8
gg1
 10
0.040000
 20
1.060000
  0
VERTEX
  8
gg1
 10
0.080000
 20
1.060000
  0
SEQEND
  8
gg1
  0
POLYLINE
  8
gg1
 62
1
 40
0.000000
 41
0.000000
 66
  1
  0
VERTEX
  8
gg1
 10
0.060000
 20
1.040000
  0
VERTEX
  8
gg1
 10
0.060000
 20
1.080000
  0
SEQEND
  8
gg1
  0
POLYLINE
  8
gg1
 62
1
 40
0.000000
 41
0.000000
 66
  1
  0
VERTEX
  8
gg1
 10
0.040000
 20
0.060000
  0
VERTEX
  8
gg1
 10
0.080000
 20
0.060000
  0
SEQEND
  8
gg1
  0
POLYLINE
  8
gg1
 62
1
 40
0.000000
 41
0.000000
 66
  1
  0
VERTEX
  8
gg1
 10
0.060000
 20
0.040000
  0
VERTEX
  8
gg1
 10
0.060000
 20
0.080000
  0
SEQEND
  8
gg1
  0
POLYLINE
  8
gg1
 62
1
 40
0.000000
 41
0.000000
 66
  1
  0
VERTEX
  8
gg1
 10
0.040000
 20
0.160000
  0
VERTEX
  8
gg1
 10
0.080000
 20
0.160000
  0
SEQEND
  8
gg1
  0
POLYLINE
  8
gg1
 62
1
 40
0.000000
 41
0.000000
 66
  1
  0
VERTEX
  8
gg1
 10
0.060000
 20
0.140000
  0
VERTEX
  8
gg1
 10
0.060000
 20
0.180000
  0
SEQEND
  8
gg1
  0
POLYLINE
  8
gg1
 62
1
 40
0.000000
 41
0.000000
 66
  1
  0
VERTEX
  8
gg1
 10
0.040000
 20
0.260000
  0
VERTEX
  8
gg1
 10
0.080000
 20
0.260000
  0
SEQEND
  8
gg1
  0
POLYLINE
  8
gg1
 62
1
 40
0.000000
 41
0.000000
 66
  1
  0
VERTEX
  8
gg1
 10
0.060000
 20
0.240000
  0
VERTEX
  8
gg1
 10
0.060000
 20
0.280000
  0
SEQEND
  8
gg1
  0
POLYLINE
  8
gg1
 62
1
 40
0.000000
 41
0.000000
 66
  1
  0
VERTEX
  8
gg1
 10
0.040000
 20
0.360000
  0
VERTEX
  8
gg1
 10
0.080000
 20
0.360000
  0
SEQEND
  8
gg1
  0
POLYLINE
  8
gg1
 62
1
 40
0.000000
 41
0.000000
 66
  1
  0
VERTEX
  8
gg1
 10
0.060000
 20
0.340000
  0
VERTEX
  8
gg1
 10
0.060000
 20
0.380000
  0
SEQEND
  8
gg1
  0
POLYLINE
  8
gg1
 62
1
 40
0.000000
 41
0.000000
 66
  1
  0
VERTEX
  8
gg1
 10
0.040000
 20
0.460000
  0
VERTEX
  8
gg1
 10
0.080000
 20
0.460000
  0
SEQEND
  8
gg1
  0
POLYLINE
  8
gg1
 62
1
 40
0.000000
 41
0.000000
 66
  1
  0
VERTEX
  8
gg1
 10
0.060000
 20
0.440000
  0
VERTEX
  8
gg1
 10
0.060000
 20
0.480000
  0
SEQEND
  8
gg1
  0
POLYLINE
  8
gg1
 62
1
 40
0.000000
 41
0.000000
 66
  1
  0
VERTEX
  8
gg1
 10
0.330000
 20
1.860000
  0
VERTEX
  8
gg1
 10
0.370000
 20
1.860000
  0
SEQEND
  8
gg1
  0
POLYLINE
  8
gg1
 62
1
 40
0.000000
 41
0.000000
 66
  1
  0
VERTEX
  8
gg1
 10
0.350000
 20
1.840000
  0
VERTEX
  8
gg1
 10
0.350000
 20
1.880000
  0
SEQEND
  8
gg1
  0
POLYLINE
  8
gg1
 62
1
 40
0.000000
 41
0.000000
 66
  1
  0
VERTEX
  8
gg1
 10
0.330000
 20
1.760000
  0
VERTEX
  8
gg1
 10
0.370000
 20
1.760000
  0
SEQEND
  8
gg1
  0
POLYLINE
  8
gg1
 62
1
 40
0.000000
 41
0.000000
 66
  1
  0
VERTEX
  8
gg1
 10
0.350000
 20
1.740000
  0
VERTEX
  8
gg1
 10
0.350000
 20
1.780000
  0
SEQEND
  8
gg1
  0
POLYLINE
  8
gg1
 62
1
 40
0.000000
 41
0.000000
 66
  1
  0
VERTEX
  8
gg1
 10
0.430000
 20
1.860000
  0
VERTEX
  8
gg1
 10
0.470000
 20
1.860000
  0
SEQEND
  8
gg1
  0
POLYLINE
  8
gg1
 62
1
 40
0.000000
 41
0.000000
 66
  1
  0
VERTEX
  8
gg1
 10
0.450000
 20
1.840000
  0
VERTEX
  8
gg1
 10
0.450000
 20
1.880000
  0
SEQEND
  8
gg1
  0
POLYLINE
  8
gg1
 62
1
 40
0.000000
 41
0.000000
 66
  1
  0
VERTEX
  8
gg1
 10
0.430000
 20
1.760000
  0
VERTEX
  8
gg1
 10
0.470000
 20
1.760000
  0
SEQEND
  8
gg1
  0
POLYLINE
  8
gg1
 62
1
 40
0.000000
 41
0.000000
 66
  1
  0
VERTEX
  8
gg1
 10
0.450000
 20
1.740000
  0
VERTEX
  8
gg1
 10
0.450000
 20
1.780000
  0
SEQEND
  8
gg1
  0
POLYLINE
  8
gg1
 62
1
 40
0.000000
 41
0.000000
 66
  1
  0
VERTEX
  8
gg1
 10
0.530000
 20
1.860000
  0
VERTEX
  8
gg1
 10
0.570000
 20
1.860000
  0
SEQEND
  8
gg1
  0
POLYLINE
  8
gg1
 62
1
 40
0.000000
 41
0.000000
 66
  1
  0
VERTEX
  8
gg1
 10
0.550000
 20
1.840000
  0
VERTEX
  8
gg1
 10
0.550000
 20
1.880000
  0
SEQEND
  8
gg1
  0
POLYLINE
  8
gg1
 62
1
 40
0.000000
 41
0.000000
 66
  1
  0
VERTEX
  8
gg1
 10
0.530000
 20
1.760000
  0
VERTEX
  8
gg1
 10
0.570000
 20
1.760000
  0
SEQEND
  8
gg1
  0
POLYLINE
  8
gg1
 62
1
 40
0.000000
 41
0.000000
 66
  1
  0
VERTEX
  8
gg1
 10
0.550000
 20
1.740000
  0
VERTEX
  8
gg1
 10
0.550000
 20
1.780000
  0
SEQEND
  8
gg1
  0
POLYLINE
  8
gg1
 62
1
 40
0.000000
 41
0.000000
 66
  1
  0
VERTEX
  8
gg1
 10
0.630000
 20
1.860000
  0
VERTEX
  8
gg1
 10
0.670000
 20
1.860000
  0
SEQEND
  8
gg1
  0
POLYLINE
  8
gg1
 62
1
 40
0.000000
 41
0.000000
 66
  1
  0
VERTEX
  8
gg1
 10
0.650000
 20
1.840000
  0
VERTEX
  8
gg1
 10
0.650000
 20
1.880000
  0
SEQEND
  8
gg1
  0
POLYLINE
  8
gg1
 62
1
 40
0.000000
 41
0.000000
 66
  1
  0
VERTEX
  8
gg1
 10
0.630000
 20
1.760000
  0
VERTEX
  8
gg1
 10
0.670000
 20
1.760000
  0
SEQEND
  8
gg1
  0
POLYLINE
  8
gg1
 62
1
 40
0.000000
 41
0.000000
 66
  1
  0
VERTEX
  8
gg1
 10
0.650000
 20
1.740000
  0
VERTEX
  8
gg1
 10
0.650000
 20
1.780000
  0
SEQEND
  8
gg1
  0
POLYLINE
  8
gg1
 62
1
 40
0.000000
 41
0.000000
 66
  1
  0
VERTEX
  8
gg1
 10
0.430000
 20
1.555000
  0
VERTEX
  8
gg1
 10
0.470000
 20
1.555000
  0
SEQEND
  8
gg1
  0
POLYLINE
  8
gg1
 62
1
 40
0.000000
 41
0.000000
 66
  1
  0
VERTEX
  8
gg1
 10
0.450000
 20
1.535000
  0
VERTEX
  8
gg1
 10
0.450000
 20
1.575000
  0
SEQEND
  8
gg1
  0
POLYLINE
  8
gg1
 62
1
 40
0.000000
 41
0.000000
 66
  1
  0
VERTEX
  8
gg1
 10
0.430000
 20
1.455000
  0
VERTEX
  8
gg1
 10
0.470000
 20
1.455000
  0
SEQEND
  8
gg1
  0
POLYLINE
  8
gg1
 62
1
 40
0.000000
 41
0.000000
 66
  1
  0
VERTEX
  8
gg1
 10
0.450000
 20
1.435000
  0
VERTEX
  8
gg1
 10
0.450000
 20
1.475000
  0
SEQEND
  8
gg1
  0
POLYLINE
  8
gg1
 62
1
 40
0.000000
 41
0.000000
 66
  1
  0
VERTEX
  8
gg1
 10
0.530000
 20
1.555000
  0
VERTEX
  8
gg1
 10
0.570000
 20
1.555000
  0
SEQEND
  8
gg1
  0
POLYLINE
  8
gg1
 62
1
 40
0.000000
 41
0.000000
 66
  1
  0
VERTEX
  8
gg1
 10
0.550000
 20
1.535000
  0
VERTEX
  8
gg1
 10
0.550000
 20
1.575000
  0
SEQEND
  8
gg1
  0
POLYLINE
  8
gg1
 62
1
 40
0.000000
 41
0.000000
 66
  1
  0
VERTEX
  8
gg1
 10
0.530000
 20
1.455000
  0
VERTEX
  8
gg1
 10
0.570000
 20
1.455000
  0
SEQEND
  8
gg1
  0
POLYLINE
  8
gg1
 62
1
 40
0.000000
 41
0.000000
 66
  1
  0
VERTEX
  8
gg1
 10
0.550000
 20
1.435000
  0
VERTEX
  8
gg1
 10
0.550000
 20
1.475000
  0
SEQEND
  8
gg1
  0
POLYLINE
  8
gg1
 62
1
 40
0.000000
 41
0.000000
 66
  1
  0
VERTEX
  8
gg1
 10
0.630000
 20
1.555000
  0
VERTEX
  8
gg1
 10
0.670000
 20
1.555000
  0
SEQEND
  8
gg1
  0
POLYLINE
  8
gg1
 62
1
 40
0.000000
 41
0.000000
 66
  1
  0
VERTEX
  8
gg1
 10
0.650000
 20
1.535000
  0
VERTEX
  8
gg1
 10
0.650000
 20
1.575000
  0
SEQEND
  8
gg1
  0
POLYLINE
  8
gg1
 62
1
 40
0.000000
 41
0.000000
 66
  1
  0
VERTEX
  8
gg1
 10
0.630000
 20
1.455000
  0
VERTEX
  8
gg1
 10
0.670000
 20
1.455000
  0
SEQEND
  8
gg1
  0
POLYLINE
  8
gg1
 62
1
 40
0.000000
 41
0.000000
 66
  1
  0
VERTEX
  8
gg1
 10
0.650000
 20
1.435000
  0
VERTEX
  8
gg1
 10
0.650000
 20
1.475000
  0
SEQEND
  8
gg1
  0
POLYLINE
  8
gg1
 62
1
 40
0.000000
 41
0.000000
 66
  1
  0
VERTEX
  8
gg1
 10
0.730000
 20
1.555000
  0
VERTEX
  8
gg1
 10
0.770000
 20
1.555000
  0
SEQEND
  8
gg1
  0
POLYLINE
  8
gg1
 62
1
 40
0.000000
 41
0.000000
 66
  1
  0
VERTEX
  8
gg1
 10
0.750000
 20
1.535000
  0
VERTEX
  8
gg1
 10
0.750000
 20
1.575000
  0
SEQEND
  8
gg1
  0
POLYLINE
  8
gg1
 62
1
 40
0.000000
 41
0.000000
 66
  1
  0
VERTEX
  8
gg1
 10
0.730000
 20
1.455000
  0
VERTEX
  8
gg1
 10
0.770000
 20
1.455000
  0
SEQEND
  8
gg1
  0
POLYLINE
  8
gg1
 62
1
 40
0.000000
 41
0.000000
 66
  1
  0
VERTEX
  8
gg1
 10
0.750000
 20
1.435000
  0
VERTEX
  8
gg1
 10
0.750000
 20
1.475000
  0
SEQEND
  8
gg1
  0
POLYLINE
  8
gg1
 62
1
 40
0.000000
 41
0.000000
 66
  1
  0
VERTEX
  8
gg1
 10
0.765000
 20
0.205000
  0
VERTEX
  8
gg1
 10
0.805000
 20
0.205000
  0
SEQEND
  8
gg1
  0
POLYLINE
  8
gg1
 62
1
 40
0.000000
 41
0.000000
 66
  1
  0
VERTEX
  8
gg1
 10
0.785000
 20
0.185000
  0
VERTEX
  8
gg1
 10
0.785000
 20
0.225000
  0
SEQEND
  8
gg1
  0
POLYLINE
  8
gg1
 62
1
 40
0.000000
 41
0.000000
 66
  1
  0
VERTEX
  8
gg1
 10
0.765000
 20
0.401800
  0
VERTEX
  8
gg1
 10
0.805000
 20
0.401800
  0
SEQEND
  8
gg1
  0
POLYLINE
  8
gg1
 62
1
 40
0.000000
 41
0.000000
 66
  1
  0
VERTEX
  8
gg1
 10
0.785000
 20
0.381900
  0
VERTEX
  8
gg1
 10
0.785000
 20
0.421800
  0
SEQEND
  8
gg1
  0
POLYLINE
  8
gg1
 62
1
 40
0.000000
 41
0.000000
 66
  1
  0
VERTEX
  8
gg1
 10
0.765000
 20
0.205000
  0
VERTEX
  8
gg1
 10
0.805000
 20
0.205000
  0
SEQEND
  8
gg1
  0
POLYLINE
  8
gg1
 62
1
 40
0.000000
 41
0.000000
 66
  1
  0
VERTEX
  8
gg1
 10
0.785000
 20
0.185000
  0
VERTEX
  8
gg1
 10
0.785000
 20
0.225000
  0
SEQEND
  8
gg1
  0
POLYLINE
  8
gg1
 62
1
 40
0.000000
 41
0.000000
 66
  1
  0
VERTEX
  8
gg1
 10
0.765000
 20
0.342800
  0
VERTEX
  8
gg1
 10
0.805000
 20
0.342800
  0
SEQEND
  8
gg1
  0
POLYLINE
  8
gg1
 62
1
 40
0.000000
 41
0.000000
 66
  1
  0
VERTEX
  8
gg1
 10
0.785000
 20
0.322800
  0
VERTEX
  8
gg1
 10
0.785000
 20
0.362800
  0
SEQEND
  8
gg1
  0
POLYLINE
  8
gg1
 62
1
 40
0.000000
 41
0.000000
 66
  1
  0
VERTEX
  8
gg1
 10
0.790000
 20
0.575000
  0
VERTEX
  8
gg1
 10
0.830000
 20
0.575000
  0
SEQEND
  8
gg1
  0
POLYLINE
  8
gg1
 62
1
 40
0.000000
 41
0.000000
 66
  1
  0
VERTEX
  8
gg1
 10
0.810000
 20
0.555000
  0
VERTEX
  8
gg1
 10
0.810000
 20
0.595000
  0
SEQEND
  8
gg1
  0
POLYLINE
  8
gg1
 62
1
 40
0.000000
 41
0.000000
 66
  1
  0
VERTEX
  8
gg1
 10
0.890000
 20
0.575000
  0
VERTEX
  8
gg1
 10
0.930000
 20
0.575000
  0
SEQEND
  8
gg1
  0
POLYLINE
  8
gg1
 62
1
 40
0.000000
 41
0.000000
 66
  1
  0
VERTEX
  8
gg1
 10
0.910000
 20
0.555000
  0
VERTEX
  8
gg1
 10
0.910000
 20
0.595000
  0
SEQEND
  8
gg1
  0
POLYLINE
  8
gg1
 62
1
 40
0.000000
 41
0.000000
 66
  1
  0
VERTEX
  8
gg1
 10
1.035000
 20
0.270000
  0
VERTEX
  8
gg1
 10
1.075000
 20
0.270000
  0
SEQEND
  8
gg1
  0
POLYLINE
  8
gg1
 62
1
 40
0.000000
 41
0.000000
 66
  1
  0
VERTEX
  8
gg1
 10
1.055000
 20
0.250000
  0
VERTEX
  8
gg1
 10
1.055000
 20
0.290000
  0
SEQEND
  8
gg1
  0
POLYLINE
  8
gg1
 62
1
 40
0.000000
 41
0.000000
 66
  1
  0
VERTEX
  8
gg1
 10
1.035000
 20
0.370000
  0
VERTEX
  8
gg1
 10
1.075000
 20
0.370000
  0
SEQEND
  8
gg1
  0
POLYLINE
  8
gg1
 62
1
 40
0.000000
 41
0.000000
 66
  1
  0
VERTEX
  8
gg1
 10
1.055000
 20
0.350000
  0
VERTEX
  8
gg1
 10
1.055000
 20
0.390000
  0
SEQEND
  8
gg1
  0
POLYLINE
  8
gg1
 62
1
 40
0.000000
 41
0.000000
 66
  1
  0
VERTEX
  8
gg1
 10
1.035000
 20
0.643100
  0
VERTEX
  8
gg1
 10
1.075000
 20
0.643100
  0
SEQEND
  8
gg1
  0
POLYLINE
  8
gg1
 62
1
 40
0.000000
 41
0.000000
 66
  1
  0
VERTEX
  8
gg1
 10
1.055000
 20
0.623100
  0
VERTEX
  8
gg1
 10
1.055000
 20
0.663100
  0
SEQEND
  8
gg1
  0
POLYLINE
  8
gg1
 62
1
 40
0.000000
 41
0.000000
 66
  1
  0
VERTEX
  8
gg1
 10
1.015000
 20
1.445000
  0
VERTEX
  8
gg1
 10
1.055000
 20
1.445000
  0
SEQEND
  8
gg1
  0
POLYLINE
  8
gg1
 62
1
 40
0.000000
 41
0.000000
 66
  1
  0
VERTEX
  8
gg1
 10
1.035000
 20
1.425000
  0
VERTEX
  8
gg1
 10
1.035000
 20
1.465000
  0
SEQEND
  8
gg1
  0
POLYLINE
  8
gg1
 62
1
 40
0.000000
 41
0.000000
 66
  1
  0
VERTEX
  8
gg1
 10
0.915000
 20
1.445000
  0
VERTEX
  8
gg1
 10
0.955000
 20
1.445000
  0
SEQEND
  8
gg1
  0
POLYLINE
  8
gg1
 62
1
 40
0.000000
 41
0.000000
 66
  1
  0
VERTEX
  8
gg1
 10
0.935000
 20
1.425000
  0
VERTEX
  8
gg1
 10
0.935000
 20
1.465000
  0
SEQEND
  8
gg1
  0
POLYLINE
  8
gg1
 62
1
 40
0.000000
 41
0.000000
 66
  1
  0
VERTEX
  8
gg1
 10
1.000000
 20
1.560000
  0
VERTEX
  8
gg1
 10
1.040000
 20
1.560000
  0
SEQEND
  8
gg1
  0
POLYLINE
  8
gg1
 62
1
 40
0.000000
 41
0.000000
 66
  1
  0
VERTEX
  8
gg1
 10
1.020000
 20
1.540000
  0
VERTEX
  8
gg1
 10
1.020000
 20
1.580000
  0
SEQEND
  8
gg1
  0
POLYLINE
  8
gg1
 62
1
 40
0.000000
 41
0.000000
 66
  1
  0
VERTEX
  8
gg1
 10
2.342000
 20
1.109500
  0
VERTEX
  8
gg1
 10
2.428000
 20
1.109500
  0
SEQEND
  8
gg1
  0
POLYLINE
  8
gg1
 62
1
 40
0.000000
 41
0.000000
 66
  1
  0
VERTEX
  8
gg1
 10
2.385000
 20
1.066500
  0
VERTEX
  8
gg1
 10
2.385000
 20
1.152500
  0
SEQEND
  8
gg1
  0
POLYLINE
  8
gg1
 62
1
 40
0.000000
 41
0.000000
 66
  1
  0
VERTEX
  8
gg1
 10
2.342000
 20
0.912700
  0
VERTEX
  8
gg1
 10
2.428000
 20
0.912700
  0
SEQEND
  8
gg1
  0
POLYLINE
  8
gg1
 62
1
 40
0.000000
 41
0.000000
 66
  1
  0
VERTEX
  8
gg1
 10
2.385000
 20
0.869700
  0
VERTEX
  8
gg1
 10
2.385000
 20
0.955700
  0
SEQEND
  8
gg1
  0
POLYLINE
  8
gg1
 62
1
 40
0.000000
 41
0.000000
 66
  1
  0
VERTEX
  8
gg1
 10
2.342000
 20
0.519000
  0
VERTEX
  8
gg1
 10
2.428000
 20
0.519000
  0
SEQEND
  8
gg1
  0
POLYLINE
  8
gg1
 62
1
 40
0.000000
 41
0.000000
 66
  1
  0
VERTEX
  8
gg1
 10
2.385000
 20
0.476000
  0
VERTEX
  8
gg1
 10
2.385000
 20
0.562000
  0
SEQEND
  8
gg1
  0
POLYLINE
  8
gg1
 62
1
 40
0.000000
 41
0.000000
 66
  1
  0
VERTEX
  8
gg1
 10
2.342000
 20
0.715800
  0
VERTEX
  8
gg1
 10
2.428000
 20
0.715800
  0
SEQEND
  8
gg1
  0
POLYLINE
  8
gg1
 62
1
 40
0.000000
 41
0.000000
 66
  1
  0
VERTEX
  8
gg1
 10
2.385000
 20
0.672800
  0
VERTEX
  8
gg1
 10
2.385000
 20
0.758800
  0
SEQEND
  8
gg1
  0
POLYLINE
  8
gg1
 62
1
 40
0.000000
 41
0.000000
 66
  1
  0
VERTEX
  8
gg1
 10
2.342000
 20
1.306400
  0
VERTEX
  8
gg1
 10
2.428000
 20
1.306400
  0
SEQEND
  8
gg1
  0
POLYLINE
  8
gg1
 62
1
 40
0.000000
 41
0.000000
 66
  1
  0
VERTEX
  8
gg1
 10
2.385000
 20
1.263400
  0
VERTEX
  8
gg1
 10
2.385000
 20
1.349400
  0
SEQEND
  8
gg1
  0
POLYLINE
  8
gg1
 62
1
 40
0.000000
 41
0.000000
 66
  1
  0
VERTEX
  8
gg1
 10
2.342000
 20
1.503200
  0
VERTEX
  8
gg1
 10
2.428000
 20
1.503200
  0
SEQEND
  8
gg1
  0
POLYLINE
  8
gg1
 62
1
 40
0.000000
 41
0.000000
 66
  1
  0
VERTEX
  8
gg1
 10
2.385000
 20
1.460200
  0
VERTEX
  8
gg1
 10
2.385000
 20
1.546200
  0
SEQEND
  8
gg1
  0
POLYLINE
  8
gg1
 62
1
 40
0.000000
 41
0.000000
 66
  1
  0
VERTEX
  8
gg1
 10
2.440000
 20
0.760000
  0
VERTEX
  8
gg1
 10
2.480000
 20
0.760000
  0
SEQEND
  8
gg1
  0
POLYLINE
  8
gg1
 62
1
 40
0.000000
 41
0.000000
 66
  1
  0
VERTEX
  8
gg1
 10
2.460000
 20
0.740000
  0
VERTEX
  8
gg1
 10
2.460000
 20
0.780000
  0
SEQEND
  8
gg1
  0
POLYLINE
  8
gg1
 62
1
 40
0.000000
 41
0.000000
 66
  1
  0
VERTEX
  8
gg1
 10
2.440000
 20
0.860000
  0
VERTEX
  8
gg1
 10
2.480000
 20
0.860000
  0
SEQEND
  8
gg1
  0
POLYLINE
  8
gg1
 62
1
 40
0.000000
 41
0.000000
 66
  1
  0
VERTEX
  8
gg1
 10
2.460000
 20
0.840000
  0
VERTEX
  8
gg1
 10
2.460000
 20
0.880000
  0
SEQEND
  8
gg1
  0
POLYLINE
  8
gg1
 62
1
 40
0.000000
 41
0.000000
 66
  1
  0
VERTEX
  8
gg1
 10
2.440000
 20
0.960000
  0
VERTEX
  8
gg1
 10
2.480000
 20
0.960000
  0
SEQEND
  8
gg1
  0
POLYLINE
  8
gg1
 62
1
 40
0.000000
 41
0.000000
 66
  1
  0
VERTEX
  8
gg1
 10
2.460000
 20
0.940000
  0
VERTEX
  8
gg1
 10
2.460000
 20
0.980000
  0
SEQEND
  8
gg1
  0
POLYLINE
  8
gg1
 62
1
 40
0.000000
 41
0.000000
 66
  1
  0
VERTEX
  8
gg1
 10
2.440000
 20
1.060000
  0
VERTEX
  8
gg1
 10
2.480000
 20
1.060000
  0
SEQEND
  8
gg1
  0
POLYLINE
  8
gg1
 62
1
 40
0.000000
 41
0.000000
 66
  1
  0
VERTEX
  8
gg1
 10
2.460000
 20
1.040000
  0
VERTEX
  8
gg1
 10
2.460000
 20
1.080000
  0
SEQEND
  8
gg1
  0
POLYLINE
  8
gg1
 62
1
 40
0.000000
 41
0.000000
 66
  1
  0
VERTEX
  8
gg1
 10
2.440000
 20
1.560000
  0
VERTEX
  8
gg1
 10
2.480000
 20
1.560000
  0
SEQEND
  8
gg1
  0
POLYLINE
  8
gg1
 62
1
 40
0.000000
 41
0.000000
 66
  1
  0
VERTEX
  8
gg1
 10
2.460000
 20
1.540000
  0
VERTEX
  8
gg1
 10
2.460000
 20
1.580000
  0
SEQEND
  8
gg1
  0
POLYLINE
  8
gg1
 62
1
 40
0.000000
 41
0.000000
 66
  1
  0
VERTEX
  8
gg1
 10
2.440000
 20
1.460000
  0
VERTEX
  8
gg1
 10
2.480000
 20
1.460000
  0
SEQEND
  8
gg1
  0
POLYLINE
  8
gg1
 62
1
 40
0.000000
 41
0.000000
 66
  1
  0
VERTEX
  8
gg1
 10
2.460000
 20
1.440000
  0
VERTEX
  8
gg1
 10
2.460000
 20
1.480000
  0
SEQEND
  8
gg1
  0
POLYLINE
  8
gg1
 62
1
 40
0.000000
 41
0.000000
 66
  1
  0
VERTEX
  8
gg1
 10
2.440000
 20
1.360000
  0
VERTEX
  8
gg1
 10
2.480000
 20
1.360000
  0
SEQEND
  8
gg1
  0
POLYLINE
  8
gg1
 62
1
 40
0.000000
 41
0.000000
 66
  1
  0
VERTEX
  8
gg1
 10
2.460000
 20
1.340000
  0
VERTEX
  8
gg1
 10
2.460000
 20
1.380000
  0
SEQEND
  8
gg1
  0
POLYLINE
  8
gg1
 62
1
 40
0.000000
 41
0.000000
 66
  1
  0
VERTEX
  8
gg1
 10
2.440000
 20
1.260000
  0
VERTEX
  8
gg1
 10
2.480000
 20
1.260000
  0
SEQEND
  8
gg1
  0
POLYLINE
  8
gg1
 62
1
 40
0.000000
 41
0.000000
 66
  1
  0
VERTEX
  8
gg1
 10
2.460000
 20
1.240000
  0
VERTEX
  8
gg1
 10
2.460000
 20
1.280000
  0
SEQEND
  8
gg1
  0
POLYLINE
  8
gg1
 62
1
 40
0.000000
 41
0.000000
 66
  1
  0
VERTEX
  8
gg1
 10
2.440000
 20
1.160000
  0
VERTEX
  8
gg1
 10
2.480000
 20
1.160000
  0
SEQEND
  8
gg1
  0
POLYLINE
  8
gg1
 62
1
 40
0.000000
 41
0.000000
 66
  1
  0
VERTEX
  8
gg1
 10
2.460000
 20
1.140000
  0
VERTEX
  8
gg1
 10
2.460000
 20
1.180000
  0
SEQEND
  8
gg1
  0
POLYLINE
  8
gg1
 62
1
 40
0.000000
 41
0.000000
 66
  1
  0
VERTEX
  8
gg1
 10
2.440000
 20
0.660000
  0
VERTEX
  8
gg1
 10
2.480000
 20
0.660000
  0
SEQEND
  8
gg1
  0
POLYLINE
  8
gg1
 62
1
 40
0.000000
 41
0.000000
 66
  1
  0
VERTEX
  8
gg1
 10
2.460000
 20
0.640000
  0
VERTEX
  8
gg1
 10
2.460000
 20
0.680000
  0
SEQEND
  8
gg1
  0
POLYLINE
  8
gg1
 62
1
 40
0.000000
 41
0.000000
 66
  1
  0
VERTEX
  8
gg1
 10
2.440000
 20
0.560000
  0
VERTEX
  8
gg1
 10
2.480000
 20
0.560000
  0
SEQEND
  8
gg1
  0
POLYLINE
  8
gg1
 62
1
 40
0.000000
 41
0.000000
 66
  1
  0
VERTEX
  8
gg1
 10
2.460000
 20
0.540000
  0
VERTEX
  8
gg1
 10
2.460000
 20
0.580000
  0
SEQEND
  8
gg1
  0
POLYLINE
  8
gg1
 62
1
 40
0.000000
 41
0.000000
 66
  1
  0
VERTEX
  8
gg1
 10
2.440000
 20
0.460000
  0
VERTEX
  8
gg1
 10
2.480000
 20
0.460000
  0
SEQEND
  8
gg1
  0
POLYLINE
  8
gg1
 62
1
 40
0.000000
 41
0.000000
 66
  1
  0
VERTEX
  8
gg1
 10
2.460000
 20
0.440000
  0
VERTEX
  8
gg1
 10
2.460000
 20
0.480000
  0
SEQEND
  8
gg1
  0
POLYLINE
  8
gg1
 62
1
 40
0.000000
 41
0.000000
 66
  1
  0
VERTEX
  8
gg1
 10
2.150000
 20
0.170000
  0
VERTEX
  8
gg1
 10
2.190000
 20
0.170000
  0
SEQEND
  8
gg1
  0
POLYLINE
  8
gg1
 62
1
 40
0.000000
 41
0.000000
 66
  1
  0
VERTEX
  8
gg1
 10
2.170000
 20
0.150000
  0
VERTEX
  8
gg1
 10
2.170000
 20
0.190000
  0
SEQEND
  8
gg1
  0
POLYLINE
  8
gg1
 62
1
 40
0.000000
 41
0.000000
 66
  1
  0
VERTEX
  8
gg1
 10
2.150000
 20
0.270000
  0
VERTEX
  8
gg1
 10
2.190000
 20
0.270000
  0
SEQEND
  8
gg1
  0
POLYLINE
  8
gg1
 62
1
 40
0.000000
 41
0.000000
 66
  1
  0
VERTEX
  8
gg1
 10
2.170000
 20
0.250000
  0
VERTEX
  8
gg1
 10
2.170000
 20
0.290000
  0
SEQEND
  8
gg1
  0
POLYLINE
  8
gg1
 62
1
 40
0.000000
 41
0.000000
 66
  1
  0
VERTEX
  8
gg1
 10
2.250000
 20
0.170000
  0
VERTEX
  8
gg1
 10
2.290000
 20
0.170000
  0
SEQEND
  8
gg1
  0
POLYLINE
  8
gg1
 62
1
 40
0.000000
 41
0.000000
 66
  1
  0
VERTEX
  8
gg1
 10
2.270000
 20
0.150000
  0
VERTEX
  8
gg1
 10
2.270000
 20
0.190000
  0
SEQEND
  8
gg1
  0
POLYLINE
  8
gg1
 62
1
 40
0.000000
 41
0.000000
 66
  1
  0
VERTEX
  8
gg1
 10
2.250000
 20
0.270000
  0
VERTEX
  8
gg1
 10
2.290000
 20
0.270000
  0
SEQEND
  8
gg1
  0
POLYLINE
  8
gg1
 62
1
 40
0.000000
 41
0.000000
 66
  1
  0
VERTEX
  8
gg1
 10
2.270000
 20
0.250000
  0
VERTEX
  8
gg1
 10
2.270000
 20
0.290000
  0
SEQEND
  8
gg1
  0
POLYLINE
  8
gg1
 62
1
 40
0.000000
 41
0.000000
 66
  1
  0
VERTEX
  8
gg1
 10
1.020000
 20
1.960000
  0
VERTEX
  8
gg1
 10
1.060000
 20
1.960000
  0
SEQEND
  8
gg1
  0
POLYLINE
  8
gg1
 62
1
 40
0.000000
 41
0.000000
 66
  1
  0
VERTEX
  8
gg1
 10
1.040000
 20
1.940000
  0
VERTEX
  8
gg1
 10
1.040000
 20
1.980000
  0
SEQEND
  8
gg1
  0
POLYLINE
  8
gg1
 62
1
 40
0.000000
 41
0.000000
 66
  1
  0
VERTEX
  8
gg1
 10
0.720000
 20
1.960000
  0
VERTEX
  8
gg1
 10
0.760000
 20
1.960000
  0
SEQEND
  8
gg1
  0
POLYLINE
  8
gg1
 62
1
 40
0.000000
 41
0.000000
 66
  1
  0
VERTEX
  8
gg1
 10
0.740000
 20
1.940000
  0
VERTEX
  8
gg1
 10
0.740000
 20
1.980000
  0
SEQEND
  8
gg1
  0
POLYLINE
  8
gg1
 62
1
 40
0.000000
 41
0.000000
 66
  1
  0
VERTEX
  8
gg1
 10
1.120000
 20
1.960000
  0
VERTEX
  8
gg1
 10
1.160000
 20
1.960000
  0
SEQEND
  8
gg1
  0
POLYLINE
  8
gg1
 62
1
 40
0.000000
 41
0.000000
 66
  1
  0
VERTEX
  8
gg1
 10
1.140000
 20
1.940000
  0
VERTEX
  8
gg1
 10
1.140000
 20
1.980000
  0
SEQEND
  8
gg1
  0
POLYLINE
  8
gg1
 62
1
 40
0.000000
 41
0.000000
 66
  1
  0
VERTEX
  8
gg1
 10
1.280000
 20
0.060000
  0
VERTEX
  8
gg1
 10
1.320000
 20
0.060000
  0
SEQEND
  8
gg1
  0
POLYLINE
  8
gg1
 62
1
 40
0.000000
 41
0.000000
 66
  1
  0
VERTEX
  8
gg1
 10
1.300000
 20
0.040000
  0
VERTEX
  8
gg1
 10
1.300000
 20
0.080000
  0
SEQEND
  8
gg1
  0
POLYLINE
  8
gg1
 62
1
 40
0.000000
 41
0.000000
 66
  1
  0
VERTEX
  8
gg1
 10
1.220000
 20
1.960000
  0
VERTEX
  8
gg1
 10
1.260000
 20
1.960000
  0
SEQEND
  8
gg1
  0
POLYLINE
  8
gg1
 62
1
 40
0.000000
 41
0.000000
 66
  1
  0
VERTEX
  8
gg1
 10
1.240000
 20
1.940000
  0
VERTEX
  8
gg1
 10
1.240000
 20
1.980000
  0
SEQEND
  8
gg1
  0
POLYLINE
  8
gg1
 62
1
 40
0.000000
 41
0.000000
 66
  1
  0
VERTEX
  8
gg1
 10
1.320000
 20
1.960000
  0
VERTEX
  8
gg1
 10
1.360000
 20
1.960000
  0
SEQEND
  8
gg1
  0
POLYLINE
  8
gg1
 62
1
 40
0.000000
 41
0.000000
 66
  1
  0
VERTEX
  8
gg1
 10
1.340000
 20
1.940000
  0
VERTEX
  8
gg1
 10
1.340000
 20
1.980000
  0
SEQEND
  8
gg1
  0
POLYLINE
  8
gg1
 62
1
 40
0.000000
 41
0.000000
 66
  1
  0
VERTEX
  8
gg1
 10
1.420000
 20
1.960000
  0
VERTEX
  8
gg1
 10
1.460000
 20
1.960000
  0
SEQEND
  8
gg1
  0
POLYLINE
  8
gg1
 62
1
 40
0.000000
 41
0.000000
 66
  1
  0
VERTEX
  8
gg1
 10
1.440000
 20
1.940000
  0
VERTEX
  8
gg1
 10
1.440000
 20
1.980000
  0
SEQEND
  8
gg1
  0
POLYLINE
  8
gg1
 62
1
 40
0.000000
 41
0.000000
 66
  1
  0
VERTEX
  8
gg1
 10
1.520000
 20
1.960000
  0
VERTEX
  8
gg1
 10
1.560000
 20
1.960000
  0
SEQEND
  8
gg1
  0
POLYLINE
  8
gg1
 62
1
 40
0.000000
 41
0.000000
 66
  1
  0
VERTEX
  8
gg1
 10
1.540000
 20
1.940000
  0
VERTEX
  8
gg1
 10
1.540000
 20
1.980000
  0
SEQEND
  8
gg1
  0
POLYLINE
  8
gg1
 62
1
 40
0.000000
 41
0.000000
 66
  1
  0
VERTEX
  8
gg1
 10
1.620000
 20
1.960000
  0
VERTEX
  8
gg1
 10
1.660000
 20
1.960000
  0
SEQEND
  8
gg1
  0
POLYLINE
  8
gg1
 62
1
 40
0.000000
 41
0.000000
 66
  1
  0
VERTEX
  8
gg1
 10
1.640000
 20
1.940000
  0
VERTEX
  8
gg1
 10
1.640000
 20
1.980000
  0
SEQEND
  8
gg1
  0
POLYLINE
  8
gg1
 62
1
 40
0.000000
 41
0.000000
 66
  1
  0
VERTEX
  8
gg1
 10
1.780000
 20
1.960000
  0
VERTEX
  8
gg1
 10
1.820000
 20
1.960000
  0
SEQEND
  8
gg1
  0
POLYLINE
  8
gg1
 62
1
 40
0.000000
 41
0.000000
 66
  1
  0
VERTEX
  8
gg1
 10
1.800000
 20
1.940000
  0
VERTEX
  8
gg1
 10
1.800000
 20
1.980000
  0
SEQEND
  8
gg1
  0
POLYLINE
  8
gg1
 62
1
 40
0.000000
 41
0.000000
 66
  1
  0
VERTEX
  8
gg1
 10
1.880000
 20
1.960000
  0
VERTEX
  8
gg1
 10
1.920000
 20
1.960000
  0
SEQEND
  8
gg1
  0
POLYLINE
  8
gg1
 62
1
 40
0.000000
 41
0.000000
 66
  1
  0
VERTEX
  8
gg1
 10
1.900000
 20
1.940000
  0
VERTEX
  8
gg1
 10
1.900000
 20
1.980000
  0
SEQEND
  8
gg1
  0
POLYLINE
  8
gg1
 62
1
 40
0.000000
 41
0.000000
 66
  1
  0
VERTEX
  8
gg1
 10
1.980000
 20
1.960000
  0
VERTEX
  8
gg1
 10
2.020000
 20
1.960000
  0
SEQEND
  8
gg1
  0
POLYLINE
  8
gg1
 62
1
 40
0.000000
 41
0.000000
 66
  1
  0
VERTEX
  8
gg1
 10
2.000000
 20
1.940000
  0
VERTEX
  8
gg1
 10
2.000000
 20
1.980000
  0
SEQEND
  8
gg1
  0
POLYLINE
  8
gg1
 62
1
 40
0.000000
 41
0.000000
 66
  1
  0
VERTEX
  8
gg1
 10
2.080000
 20
1.960000
  0
VERTEX
  8
gg1
 10
2.120000
 20
1.960000
  0
SEQEND
  8
gg1
  0
POLYLINE
  8
gg1
 62
1
 40
0.000000
 41
0.000000
 66
  1
  0
VERTEX
  8
gg1
 10
2.100000
 20
1.940000
  0
VERTEX
  8
gg1
 10
2.100000
 20
1.980000
  0
SEQEND
  8
gg1
  0
POLYLINE
  8
gg1
 62
1
 40
0.000000
 41
0.000000
 66
  1
  0
VERTEX
  8
gg1
 10
2.180000
 20
1.960000
  0
VERTEX
  8
gg1
 10
2.220000
 20
1.960000
  0
SEQEND
  8
gg1
  0
POLYLINE
  8
gg1
 62
1
 40
0.000000
 41
0.000000
 66
  1
  0
VERTEX
  8
gg1
 10
2.200000
 20
1.940000
  0
VERTEX
  8
gg1
 10
2.200000
 20
1.980000
  0
SEQEND
  8
gg1
  0
POLYLINE
  8
gg1
 62
1
 40
0.000000
 41
0.000000
 66
  1
  0
VERTEX
  8
gg1
 10
2.280000
 20
1.960000
  0
VERTEX
  8
gg1
 10
2.320000
 20
1.960000
  0
SEQEND
  8
gg1
  0
POLYLINE
  8
gg1
 62
1
 40
0.000000
 41
0.000000
 66
  1
  0
VERTEX
  8
gg1
 10
2.300000
 20
1.940000
  0
VERTEX
  8
gg1
 10
2.300000
 20
1.980000
  0
SEQEND
  8
gg1
  0
POLYLINE
  8
gg1
 62
1
 40
0.000000
 41
0.000000
 66
  1
  0
VERTEX
  8
gg1
 10
2.380000
 20
1.960000
  0
VERTEX
  8
gg1
 10
2.420000
 20
1.960000
  0
SEQEND
  8
gg1
  0
POLYLINE
  8
gg1
 62
1
 40
0.000000
 41
0.000000
 66
  1
  0
VERTEX
  8
gg1
 10
2.400000
 20
1.940000
  0
VERTEX
  8
gg1
 10
2.400000
 20
1.980000
  0
SEQEND
  8
gg1
  0
POLYLINE
  8
gg1
 62
1
 40
0.000000
 41
0.000000
 66
  1
  0
VERTEX
  8
gg1
 10
2.480000
 20
1.960000
  0
VERTEX
  8
gg1
 10
2.520000
 20
1.960000
  0
SEQEND
  8
gg1
  0
POLYLINE
  8
gg1
 62
1
 40
0.000000
 41
0.000000
 66
  1
  0
VERTEX
  8
gg1
 10
2.500000
 20
1.940000
  0
VERTEX
  8
gg1
 10
2.500000
 20
1.980000
  0
SEQEND
  8
gg1
  0
POLYLINE
  8
gg1
 62
1
 40
0.000000
 41
0.000000
 66
  1
  0
VERTEX
  8
gg1
 10
1.380000
 20
0.060000
  0
VERTEX
  8
gg1
 10
1.420000
 20
0.060000
  0
SEQEND
  8
gg1
  0
POLYLINE
  8
gg1
 62
1
 40
0.000000
 41
0.000000
 66
  1
  0
VERTEX
  8
gg1
 10
1.400000
 20
0.040000
  0
VERTEX
  8
gg1
 10
1.400000
 20
0.080000
  0
SEQEND
  8
gg1
  0
POLYLINE
  8
gg1
 62
1
 40
0.000000
 41
0.000000
 66
  1
  0
VERTEX
  8
gg1
 10
1.480000
 20
0.060000
  0
VERTEX
  8
gg1
 10
1.520000
 20
0.060000
  0
SEQEND
  8
gg1
  0
POLYLINE
  8
gg1
 62
1
 40
0.000000
 41
0.000000
 66
  1
  0
VERTEX
  8
gg1
 10
1.500000
 20
0.040000
  0
VERTEX
  8
gg1
 10
1.500000
 20
0.080000
  0
SEQEND
  8
gg1
  0
POLYLINE
  8
gg1
 62
1
 40
0.000000
 41
0.000000
 66
  1
  0
VERTEX
  8
gg1
 10
1.580000
 20
0.060000
  0
VERTEX
  8
gg1
 10
1.620000
 20
0.060000
  0
SEQEND
  8
gg1
  0
POLYLINE
  8
gg1
 62
1
 40
0.000000
 41
0.000000
 66
  1
  0
VERTEX
  8
gg1
 10
1.600000
 20
0.040000
  0
VERTEX
  8
gg1
 10
1.600000
 20
0.080000
  0
SEQEND
  8
gg1
  0
POLYLINE
  8
gg1
 62
1
 40
0.000000
 41
0.000000
 66
  1
  0
VERTEX
  8
gg1
 10
1.680000
 20
0.060000
  0
VERTEX
  8
gg1
 10
1.720000
 20
0.060000
  0
SEQEND
  8
gg1
  0
POLYLINE
  8
gg1
 62
1
 40
0.000000
 41
0.000000
 66
  1
  0
VERTEX
  8
gg1
 10
1.700000
 20
0.040000
  0
VERTEX
  8
gg1
 10
1.700000
 20
0.080000
  0
SEQEND
  8
gg1
  0
POLYLINE
  8
gg1
 62
1
 40
0.000000
 41
0.000000
 66
  1
  0
VERTEX
  8
gg1
 10
1.780000
 20
0.060000
  0
VERTEX
  8
gg1
 10
1.820000
 20
0.060000
  0
SEQEND
  8
gg1
  0
POLYLINE
  8
gg1
 62
1
 40
0.000000
 41
0.000000
 66
  1
  0
VERTEX
  8
gg1
 10
1.800000
 20
0.040000
  0
VERTEX
  8
gg1
 10
1.800000
 20
0.080000
  0
SEQEND
  8
gg1
  0
POLYLINE
  8
gg1
 62
1
 40
0.000000
 41
0.000000
 66
  1
  0
VERTEX
  8
gg1
 10
1.980000
 20
0.060000
  0
VERTEX
  8
gg1
 10
2.020000
 20
0.060000
  0
SEQEND
  8
gg1
  0
POLYLINE
  8
gg1
 62
1
 40
0.000000
 41
0.000000
 66
  1
  0
VERTEX
  8
gg1
 10
2.000000
 20
0.040000
  0
VERTEX
  8
gg1
 10
2.000000
 20
0.080000
  0
SEQEND
  8
gg1
  0
POLYLINE
  8
gg1
 62
1
 40
0.000000
 41
0.000000
 66
  1
  0
VERTEX
  8
gg1
 10
2.080000
 20
0.060000
  0
VERTEX
  8
gg1
 10
2.120000
 20
0.060000
  0
SEQEND
  8
gg1
  0
POLYLINE
  8
gg1
 62
1
 40
0.000000
 41
0.000000
 66
  1
  0
VERTEX
  8
gg1
 10
2.100000
 20
0.040000
  0
VERTEX
  8
gg1
 10
2.100000
 20
0.080000
  0
SEQEND
  8
gg1
  0
POLYLINE
  8
gg1
 62
1
 40
0.000000
 41
0.000000
 66
  1
  0
VERTEX
  8
gg1
 10
2.180000
 20
0.060000
  0
VERTEX
  8
gg1
 10
2.220000
 20
0.060000
  0
SEQEND
  8
gg1
  0
POLYLINE
  8
gg1
 62
1
 40
0.000000
 41
0.000000
 66
  1
  0
VERTEX
  8
gg1
 10
2.200000
 20
0.040000
  0
VERTEX
  8
gg1
 10
2.200000
 20
0.080000
  0
SEQEND
  8
gg1
  0
POLYLINE
  8
gg1
 62
1
 40
0.000000
 41
0.000000
 66
  1
  0
VERTEX
  8
gg1
 10
2.280000
 20
0.060000
  0
VERTEX
  8
gg1
 10
2.320000
 20
0.060000
  0
SEQEND
  8
gg1
  0
POLYLINE
  8
gg1
 62
1
 40
0.000000
 41
0.000000
 66
  1
  0
VERTEX
  8
gg1
 10
2.300000
 20
0.040000
  0
VERTEX
  8
gg1
 10
2.300000
 20
0.080000
  0
SEQEND
  8
gg1
  0
POLYLINE
  8
gg1
 62
1
 40
0.000000
 41
0.000000
 66
  1
  0
VERTEX
  8
gg1
 10
2.380000
 20
0.060000
  0
VERTEX
  8
gg1
 10
2.420000
 20
0.060000
  0
SEQEND
  8
gg1
  0
POLYLINE
  8
gg1
 62
1
 40
0.000000
 41
0.000000
 66
  1
  0
VERTEX
  8
gg1
 10
2.400000
 20
0.040000
  0
VERTEX
  8
gg1
 10
2.400000
 20
0.080000
  0
SEQEND
  8
gg1
  0
POLYLINE
  8
gg1
 62
1
 40
0.000000
 41
0.000000
 66
  1
  0
VERTEX
  8
gg1
 10
2.480000
 20
0.060000
  0
VERTEX
  8
gg1
 10
2.520000
 20
0.060000
  0
SEQEND
  8
gg1
  0
POLYLINE
  8
gg1
 62
1
 40
0.000000
 41
0.000000
 66
  1
  0
VERTEX
  8
gg1
 10
2.500000
 20
0.040000
  0
VERTEX
  8
gg1
 10
2.500000
 20
0.080000
  0
SEQEND
  8
gg1
  0
POLYLINE
  8
gg1
 62
1
 40
0.000000
 41
0.000000
 66
  1
  0
VERTEX
  8
gg1
 10
0.920000
 20
1.960000
  0
VERTEX
  8
gg1
 10
0.960000
 20
1.960000
  0
SEQEND
  8
gg1
  0
POLYLINE
  8
gg1
 62
1
 40
0.000000
 41
0.000000
 66
  1
  0
VERTEX
  8
gg1
 10
0.940000
 20
1.940000
  0
VERTEX
  8
gg1
 10
0.940000
 20
1.980000
  0
SEQEND
  8
gg1
  0
POLYLINE
  8
gg1
 62
1
 40
0.000000
 41
0.000000
 66
  1
  0
VERTEX
  8
gg1
 10
0.820000
 20
1.960000
  0
VERTEX
  8
gg1
 10
0.860000
 20
1.960000
  0
SEQEND
  8
gg1
  0
POLYLINE
  8
gg1
 62
1
 40
0.000000
 41
0.000000
 66
  1
  0
VERTEX
  8
gg1
 10
0.840000
 20
1.940000
  0
VERTEX
  8
gg1
 10
0.840000
 20
1.980000
  0
SEQEND
  8
gg1
  0
POLYLINE
  8
gg1
 62
1
 40
0.000000
 41
0.000000
 66
  1
  0
VERTEX
  8
gg1
 10
1.080000
 20
0.060000
  0
VERTEX
  8
gg1
 10
1.120000
 20
0.060000
  0
SEQEND
  8
gg1
  0
POLYLINE
  8
gg1
 62
1
 40
0.000000
 41
0.000000
 66
  1
  0
VERTEX
  8
gg1
 10
1.100000
 20
0.040000
  0
VERTEX
  8
gg1
 10
1.100000
 20
0.080000
  0
SEQEND
  8
gg1
  0
POLYLINE
  8
gg1
 62
1
 40
0.000000
 41
0.000000
 66
  1
  0
VERTEX
  8
gg1
 10
1.180000
 20
0.060000
  0
VERTEX
  8
gg1
 10
1.220000
 20
0.060000
  0
SEQEND
  8
gg1
  0
POLYLINE
  8
gg1
 62
1
 40
0.000000
 41
0.000000
 66
  1
  0
VERTEX
  8
gg1
 10
1.200000
 20
0.040000
  0
VERTEX
  8
gg1
 10
1.200000
 20
0.080000
  0
SEQEND
  8
gg1
  0
POLYLINE
  8
gg1
 62
1
 40
0.000000
 41
0.000000
 66
  1
  0
VERTEX
  8
gg1
 10
1.942500
 20
1.010000
  0
VERTEX
  8
gg1
 10
1.957500
 20
1.010000
  0
SEQEND
  8
gg1
  0
POLYLINE
  8
gg1
 62
1
 40
0.000000
 41
0.000000
 66
  1
  0
VERTEX
  8
gg1
 10
1.950000
 20
1.002500
  0
VERTEX
  8
gg1
 10
1.950000
 20
1.017500
  0
SEQEND
  8
gg1
  0
POLYLINE
  8
gg1
 62
1
 40
0.000000
 41
0.000000
 66
  1
  0
VERTEX
  8
gg1
 10
1.997500
 20
1.010000
  0
VERTEX
  8
gg1
 10
2.012500
 20
1.010000
  0
SEQEND
  8
gg1
  0
POLYLINE
  8
gg1
 62
1
 40
0.000000
 41
0.000000
 66
  1
  0
VERTEX
  8
gg1
 10
2.005000
 20
1.002500
  0
VERTEX
  8
gg1
 10
2.005000
 20
1.017500
  0
SEQEND
  8
gg1
  0
POLYLINE
  8
gg1
 62
1
 40
0.000000
 41
0.000000
 66
  1
  0
VERTEX
  8
gg1
 10
1.962500
 20
1.040000
  0
VERTEX
  8
gg1
 10
1.977500
 20
1.040000
  0
SEQEND
  8
gg1
  0
POLYLINE
  8
gg1
 62
1
 40
0.000000
 41
0.000000
 66
  1
  0
VERTEX
  8
gg1
 10
1.970000
 20
1.032500
  0
VERTEX
  8
gg1
 10
1.970000
 20
1.047500
  0
SEQEND
  8
gg1
  0
POLYLINE
  8
gg1
 62
1
 40
0.000000
 41
0.000000
 66
  1
  0
VERTEX
  8
gg1
 10
1.922500
 20
1.040000
  0
VERTEX
  8
gg1
 10
1.937500
 20
1.040000
  0
SEQEND
  8
gg1
  0
POLYLINE
  8
gg1
 62
1
 40
0.000000
 41
0.000000
 66
  1
  0
VERTEX
  8
gg1
 10
1.930000
 20
1.032500
  0
VERTEX
  8
gg1
 10
1.930000
 20
1.047500
  0
SEQEND
  8
gg1
  0
POLYLINE
  8
gg1
 62
1
 40
0.000000
 41
0.000000
 66
  1
  0
VERTEX
  8
gg1
 10
1.902500
 20
1.010000
  0
VERTEX
  8
gg1
 10
1.917500
 20
1.010000
  0
SEQEND
  8
gg1
  0
POLYLINE
  8
gg1
 62
1
 40
0.000000
 41
0.000000
 66
  1
  0
VERTEX
  8
gg1
 10
1.910000
 20
1.002500
  0
VERTEX
  8
gg1
 10
1.910000
 20
1.017500
  0
SEQEND
  8
gg1
  0
POLYLINE
  8
gg1
 62
1
 40
0.000000
 41
0.000000
 66
  1
  0
VERTEX
  8
gg1
 10
1.142500
 20
1.396900
  0
VERTEX
  8
gg1
 10
1.157500
 20
1.396900
  0
SEQEND
  8
gg1
  0
POLYLINE
  8
gg1
 62
1
 40
0.000000
 41
0.000000
 66
  1
  0
VERTEX
  8
gg1
 10
1.150000
 20
1.389400
  0
VERTEX
  8
gg1
 10
1.150000
 20
1.404400
  0
SEQEND
  8
gg1
  0
POLYLINE
  8
gg1
 62
1
 40
0.000000
 41
0.000000
 66
  1
  0
VERTEX
  8
gg1
 10
1.532500
 20
1.320000
  0
VERTEX
  8
gg1
 10
1.547500
 20
1.320000
  0
SEQEND
  8
gg1
  0
POLYLINE
  8
gg1
 62
1
 40
0.000000
 41
0.000000
 66
  1
  0
VERTEX
  8
gg1
 10
1.540000
 20
1.312500
  0
VERTEX
  8
gg1
 10
1.540000
 20
1.327500
  0
SEQEND
  8
gg1
  0
POLYLINE
  8
gg1
 62
1
 40
0.000000
 41
0.000000
 66
  1
  0
VERTEX
  8
gg1
 10
1.007500
 20
1.065000
  0
VERTEX
  8
gg1
 10
1.022500
 20
1.065000
  0
SEQEND
  8
gg1
  0
POLYLINE
  8
gg1
 62
1
 40
0.000000
 41
0.000000
 66
  1
  0
VERTEX
  8
gg1
 10
1.015000
 20
1.057500
  0
VERTEX
  8
gg1
 10
1.015000
 20
1.072500
  0
SEQEND
  8
gg1
  0
POLYLINE
  8
gg1
 62
1
 40
0.000000
 41
0.000000
 66
  1
  0
VERTEX
  8
gg1
 10
1.107500
 20
1.025000
  0
VERTEX
  8
gg1
 10
1.122500
 20
1.025000
  0
SEQEND
  8
gg1
  0
POLYLINE
  8
gg1
 62
1
 40
0.000000
 41
0.000000
 66
  1
  0
VERTEX
  8
gg1
 10
1.115000
 20
1.017500
  0
VERTEX
  8
gg1
 10
1.115000
 20
1.032500
  0
SEQEND
  8
gg1
  0
POLYLINE
  8
gg1
 62
1
 40
0.000000
 41
0.000000
 66
  1
  0
VERTEX
  8
gg1
 10
1.107500
 20
1.065000
  0
VERTEX
  8
gg1
 10
1.122500
 20
1.065000
  0
SEQEND
  8
gg1
  0
POLYLINE
  8
gg1
 62
1
 40
0.000000
 41
0.000000
 66
  1
  0
VERTEX
  8
gg1
 10
1.115000
 20
1.057500
  0
VERTEX
  8
gg1
 10
1.115000
 20
1.072500
  0
SEQEND
  8
gg1
  0
POLYLINE
  8
gg1
 62
1
 40
0.000000
 41
0.000000
 66
  1
  0
VERTEX
  8
gg1
 10
1.072500
 20
0.885000
  0
VERTEX
  8
gg1
 10
1.087500
 20
0.885000
  0
SEQEND
  8
gg1
  0
POLYLINE
  8
gg1
 62
1
 40
0.000000
 41
0.000000
 66
  1
  0
VERTEX
  8
gg1
 10
1.080000
 20
0.877500
  0
VERTEX
  8
gg1
 10
1.080000
 20
0.892500
  0
SEQEND
  8
gg1
  0
POLYLINE
  8
gg1
 62
1
 40
0.000000
 41
0.000000
 66
  1
  0
VERTEX
  8
gg1
 10
1.107500
 20
1.105000
  0
VERTEX
  8
gg1
 10
1.122500
 20
1.105000
  0
SEQEND
  8
gg1
  0
POLYLINE
  8
gg1
 62
1
 40
0.000000
 41
0.000000
 66
  1
  0
VERTEX
  8
gg1
 10
1.115000
 20
1.097500
  0
VERTEX
  8
gg1
 10
1.115000
 20
1.112500
  0
SEQEND
  8
gg1
  0
POLYLINE
  8
gg1
 62
1
 40
0.000000
 41
0.000000
 66
  1
  0
VERTEX
  8
gg1
 10
0.242500
 20
0.510000
  0
VERTEX
  8
gg1
 10
0.257500
 20
0.510000
  0
SEQEND
  8
gg1
  0
POLYLINE
  8
gg1
 62
1
 40
0.000000
 41
0.000000
 66
  1
  0
VERTEX
  8
gg1
 10
0.250000
 20
0.502500
  0
VERTEX
  8
gg1
 10
0.250000
 20
0.517500
  0
SEQEND
  8
gg1
  0
POLYLINE
  8
gg1
 62
1
 40
0.000000
 41
0.000000
 66
  1
  0
VERTEX
  8
gg1
 10
0.116500
 20
1.115000
  0
VERTEX
  8
gg1
 10
0.131500
 20
1.115000
  0
SEQEND
  8
gg1
  0
POLYLINE
  8
gg1
 62
1
 40
0.000000
 41
0.000000
 66
  1
  0
VERTEX
  8
gg1
 10
0.124000
 20
1.107500
  0
VERTEX
  8
gg1
 10
0.124000
 20
1.122500
  0
SEQEND
  8
gg1
  0
POLYLINE
  8
gg1
 62
1
 40
0.000000
 41
0.000000
 66
  1
  0
VERTEX
  8
gg1
 10
0.202500
 20
0.510000
  0
VERTEX
  8
gg1
 10
0.217500
 20
0.510000
  0
SEQEND
  8
gg1
  0
POLYLINE
  8
gg1
 62
1
 40
0.000000
 41
0.000000
 66
  1
  0
VERTEX
  8
gg1
 10
0.210000
 20
0.502500
  0
VERTEX
  8
gg1
 10
0.210000
 20
0.517500
  0
SEQEND
  8
gg1
  0
POLYLINE
  8
gg1
 62
1
 40
0.000000
 41
0.000000
 66
  1
  0
VERTEX
  8
gg1
 10
0.262500
 20
0.595000
  0
VERTEX
  8
gg1
 10
0.277500
 20
0.595000
  0
SEQEND
  8
gg1
  0
POLYLINE
  8
gg1
 62
1
 40
0.000000
 41
0.000000
 66
  1
  0
VERTEX
  8
gg1
 10
0.270000
 20
0.587500
  0
VERTEX
  8
gg1
 10
0.270000
 20
0.602500
  0
SEQEND
  8
gg1
  0
POLYLINE
  8
gg1
 62
1
 40
0.000000
 41
0.000000
 66
  1
  0
VERTEX
  8
gg1
 10
0.467500
 20
0.455000
  0
VERTEX
  8
gg1
 10
0.482500
 20
0.455000
  0
SEQEND
  8
gg1
  0
POLYLINE
  8
gg1
 62
1
 40
0.000000
 41
0.000000
 66
  1
  0
VERTEX
  8
gg1
 10
0.475000
 20
0.447500
  0
VERTEX
  8
gg1
 10
0.475000
 20
0.462500
  0
SEQEND
  8
gg1
  0
POLYLINE
  8
gg1
 62
1
 40
0.000000
 41
0.000000
 66
  1
  0
VERTEX
  8
gg1
 10
0.477500
 20
1.970000
  0
VERTEX
  8
gg1
 10
0.492500
 20
1.970000
  0
SEQEND
  8
gg1
  0
POLYLINE
  8
gg1
 62
1
 40
0.000000
 41
0.000000
 66
  1
  0
VERTEX
  8
gg1
 10
0.485000
 20
1.962500
  0
VERTEX
  8
gg1
 10
0.485000
 20
1.977500
  0
SEQEND
  8
gg1
  0
POLYLINE
  8
gg1
 62
1
 40
0.000000
 41
0.000000
 66
  1
  0
VERTEX
  8
gg1
 10
0.832500
 20
1.630000
  0
VERTEX
  8
gg1
 10
0.847500
 20
1.630000
  0
SEQEND
  8
gg1
  0
POLYLINE
  8
gg1
 62
1
 40
0.000000
 41
0.000000
 66
  1
  0
VERTEX
  8
gg1
 10
0.840000
 20
1.622500
  0
VERTEX
  8
gg1
 10
0.840000
 20
1.637500
  0
SEQEND
  8
gg1
  0
POLYLINE
  8
gg1
 62
1
 40
0.000000
 41
0.000000
 66
  1
  0
VERTEX
  8
gg1
 10
0.797600
 20
1.700000
  0
VERTEX
  8
gg1
 10
0.812600
 20
1.700000
  0
SEQEND
  8
gg1
  0
POLYLINE
  8
gg1
 62
1
 40
0.000000
 41
0.000000
 66
  1
  0
VERTEX
  8
gg1
 10
0.805100
 20
1.692500
  0
VERTEX
  8
gg1
 10
0.805100
 20
1.707500
  0
SEQEND
  8
gg1
  0
POLYLINE
  8
gg1
 62
1
 40
0.000000
 41
0.000000
 66
  1
  0
VERTEX
  8
gg1
 10
1.962500
 20
1.100000
  0
VERTEX
  8
gg1
 10
1.977500
 20
1.100000
  0
SEQEND
  8
gg1
  0
POLYLINE
  8
gg1
 62
1
 40
0.000000
 41
0.000000
 66
  1
  0
VERTEX
  8
gg1
 10
1.970000
 20
1.092500
  0
VERTEX
  8
gg1
 10
1.970000
 20
1.107500
  0
SEQEND
  8
gg1
  0
POLYLINE
  8
gg1
 62
1
 40
0.000000
 41
0.000000
 66
  1
  0
VERTEX
  8
gg1
 10
1.922500
 20
1.100000
  0
VERTEX
  8
gg1
 10
1.937500
 20
1.100000
  0
SEQEND
  8
gg1
  0
POLYLINE
  8
gg1
 62
1
 40
0.000000
 41
0.000000
 66
  1
  0
VERTEX
  8
gg1
 10
1.930000
 20
1.092500
  0
VERTEX
  8
gg1
 10
1.930000
 20
1.107500
  0
SEQEND
  8
gg1
  0
POLYLINE
  8
gg1
 62
1
 40
0.000000
 41
0.000000
 66
  1
  0
VERTEX
  8
gg1
 10
1.962500
 20
0.980000
  0
VERTEX
  8
gg1
 10
1.977500
 20
0.980000
  0
SEQEND
  8
gg1
  0
POLYLINE
  8
gg1
 62
1
 40
0.000000
 41
0.000000
 66
  1
  0
VERTEX
  8
gg1
 10
1.970000
 20
0.972500
  0
VERTEX
  8
gg1
 10
1.970000
 20
0.987500
  0
SEQEND
  8
gg1
  0
POLYLINE
  8
gg1
 62
1
 40
0.000000
 41
0.000000
 66
  1
  0
VERTEX
  8
gg1
 10
2.387500
 20
1.190000
  0
VERTEX
  8
gg1
 10
2.402500
 20
1.190000
  0
SEQEND
  8
gg1
  0
POLYLINE
  8
gg1
 62
1
 40
0.000000
 41
0.000000
 66
  1
  0
VERTEX
  8
gg1
 10
2.395000
 20
1.182500
  0
VERTEX
  8
gg1
 10
2.395000
 20
1.197500
  0
SEQEND
  8
gg1
  0
POLYLINE
  8
gg1
 62
1
 40
0.000000
 41
0.000000
 66
  1
  0
VERTEX
  8
gg1
 10
2.327500
 20
1.190000
  0
VERTEX
  8
gg1
 10
2.342500
 20
1.190000
  0
SEQEND
  8
gg1
  0
POLYLINE
  8
gg1
 62
1
 40
0.000000
 41
0.000000
 66
  1
  0
VERTEX
  8
gg1
 10
2.335000
 20
1.182500
  0
VERTEX
  8
gg1
 10
2.335000
 20
1.197500
  0
SEQEND
  8
gg1
  0
POLYLINE
  8
gg1
 62
1
 40
0.000000
 41
0.000000
 66
  1
  0
VERTEX
  8
gg1
 10
1.057400
 20
1.700000
  0
VERTEX
  8
gg1
 10
1.072400
 20
1.700000
  0
SEQEND
  8
gg1
  0
POLYLINE
  8
gg1
 62
1
 40
0.000000
 41
0.000000
 66
  1
  0
VERTEX
  8
gg1
 10
1.064900
 20
1.692500
  0
VERTEX
  8
gg1
 10
1.064900
 20
1.707500
  0
SEQEND
  8
gg1
  0
POLYLINE
  8
gg1
 62
1
 40
0.000000
 41
0.000000
 66
  1
  0
VERTEX
  8
gg1
 10
0.992500
 20
1.700000
  0
VERTEX
  8
gg1
 10
1.007500
 20
1.700000
  0
SEQEND
  8
gg1
  0
POLYLINE
  8
gg1
 62
1
 40
0.000000
 41
0.000000
 66
  1
  0
VERTEX
  8
gg1
 10
1.000000
 20
1.692500
  0
VERTEX
  8
gg1
 10
1.000000
 20
1.707500
  0
SEQEND
  8
gg1
  0
POLYLINE
  8
gg1
 62
1
 40
0.000000
 41
0.000000
 66
  1
  0
VERTEX
  8
gg1
 10
0.446500
 20
0.479000
  0
VERTEX
  8
gg1
 10
0.461500
 20
0.479000
  0
SEQEND
  8
gg1
  0
POLYLINE
  8
gg1
 62
1
 40
0.000000
 41
0.000000
 66
  1
  0
VERTEX
  8
gg1
 10
0.454000
 20
0.471500
  0
VERTEX
  8
gg1
 10
0.454000
 20
0.486500
  0
SEQEND
  8
gg1
  0
POLYLINE
  8
gg1
 62
1
 40
0.000000
 41
0.000000
 66
  1
  0
VERTEX
  8
gg1
 10
0.672500
 20
0.155000
  0
VERTEX
  8
gg1
 10
0.687500
 20
0.155000
  0
SEQEND
  8
gg1
  0
POLYLINE
  8
gg1
 62
1
 40
0.000000
 41
0.000000
 66
  1
  0
VERTEX
  8
gg1
 10
0.680000
 20
0.147500
  0
VERTEX
  8
gg1
 10
0.680000
 20
0.162500
  0
SEQEND
  8
gg1
  0
POLYLINE
  8
gg1
 62
1
 40
0.000000
 41
0.000000
 66
  1
  0
VERTEX
  8
gg1
 10
0.672500
 20
0.215000
  0
VERTEX
  8
gg1
 10
0.687500
 20
0.215000
  0
SEQEND
  8
gg1
  0
POLYLINE
  8
gg1
 62
1
 40
0.000000
 41
0.000000
 66
  1
  0
VERTEX
  8
gg1
 10
0.680000
 20
0.207500
  0
VERTEX
  8
gg1
 10
0.680000
 20
0.222500
  0
SEQEND
  8
gg1
  0
POLYLINE
  8
gg1
 62
1
 40
0.000000
 41
0.000000
 66
  1
  0
VERTEX
  8
gg1
 10
0.712500
 20
0.185000
  0
VERTEX
  8
gg1
 10
0.727500
 20
0.185000
  0
SEQEND
  8
gg1
  0
POLYLINE
  8
gg1
 62
1
 40
0.000000
 41
0.000000
 66
  1
  0
VERTEX
  8
gg1
 10
0.720000
 20
0.177500
  0
VERTEX
  8
gg1
 10
0.720000
 20
0.192500
  0
SEQEND
  8
gg1
  0
POLYLINE
  8
gg1
 62
1
 40
0.000000
 41
0.000000
 66
  1
  0
VERTEX
  8
gg1
 10
0.712500
 20
0.125000
  0
VERTEX
  8
gg1
 10
0.727500
 20
0.125000
  0
SEQEND
  8
gg1
  0
POLYLINE
  8
gg1
 62
1
 40
0.000000
 41
0.000000
 66
  1
  0
VERTEX
  8
gg1
 10
0.720000
 20
0.117500
  0
VERTEX
  8
gg1
 10
0.720000
 20
0.132500
  0
SEQEND
  8
gg1
  0
POLYLINE
  8
gg1
 62
1
 40
0.000000
 41
0.000000
 66
  1
  0
VERTEX
  8
gg1
 10
0.887500
 20
0.170000
  0
VERTEX
  8
gg1
 10
0.902500
 20
0.170000
  0
SEQEND
  8
gg1
  0
POLYLINE
  8
gg1
 62
1
 40
0.000000
 41
0.000000
 66
  1
  0
VERTEX
  8
gg1
 10
0.895000
 20
0.162500
  0
VERTEX
  8
gg1
 10
0.895000
 20
0.177500
  0
SEQEND
  8
gg1
  0
POLYLINE
  8
gg1
 62
1
 40
0.000000
 41
0.000000
 66
  1
  0
VERTEX
  8
gg1
 10
0.862500
 20
0.230000
  0
VERTEX
  8
gg1
 10
0.877500
 20
0.230000
  0
SEQEND
  8
gg1
  0
POLYLINE
  8
gg1
 62
1
 40
0.000000
 41
0.000000
 66
  1
  0
VERTEX
  8
gg1
 10
0.870000
 20
0.222500
  0
VERTEX
  8
gg1
 10
0.870000
 20
0.237500
  0
SEQEND
  8
gg1
  0
POLYLINE
  8
gg1
 62
1
 40
0.000000
 41
0.000000
 66
  1
  0
VERTEX
  8
gg1
 10
0.942500
 20
0.195000
  0
VERTEX
  8
gg1
 10
0.957500
 20
0.195000
  0
SEQEND
  8
gg1
  0
POLYLINE
  8
gg1
 62
1
 40
0.000000
 41
0.000000
 66
  1
  0
VERTEX
  8
gg1
 10
0.950000
 20
0.187500
  0
VERTEX
  8
gg1
 10
0.950000
 20
0.202500
  0
SEQEND
  8
gg1
  0
POLYLINE
  8
gg1
 62
1
 40
0.000000
 41
0.000000
 66
  1
  0
VERTEX
  8
gg1
 10
0.862500
 20
0.440000
  0
VERTEX
  8
gg1
 10
0.877500
 20
0.440000
  0
SEQEND
  8
gg1
  0
POLYLINE
  8
gg1
 62
1
 40
0.000000
 41
0.000000
 66
  1
  0
VERTEX
  8
gg1
 10
0.870000
 20
0.432500
  0
VERTEX
  8
gg1
 10
0.870000
 20
0.447500
  0
SEQEND
  8
gg1
  0
POLYLINE
  8
gg1
 62
1
 40
0.000000
 41
0.000000
 66
  1
  0
VERTEX
  8
gg1
 10
0.927500
 20
0.395000
  0
VERTEX
  8
gg1
 10
0.942500
 20
0.395000
  0
SEQEND
  8
gg1
  0
POLYLINE
  8
gg1
 62
1
 40
0.000000
 41
0.000000
 66
  1
  0
VERTEX
  8
gg1
 10
0.935000
 20
0.387500
  0
VERTEX
  8
gg1
 10
0.935000
 20
0.402500
  0
SEQEND
  8
gg1
  0
POLYLINE
  8
gg1
 62
1
 40
0.000000
 41
0.000000
 66
  1
  0
VERTEX
  8
gg1
 10
0.927500
 20
0.350000
  0
VERTEX
  8
gg1
 10
0.942500
 20
0.350000
  0
SEQEND
  8
gg1
  0
POLYLINE
  8
gg1
 62
1
 40
0.000000
 41
0.000000
 66
  1
  0
VERTEX
  8
gg1
 10
0.935000
 20
0.342500
  0
VERTEX
  8
gg1
 10
0.935000
 20
0.357500
  0
SEQEND
  8
gg1
  0
POLYLINE
  8
gg1
 62
1
 40
0.000000
 41
0.000000
 66
  1
  0
VERTEX
  8
gg1
 10
0.927500
 20
0.305000
  0
VERTEX
  8
gg1
 10
0.942500
 20
0.305000
  0
SEQEND
  8
gg1
  0
POLYLINE
  8
gg1
 62
1
 40
0.000000
 41
0.000000
 66
  1
  0
VERTEX
  8
gg1
 10
0.935000
 20
0.297500
  0
VERTEX
  8
gg1
 10
0.935000
 20
0.312500
  0
SEQEND
  8
gg1
  0
POLYLINE
  8
gg1
 62
1
 40
0.000000
 41
0.000000
 66
  1
  0
VERTEX
  8
gg1
 10
0.742500
 20
0.295000
  0
VERTEX
  8
gg1
 10
0.757500
 20
0.295000
  0
SEQEND
  8
gg1
  0
POLYLINE
  8
gg1
 62
1
 40
0.000000
 41
0.000000
 66
  1
  0
VERTEX
  8
gg1
 10
0.750000
 20
0.287500
  0
VERTEX
  8
gg1
 10
0.750000
 20
0.302500
  0
SEQEND
  8
gg1
  0
POLYLINE
  8
gg1
 62
1
 40
0.000000
 41
0.000000
 66
  1
  0
VERTEX
  8
gg1
 10
0.717500
 20
0.330000
  0
VERTEX
  8
gg1
 10
0.732500
 20
0.330000
  0
SEQEND
  8
gg1
  0
POLYLINE
  8
gg1
 62
1
 40
0.000000
 41
0.000000
 66
  1
  0
VERTEX
  8
gg1
 10
0.725000
 20
0.322500
  0
VERTEX
  8
gg1
 10
0.725000
 20
0.337500
  0
SEQEND
  8
gg1
  0
POLYLINE
  8
gg1
 62
1
 40
0.000000
 41
0.000000
 66
  1
  0
VERTEX
  8
gg1
 10
1.105500
 20
0.445000
  0
VERTEX
  8
gg1
 10
1.120500
 20
0.445000
  0
SEQEND
  8
gg1
  0
POLYLINE
  8
gg1
 62
1
 40
0.000000
 41
0.000000
 66
  1
  0
VERTEX
  8
gg1
 10
1.113000
 20
0.437500
  0
VERTEX
  8
gg1
 10
1.113000
 20
0.452500
  0
SEQEND
  8
gg1
  0
POLYLINE
  8
gg1
 62
1
 40
0.000000
 41
0.000000
 66
  1
  0
VERTEX
  8
gg1
 10
0.342500
 20
1.065000
  0
VERTEX
  8
gg1
 10
0.357500
 20
1.065000
  0
SEQEND
  8
gg1
  0
POLYLINE
  8
gg1
 62
1
 40
0.000000
 41
0.000000
 66
  1
  0
VERTEX
  8
gg1
 10
0.350000
 20
1.057500
  0
VERTEX
  8
gg1
 10
0.350000
 20
1.072500
  0
SEQEND
  8
gg1
  0
POLYLINE
  8
gg1
 62
1
 40
0.000000
 41
0.000000
 66
  1
  0
VERTEX
  8
gg1
 10
0.937500
 20
1.660000
  0
VERTEX
  8
gg1
 10
0.952500
 20
1.660000
  0
SEQEND
  8
gg1
  0
POLYLINE
  8
gg1
 62
1
 40
0.000000
 41
0.000000
 66
  1
  0
VERTEX
  8
gg1
 10
0.945000
 20
1.652500
  0
VERTEX
  8
gg1
 10
0.945000
 20
1.667500
  0
SEQEND
  8
gg1
  0
POLYLINE
  8
gg1
 62
1
 40
0.000000
 41
0.000000
 66
  1
  0
VERTEX
  8
gg1
 10
0.937500
 20
1.700000
  0
VERTEX
  8
gg1
 10
0.952500
 20
1.700000
  0
SEQEND
  8
gg1
  0
POLYLINE
  8
gg1
 62
1
 40
0.000000
 41
0.000000
 66
  1
  0
VERTEX
  8
gg1
 10
0.945000
 20
1.692500
  0
VERTEX
  8
gg1
 10
0.945000
 20
1.707500
  0
SEQEND
  8
gg1
  0
POLYLINE
  8
gg1
 62
1
 40
0.000000
 41
0.000000
 66
  1
  0
VERTEX
  8
gg1
 10
0.937500
 20
1.740000
  0
VERTEX
  8
gg1
 10
0.952500
 20
1.740000
  0
SEQEND
  8
gg1
  0
POLYLINE
  8
gg1
 62
1
 40
0.000000
 41
0.000000
 66
  1
  0
VERTEX
  8
gg1
 10
0.945000
 20
1.732500
  0
VERTEX
  8
gg1
 10
0.945000
 20
1.747500
  0
SEQEND
  8
gg1
  0
POLYLINE
  8
gg1
 62
1
 40
0.000000
 41
0.000000
 66
  1
  0
VERTEX
  8
gg1
 10
0.937500
 20
1.780000
  0
VERTEX
  8
gg1
 10
0.952500
 20
1.780000
  0
SEQEND
  8
gg1
  0
POLYLINE
  8
gg1
 62
1
 40
0.000000
 41
0.000000
 66
  1
  0
VERTEX
  8
gg1
 10
0.945000
 20
1.772500
  0
VERTEX
  8
gg1
 10
0.945000
 20
1.787500
  0
SEQEND
  8
gg1
  0
POLYLINE
  8
gg1
 62
1
 40
0.000000
 41
0.000000
 66
  1
  0
VERTEX
  8
gg1
 10
0.777500
 20
0.125000
  0
VERTEX
  8
gg1
 10
0.792500
 20
0.125000
  0
SEQEND
  8
gg1
  0
POLYLINE
  8
gg1
 62
1
 40
0.000000
 41
0.000000
 66
  1
  0
VERTEX
  8
gg1
 10
0.785000
 20
0.117500
  0
VERTEX
  8
gg1
 10
0.785000
 20
0.132500
  0
SEQEND
  8
gg1
  0
POLYLINE
  8
gg1
 62
1
 40
0.000000
 41
0.000000
 66
  1
  0
VERTEX
  8
gg1
 10
0.256500
 20
1.727000
  0
VERTEX
  8
gg1
 10
0.271500
 20
1.727000
  0
SEQEND
  8
gg1
  0
POLYLINE
  8
gg1
 62
1
 40
0.000000
 41
0.000000
 66
  1
  0
VERTEX
  8
gg1
 10
0.264000
 20
1.719500
  0
VERTEX
  8
gg1
 10
0.264000
 20
1.734500
  0
SEQEND
  8
gg1
  0
POLYLINE
  8
gg1
 62
1
 40
0.000000
 41
0.000000
 66
  1
  0
VERTEX
  8
gg1
 10
0.044500
 20
1.493000
  0
VERTEX
  8
gg1
 10
0.059500
 20
1.493000
  0
SEQEND
  8
gg1
  0
POLYLINE
  8
gg1
 62
1
 40
0.000000
 41
0.000000
 66
  1
  0
VERTEX
  8
gg1
 10
0.052000
 20
1.485500
  0
VERTEX
  8
gg1
 10
0.052000
 20
1.500500
  0
SEQEND
  8
gg1
  0
POLYLINE
  8
gg1
 62
1
 40
0.000000
 41
0.000000
 66
  1
  0
VERTEX
  8
gg1
 10
0.288500
 20
1.630000
  0
VERTEX
  8
gg1
 10
0.303500
 20
1.630000
  0
SEQEND
  8
gg1
  0
POLYLINE
  8
gg1
 62
1
 40
0.000000
 41
0.000000
 66
  1
  0
VERTEX
  8
gg1
 10
0.296000
 20
1.622500
  0
VERTEX
  8
gg1
 10
0.296000
 20
1.637500
  0
SEQEND
  8
gg1
  0
POLYLINE
  8
gg1
 62
1
 40
0.000000
 41
0.000000
 66
  1
  0
VERTEX
  8
gg1
 10
0.657500
 20
1.695000
  0
VERTEX
  8
gg1
 10
0.672500
 20
1.695000
  0
SEQEND
  8
gg1
  0
POLYLINE
  8
gg1
 62
1
 40
0.000000
 41
0.000000
 66
  1
  0
VERTEX
  8
gg1
 10
0.665000
 20
1.687500
  0
VERTEX
  8
gg1
 10
0.665000
 20
1.702500
  0
SEQEND
  8
gg1
  0
POLYLINE
  8
gg1
 62
1
 40
0.000000
 41
0.000000
 66
  1
  0
VERTEX
  8
gg1
 10
0.302500
 20
0.760000
  0
VERTEX
  8
gg1
 10
0.317500
 20
0.760000
  0
SEQEND
  8
gg1
  0
POLYLINE
  8
gg1
 62
1
 40
0.000000
 41
0.000000
 66
  1
  0
VERTEX
  8
gg1
 10
0.310000
 20
0.752500
  0
VERTEX
  8
gg1
 10
0.310000
 20
0.767500
  0
SEQEND
  8
gg1
  0
POLYLINE
  8
gg1
 62
1
 40
0.000000
 41
0.000000
 66
  1
  0
VERTEX
  8
gg1
 10
0.322500
 20
0.850000
  0
VERTEX
  8
gg1
 10
0.337500
 20
0.850000
  0
SEQEND
  8
gg1
  0
POLYLINE
  8
gg1
 62
1
 40
0.000000
 41
0.000000
 66
  1
  0
VERTEX
  8
gg1
 10
0.330000
 20
0.842500
  0
VERTEX
  8
gg1
 10
0.330000
 20
0.857500
  0
SEQEND
  8
gg1
  0
POLYLINE
  8
gg1
 62
1
 40
0.000000
 41
0.000000
 66
  1
  0
VERTEX
  8
gg1
 10
0.377500
 20
1.005000
  0
VERTEX
  8
gg1
 10
0.392500
 20
1.005000
  0
SEQEND
  8
gg1
  0
POLYLINE
  8
gg1
 62
1
 40
0.000000
 41
0.000000
 66
  1
  0
VERTEX
  8
gg1
 10
0.385000
 20
0.997500
  0
VERTEX
  8
gg1
 10
0.385000
 20
1.012500
  0
SEQEND
  8
gg1
  0
POLYLINE
  8
gg1
 62
1
 40
0.000000
 41
0.000000
 66
  1
  0
VERTEX
  8
gg1
 10
0.242500
 20
0.822000
  0
VERTEX
  8
gg1
 10
0.257500
 20
0.822000
  0
SEQEND
  8
gg1
  0
POLYLINE
  8
gg1
 62
1
 40
0.000000
 41
0.000000
 66
  1
  0
VERTEX
  8
gg1
 10
0.250000
 20
0.814500
  0
VERTEX
  8
gg1
 10
0.250000
 20
0.829500
  0
SEQEND
  8
gg1
  0
POLYLINE
  8
gg1
 62
1
 40
0.000000
 41
0.000000
 66
  1
  0
VERTEX
  8
gg1
 10
0.297500
 20
0.930000
  0
VERTEX
  8
gg1
 10
0.312500
 20
0.930000
  0
SEQEND
  8
gg1
  0
POLYLINE
  8
gg1
 62
1
 40
0.000000
 41
0.000000
 66
  1
  0
VERTEX
  8
gg1
 10
0.305000
 20
0.922500
  0
VERTEX
  8
gg1
 10
0.305000
 20
0.937500
  0
SEQEND
  8
gg1
  0
POLYLINE
  8
gg1
 62
1
 40
0.000000
 41
0.000000
 66
  1
  0
VERTEX
  8
gg1
 10
0.465000
 20
1.072000
  0
VERTEX
  8
gg1
 10
0.485000
 20
1.072000
  0
SEQEND
  8
gg1
  0
POLYLINE
  8
gg1
 62
1
 40
0.000000
 41
0.000000
 66
  1
  0
VERTEX
  8
gg1
 10
0.475000
 20
1.062000
  0
VERTEX
  8
gg1
 10
0.475000
 20
1.082000
  0
SEQEND
  8
gg1
  0
POLYLINE
  8
gg1
 62
1
 40
0.000000
 41
0.000000
 66
  1
  0
VERTEX
  8
gg1
 10
0.442000
 20
1.040000
  0
VERTEX
  8
gg1
 10
0.462000
 20
1.040000
  0
SEQEND
  8
gg1
  0
POLYLINE
  8
gg1
 62
1
 40
0.000000
 41
0.000000
 66
  1
  0
VERTEX
  8
gg1
 10
0.452000
 20
1.030000
  0
VERTEX
  8
gg1
 10
0.452000
 20
1.050000
  0
SEQEND
  8
gg1
  0
POLYLINE
  8
gg1
 62
1
 40
0.000000
 41
0.000000
 66
  1
  0
VERTEX
  8
gg1
 10
0.682500
 20
0.795000
  0
VERTEX
  8
gg1
 10
0.697500
 20
0.795000
  0
SEQEND
  8
gg1
  0
POLYLINE
  8
gg1
 62
1
 40
0.000000
 41
0.000000
 66
  1
  0
VERTEX
  8
gg1
 10
0.690000
 20
0.787500
  0
VERTEX
  8
gg1
 10
0.690000
 20
0.802500
  0
SEQEND
  8
gg1
  0
POLYLINE
  8
gg1
 62
1
 40
0.000000
 41
0.000000
 66
  1
  0
VERTEX
  8
gg1
 10
0.507500
 20
0.865000
  0
VERTEX
  8
gg1
 10
0.522500
 20
0.865000
  0
SEQEND
  8
gg1
  0
POLYLINE
  8
gg1
 62
1
 40
0.000000
 41
0.000000
 66
  1
  0
VERTEX
  8
gg1
 10
0.515000
 20
0.857500
  0
VERTEX
  8
gg1
 10
0.515000
 20
0.872500
  0
SEQEND
  8
gg1
  0
POLYLINE
  8
gg1
 62
1
 40
0.000000
 41
0.000000
 66
  1
  0
VERTEX
  8
gg1
 10
0.542500
 20
0.835000
  0
VERTEX
  8
gg1
 10
0.557500
 20
0.835000
  0
SEQEND
  8
gg1
  0
POLYLINE
  8
gg1
 62
1
 40
0.000000
 41
0.000000
 66
  1
  0
VERTEX
  8
gg1
 10
0.550000
 20
0.827500
  0
VERTEX
  8
gg1
 10
0.550000
 20
0.842500
  0
SEQEND
  8
gg1
  0
POLYLINE
  8
gg1
 62
1
 40
0.000000
 41
0.000000
 66
  1
  0
VERTEX
  8
gg1
 10
0.272500
 20
0.105000
  0
VERTEX
  8
gg1
 10
0.287500
 20
0.105000
  0
SEQEND
  8
gg1
  0
POLYLINE
  8
gg1
 62
1
 40
0.000000
 41
0.000000
 66
  1
  0
VERTEX
  8
gg1
 10
0.280000
 20
0.097500
  0
VERTEX
  8
gg1
 10
0.280000
 20
0.112500
  0
SEQEND
  8
gg1
  0
POLYLINE
  8
gg1
 62
1
 40
0.000000
 41
0.000000
 66
  1
  0
VERTEX
  8
gg1
 10
0.162500
 20
0.105000
  0
VERTEX
  8
gg1
 10
0.177500
 20
0.105000
  0
SEQEND
  8
gg1
  0
POLYLINE
  8
gg1
 62
1
 40
0.000000
 41
0.000000
 66
  1
  0
VERTEX
  8
gg1
 10
0.170000
 20
0.097500
  0
VERTEX
  8
gg1
 10
0.170000
 20
0.112500
  0
SEQEND
  8
gg1
  0
POLYLINE
  8
gg1
 62
1
 40
0.000000
 41
0.000000
 66
  1
  0
VERTEX
  8
gg1
 10
0.342500
 20
0.405000
  0
VERTEX
  8
gg1
 10
0.357500
 20
0.405000
  0
SEQEND
  8
gg1
  0
POLYLINE
  8
gg1
 62
1
 40
0.000000
 41
0.000000
 66
  1
  0
VERTEX
  8
gg1
 10
0.350000
 20
0.397500
  0
VERTEX
  8
gg1
 10
0.350000
 20
0.412500
  0
SEQEND
  8
gg1
  0
POLYLINE
  8
gg1
 62
1
 40
0.000000
 41
0.000000
 66
  1
  0
VERTEX
  8
gg1
 10
0.372500
 20
0.360000
  0
VERTEX
  8
gg1
 10
0.387500
 20
0.360000
  0
SEQEND
  8
gg1
  0
POLYLINE
  8
gg1
 62
1
 40
0.000000
 41
0.000000
 66
  1
  0
VERTEX
  8
gg1
 10
0.380000
 20
0.352500
  0
VERTEX
  8
gg1
 10
0.380000
 20
0.367500
  0
SEQEND
  8
gg1
  0
POLYLINE
  8
gg1
 62
1
 40
0.000000
 41
0.000000
 66
  1
  0
VERTEX
  8
gg1
 10
2.501500
 20
0.710000
  0
VERTEX
  8
gg1
 10
2.516500
 20
0.710000
  0
SEQEND
  8
gg1
  0
POLYLINE
  8
gg1
 62
1
 40
0.000000
 41
0.000000
 66
  1
  0
VERTEX
  8
gg1
 10
2.509000
 20
0.702500
  0
VERTEX
  8
gg1
 10
2.509000
 20
0.717500
  0
SEQEND
  8
gg1
  0
POLYLINE
  8
gg1
 62
1
 40
0.000000
 41
0.000000
 66
  1
  0
VERTEX
  8
gg1
 10
2.502500
 20
1.310000
  0
VERTEX
  8
gg1
 10
2.517500
 20
1.310000
  0
SEQEND
  8
gg1
  0
POLYLINE
  8
gg1
 62
1
 40
0.000000
 41
0.000000
 66
  1
  0
VERTEX
  8
gg1
 10
2.510000
 20
1.302500
  0
VERTEX
  8
gg1
 10
2.510000
 20
1.317500
  0
SEQEND
  8
gg1
  0
POLYLINE
  8
gg1
 62
1
 40
0.000000
 41
0.000000
 66
  1
  0
VERTEX
  8
gg1
 10
2.347500
 20
1.660000
  0
VERTEX
  8
gg1
 10
2.362500
 20
1.660000
  0
SEQEND
  8
gg1
  0
POLYLINE
  8
gg1
 62
1
 40
0.000000
 41
0.000000
 66
  1
  0
VERTEX
  8
gg1
 10
2.355000
 20
1.652500
  0
VERTEX
  8
gg1
 10
2.355000
 20
1.667500
  0
SEQEND
  8
gg1
  0
POLYLINE
  8
gg1
 62
1
 40
0.000000
 41
0.000000
 66
  1
  0
VERTEX
  8
gg1
 10
0.517500
 20
0.645000
  0
VERTEX
  8
gg1
 10
0.532500
 20
0.645000
  0
SEQEND
  8
gg1
  0
POLYLINE
  8
gg1
 62
1
 40
0.000000
 41
0.000000
 66
  1
  0
VERTEX
  8
gg1
 10
0.525000
 20
0.637500
  0
VERTEX
  8
gg1
 10
0.525000
 20
0.652500
  0
SEQEND
  8
gg1
  0
POLYLINE
  8
gg1
 62
1
 40
0.000000
 41
0.000000
 66
  1
  0
VERTEX
  8
gg1
 10
1.017500
 20
1.250000
  0
VERTEX
  8
gg1
 10
1.032500
 20
1.250000
  0
SEQEND
  8
gg1
  0
POLYLINE
  8
gg1
 62
1
 40
0.000000
 41
0.000000
 66
  1
  0
VERTEX
  8
gg1
 10
1.025000
 20
1.242500
  0
VERTEX
  8
gg1
 10
1.025000
 20
1.257500
  0
SEQEND
  8
gg1
  0
POLYLINE
  8
gg1
 62
1
 40
0.000000
 41
0.000000
 66
  1
  0
VERTEX
  8
gg1
 10
0.557500
 20
1.385000
  0
VERTEX
  8
gg1
 10
0.572500
 20
1.385000
  0
SEQEND
  8
gg1
  0
POLYLINE
  8
gg1
 62
1
 40
0.000000
 41
0.000000
 66
  1
  0
VERTEX
  8
gg1
 10
0.565000
 20
1.377500
  0
VERTEX
  8
gg1
 10
0.565000
 20
1.392500
  0
SEQEND
  8
gg1
  0
POLYLINE
  8
gg1
 62
1
 40
0.000000
 41
0.000000
 66
  1
  0
VERTEX
  8
gg1
 10
0.932500
 20
0.670000
  0
VERTEX
  8
gg1
 10
0.947500
 20
0.670000
  0
SEQEND
  8
gg1
  0
POLYLINE
  8
gg1
 62
1
 40
0.000000
 41
0.000000
 66
  1
  0
VERTEX
  8
gg1
 10
0.940000
 20
0.662500
  0
VERTEX
  8
gg1
 10
0.940000
 20
0.677500
  0
SEQEND
  8
gg1
  0
POLYLINE
  8
gg1
 62
1
 40
0.000000
 41
0.000000
 66
  1
  0
VERTEX
  8
gg1
 10
0.462500
 20
0.760000
  0
VERTEX
  8
gg1
 10
0.477500
 20
0.760000
  0
SEQEND
  8
gg1
  0
POLYLINE
  8
gg1
 62
1
 40
0.000000
 41
0.000000
 66
  1
  0
VERTEX
  8
gg1
 10
0.470000
 20
0.752500
  0
VERTEX
  8
gg1
 10
0.470000
 20
0.767500
  0
SEQEND
  8
gg1
  0
POLYLINE
  8
gg1
 62
1
 40
0.000000
 41
0.000000
 66
  1
  0
VERTEX
  8
gg1
 10
1.144500
 20
0.445000
  0
VERTEX
  8
gg1
 10
1.159500
 20
0.445000
  0
SEQEND
  8
gg1
  0
POLYLINE
  8
gg1
 62
1
 40
0.000000
 41
0.000000
 66
  1
  0
VERTEX
  8
gg1
 10
1.152000
 20
0.437500
  0
VERTEX
  8
gg1
 10
1.152000
 20
0.452500
  0
SEQEND
  8
gg1
  0
POLYLINE
  8
gg1
 62
1
 40
0.000000
 41
0.000000
 66
  1
  0
VERTEX
  8
gg1
 10
0.872500
 20
1.370000
  0
VERTEX
  8
gg1
 10
0.887500
 20
1.370000
  0
SEQEND
  8
gg1
  0
POLYLINE
  8
gg1
 62
1
 40
0.000000
 41
0.000000
 66
  1
  0
VERTEX
  8
gg1
 10
0.880000
 20
1.362500
  0
VERTEX
  8
gg1
 10
0.880000
 20
1.377500
  0
SEQEND
  8
gg1
  0
POLYLINE
  8
gg1
 62
1
 40
0.000000
 41
0.000000
 66
  1
  0
VERTEX
  8
gg1
 10
1.132500
 20
0.605000
  0
VERTEX
  8
gg1
 10
1.147500
 20
0.605000
  0
SEQEND
  8
gg1
  0
POLYLINE
  8
gg1
 62
1
 40
0.000000
 41
0.000000
 66
  1
  0
VERTEX
  8
gg1
 10
1.140000
 20
0.597500
  0
VERTEX
  8
gg1
 10
1.140000
 20
0.612500
  0
SEQEND
  8
gg1
  0
POLYLINE
  8
gg1
 62
1
 40
0.000000
 41
0.000000
 66
  1
  0
VERTEX
  8
gg1
 10
1.117500
 20
1.555000
  0
VERTEX
  8
gg1
 10
1.132500
 20
1.555000
  0
SEQEND
  8
gg1
  0
POLYLINE
  8
gg1
 62
1
 40
0.000000
 41
0.000000
 66
  1
  0
VERTEX
  8
gg1
 10
1.125000
 20
1.547500
  0
VERTEX
  8
gg1
 10
1.125000
 20
1.562500
  0
SEQEND
  8
gg1
  0
POLYLINE
  8
gg1
 62
1
 40
0.000000
 41
0.000000
 66
  1
  0
VERTEX
  8
gg1
 10
1.240000
 20
1.278800
  0
VERTEX
  8
gg1
 10
1.260000
 20
1.278800
  0
SEQEND
  8
gg1
  0
POLYLINE
  8
gg1
 62
1
 40
0.000000
 41
0.000000
 66
  1
  0
VERTEX
  8
gg1
 10
1.250000
 20
1.268800
  0
VERTEX
  8
gg1
 10
1.250000
 20
1.288800
  0
SEQEND
  8
gg1
  0
POLYLINE
  8
gg1
 62
1
 40
0.000000
 41
0.000000
 66
  1
  0
VERTEX
  8
gg1
 10
1.007500
 20
0.975000
  0
VERTEX
  8
gg1
 10
1.022500
 20
0.975000
  0
SEQEND
  8
gg1
  0
POLYLINE
  8
gg1
 62
1
 40
0.000000
 41
0.000000
 66
  1
  0
VERTEX
  8
gg1
 10
1.015000
 20
0.967500
  0
VERTEX
  8
gg1
 10
1.015000
 20
0.982500
  0
SEQEND
  8
gg1
  0
POLYLINE
  8
gg1
 62
1
 40
0.000000
 41
0.000000
 66
  1
  0
VERTEX
  8
gg1
 10
0.817500
 20
0.640000
  0
VERTEX
  8
gg1
 10
0.832500
 20
0.640000
  0
SEQEND
  8
gg1
  0
POLYLINE
  8
gg1
 62
1
 40
0.000000
 41
0.000000
 66
  1
  0
VERTEX
  8
gg1
 10
0.825000
 20
0.632500
  0
VERTEX
  8
gg1
 10
0.825000
 20
0.647500
  0
SEQEND
  8
gg1
  0
POLYLINE
  8
gg1
 62
1
 40
0.000000
 41
0.000000
 66
  1
  0
VERTEX
  8
gg1
 10
0.807500
 20
1.055000
  0
VERTEX
  8
gg1
 10
0.822500
 20
1.055000
  0
SEQEND
  8
gg1
  0
POLYLINE
  8
gg1
 62
1
 40
0.000000
 41
0.000000
 66
  1
  0
VERTEX
  8
gg1
 10
0.815000
 20
1.047500
  0
VERTEX
  8
gg1
 10
0.815000
 20
1.062500
  0
SEQEND
  8
gg1
  0
POLYLINE
  8
gg1
 62
1
 40
0.000000
 41
0.000000
 66
  1
  0
VERTEX
  8
gg1
 10
2.012500
 20
0.200000
  0
VERTEX
  8
gg1
 10
2.027500
 20
0.200000
  0
SEQEND
  8
gg1
  0
POLYLINE
  8
gg1
 62
1
 40
0.000000
 41
0.000000
 66
  1
  0
VERTEX
  8
gg1
 10
2.020000
 20
0.192500
  0
VERTEX
  8
gg1
 10
2.020000
 20
0.207500
  0
SEQEND
  8
gg1
  0
POLYLINE
  8
gg1
 62
1
 40
0.000000
 41
0.000000
 66
  1
  0
VERTEX
  8
gg1
 10
0.462500
 20
1.305000
  0
VERTEX
  8
gg1
 10
0.477500
 20
1.305000
  0
SEQEND
  8
gg1
  0
POLYLINE
  8
gg1
 62
1
 40
0.000000
 41
0.000000
 66
  1
  0
VERTEX
  8
gg1
 10
0.470000
 20
1.297500
  0
VERTEX
  8
gg1
 10
0.470000
 20
1.312500
  0
SEQEND
  8
gg1
  0
POLYLINE
  8
gg1
 62
1
 40
0.000000
 41
0.000000
 66
  1
  0
VERTEX
  8
gg1
 10
0.532500
 20
1.120000
  0
VERTEX
  8
gg1
 10
0.547500
 20
1.120000
  0
SEQEND
  8
gg1
  0
POLYLINE
  8
gg1
 62
1
 40
0.000000
 41
0.000000
 66
  1
  0
VERTEX
  8
gg1
 10
0.540000
 20
1.112500
  0
VERTEX
  8
gg1
 10
0.540000
 20
1.127500
  0
SEQEND
  8
gg1
  0
POLYLINE
  8
gg1
 62
1
 40
0.000000
 41
0.000000
 66
  1
  0
VERTEX
  8
gg1
 10
1.882500
 20
0.980000
  0
VERTEX
  8
gg1
 10
1.897500
 20
0.980000
  0
SEQEND
  8
gg1
  0
POLYLINE
  8
gg1
 62
1
 40
0.000000
 41
0.000000
 66
  1
  0
VERTEX
  8
gg1
 10
1.890000
 20
0.972500
  0
VERTEX
  8
gg1
 10
1.890000
 20
0.987500
  0
SEQEND
  8
gg1
  0
POLYLINE
  8
gg1
 62
1
 40
0.000000
 41
0.000000
 66
  1
  0
VERTEX
  8
gg1
 10
1.922500
 20
0.980000
  0
VERTEX
  8
gg1
 10
1.937500
 20
0.980000
  0
SEQEND
  8
gg1
  0
POLYLINE
  8
gg1
 62
1
 40
0.000000
 41
0.000000
 66
  1
  0
VERTEX
  8
gg1
 10
1.930000
 20
0.972500
  0
VERTEX
  8
gg1
 10
1.930000
 20
0.987500
  0
SEQEND
  8
gg1
  0
POLYLINE
  8
gg1
 62
1
 40
0.000000
 41
0.000000
 66
  1
  0
VERTEX
  8
gg1
 10
1.882500
 20
1.040000
  0
VERTEX
  8
gg1
 10
1.897500
 20
1.040000
  0
SEQEND
  8
gg1
  0
POLYLINE
  8
gg1
 62
1
 40
0.000000
 41
0.000000
 66
  1
  0
VERTEX
  8
gg1
 10
1.890000
 20
1.032500
  0
VERTEX
  8
gg1
 10
1.890000
 20
1.047500
  0
SEQEND
  8
gg1
  0
POLYLINE
  8
gg1
 62
1
 40
0.000000
 41
0.000000
 66
  1
  0
VERTEX
  8
gg1
 10
1.902500
 20
1.070000
  0
VERTEX
  8
gg1
 10
1.917500
 20
1.070000
  0
SEQEND
  8
gg1
  0
POLYLINE
  8
gg1
 62
1
 40
0.000000
 41
0.000000
 66
  1
  0
VERTEX
  8
gg1
 10
1.910000
 20
1.062500
  0
VERTEX
  8
gg1
 10
1.910000
 20
1.077500
  0
SEQEND
  8
gg1
  0
POLYLINE
  8
gg1
 62
1
 40
0.000000
 41
0.000000
 66
  1
  0
VERTEX
  8
gg1
 10
1.942500
 20
1.070000
  0
VERTEX
  8
gg1
 10
1.957500
 20
1.070000
  0
SEQEND
  8
gg1
  0
POLYLINE
  8
gg1
 62
1
 40
0.000000
 41
0.000000
 66
  1
  0
VERTEX
  8
gg1
 10
1.950000
 20
1.062500
  0
VERTEX
  8
gg1
 10
1.950000
 20
1.077500
  0
SEQEND
  8
gg1
  0
POLYLINE
  8
gg1
 62
1
 40
0.000000
 41
0.000000
 66
  1
  0
VERTEX
  8
gg1
 10
1.057500
 20
1.025000
  0
VERTEX
  8
gg1
 10
1.072500
 20
1.025000
  0
SEQEND
  8
gg1
  0
POLYLINE
  8
gg1
 62
1
 40
0.000000
 41
0.000000
 66
  1
  0
VERTEX
  8
gg1
 10
1.065000
 20
1.017500
  0
VERTEX
  8
gg1
 10
1.065000
 20
1.032500
  0
SEQEND
  8
gg1
  0
POLYLINE
  8
gg1
 62
1
 40
0.000000
 41
0.000000
 66
  1
  0
VERTEX
  8
gg1
 10
1.007500
 20
1.025000
  0
VERTEX
  8
gg1
 10
1.022500
 20
1.025000
  0
SEQEND
  8
gg1
  0
POLYLINE
  8
gg1
 62
1
 40
0.000000
 41
0.000000
 66
  1
  0
VERTEX
  8
gg1
 10
1.015000
 20
1.017500
  0
VERTEX
  8
gg1
 10
1.015000
 20
1.032500
  0
SEQEND
  8
gg1
  0
POLYLINE
  8
gg1
 62
1
 40
0.000000
 41
0.000000
 66
  1
  0
VERTEX
  8
gg1
 10
1.057500
 20
1.065000
  0
VERTEX
  8
gg1
 10
1.072500
 20
1.065000
  0
SEQEND
  8
gg1
  0
POLYLINE
  8
gg1
 62
1
 40
0.000000
 41
0.000000
 66
  1
  0
VERTEX
  8
gg1
 10
1.065000
 20
1.057500
  0
VERTEX
  8
gg1
 10
1.065000
 20
1.072500
  0
SEQEND
  8
gg1
  0
POLYLINE
  8
gg1
 62
1
 40
0.000000
 41
0.000000
 66
  1
  0
VERTEX
  8
gg1
 10
1.057500
 20
1.105000
  0
VERTEX
  8
gg1
 10
1.072500
 20
1.105000
  0
SEQEND
  8
gg1
  0
POLYLINE
  8
gg1
 62
1
 40
0.000000
 41
0.000000
 66
  1
  0
VERTEX
  8
gg1
 10
1.065000
 20
1.097500
  0
VERTEX
  8
gg1
 10
1.065000
 20
1.112500
  0
SEQEND
  8
gg1
  0
POLYLINE
  8
gg1
 62
1
 40
0.000000
 41
0.000000
 66
  1
  0
VERTEX
  8
gg1
 10
1.007500
 20
1.105000
  0
VERTEX
  8
gg1
 10
1.022500
 20
1.105000
  0
SEQEND
  8
gg1
  0
POLYLINE
  8
gg1
 62
1
 40
0.000000
 41
0.000000
 66
  1
  0
VERTEX
  8
gg1
 10
1.015000
 20
1.097500
  0
VERTEX
  8
gg1
 10
1.015000
 20
1.112500
  0
SEQEND
  8
gg1
  0
POLYLINE
  8
gg1
 62
1
 40
0.000000
 41
0.000000
 66
  1
  0
VERTEX
  8
gg1
 10
1.072500
 20
0.975000
  0
VERTEX
  8
gg1
 10
1.087500
 20
0.975000
  0
SEQEND
  8
gg1
  0
POLYLINE
  8
gg1
 62
1
 40
0.000000
 41
0.000000
 66
  1
  0
VERTEX
  8
gg1
 10
1.080000
 20
0.967500
  0
VERTEX
  8
gg1
 10
1.080000
 20
0.982500
  0
SEQEND
  8
gg1
  0
POLYLINE
  8
gg1
 62
1
 40
0.000000
 41
0.000000
 66
  1
  0
VERTEX
  8
gg1
 10
1.037500
 20
0.925000
  0
VERTEX
  8
gg1
 10
1.052500
 20
0.925000
  0
SEQEND
  8
gg1
  0
POLYLINE
  8
gg1
 62
1
 40
0.000000
 41
0.000000
 66
  1
  0
VERTEX
  8
gg1
 10
1.045000
 20
0.917500
  0
VERTEX
  8
gg1
 10
1.045000
 20
0.932500
  0
SEQEND
  8
gg1
  0
POLYLINE
  8
gg1
 62
1
 40
0.000000
 41
0.000000
 66
  1
  0
VERTEX
  8
gg1
 10
0.977500
 20
0.895000
  0
VERTEX
  8
gg1
 10
0.992500
 20
0.895000
  0
SEQEND
  8
gg1
  0
POLYLINE
  8
gg1
 62
1
 40
0.000000
 41
0.000000
 66
  1
  0
VERTEX
  8
gg1
 10
0.985000
 20
0.887500
  0
VERTEX
  8
gg1
 10
0.985000
 20
0.902500
  0
SEQEND
  8
gg1
  0
POLYLINE
  8
gg1
 62
1
 40
0.000000
 41
0.000000
 66
  1
  0
VERTEX
  8
gg1
 10
0.942500
 20
0.975000
  0
VERTEX
  8
gg1
 10
0.957500
 20
0.975000
  0
SEQEND
  8
gg1
  0
POLYLINE
  8
gg1
 62
1
 40
0.000000
 41
0.000000
 66
  1
  0
VERTEX
  8
gg1
 10
0.950000
 20
0.967500
  0
VERTEX
  8
gg1
 10
0.950000
 20
0.982500
  0
SEQEND
  8
gg1
  0
POLYLINE
  8
gg1
 62
1
 40
0.000000
 41
0.000000
 66
  1
  0
VERTEX
  8
gg1
 10
0.942500
 20
1.105000
  0
VERTEX
  8
gg1
 10
0.957500
 20
1.105000
  0
SEQEND
  8
gg1
  0
POLYLINE
  8
gg1
 62
1
 40
0.000000
 41
0.000000
 66
  1
  0
VERTEX
  8
gg1
 10
0.950000
 20
1.097500
  0
VERTEX
  8
gg1
 10
0.950000
 20
1.112500
  0
SEQEND
  8
gg1
  0
POLYLINE
  8
gg1
 62
1
 40
0.000000
 41
0.000000
 66
  1
  0
VERTEX
  8
gg1
 10
0.942500
 20
1.040000
  0
VERTEX
  8
gg1
 10
0.957500
 20
1.040000
  0
SEQEND
  8
gg1
  0
POLYLINE
  8
gg1
 62
1
 40
0.000000
 41
0.000000
 66
  1
  0
VERTEX
  8
gg1
 10
0.950000
 20
1.032500
  0
VERTEX
  8
gg1
 10
0.950000
 20
1.047500
  0
SEQEND
  8
gg1
  0
POLYLINE
  8
gg1
 62
1
 40
0.000000
 41
0.000000
 66
  1
  0
VERTEX
  8
gg1
 10
1.960000
 20
1.595000
  0
VERTEX
  8
gg1
 10
1.980000
 20
1.595000
  0
SEQEND
  8
gg1
  0
POLYLINE
  8
gg1
 62
1
 40
0.000000
 41
0.000000
 66
  1
  0
VERTEX
  8
gg1
 10
1.970000
 20
1.585000
  0
VERTEX
  8
gg1
 10
1.970000
 20
1.605000
  0
SEQEND
  8
gg1
  0
POLYLINE
  8
gg1
 62
1
 40
0.000000
 41
0.000000
 66
  1
  0
VERTEX
  8
gg1
 10
1.960000
 20
1.630000
  0
VERTEX
  8
gg1
 10
1.980000
 20
1.630000
  0
SEQEND
  8
gg1
  0
POLYLINE
  8
gg1
 62
1
 40
0.000000
 41
0.000000
 66
  1
  0
VERTEX
  8
gg1
 10
1.970000
 20
1.620000
  0
VERTEX
  8
gg1
 10
1.970000
 20
1.640000
  0
SEQEND
  8
gg1
  0
POLYLINE
  8
gg1
 62
1
 40
0.000000
 41
0.000000
 66
  1
  0
VERTEX
  8
gg1
 10
1.960000
 20
1.835000
  0
VERTEX
  8
gg1
 10
1.980000
 20
1.835000
  0
SEQEND
  8
gg1
  0
POLYLINE
  8
gg1
 62
1
 40
0.000000
 41
0.000000
 66
  1
  0
VERTEX
  8
gg1
 10
1.970000
 20
1.825000
  0
VERTEX
  8
gg1
 10
1.970000
 20
1.845000
  0
SEQEND
  8
gg1
  0
POLYLINE
  8
gg1
 62
1
 40
0.000000
 41
0.000000
 66
  1
  0
VERTEX
  8
gg1
 10
1.960000
 20
1.280000
  0
VERTEX
  8
gg1
 10
1.980000
 20
1.280000
  0
SEQEND
  8
gg1
  0
POLYLINE
  8
gg1
 62
1
 40
0.000000
 41
0.000000
 66
  1
  0
VERTEX
  8
gg1
 10
1.970000
 20
1.270000
  0
VERTEX
  8
gg1
 10
1.970000
 20
1.290000
  0
SEQEND
  8
gg1
  0
POLYLINE
  8
gg1
 62
1
 40
0.000000
 41
0.000000
 66
  1
  0
VERTEX
  8
gg1
 10
1.960000
 20
1.475000
  0
VERTEX
  8
gg1
 10
1.980000
 20
1.475000
  0
SEQEND
  8
gg1
  0
POLYLINE
  8
gg1
 62
1
 40
0.000000
 41
0.000000
 66
  1
  0
VERTEX
  8
gg1
 10
1.970000
 20
1.465000
  0
VERTEX
  8
gg1
 10
1.970000
 20
1.485000
  0
SEQEND
  8
gg1
  0
POLYLINE
  8
gg1
 62
1
 40
0.000000
 41
0.000000
 66
  1
  0
VERTEX
  8
gg1
 10
1.960000
 20
1.510000
  0
VERTEX
  8
gg1
 10
1.980000
 20
1.510000
  0
SEQEND
  8
gg1
  0
POLYLINE
  8
gg1
 62
1
 40
0.000000
 41
0.000000
 66
  1
  0
VERTEX
  8
gg1
 10
1.970000
 20
1.500000
  0
VERTEX
  8
gg1
 10
1.970000
 20
1.520000
  0
SEQEND
  8
gg1
  0
POLYLINE
  8
gg1
 62
1
 40
0.000000
 41
0.000000
 66
  1
  0
VERTEX
  8
gg1
 10
1.960000
 20
0.605000
  0
VERTEX
  8
gg1
 10
1.980000
 20
0.605000
  0
SEQEND
  8
gg1
  0
POLYLINE
  8
gg1
 62
1
 40
0.000000
 41
0.000000
 66
  1
  0
VERTEX
  8
gg1
 10
1.970000
 20
0.595000
  0
VERTEX
  8
gg1
 10
1.970000
 20
0.615000
  0
SEQEND
  8
gg1
  0
POLYLINE
  8
gg1
 62
1
 40
0.000000
 41
0.000000
 66
  1
  0
VERTEX
  8
gg1
 10
1.960000
 20
0.640000
  0
VERTEX
  8
gg1
 10
1.980000
 20
0.640000
  0
SEQEND
  8
gg1
  0
POLYLINE
  8
gg1
 62
1
 40
0.000000
 41
0.000000
 66
  1
  0
VERTEX
  8
gg1
 10
1.970000
 20
0.630000
  0
VERTEX
  8
gg1
 10
1.970000
 20
0.650000
  0
SEQEND
  8
gg1
  0
POLYLINE
  8
gg1
 62
1
 40
0.000000
 41
0.000000
 66
  1
  0
VERTEX
  8
gg1
 10
1.960000
 20
0.840000
  0
VERTEX
  8
gg1
 10
1.980000
 20
0.840000
  0
SEQEND
  8
gg1
  0
POLYLINE
  8
gg1
 62
1
 40
0.000000
 41
0.000000
 66
  1
  0
VERTEX
  8
gg1
 10
1.970000
 20
0.830000
  0
VERTEX
  8
gg1
 10
1.970000
 20
0.850000
  0
SEQEND
  8
gg1
  0
POLYLINE
  8
gg1
 62
1
 40
0.000000
 41
0.000000
 66
  1
  0
VERTEX
  8
gg1
 10
1.960000
 20
0.485000
  0
VERTEX
  8
gg1
 10
1.980000
 20
0.485000
  0
SEQEND
  8
gg1
  0
POLYLINE
  8
gg1
 62
1
 40
0.000000
 41
0.000000
 66
  1
  0
VERTEX
  8
gg1
 10
1.970000
 20
0.475000
  0
VERTEX
  8
gg1
 10
1.970000
 20
0.495000
  0
SEQEND
  8
gg1
  0
POLYLINE
  8
gg1
 62
1
 40
0.000000
 41
0.000000
 66
  1
  0
VERTEX
  8
gg1
 10
1.960000
 20
0.525000
  0
VERTEX
  8
gg1
 10
1.980000
 20
0.525000
  0
SEQEND
  8
gg1
  0
POLYLINE
  8
gg1
 62
1
 40
0.000000
 41
0.000000
 66
  1
  0
VERTEX
  8
gg1
 10
1.970000
 20
0.515000
  0
VERTEX
  8
gg1
 10
1.970000
 20
0.535000
  0
SEQEND
  8
gg1
  0
POLYLINE
  8
gg1
 62
1
 40
0.000000
 41
0.000000
 66
  1
  0
VERTEX
  8
gg1
 10
1.960000
 20
0.290000
  0
VERTEX
  8
gg1
 10
1.980000
 20
0.290000
  0
SEQEND
  8
gg1
  0
POLYLINE
  8
gg1
 62
1
 40
0.000000
 41
0.000000
 66
  1
  0
VERTEX
  8
gg1
 10
1.970000
 20
0.280000
  0
VERTEX
  8
gg1
 10
1.970000
 20
0.300000
  0
SEQEND
  8
gg1
  0
POLYLINE
  8
gg1
 62
1
 40
0.000000
 41
0.000000
 66
  1
  0
VERTEX
  8
gg1
 10
0.297500
 20
1.970000
  0
VERTEX
  8
gg1
 10
0.312500
 20
1.970000
  0
SEQEND
  8
gg1
  0
POLYLINE
  8
gg1
 62
1
 40
0.000000
 41
0.000000
 66
  1
  0
VERTEX
  8
gg1
 10
0.305000
 20
1.962500
  0
VERTEX
  8
gg1
 10
0.305000
 20
1.977500
  0
SEQEND
  8
gg1
  0
POLYLINE
  8
gg1
 62
1
 40
0.000000
 41
0.000000
 66
  1
  0
VERTEX
  8
gg1
 10
1.182500
 20
0.240000
  0
VERTEX
  8
gg1
 10
1.197500
 20
0.240000
  0
SEQEND
  8
gg1
  0
POLYLINE
  8
gg1
 62
1
 40
0.000000
 41
0.000000
 66
  1
  0
VERTEX
  8
gg1
 10
1.190000
 20
0.232500
  0
VERTEX
  8
gg1
 10
1.190000
 20
0.247500
  0
SEQEND
  8
gg1
  0
POLYLINE
  8
gg1
 62
1
 40
0.000000
 41
0.000000
 66
  1
  0
VERTEX
  8
gg1
 10
1.232500
 20
0.240000
  0
VERTEX
  8
gg1
 10
1.247500
 20
0.240000
  0
SEQEND
  8
gg1
  0
POLYLINE
  8
gg1
 62
1
 40
0.000000
 41
0.000000
 66
  1
  0
VERTEX
  8
gg1
 10
1.240000
 20
0.232500
  0
VERTEX
  8
gg1
 10
1.240000
 20
0.247500
  0
SEQEND
  8
gg1
  0
POLYLINE
  8
gg1
 62
1
 40
0.000000
 41
0.000000
 66
  1
  0
VERTEX
  8
gg1
 10
1.282500
 20
0.240000
  0
VERTEX
  8
gg1
 10
1.297500
 20
0.240000
  0
SEQEND
  8
gg1
  0
POLYLINE
  8
gg1
 62
1
 40
0.000000
 41
0.000000
 66
  1
  0
VERTEX
  8
gg1
 10
1.290000
 20
0.232500
  0
VERTEX
  8
gg1
 10
1.290000
 20
0.247500
  0
SEQEND
  8
gg1
  0
POLYLINE
  8
gg1
 62
1
 40
0.000000
 41
0.000000
 66
  1
  0
VERTEX
  8
gg1
 10
1.332500
 20
0.240000
  0
VERTEX
  8
gg1
 10
1.347500
 20
0.240000
  0
SEQEND
  8
gg1
  0
POLYLINE
  8
gg1
 62
1
 40
0.000000
 41
0.000000
 66
  1
  0
VERTEX
  8
gg1
 10
1.340000
 20
0.232500
  0
VERTEX
  8
gg1
 10
1.340000
 20
0.247500
  0
SEQEND
  8
gg1
  0
POLYLINE
  8
gg1
 62
1
 40
0.000000
 41
0.000000
 66
  1
  0
VERTEX
  8
gg1
 10
1.382500
 20
0.240000
  0
VERTEX
  8
gg1
 10
1.397500
 20
0.240000
  0
SEQEND
  8
gg1
  0
POLYLINE
  8
gg1
 62
1
 40
0.000000
 41
0.000000
 66
  1
  0
VERTEX
  8
gg1
 10
1.390000
 20
0.232500
  0
VERTEX
  8
gg1
 10
1.390000
 20
0.247500
  0
SEQEND
  8
gg1
  0
POLYLINE
  8
gg1
 62
1
 40
0.000000
 41
0.000000
 66
  1
  0
VERTEX
  8
gg1
 10
1.432500
 20
0.240000
  0
VERTEX
  8
gg1
 10
1.447500
 20
0.240000
  0
SEQEND
  8
gg1
  0
POLYLINE
  8
gg1
 62
1
 40
0.000000
 41
0.000000
 66
  1
  0
VERTEX
  8
gg1
 10
1.440000
 20
0.232500
  0
VERTEX
  8
gg1
 10
1.440000
 20
0.247500
  0
SEQEND
  8
gg1
  0
POLYLINE
  8
gg1
 62
1
 40
0.000000
 41
0.000000
 66
  1
  0
VERTEX
  8
gg1
 10
1.482500
 20
0.240000
  0
VERTEX
  8
gg1
 10
1.497500
 20
0.240000
  0
SEQEND
  8
gg1
  0
POLYLINE
  8
gg1
 62
1
 40
0.000000
 41
0.000000
 66
  1
  0
VERTEX
  8
gg1
 10
1.490000
 20
0.232500
  0
VERTEX
  8
gg1
 10
1.490000
 20
0.247500
  0
SEQEND
  8
gg1
  0
POLYLINE
  8
gg1
 62
1
 40
0.000000
 41
0.000000
 66
  1
  0
VERTEX
  8
gg1
 10
1.532500
 20
0.240000
  0
VERTEX
  8
gg1
 10
1.547500
 20
0.240000
  0
SEQEND
  8
gg1
  0
POLYLINE
  8
gg1
 62
1
 40
0.000000
 41
0.000000
 66
  1
  0
VERTEX
  8
gg1
 10
1.540000
 20
0.232500
  0
VERTEX
  8
gg1
 10
1.540000
 20
0.247500
  0
SEQEND
  8
gg1
  0
POLYLINE
  8
gg1
 62
1
 40
0.000000
 41
0.000000
 66
  1
  0
VERTEX
  8
gg1
 10
1.582500
 20
0.240000
  0
VERTEX
  8
gg1
 10
1.597500
 20
0.240000
  0
SEQEND
  8
gg1
  0
POLYLINE
  8
gg1
 62
1
 40
0.000000
 41
0.000000
 66
  1
  0
VERTEX
  8
gg1
 10
1.590000
 20
0.232500
  0
VERTEX
  8
gg1
 10
1.590000
 20
0.247500
  0
SEQEND
  8
gg1
  0
POLYLINE
  8
gg1
 62
1
 40
0.000000
 41
0.000000
 66
  1
  0
VERTEX
  8
gg1
 10
1.632500
 20
0.240000
  0
VERTEX
  8
gg1
 10
1.647500
 20
0.240000
  0
SEQEND
  8
gg1
  0
POLYLINE
  8
gg1
 62
1
 40
0.000000
 41
0.000000
 66
  1
  0
VERTEX
  8
gg1
 10
1.640000
 20
0.232500
  0
VERTEX
  8
gg1
 10
1.640000
 20
0.247500
  0
SEQEND
  8
gg1
  0
POLYLINE
  8
gg1
 62
1
 40
0.000000
 41
0.000000
 66
  1
  0
VERTEX
  8
gg1
 10
1.682500
 20
0.240000
  0
VERTEX
  8
gg1
 10
1.697500
 20
0.240000
  0
SEQEND
  8
gg1
  0
POLYLINE
  8
gg1
 62
1
 40
0.000000
 41
0.000000
 66
  1
  0
VERTEX
  8
gg1
 10
1.690000
 20
0.232500
  0
VERTEX
  8
gg1
 10
1.690000
 20
0.247500
  0
SEQEND
  8
gg1
  0
POLYLINE
  8
gg1
 62
1
 40
0.000000
 41
0.000000
 66
  1
  0
VERTEX
  8
gg1
 10
1.732500
 20
0.240000
  0
VERTEX
  8
gg1
 10
1.747500
 20
0.240000
  0
SEQEND
  8
gg1
  0
POLYLINE
  8
gg1
 62
1
 40
0.000000
 41
0.000000
 66
  1
  0
VERTEX
  8
gg1
 10
1.740000
 20
0.232500
  0
VERTEX
  8
gg1
 10
1.740000
 20
0.247500
  0
SEQEND
  8
gg1
  0
POLYLINE
  8
gg1
 62
1
 40
0.000000
 41
0.000000
 66
  1
  0
VERTEX
  8
gg1
 10
1.782500
 20
0.240000
  0
VERTEX
  8
gg1
 10
1.797500
 20
0.240000
  0
SEQEND
  8
gg1
  0
POLYLINE
  8
gg1
 62
1
 40
0.000000
 41
0.000000
 66
  1
  0
VERTEX
  8
gg1
 10
1.790000
 20
0.232500
  0
VERTEX
  8
gg1
 10
1.790000
 20
0.247500
  0
SEQEND
  8
gg1
  0
POLYLINE
  8
gg1
 62
1
 40
0.000000
 41
0.000000
 66
  1
  0
VERTEX
  8
gg1
 10
1.832500
 20
0.240000
  0
VERTEX
  8
gg1
 10
1.847500
 20
0.240000
  0
SEQEND
  8
gg1
  0
POLYLINE
  8
gg1
 62
1
 40
0.000000
 41
0.000000
 66
  1
  0
VERTEX
  8
gg1
 10
1.840000
 20
0.232500
  0
VERTEX
  8
gg1
 10
1.840000
 20
0.247500
  0
SEQEND
  8
gg1
  0
POLYLINE
  8
gg1
 62
1
 40
0.000000
 41
0.000000
 66
  1
  0
VERTEX
  8
gg1
 10
1.882500
 20
0.240000
  0
VERTEX
  8
gg1
 10
1.897500
 20
0.240000
  0
SEQEND
  8
gg1
  0
POLYLINE
  8
gg1
 62
1
 40
0.000000
 41
0.000000
 66
  1
  0
VERTEX
  8
gg1
 10
1.890000
 20
0.232500
  0
VERTEX
  8
gg1
 10
1.890000
 20
0.247500
  0
SEQEND
  8
gg1
  0
POLYLINE
  8
gg1
 62
1
 40
0.000000
 41
0.000000
 66
  1
  0
VERTEX
  8
gg1
 10
1.932500
 20
0.240000
  0
VERTEX
  8
gg1
 10
1.947500
 20
0.240000
  0
SEQEND
  8
gg1
  0
POLYLINE
  8
gg1
 62
1
 40
0.000000
 41
0.000000
 66
  1
  0
VERTEX
  8
gg1
 10
1.940000
 20
0.232500
  0
VERTEX
  8
gg1
 10
1.940000
 20
0.247500
  0
SEQEND
  8
gg1
  0
POLYLINE
  8
gg1
 62
1
 40
0.000000
 41
0.000000
 66
  1
  0
VERTEX
  8
gg1
 10
1.982500
 20
0.240000
  0
VERTEX
  8
gg1
 10
1.997500
 20
0.240000
  0
SEQEND
  8
gg1
  0
POLYLINE
  8
gg1
 62
1
 40
0.000000
 41
0.000000
 66
  1
  0
VERTEX
  8
gg1
 10
1.990000
 20
0.232500
  0
VERTEX
  8
gg1
 10
1.990000
 20
0.247500
  0
SEQEND
  8
gg1
  0
POLYLINE
  8
gg1
 62
1
 40
0.000000
 41
0.000000
 66
  1
  0
VERTEX
  8
gg1
 10
1.802500
 20
0.200000
  0
VERTEX
  8
gg1
 10
1.817500
 20
0.200000
  0
SEQEND
  8
gg1
  0
POLYLINE
  8
gg1
 62
1
 40
0.000000
 41
0.000000
 66
  1
  0
VERTEX
  8
gg1
 10
1.810000
 20
0.192500
  0
VERTEX
  8
gg1
 10
1.810000
 20
0.207500
  0
SEQEND
  8
gg1
  0
POLYLINE
  8
gg1
 62
1
 40
0.000000
 41
0.000000
 66
  1
  0
VERTEX
  8
gg1
 10
1.852500
 20
0.200000
  0
VERTEX
  8
gg1
 10
1.867500
 20
0.200000
  0
SEQEND
  8
gg1
  0
POLYLINE
  8
gg1
 62
1
 40
0.000000
 41
0.000000
 66
  1
  0
VERTEX
  8
gg1
 10
1.860000
 20
0.192500
  0
VERTEX
  8
gg1
 10
1.860000
 20
0.207500
  0
SEQEND
  8
gg1
  0
POLYLINE
  8
gg1
 62
1
 40
0.000000
 41
0.000000
 66
  1
  0
VERTEX
  8
gg1
 10
1.902500
 20
0.200000
  0
VERTEX
  8
gg1
 10
1.917500
 20
0.200000
  0
SEQEND
  8
gg1
  0
POLYLINE
  8
gg1
 62
1
 40
0.000000
 41
0.000000
 66
  1
  0
VERTEX
  8
gg1
 10
1.910000
 20
0.192500
  0
VERTEX
  8
gg1
 10
1.910000
 20
0.207500
  0
SEQEND
  8
gg1
  0
POLYLINE
  8
gg1
 62
1
 40
0.000000
 41
0.000000
 66
  1
  0
VERTEX
  8
gg1
 10
1.952500
 20
0.200000
  0
VERTEX
  8
gg1
 10
1.967500
 20
0.200000
  0
SEQEND
  8
gg1
  0
POLYLINE
  8
gg1
 62
1
 40
0.000000
 41
0.000000
 66
  1
  0
VERTEX
  8
gg1
 10
1.960000
 20
0.192500
  0
VERTEX
  8
gg1
 10
1.960000
 20
0.207500
  0
SEQEND
  8
gg1
  0
POLYLINE
  8
gg1
 62
1
 40
0.000000
 41
0.000000
 66
  1
  0
VERTEX
  8
gg1
 10
0.807500
 20
1.020000
  0
VERTEX
  8
gg1
 10
0.822500
 20
1.020000
  0
SEQEND
  8
gg1
  0
POLYLINE
  8
gg1
 62
1
 40
0.000000
 41
0.000000
 66
  1
  0
VERTEX
  8
gg1
 10
0.815000
 20
1.012500
  0
VERTEX
  8
gg1
 10
0.815000
 20
1.027500
  0
SEQEND
  8
gg1
  0
POLYLINE
  8
gg1
 62
1
 40
0.000000
 41
0.000000
 66
  1
  0
VERTEX
  8
gg1
 10
0.807500
 20
0.980000
  0
VERTEX
  8
gg1
 10
0.822500
 20
0.980000
  0
SEQEND
  8
gg1
  0
POLYLINE
  8
gg1
 62
1
 40
0.000000
 41
0.000000
 66
  1
  0
VERTEX
  8
gg1
 10
0.815000
 20
0.972500
  0
VERTEX
  8
gg1
 10
0.815000
 20
0.987500
  0
SEQEND
  8
gg1
  0
POLYLINE
  8
gg1
 62
1
 40
0.000000
 41
0.000000
 66
  1
  0
VERTEX
  8
gg1
 10
0.867500
 20
0.945000
  0
VERTEX
  8
gg1
 10
0.882500
 20
0.945000
  0
SEQEND
  8
gg1
  0
POLYLINE
  8
gg1
 62
1
 40
0.000000
 41
0.000000
 66
  1
  0
VERTEX
  8
gg1
 10
0.875000
 20
0.937500
  0
VERTEX
  8
gg1
 10
0.875000
 20
0.952500
  0
SEQEND
  8
gg1
  0
POLYLINE
  8
gg1
 62
1
 40
0.000000
 41
0.000000
 66
  1
  0
VERTEX
  8
gg1
 10
0.867500
 20
0.910000
  0
VERTEX
  8
gg1
 10
0.882500
 20
0.910000
  0
SEQEND
  8
gg1
  0
POLYLINE
  8
gg1
 62
1
 40
0.000000
 41
0.000000
 66
  1
  0
VERTEX
  8
gg1
 10
0.875000
 20
0.902500
  0
VERTEX
  8
gg1
 10
0.875000
 20
0.917500
  0
SEQEND
  8
gg1
  0
POLYLINE
  8
gg1
 62
1
 40
0.000000
 41
0.000000
 66
  1
  0
VERTEX
  8
gg1
 10
0.867500
 20
0.875000
  0
VERTEX
  8
gg1
 10
0.882500
 20
0.875000
  0
SEQEND
  8
gg1
  0
POLYLINE
  8
gg1
 62
1
 40
0.000000
 41
0.000000
 66
  1
  0
VERTEX
  8
gg1
 10
0.875000
 20
0.867500
  0
VERTEX
  8
gg1
 10
0.875000
 20
0.882500
  0
SEQEND
  8
gg1
  0
POLYLINE
  8
gg1
 62
1
 40
0.000000
 41
0.000000
 66
  1
  0
VERTEX
  8
gg1
 10
0.807500
 20
1.090000
  0
VERTEX
  8
gg1
 10
0.822500
 20
1.090000
  0
SEQEND
  8
gg1
  0
POLYLINE
  8
gg1
 62
1
 40
0.000000
 41
0.000000
 66
  1
  0
VERTEX
  8
gg1
 10
0.815000
 20
1.082500
  0
VERTEX
  8
gg1
 10
0.815000
 20
1.097500
  0
SEQEND
  8
gg1
  0
POLYLINE
  8
gg1
 62
1
 40
0.000000
 41
0.000000
 66
  1
  0
VERTEX
  8
gg1
 10
2.047500
 20
1.060000
  0
VERTEX
  8
gg1
 10
2.062500
 20
1.060000
  0
SEQEND
  8
gg1
  0
POLYLINE
  8
gg1
 62
1
 40
0.000000
 41
0.000000
 66
  1
  0
VERTEX
  8
gg1
 10
2.055000
 20
1.052500
  0
VERTEX
  8
gg1
 10
2.055000
 20
1.067500
  0
SEQEND
  8
gg1
  0
POLYLINE
  8
gg1
 62
1
 40
0.000000
 41
0.000000
 66
  1
  0
VERTEX
  8
gg1
 10
2.047500
 20
1.105000
  0
VERTEX
  8
gg1
 10
2.062500
 20
1.105000
  0
SEQEND
  8
gg1
  0
POLYLINE
  8
gg1
 62
1
 40
0.000000
 41
0.000000
 66
  1
  0
VERTEX
  8
gg1
 10
2.055000
 20
1.097500
  0
VERTEX
  8
gg1
 10
2.055000
 20
1.112500
  0
SEQEND
  8
gg1
  0
POLYLINE
  8
gg1
 62
1
 40
0.000000
 41
0.000000
 66
  1
  0
VERTEX
  8
gg1
 10
1.239100
 20
1.436300
  0
VERTEX
  8
gg1
 10
1.254100
 20
1.436300
  0
SEQEND
  8
gg1
  0
POLYLINE
  8
gg1
 62
1
 40
0.000000
 41
0.000000
 66
  1
  0
VERTEX
  8
gg1
 10
1.246600
 20
1.428800
  0
VERTEX
  8
gg1
 10
1.246600
 20
1.443800
  0
SEQEND
  8
gg1
  0
POLYLINE
  8
gg1
 62
1
 40
0.000000
 41
0.000000
 66
  1
  0
VERTEX
  8
gg1
 10
0.762500
 20
1.700000
  0
VERTEX
  8
gg1
 10
0.777500
 20
1.700000
  0
SEQEND
  8
gg1
  0
POLYLINE
  8
gg1
 62
1
 40
0.000000
 41
0.000000
 66
  1
  0
VERTEX
  8
gg1
 10
0.770000
 20
1.692500
  0
VERTEX
  8
gg1
 10
0.770000
 20
1.707500
  0
SEQEND
  8
gg1
  0
POLYLINE
  8
gg1
 62
1
 40
0.000000
 41
0.000000
 66
  1
  0
VERTEX
  8
gg1
 10
0.852500
 20
1.700000
  0
VERTEX
  8
gg1
 10
0.867500
 20
1.700000
  0
SEQEND
  8
gg1
  0
POLYLINE
  8
gg1
 62
1
 40
0.000000
 41
0.000000
 66
  1
  0
VERTEX
  8
gg1
 10
0.860000
 20
1.692500
  0
VERTEX
  8
gg1
 10
0.860000
 20
1.707500
  0
SEQEND
  8
gg1
  0
POLYLINE
  8
gg1
 62
1
 40
0.000000
 41
0.000000
 66
  1
  0
VERTEX
  8
gg1
 10
0.772500
 20
1.630000
  0
VERTEX
  8
gg1
 10
0.787500
 20
1.630000
  0
SEQEND
  8
gg1
  0
POLYLINE
  8
gg1
 62
1
 40
0.000000
 41
0.000000
 66
  1
  0
VERTEX
  8
gg1
 10
0.780000
 20
1.622500
  0
VERTEX
  8
gg1
 10
0.780000
 20
1.637500
  0
SEQEND
  8
gg1
  0
POLYLINE
  8
gg1
 62
1
 40
0.000000
 41
0.000000
 66
  1
  0
VERTEX
  8
gg1
 10
1.130000
 20
1.765000
  0
VERTEX
  8
gg1
 10
1.150000
 20
1.765000
  0
SEQEND
  8
gg1
  0
POLYLINE
  8
gg1
 62
1
 40
0.000000
 41
0.000000
 66
  1
  0
VERTEX
  8
gg1
 10
1.140000
 20
1.755000
  0
VERTEX
  8
gg1
 10
1.140000
 20
1.775000
  0
SEQEND
  8
gg1
  0
POLYLINE
  8
gg1
 62
1
 40
0.000000
 41
0.000000
 66
  1
  0
VERTEX
  8
gg1
 10
0.533500
 20
1.151000
  0
VERTEX
  8
gg1
 10
0.548500
 20
1.151000
  0
SEQEND
  8
gg1
  0
POLYLINE
  8
gg1
 62
1
 40
0.000000
 41
0.000000
 66
  1
  0
VERTEX
  8
gg1
 10
0.541000
 20
1.143500
  0
VERTEX
  8
gg1
 10
0.541000
 20
1.158500
  0
SEQEND
  8
gg1
  0
POLYLINE
  8
gg1
 62
1
 40
0.000000
 41
0.000000
 66
  1
  0
VERTEX
  8
gg1
 10
0.498500
 20
1.306000
  0
VERTEX
  8
gg1
 10
0.513500
 20
1.306000
  0
SEQEND
  8
gg1
  0
POLYLINE
  8
gg1
 62
1
 40
0.000000
 41
0.000000
 66
  1
  0
VERTEX
  8
gg1
 10
0.506000
 20
1.298500
  0
VERTEX
  8
gg1
 10
0.506000
 20
1.313500
  0
SEQEND
  8
gg1
  0
POLYLINE
  8
gg1
 62
1
 40
0.000000
 41
0.000000
 66
  1
  0
VERTEX
  8
gg1
 10
0.657500
 20
0.840000
  0
VERTEX
  8
gg1
 10
0.672500
 20
0.840000
  0
SEQEND
  8
gg1
  0
POLYLINE
  8
gg1
 62
1
 40
0.000000
 41
0.000000
 66
  1
  0
VERTEX
  8
gg1
 10
0.665000
 20
0.832500
  0
VERTEX
  8
gg1
 10
0.665000
 20
0.847500
  0
SEQEND
  8
gg1
  0
POLYLINE
  8
gg1
 62
1
 40
0.000000
 41
0.000000
 66
  1
  0
VERTEX
  8
gg1
 10
0.932500
 20
0.125000
  0
VERTEX
  8
gg1
 10
0.947500
 20
0.125000
  0
SEQEND
  8
gg1
  0
POLYLINE
  8
gg1
 62
1
 40
0.000000
 41
0.000000
 66
  1
  0
VERTEX
  8
gg1
 10
0.940000
 20
0.117500
  0
VERTEX
  8
gg1
 10
0.940000
 20
0.132500
  0
SEQEND
  8
gg1
  0
POLYLINE
  8
gg1
 62
1
 40
0.000000
 41
0.000000
 66
  1
  0
VERTEX
  8
gg1
 10
0.992500
 20
0.230000
  0
VERTEX
  8
gg1
 10
1.007500
 20
0.230000
  0
SEQEND
  8
gg1
  0
POLYLINE
  8
gg1
 62
1
 40
0.000000
 41
0.000000
 66
  1
  0
VERTEX
  8
gg1
 10
1.000000
 20
0.222500
  0
VERTEX
  8
gg1
 10
1.000000
 20
0.237500
  0
SEQEND
  8
gg1
  0
POLYLINE
  8
gg1
 62
1
 40
0.000000
 41
0.000000
 66
  1
  0
VERTEX
  8
gg1
 10
0.842500
 20
0.125000
  0
VERTEX
  8
gg1
 10
0.857500
 20
0.125000
  0
SEQEND
  8
gg1
  0
POLYLINE
  8
gg1
 62
1
 40
0.000000
 41
0.000000
 66
  1
  0
VERTEX
  8
gg1
 10
0.850000
 20
0.117500
  0
VERTEX
  8
gg1
 10
0.850000
 20
0.132500
  0
SEQEND
  8
gg1
  0
POLYLINE
  8
gg1
 62
1
 40
0.000000
 41
0.000000
 66
  1
  0
VERTEX
  8
gg1
 10
2.282500
 20
1.170000
  0
VERTEX
  8
gg1
 10
2.297500
 20
1.170000
  0
SEQEND
  8
gg1
  0
POLYLINE
  8
gg1
 62
1
 40
0.000000
 41
0.000000
 66
  1
  0
VERTEX
  8
gg1
 10
2.290000
 20
1.162500
  0
VERTEX
  8
gg1
 10
2.290000
 20
1.177500
  0
SEQEND
  8
gg1
  0
POLYLINE
  8
gg1
 62
1
 40
0.000000
 41
0.000000
 66
  1
  0
VERTEX
  8
gg1
 10
2.202500
 20
1.225000
  0
VERTEX
  8
gg1
 10
2.217500
 20
1.225000
  0
SEQEND
  8
gg1
  0
POLYLINE
  8
gg1
 62
1
 40
0.000000
 41
0.000000
 66
  1
  0
VERTEX
  8
gg1
 10
2.210000
 20
1.217500
  0
VERTEX
  8
gg1
 10
2.210000
 20
1.232500
  0
SEQEND
  8
gg1
  0
POLYLINE
  8
gg1
 62
1
 40
0.000000
 41
0.000000
 66
  1
  0
VERTEX
  8
gg1
 10
2.142500
 20
1.225000
  0
VERTEX
  8
gg1
 10
2.157500
 20
1.225000
  0
SEQEND
  8
gg1
  0
POLYLINE
  8
gg1
 62
1
 40
0.000000
 41
0.000000
 66
  1
  0
VERTEX
  8
gg1
 10
2.150000
 20
1.217500
  0
VERTEX
  8
gg1
 10
2.150000
 20
1.232500
  0
SEQEND
  8
gg1
  0
POLYLINE
  8
gg1
 62
1
 40
0.000000
 41
0.000000
 66
  1
  0
VERTEX
  8
gg1
 10
2.092500
 20
1.225000
  0
VERTEX
  8
gg1
 10
2.107500
 20
1.225000
  0
SEQEND
  8
gg1
  0
POLYLINE
  8
gg1
 62
1
 40
0.000000
 41
0.000000
 66
  1
  0
VERTEX
  8
gg1
 10
2.100000
 20
1.217500
  0
VERTEX
  8
gg1
 10
2.100000
 20
1.232500
  0
SEQEND
  8
gg1
  0
POLYLINE
  8
gg1
 62
1
 40
0.000000
 41
0.000000
 66
  1
  0
VERTEX
  8
gg1
 10
2.282500
 20
1.075000
  0
VERTEX
  8
gg1
 10
2.297500
 20
1.075000
  0
SEQEND
  8
gg1
  0
POLYLINE
  8
gg1
 62
1
 40
0.000000
 41
0.000000
 66
  1
  0
VERTEX
  8
gg1
 10
2.290000
 20
1.067500
  0
VERTEX
  8
gg1
 10
2.290000
 20
1.082500
  0
SEQEND
  8
gg1
  0
POLYLINE
  8
gg1
 62
1
 40
0.000000
 41
0.000000
 66
  1
  0
VERTEX
  8
gg1
 10
2.247500
 20
1.100000
  0
VERTEX
  8
gg1
 10
2.262500
 20
1.100000
  0
SEQEND
  8
gg1
  0
POLYLINE
  8
gg1
 62
1
 40
0.000000
 41
0.000000
 66
  1
  0
VERTEX
  8
gg1
 10
2.255000
 20
1.092500
  0
VERTEX
  8
gg1
 10
2.255000
 20
1.107500
  0
SEQEND
  8
gg1
  0
POLYLINE
  8
gg1
 62
1
 40
0.000000
 41
0.000000
 66
  1
  0
VERTEX
  8
gg1
 10
2.392500
 20
1.030000
  0
VERTEX
  8
gg1
 10
2.407500
 20
1.030000
  0
SEQEND
  8
gg1
  0
POLYLINE
  8
gg1
 62
1
 40
0.000000
 41
0.000000
 66
  1
  0
VERTEX
  8
gg1
 10
2.400000
 20
1.022500
  0
VERTEX
  8
gg1
 10
2.400000
 20
1.037500
  0
SEQEND
  8
gg1
  0
POLYLINE
  8
gg1
 62
1
 40
0.000000
 41
0.000000
 66
  1
  0
VERTEX
  8
gg1
 10
2.502500
 20
1.180000
  0
VERTEX
  8
gg1
 10
2.517500
 20
1.180000
  0
SEQEND
  8
gg1
  0
POLYLINE
  8
gg1
 62
1
 40
0.000000
 41
0.000000
 66
  1
  0
VERTEX
  8
gg1
 10
2.510000
 20
1.172500
  0
VERTEX
  8
gg1
 10
2.510000
 20
1.187500
  0
SEQEND
  8
gg1
  0
POLYLINE
  8
gg1
 62
1
 40
0.000000
 41
0.000000
 66
  1
  0
VERTEX
  8
gg1
 10
2.502500
 20
1.140000
  0
VERTEX
  8
gg1
 10
2.517500
 20
1.140000
  0
SEQEND
  8
gg1
  0
POLYLINE
  8
gg1
 62
1
 40
0.000000
 41
0.000000
 66
  1
  0
VERTEX
  8
gg1
 10
2.510000
 20
1.132500
  0
VERTEX
  8
gg1
 10
2.510000
 20
1.147500
  0
SEQEND
  8
gg1
  0
POLYLINE
  8
gg1
 62
1
 40
0.000000
 41
0.000000
 66
  1
  0
VERTEX
  8
gg1
 10
2.502500
 20
1.080000
  0
VERTEX
  8
gg1
 10
2.517500
 20
1.080000
  0
SEQEND
  8
gg1
  0
POLYLINE
  8
gg1
 62
1
 40
0.000000
 41
0.000000
 66
  1
  0
VERTEX
  8
gg1
 10
2.510000
 20
1.072500
  0
VERTEX
  8
gg1
 10
2.510000
 20
1.087500
  0
SEQEND
  8
gg1
  0
POLYLINE
  8
gg1
 62
1
 40
0.000000
 41
0.000000
 66
  1
  0
VERTEX
  8
gg1
 10
2.502500
 20
1.030000
  0
VERTEX
  8
gg1
 10
2.517500
 20
1.030000
  0
SEQEND
  8
gg1
  0
POLYLINE
  8
gg1
 62
1
 40
0.000000
 41
0.000000
 66
  1
  0
VERTEX
  8
gg1
 10
2.510000
 20
1.022500
  0
VERTEX
  8
gg1
 10
2.510000
 20
1.037500
  0
SEQEND
  8
gg1
  0
POLYLINE
  8
gg1
 62
1
 40
0.000000
 41
0.000000
 66
  1
  0
VERTEX
  8
gg1
 10
0.862500
 20
0.305000
  0
VERTEX
  8
gg1
 10
0.877500
 20
0.305000
  0
SEQEND
  8
gg1
  0
POLYLINE
  8
gg1
 62
1
 40
0.000000
 41
0.000000
 66
  1
  0
VERTEX
  8
gg1
 10
0.870000
 20
0.297500
  0
VERTEX
  8
gg1
 10
0.870000
 20
0.312500
  0
SEQEND
  8
gg1
  0
POLYLINE
  8
gg1
 62
1
 40
0.000000
 41
0.000000
 66
  1
  0
VERTEX
  8
gg1
 10
0.862500
 20
0.350000
  0
VERTEX
  8
gg1
 10
0.877500
 20
0.350000
  0
SEQEND
  8
gg1
  0
POLYLINE
  8
gg1
 62
1
 40
0.000000
 41
0.000000
 66
  1
  0
VERTEX
  8
gg1
 10
0.870000
 20
0.342500
  0
VERTEX
  8
gg1
 10
0.870000
 20
0.357500
  0
SEQEND
  8
gg1
  0
POLYLINE
  8
gg1
 62
1
 40
0.000000
 41
0.000000
 66
  1
  0
VERTEX
  8
gg1
 10
0.862500
 20
0.395000
  0
VERTEX
  8
gg1
 10
0.877500
 20
0.395000
  0
SEQEND
  8
gg1
  0
POLYLINE
  8
gg1
 62
1
 40
0.000000
 41
0.000000
 66
  1
  0
VERTEX
  8
gg1
 10
0.870000
 20
0.387500
  0
VERTEX
  8
gg1
 10
0.870000
 20
0.402500
  0
SEQEND
  8
gg1
  0
POLYLINE
  8
gg1
 62
1
 40
0.000000
 41
0.000000
 66
  1
  0
VERTEX
  8
gg1
 10
0.987500
 20
0.415000
  0
VERTEX
  8
gg1
 10
1.002500
 20
0.415000
  0
SEQEND
  8
gg1
  0
POLYLINE
  8
gg1
 62
1
 40
0.000000
 41
0.000000
 66
  1
  0
VERTEX
  8
gg1
 10
0.995000
 20
0.407500
  0
VERTEX
  8
gg1
 10
0.995000
 20
0.422500
  0
SEQEND
  8
gg1
  0
POLYLINE
  8
gg1
 62
1
 40
0.000000
 41
0.000000
 66
  1
  0
VERTEX
  8
gg1
 10
0.987500
 20
0.325000
  0
VERTEX
  8
gg1
 10
1.002500
 20
0.325000
  0
SEQEND
  8
gg1
  0
POLYLINE
  8
gg1
 62
1
 40
0.000000
 41
0.000000
 66
  1
  0
VERTEX
  8
gg1
 10
0.995000
 20
0.317500
  0
VERTEX
  8
gg1
 10
0.995000
 20
0.332500
  0
SEQEND
  8
gg1
  0
POLYLINE
  8
gg1
 62
1
 40
0.000000
 41
0.000000
 66
  1
  0
VERTEX
  8
gg1
 10
2.032500
 20
0.240000
  0
VERTEX
  8
gg1
 10
2.047500
 20
0.240000
  0
SEQEND
  8
gg1
  0
POLYLINE
  8
gg1
 62
1
 40
0.000000
 41
0.000000
 66
  1
  0
VERTEX
  8
gg1
 10
2.040000
 20
0.232500
  0
VERTEX
  8
gg1
 10
2.040000
 20
0.247500
  0
SEQEND
  8
gg1
  0
POLYLINE
  8
gg1
 62
1
 40
0.000000
 41
0.000000
 66
  1
  0
VERTEX
  8
gg1
 10
2.062500
 20
0.200000
  0
VERTEX
  8
gg1
 10
2.077500
 20
0.200000
  0
SEQEND
  8
gg1
  0
POLYLINE
  8
gg1
 62
1
 40
0.000000
 41
0.000000
 66
  1
  0
VERTEX
  8
gg1
 10
2.070000
 20
0.192500
  0
VERTEX
  8
gg1
 10
2.070000
 20
0.207500
  0
SEQEND
  8
gg1
  0
POLYLINE
  8
gg1
 62
1
 40
0.000000
 41
0.000000
 66
  1
  0
VERTEX
  8
gg1
 10
2.082500
 20
0.240000
  0
VERTEX
  8
gg1
 10
2.097500
 20
0.240000
  0
SEQEND
  8
gg1
  0
POLYLINE
  8
gg1
 62
1
 40
0.000000
 41
0.000000
 66
  1
  0
VERTEX
  8
gg1
 10
2.090000
 20
0.232500
  0
VERTEX
  8
gg1
 10
2.090000
 20
0.247500
  0
SEQEND
  8
gg1
  0
POLYLINE
  8
gg1
 62
1
 40
0.000000
 41
0.000000
 66
  1
  0
VERTEX
  8
gg1
 10
1.260000
 20
1.765000
  0
VERTEX
  8
gg1
 10
1.280000
 20
1.765000
  0
SEQEND
  8
gg1
  0
POLYLINE
  8
gg1
 62
1
 40
0.000000
 41
0.000000
 66
  1
  0
VERTEX
  8
gg1
 10
1.270000
 20
1.755000
  0
VERTEX
  8
gg1
 10
1.270000
 20
1.775000
  0
SEQEND
  8
gg1
  0
POLYLINE
  8
gg1
 62
1
 40
0.000000
 41
0.000000
 66
  1
  0
VERTEX
  8
gg1
 10
1.140000
 20
0.330000
  0
VERTEX
  8
gg1
 10
1.160000
 20
0.330000
  0
SEQEND
  8
gg1
  0
POLYLINE
  8
gg1
 62
1
 40
0.000000
 41
0.000000
 66
  1
  0
VERTEX
  8
gg1
 10
1.150000
 20
0.320000
  0
VERTEX
  8
gg1
 10
1.150000
 20
0.340000
  0
SEQEND
  8
gg1
  0
POLYLINE
  8
gg1
 62
1
 40
0.000000
 41
0.000000
 66
  1
  0
VERTEX
  8
gg1
 10
1.245000
 20
0.840000
  0
VERTEX
  8
gg1
 10
1.265000
 20
0.840000
  0
SEQEND
  8
gg1
  0
POLYLINE
  8
gg1
 62
1
 40
0.000000
 41
0.000000
 66
  1
  0
VERTEX
  8
gg1
 10
1.255000
 20
0.830000
  0
VERTEX
  8
gg1
 10
1.255000
 20
0.850000
  0
SEQEND
  8
gg1
  0
POLYLINE
  8
gg1
 62
1
 40
0.000000
 41
0.000000
 66
  1
  0
VERTEX
  8
gg1
 10
1.135000
 20
0.840000
  0
VERTEX
  8
gg1
 10
1.155000
 20
0.840000
  0
SEQEND
  8
gg1
  0
POLYLINE
  8
gg1
 62
1
 40
0.000000
 41
0.000000
 66
  1
  0
VERTEX
  8
gg1
 10
1.145000
 20
0.830000
  0
VERTEX
  8
gg1
 10
1.145000
 20
0.850000
  0
SEQEND
  8
gg1
  0
POLYLINE
  8
gg1
 62
1
 40
0.000000
 41
0.000000
 66
  1
  0
VERTEX
  8
gg1
 10
1.138000
 20
1.278800
  0
VERTEX
  8
gg1
 10
1.158000
 20
1.278800
  0
SEQEND
  8
gg1
  0
POLYLINE
  8
gg1
 62
1
 40
0.000000
 41
0.000000
 66
  1
  0
VERTEX
  8
gg1
 10
1.148000
 20
1.268800
  0
VERTEX
  8
gg1
 10
1.148000
 20
1.288800
  0
SEQEND
  8
gg1
  0
POLYLINE
  8
gg1
 62
1
 40
0.000000
 41
0.000000
 66
  1
  0
VERTEX
  8
gg1
 10
1.248500
 20
0.375000
  0
VERTEX
  8
gg1
 10
1.268500
 20
0.375000
  0
SEQEND
  8
gg1
  0
POLYLINE
  8
gg1
 62
1
 40
0.000000
 41
0.000000
 66
  1
  0
VERTEX
  8
gg1
 10
1.258500
 20
0.365000
  0
VERTEX
  8
gg1
 10
1.258500
 20
0.385000
  0
SEQEND
  8
gg1
  0
POLYLINE
  8
gg1
 62
1
 40
0.000000
 41
0.000000
 66
  1
  0
VERTEX
  8
gg1
 10
1.250000
 20
0.335000
  0
VERTEX
  8
gg1
 10
1.270000
 20
0.335000
  0
SEQEND
  8
gg1
  0
POLYLINE
  8
gg1
 62
1
 40
0.000000
 41
0.000000
 66
  1
  0
VERTEX
  8
gg1
 10
1.260000
 20
0.325000
  0
VERTEX
  8
gg1
 10
1.260000
 20
0.345000
  0
SEQEND
  8
gg1
  0
POLYLINE
  8
gg1
 62
1
 40
0.000000
 41
0.000000
 66
  1
  0
VERTEX
  8
gg1
 10
2.467500
 20
0.365000
  0
VERTEX
  8
gg1
 10
2.482500
 20
0.365000
  0
SEQEND
  8
gg1
  0
POLYLINE
  8
gg1
 62
1
 40
0.000000
 41
0.000000
 66
  1
  0
VERTEX
  8
gg1
 10
2.475000
 20
0.357500
  0
VERTEX
  8
gg1
 10
2.475000
 20
0.372500
  0
SEQEND
  8
gg1
  0
POLYLINE
  8
gg1
 62
1
 40
0.000000
 41
0.000000
 66
  1
  0
VERTEX
  8
gg1
 10
1.820000
 20
0.310000
  0
VERTEX
  8
gg1
 10
1.840000
 20
0.310000
  0
SEQEND
  8
gg1
  0
POLYLINE
  8
gg1
 62
1
 40
0.000000
 41
0.000000
 66
  1
  0
VERTEX
  8
gg1
 10
1.830000
 20
0.300000
  0
VERTEX
  8
gg1
 10
1.830000
 20
0.320000
  0
SEQEND
  8
gg1
  0
POLYLINE
  8
gg1
 62
1
 40
0.000000
 41
0.000000
 66
  1
  0
VERTEX
  8
gg1
 10
1.820000
 20
0.370000
  0
VERTEX
  8
gg1
 10
1.840000
 20
0.370000
  0
SEQEND
  8
gg1
  0
POLYLINE
  8
gg1
 62
1
 40
0.000000
 41
0.000000
 66
  1
  0
VERTEX
  8
gg1
 10
1.830000
 20
0.360000
  0
VERTEX
  8
gg1
 10
1.830000
 20
0.380000
  0
SEQEND
  8
gg1
  0
POLYLINE
  8
gg1
 62
1
 40
0.000000
 41
0.000000
 66
  1
  0
VERTEX
  8
gg1
 10
1.820000
 20
0.430000
  0
VERTEX
  8
gg1
 10
1.840000
 20
0.430000
  0
SEQEND
  8
gg1
  0
POLYLINE
  8
gg1
 62
1
 40
0.000000
 41
0.000000
 66
  1
  0
VERTEX
  8
gg1
 10
1.830000
 20
0.420000
  0
VERTEX
  8
gg1
 10
1.830000
 20
0.440000
  0
SEQEND
  8
gg1
  0
POLYLINE
  8
gg1
 62
1
 40
0.000000
 41
0.000000
 66
  1
  0
VERTEX
  8
gg1
 10
1.820000
 20
0.490000
  0
VERTEX
  8
gg1
 10
1.840000
 20
0.490000
  0
SEQEND
  8
gg1
  0
POLYLINE
  8
gg1
 62
1
 40
0.000000
 41
0.000000
 66
  1
  0
VERTEX
  8
gg1
 10
1.830000
 20
0.480000
  0
VERTEX
  8
gg1
 10
1.830000
 20
0.500000
  0
SEQEND
  8
gg1
  0
POLYLINE
  8
gg1
 62
1
 40
0.000000
 41
0.000000
 66
  1
  0
VERTEX
  8
gg1
 10
1.820000
 20
0.820700
  0
VERTEX
  8
gg1
 10
1.840000
 20
0.820700
  0
SEQEND
  8
gg1
  0
POLYLINE
  8
gg1
 62
1
 40
0.000000
 41
0.000000
 66
  1
  0
VERTEX
  8
gg1
 10
1.830000
 20
0.810700
  0
VERTEX
  8
gg1
 10
1.830000
 20
0.830700
  0
SEQEND
  8
gg1
  0
POLYLINE
  8
gg1
 62
1
 40
0.000000
 41
0.000000
 66
  1
  0
VERTEX
  8
gg1
 10
1.820000
 20
0.760700
  0
VERTEX
  8
gg1
 10
1.840000
 20
0.760700
  0
SEQEND
  8
gg1
  0
POLYLINE
  8
gg1
 62
1
 40
0.000000
 41
0.000000
 66
  1
  0
VERTEX
  8
gg1
 10
1.830000
 20
0.750700
  0
VERTEX
  8
gg1
 10
1.830000
 20
0.770700
  0
SEQEND
  8
gg1
  0
POLYLINE
  8
gg1
 62
1
 40
0.000000
 41
0.000000
 66
  1
  0
VERTEX
  8
gg1
 10
1.820000
 20
0.700700
  0
VERTEX
  8
gg1
 10
1.840000
 20
0.700700
  0
SEQEND
  8
gg1
  0
POLYLINE
  8
gg1
 62
1
 40
0.000000
 41
0.000000
 66
  1
  0
VERTEX
  8
gg1
 10
1.830000
 20
0.690700
  0
VERTEX
  8
gg1
 10
1.830000
 20
0.710700
  0
SEQEND
  8
gg1
  0
POLYLINE
  8
gg1
 62
1
 40
0.000000
 41
0.000000
 66
  1
  0
VERTEX
  8
gg1
 10
1.820000
 20
0.640700
  0
VERTEX
  8
gg1
 10
1.840000
 20
0.640700
  0
SEQEND
  8
gg1
  0
POLYLINE
  8
gg1
 62
1
 40
0.000000
 41
0.000000
 66
  1
  0
VERTEX
  8
gg1
 10
1.830000
 20
0.630700
  0
VERTEX
  8
gg1
 10
1.830000
 20
0.650700
  0
SEQEND
  8
gg1
  0
POLYLINE
  8
gg1
 62
1
 40
0.000000
 41
0.000000
 66
  1
  0
VERTEX
  8
gg1
 10
1.820000
 20
1.480000
  0
VERTEX
  8
gg1
 10
1.840000
 20
1.480000
  0
SEQEND
  8
gg1
  0
POLYLINE
  8
gg1
 62
1
 40
0.000000
 41
0.000000
 66
  1
  0
VERTEX
  8
gg1
 10
1.830000
 20
1.470000
  0
VERTEX
  8
gg1
 10
1.830000
 20
1.490000
  0
SEQEND
  8
gg1
  0
POLYLINE
  8
gg1
 62
1
 40
0.000000
 41
0.000000
 66
  1
  0
VERTEX
  8
gg1
 10
1.820000
 20
1.420000
  0
VERTEX
  8
gg1
 10
1.840000
 20
1.420000
  0
SEQEND
  8
gg1
  0
POLYLINE
  8
gg1
 62
1
 40
0.000000
 41
0.000000
 66
  1
  0
VERTEX
  8
gg1
 10
1.830000
 20
1.410000
  0
VERTEX
  8
gg1
 10
1.830000
 20
1.430000
  0
SEQEND
  8
gg1
  0
POLYLINE
  8
gg1
 62
1
 40
0.000000
 41
0.000000
 66
  1
  0
VERTEX
  8
gg1
 10
1.820000
 20
1.360000
  0
VERTEX
  8
gg1
 10
1.840000
 20
1.360000
  0
SEQEND
  8
gg1
  0
POLYLINE
  8
gg1
 62
1
 40
0.000000
 41
0.000000
 66
  1
  0
VERTEX
  8
gg1
 10
1.830000
 20
1.350000
  0
VERTEX
  8
gg1
 10
1.830000
 20
1.370000
  0
SEQEND
  8
gg1
  0
POLYLINE
  8
gg1
 62
1
 40
0.000000
 41
0.000000
 66
  1
  0
VERTEX
  8
gg1
 10
1.820000
 20
1.300000
  0
VERTEX
  8
gg1
 10
1.840000
 20
1.300000
  0
SEQEND
  8
gg1
  0
POLYLINE
  8
gg1
 62
1
 40
0.000000
 41
0.000000
 66
  1
  0
VERTEX
  8
gg1
 10
1.830000
 20
1.290000
  0
VERTEX
  8
gg1
 10
1.830000
 20
1.310000
  0
SEQEND
  8
gg1
  0
POLYLINE
  8
gg1
 62
1
 40
0.000000
 41
0.000000
 66
  1
  0
VERTEX
  8
gg1
 10
1.820000
 20
1.810700
  0
VERTEX
  8
gg1
 10
1.840000
 20
1.810700
  0
SEQEND
  8
gg1
  0
POLYLINE
  8
gg1
 62
1
 40
0.000000
 41
0.000000
 66
  1
  0
VERTEX
  8
gg1
 10
1.830000
 20
1.800700
  0
VERTEX
  8
gg1
 10
1.830000
 20
1.820700
  0
SEQEND
  8
gg1
  0
POLYLINE
  8
gg1
 62
1
 40
0.000000
 41
0.000000
 66
  1
  0
VERTEX
  8
gg1
 10
1.820000
 20
1.750700
  0
VERTEX
  8
gg1
 10
1.840000
 20
1.750700
  0
SEQEND
  8
gg1
  0
POLYLINE
  8
gg1
 62
1
 40
0.000000
 41
0.000000
 66
  1
  0
VERTEX
  8
gg1
 10
1.830000
 20
1.740700
  0
VERTEX
  8
gg1
 10
1.830000
 20
1.760700
  0
SEQEND
  8
gg1
  0
POLYLINE
  8
gg1
 62
1
 40
0.000000
 41
0.000000
 66
  1
  0
VERTEX
  8
gg1
 10
1.820000
 20
1.690700
  0
VERTEX
  8
gg1
 10
1.840000
 20
1.690700
  0
SEQEND
  8
gg1
  0
POLYLINE
  8
gg1
 62
1
 40
0.000000
 41
0.000000
 66
  1
  0
VERTEX
  8
gg1
 10
1.830000
 20
1.680700
  0
VERTEX
  8
gg1
 10
1.830000
 20
1.700700
  0
SEQEND
  8
gg1
  0
POLYLINE
  8
gg1
 62
1
 40
0.000000
 41
0.000000
 66
  1
  0
VERTEX
  8
gg1
 10
1.820000
 20
1.630700
  0
VERTEX
  8
gg1
 10
1.840000
 20
1.630700
  0
SEQEND
  8
gg1
  0
POLYLINE
  8
gg1
 62
1
 40
0.000000
 41
0.000000
 66
  1
  0
VERTEX
  8
gg1
 10
1.830000
 20
1.620700
  0
VERTEX
  8
gg1
 10
1.830000
 20
1.640700
  0
SEQEND
  8
gg1
  0
POLYLINE
  8
gg1
 62
1
 40
0.000000
 41
0.000000
 66
  1
  0
VERTEX
  8
gg1
 10
1.270000
 20
0.450000
  0
VERTEX
  8
gg1
 10
1.290000
 20
0.450000
  0
SEQEND
  8
gg1
  0
POLYLINE
  8
gg1
 62
1
 40
0.000000
 41
0.000000
 66
  1
  0
VERTEX
  8
gg1
 10
1.280000
 20
0.440000
  0
VERTEX
  8
gg1
 10
1.280000
 20
0.460000
  0
SEQEND
  8
gg1
  0
POLYLINE
  8
gg1
 62
1
 40
0.000000
 41
0.000000
 66
  1
  0
VERTEX
  8
gg1
 10
1.270000
 20
0.520000
  0
VERTEX
  8
gg1
 10
1.290000
 20
0.520000
  0
SEQEND
  8
gg1
  0
POLYLINE
  8
gg1
 62
1
 40
0.000000
 41
0.000000
 66
  1
  0
VERTEX
  8
gg1
 10
1.280000
 20
0.510000
  0
VERTEX
  8
gg1
 10
1.280000
 20
0.530000
  0
SEQEND
  8
gg1
  0
POLYLINE
  8
gg1
 62
1
 40
0.000000
 41
0.000000
 66
  1
  0
VERTEX
  8
gg1
 10
1.270000
 20
0.590000
  0
VERTEX
  8
gg1
 10
1.290000
 20
0.590000
  0
SEQEND
  8
gg1
  0
POLYLINE
  8
gg1
 62
1
 40
0.000000
 41
0.000000
 66
  1
  0
VERTEX
  8
gg1
 10
1.280000
 20
0.580000
  0
VERTEX
  8
gg1
 10
1.280000
 20
0.600000
  0
SEQEND
  8
gg1
  0
POLYLINE
  8
gg1
 62
1
 40
0.000000
 41
0.000000
 66
  1
  0
VERTEX
  8
gg1
 10
1.270000
 20
0.660000
  0
VERTEX
  8
gg1
 10
1.290000
 20
0.660000
  0
SEQEND
  8
gg1
  0
POLYLINE
  8
gg1
 62
1
 40
0.000000
 41
0.000000
 66
  1
  0
VERTEX
  8
gg1
 10
1.280000
 20
0.650000
  0
VERTEX
  8
gg1
 10
1.280000
 20
0.670000
  0
SEQEND
  8
gg1
  0
POLYLINE
  8
gg1
 62
1
 40
0.000000
 41
0.000000
 66
  1
  0
VERTEX
  8
gg1
 10
1.270000
 20
0.730000
  0
VERTEX
  8
gg1
 10
1.290000
 20
0.730000
  0
SEQEND
  8
gg1
  0
POLYLINE
  8
gg1
 62
1
 40
0.000000
 41
0.000000
 66
  1
  0
VERTEX
  8
gg1
 10
1.280000
 20
0.720000
  0
VERTEX
  8
gg1
 10
1.280000
 20
0.740000
  0
SEQEND
  8
gg1
  0
POLYLINE
  8
gg1
 62
1
 40
0.000000
 41
0.000000
 66
  1
  0
VERTEX
  8
gg1
 10
1.280000
 20
1.510000
  0
VERTEX
  8
gg1
 10
1.300000
 20
1.510000
  0
SEQEND
  8
gg1
  0
POLYLINE
  8
gg1
 62
1
 40
0.000000
 41
0.000000
 66
  1
  0
VERTEX
  8
gg1
 10
1.290000
 20
1.500000
  0
VERTEX
  8
gg1
 10
1.290000
 20
1.520000
  0
SEQEND
  8
gg1
  0
POLYLINE
  8
gg1
 62
1
 40
0.000000
 41
0.000000
 66
  1
  0
VERTEX
  8
gg1
 10
1.280000
 20
1.580000
  0
VERTEX
  8
gg1
 10
1.300000
 20
1.580000
  0
SEQEND
  8
gg1
  0
POLYLINE
  8
gg1
 62
1
 40
0.000000
 41
0.000000
 66
  1
  0
VERTEX
  8
gg1
 10
1.290000
 20
1.570000
  0
VERTEX
  8
gg1
 10
1.290000
 20
1.590000
  0
SEQEND
  8
gg1
  0
POLYLINE
  8
gg1
 62
1
 40
0.000000
 41
0.000000
 66
  1
  0
VERTEX
  8
gg1
 10
1.280000
 20
1.650000
  0
VERTEX
  8
gg1
 10
1.300000
 20
1.650000
  0
SEQEND
  8
gg1
  0
POLYLINE
  8
gg1
 62
1
 40
0.000000
 41
0.000000
 66
  1
  0
VERTEX
  8
gg1
 10
1.290000
 20
1.640000
  0
VERTEX
  8
gg1
 10
1.290000
 20
1.660000
  0
SEQEND
  8
gg1
  0
POLYLINE
  8
gg1
 62
1
 40
0.000000
 41
0.000000
 66
  1
  0
VERTEX
  8
gg1
 10
1.280000
 20
1.710000
  0
VERTEX
  8
gg1
 10
1.300000
 20
1.710000
  0
SEQEND
  8
gg1
  0
POLYLINE
  8
gg1
 62
1
 40
0.000000
 41
0.000000
 66
  1
  0
VERTEX
  8
gg1
 10
1.290000
 20
1.700000
  0
VERTEX
  8
gg1
 10
1.290000
 20
1.720000
  0
SEQEND
  8
gg1
  0
POLYLINE
  8
gg1
 62
1
 40
0.000000
 41
0.000000
 66
  1
  0
VERTEX
  8
gg1
 10
1.260000
 20
1.345000
  0
VERTEX
  8
gg1
 10
1.280000
 20
1.345000
  0
SEQEND
  8
gg1
  0
POLYLINE
  8
gg1
 62
1
 40
0.000000
 41
0.000000
 66
  1
  0
VERTEX
  8
gg1
 10
1.270000
 20
1.335000
  0
VERTEX
  8
gg1
 10
1.270000
 20
1.355000
  0
SEQEND
  8
gg1
  0
POLYLINE
  8
gg1
 62
1
 40
0.000000
 41
0.000000
 66
  1
  0
VERTEX
  8
gg1
 10
0.975000
 20
1.330000
  0
VERTEX
  8
gg1
 10
0.995000
 20
1.330000
  0
SEQEND
  8
gg1
  0
POLYLINE
  8
gg1
 62
1
 40
0.000000
 41
0.000000
 66
  1
  0
VERTEX
  8
gg1
 10
0.985000
 20
1.320000
  0
VERTEX
  8
gg1
 10
0.985000
 20
1.340000
  0
SEQEND
  8
gg1
  0
POLYLINE
  8
gg1
 62
1
 40
0.000000
 41
0.000000
 66
  1
  0
VERTEX
  8
gg1
 10
0.925000
 20
1.330000
  0
VERTEX
  8
gg1
 10
0.945000
 20
1.330000
  0
SEQEND
  8
gg1
  0
POLYLINE
  8
gg1
 62
1
 40
0.000000
 41
0.000000
 66
  1
  0
VERTEX
  8
gg1
 10
0.935000
 20
1.320000
  0
VERTEX
  8
gg1
 10
0.935000
 20
1.340000
  0
SEQEND
  8
gg1
  0
POLYLINE
  8
gg1
 62
1
 40
0.000000
 41
0.000000
 66
  1
  0
VERTEX
  8
gg1
 10
2.282500
 20
1.120000
  0
VERTEX
  8
gg1
 10
2.297500
 20
1.120000
  0
SEQEND
  8
gg1
  0
POLYLINE
  8
gg1
 62
1
 40
0.000000
 41
0.000000
 66
  1
  0
VERTEX
  8
gg1
 10
2.290000
 20
1.112500
  0
VERTEX
  8
gg1
 10
2.290000
 20
1.127500
  0
SEQEND
  8
gg1
  0
POLYLINE
  8
gg1
 62
1
 40
0.000000
 41
0.000000
 66
  1
  0
VERTEX
  8
gg1
 10
2.237500
 20
1.170000
  0
VERTEX
  8
gg1
 10
2.252500
 20
1.170000
  0
SEQEND
  8
gg1
  0
POLYLINE
  8
gg1
 62
1
 40
0.000000
 41
0.000000
 66
  1
  0
VERTEX
  8
gg1
 10
2.245000
 20
1.162500
  0
VERTEX
  8
gg1
 10
2.245000
 20
1.177500
  0
SEQEND
  8
gg1
  0
POLYLINE
  8
gg1
 62
1
 40
0.000000
 41
0.000000
 66
  1
  0
VERTEX
  8
gg1
 10
1.582300
 20
1.698500
  0
VERTEX
  8
gg1
 10
1.597300
 20
1.698500
  0
SEQEND
  8
gg1
  0
POLYLINE
  8
gg1
 62
1
 40
0.000000
 41
0.000000
 66
  1
  0
VERTEX
  8
gg1
 10
1.589800
 20
1.691000
  0
VERTEX
  8
gg1
 10
1.589800
 20
1.706000
  0
SEQEND
  8
gg1
  0
POLYLINE
  8
gg1
 62
1
 40
0.000000
 41
0.000000
 66
  1
  0
VERTEX
  8
gg1
 10
1.582300
 20
1.741000
  0
VERTEX
  8
gg1
 10
1.597300
 20
1.741000
  0
SEQEND
  8
gg1
  0
POLYLINE
  8
gg1
 62
1
 40
0.000000
 41
0.000000
 66
  1
  0
VERTEX
  8
gg1
 10
1.589800
 20
1.733500
  0
VERTEX
  8
gg1
 10
1.589800
 20
1.748500
  0
SEQEND
  8
gg1
  0
POLYLINE
  8
gg1
 62
1
 40
0.000000
 41
0.000000
 66
  1
  0
VERTEX
  8
gg1
 10
1.759400
 20
1.826100
  0
VERTEX
  8
gg1
 10
1.774400
 20
1.826100
  0
SEQEND
  8
gg1
  0
POLYLINE
  8
gg1
 62
1
 40
0.000000
 41
0.000000
 66
  1
  0
VERTEX
  8
gg1
 10
1.766900
 20
1.818600
  0
VERTEX
  8
gg1
 10
1.766900
 20
1.833600
  0
SEQEND
  8
gg1
  0
POLYLINE
  8
gg1
 62
1
 40
0.000000
 41
0.000000
 66
  1
  0
VERTEX
  8
gg1
 10
1.715100
 20
1.826100
  0
VERTEX
  8
gg1
 10
1.730100
 20
1.826100
  0
SEQEND
  8
gg1
  0
POLYLINE
  8
gg1
 62
1
 40
0.000000
 41
0.000000
 66
  1
  0
VERTEX
  8
gg1
 10
1.722600
 20
1.818600
  0
VERTEX
  8
gg1
 10
1.722600
 20
1.833600
  0
SEQEND
  8
gg1
  0
POLYLINE
  8
gg1
 62
1
 40
0.000000
 41
0.000000
 66
  1
  0
VERTEX
  8
gg1
 10
1.626600
 20
1.826100
  0
VERTEX
  8
gg1
 10
1.641600
 20
1.826100
  0
SEQEND
  8
gg1
  0
POLYLINE
  8
gg1
 62
1
 40
0.000000
 41
0.000000
 66
  1
  0
VERTEX
  8
gg1
 10
1.634100
 20
1.818600
  0
VERTEX
  8
gg1
 10
1.634100
 20
1.833600
  0
SEQEND
  8
gg1
  0
POLYLINE
  8
gg1
 62
1
 40
0.000000
 41
0.000000
 66
  1
  0
VERTEX
  8
gg1
 10
1.582300
 20
1.783500
  0
VERTEX
  8
gg1
 10
1.597300
 20
1.783500
  0
SEQEND
  8
gg1
  0
POLYLINE
  8
gg1
 62
1
 40
0.000000
 41
0.000000
 66
  1
  0
VERTEX
  8
gg1
 10
1.589800
 20
1.776000
  0
VERTEX
  8
gg1
 10
1.589800
 20
1.791000
  0
SEQEND
  8
gg1
  0
POLYLINE
  8
gg1
 62
1
 40
0.000000
 41
0.000000
 66
  1
  0
VERTEX
  8
gg1
 10
1.670800
 20
1.826100
  0
VERTEX
  8
gg1
 10
1.685800
 20
1.826100
  0
SEQEND
  8
gg1
  0
POLYLINE
  8
gg1
 62
1
 40
0.000000
 41
0.000000
 66
  1
  0
VERTEX
  8
gg1
 10
1.678300
 20
1.818600
  0
VERTEX
  8
gg1
 10
1.678300
 20
1.833600
  0
SEQEND
  8
gg1
  0
POLYLINE
  8
gg1
 62
1
 40
0.000000
 41
0.000000
 66
  1
  0
VERTEX
  8
gg1
 10
1.582300
 20
1.826100
  0
VERTEX
  8
gg1
 10
1.597300
 20
1.826100
  0
SEQEND
  8
gg1
  0
POLYLINE
  8
gg1
 62
1
 40
0.000000
 41
0.000000
 66
  1
  0
VERTEX
  8
gg1
 10
1.589800
 20
1.818600
  0
VERTEX
  8
gg1
 10
1.589800
 20
1.833600
  0
SEQEND
  8
gg1
  0
POLYLINE
  8
gg1
 62
1
 40
0.000000
 41
0.000000
 66
  1
  0
VERTEX
  8
gg1
 10
1.582300
 20
1.656000
  0
VERTEX
  8
gg1
 10
1.597300
 20
1.656000
  0
SEQEND
  8
gg1
  0
POLYLINE
  8
gg1
 62
1
 40
0.000000
 41
0.000000
 66
  1
  0
VERTEX
  8
gg1
 10
1.589800
 20
1.648500
  0
VERTEX
  8
gg1
 10
1.589800
 20
1.663500
  0
SEQEND
  8
gg1
  0
POLYLINE
  8
gg1
 62
1
 40
0.000000
 41
0.000000
 66
  1
  0
VERTEX
  8
gg1
 10
1.582300
 20
1.613500
  0
VERTEX
  8
gg1
 10
1.597300
 20
1.613500
  0
SEQEND
  8
gg1
  0
POLYLINE
  8
gg1
 62
1
 40
0.000000
 41
0.000000
 66
  1
  0
VERTEX
  8
gg1
 10
1.589800
 20
1.606000
  0
VERTEX
  8
gg1
 10
1.589800
 20
1.621000
  0
SEQEND
  8
gg1
  0
POLYLINE
  8
gg1
 62
1
 40
0.000000
 41
0.000000
 66
  1
  0
VERTEX
  8
gg1
 10
1.626600
 20
1.613500
  0
VERTEX
  8
gg1
 10
1.641600
 20
1.613500
  0
SEQEND
  8
gg1
  0
POLYLINE
  8
gg1
 62
1
 40
0.000000
 41
0.000000
 66
  1
  0
VERTEX
  8
gg1
 10
1.634100
 20
1.606000
  0
VERTEX
  8
gg1
 10
1.634100
 20
1.621000
  0
SEQEND
  8
gg1
  0
POLYLINE
  8
gg1
 62
1
 40
0.000000
 41
0.000000
 66
  1
  0
VERTEX
  8
gg1
 10
1.626600
 20
1.656000
  0
VERTEX
  8
gg1
 10
1.641600
 20
1.656000
  0
SEQEND
  8
gg1
  0
POLYLINE
  8
gg1
 62
1
 40
0.000000
 41
0.000000
 66
  1
  0
VERTEX
  8
gg1
 10
1.634100
 20
1.648500
  0
VERTEX
  8
gg1
 10
1.634100
 20
1.663500
  0
SEQEND
  8
gg1
  0
POLYLINE
  8
gg1
 62
1
 40
0.000000
 41
0.000000
 66
  1
  0
VERTEX
  8
gg1
 10
1.626600
 20
1.783500
  0
VERTEX
  8
gg1
 10
1.641600
 20
1.783500
  0
SEQEND
  8
gg1
  0
POLYLINE
  8
gg1
 62
1
 40
0.000000
 41
0.000000
 66
  1
  0
VERTEX
  8
gg1
 10
1.634100
 20
1.776000
  0
VERTEX
  8
gg1
 10
1.634100
 20
1.791000
  0
SEQEND
  8
gg1
  0
POLYLINE
  8
gg1
 62
1
 40
0.000000
 41
0.000000
 66
  1
  0
VERTEX
  8
gg1
 10
1.626600
 20
1.741000
  0
VERTEX
  8
gg1
 10
1.641600
 20
1.741000
  0
SEQEND
  8
gg1
  0
POLYLINE
  8
gg1
 62
1
 40
0.000000
 41
0.000000
 66
  1
  0
VERTEX
  8
gg1
 10
1.634100
 20
1.733500
  0
VERTEX
  8
gg1
 10
1.634100
 20
1.748500
  0
SEQEND
  8
gg1
  0
POLYLINE
  8
gg1
 62
1
 40
0.000000
 41
0.000000
 66
  1
  0
VERTEX
  8
gg1
 10
1.626600
 20
1.698500
  0
VERTEX
  8
gg1
 10
1.641600
 20
1.698500
  0
SEQEND
  8
gg1
  0
POLYLINE
  8
gg1
 62
1
 40
0.000000
 41
0.000000
 66
  1
  0
VERTEX
  8
gg1
 10
1.634100
 20
1.691000
  0
VERTEX
  8
gg1
 10
1.634100
 20
1.706000
  0
SEQEND
  8
gg1
  0
POLYLINE
  8
gg1
 62
1
 40
0.000000
 41
0.000000
 66
  1
  0
VERTEX
  8
gg1
 10
1.670800
 20
1.613500
  0
VERTEX
  8
gg1
 10
1.685800
 20
1.613500
  0
SEQEND
  8
gg1
  0
POLYLINE
  8
gg1
 62
1
 40
0.000000
 41
0.000000
 66
  1
  0
VERTEX
  8
gg1
 10
1.678300
 20
1.606000
  0
VERTEX
  8
gg1
 10
1.678300
 20
1.621000
  0
SEQEND
  8
gg1
  0
POLYLINE
  8
gg1
 62
1
 40
0.000000
 41
0.000000
 66
  1
  0
VERTEX
  8
gg1
 10
1.670800
 20
1.656000
  0
VERTEX
  8
gg1
 10
1.685800
 20
1.656000
  0
SEQEND
  8
gg1
  0
POLYLINE
  8
gg1
 62
1
 40
0.000000
 41
0.000000
 66
  1
  0
VERTEX
  8
gg1
 10
1.678300
 20
1.648500
  0
VERTEX
  8
gg1
 10
1.678300
 20
1.663500
  0
SEQEND
  8
gg1
  0
POLYLINE
  8
gg1
 62
1
 40
0.000000
 41
0.000000
 66
  1
  0
VERTEX
  8
gg1
 10
1.670800
 20
1.783500
  0
VERTEX
  8
gg1
 10
1.685800
 20
1.783500
  0
SEQEND
  8
gg1
  0
POLYLINE
  8
gg1
 62
1
 40
0.000000
 41
0.000000
 66
  1
  0
VERTEX
  8
gg1
 10
1.678300
 20
1.776000
  0
VERTEX
  8
gg1
 10
1.678300
 20
1.791000
  0
SEQEND
  8
gg1
  0
POLYLINE
  8
gg1
 62
1
 40
0.000000
 41
0.000000
 66
  1
  0
VERTEX
  8
gg1
 10
1.670800
 20
1.741000
  0
VERTEX
  8
gg1
 10
1.685800
 20
1.741000
  0
SEQEND
  8
gg1
  0
POLYLINE
  8
gg1
 62
1
 40
0.000000
 41
0.000000
 66
  1
  0
VERTEX
  8
gg1
 10
1.678300
 20
1.733500
  0
VERTEX
  8
gg1
 10
1.678300
 20
1.748500
  0
SEQEND
  8
gg1
  0
POLYLINE
  8
gg1
 62
1
 40
0.000000
 41
0.000000
 66
  1
  0
VERTEX
  8
gg1
 10
1.670800
 20
1.698500
  0
VERTEX
  8
gg1
 10
1.685800
 20
1.698500
  0
SEQEND
  8
gg1
  0
POLYLINE
  8
gg1
 62
1
 40
0.000000
 41
0.000000
 66
  1
  0
VERTEX
  8
gg1
 10
1.678300
 20
1.691000
  0
VERTEX
  8
gg1
 10
1.678300
 20
1.706000
  0
SEQEND
  8
gg1
  0
POLYLINE
  8
gg1
 62
1
 40
0.000000
 41
0.000000
 66
  1
  0
VERTEX
  8
gg1
 10
1.715100
 20
1.613500
  0
VERTEX
  8
gg1
 10
1.730100
 20
1.613500
  0
SEQEND
  8
gg1
  0
POLYLINE
  8
gg1
 62
1
 40
0.000000
 41
0.000000
 66
  1
  0
VERTEX
  8
gg1
 10
1.722600
 20
1.606000
  0
VERTEX
  8
gg1
 10
1.722600
 20
1.621000
  0
SEQEND
  8
gg1
  0
POLYLINE
  8
gg1
 62
1
 40
0.000000
 41
0.000000
 66
  1
  0
VERTEX
  8
gg1
 10
1.715100
 20
1.656000
  0
VERTEX
  8
gg1
 10
1.730100
 20
1.656000
  0
SEQEND
  8
gg1
  0
POLYLINE
  8
gg1
 62
1
 40
0.000000
 41
0.000000
 66
  1
  0
VERTEX
  8
gg1
 10
1.722600
 20
1.648500
  0
VERTEX
  8
gg1
 10
1.722600
 20
1.663500
  0
SEQEND
  8
gg1
  0
POLYLINE
  8
gg1
 62
1
 40
0.000000
 41
0.000000
 66
  1
  0
VERTEX
  8
gg1
 10
1.715100
 20
1.783500
  0
VERTEX
  8
gg1
 10
1.730100
 20
1.783500
  0
SEQEND
  8
gg1
  0
POLYLINE
  8
gg1
 62
1
 40
0.000000
 41
0.000000
 66
  1
  0
VERTEX
  8
gg1
 10
1.722600
 20
1.776000
  0
VERTEX
  8
gg1
 10
1.722600
 20
1.791000
  0
SEQEND
  8
gg1
  0
POLYLINE
  8
gg1
 62
1
 40
0.000000
 41
0.000000
 66
  1
  0
VERTEX
  8
gg1
 10
1.715100
 20
1.741000
  0
VERTEX
  8
gg1
 10
1.730100
 20
1.741000
  0
SEQEND
  8
gg1
  0
POLYLINE
  8
gg1
 62
1
 40
0.000000
 41
0.000000
 66
  1
  0
VERTEX
  8
gg1
 10
1.722600
 20
1.733500
  0
VERTEX
  8
gg1
 10
1.722600
 20
1.748500
  0
SEQEND
  8
gg1
  0
POLYLINE
  8
gg1
 62
1
 40
0.000000
 41
0.000000
 66
  1
  0
VERTEX
  8
gg1
 10
1.715100
 20
1.698500
  0
VERTEX
  8
gg1
 10
1.730100
 20
1.698500
  0
SEQEND
  8
gg1
  0
POLYLINE
  8
gg1
 62
1
 40
0.000000
 41
0.000000
 66
  1
  0
VERTEX
  8
gg1
 10
1.722600
 20
1.691000
  0
VERTEX
  8
gg1
 10
1.722600
 20
1.706000
  0
SEQEND
  8
gg1
  0
POLYLINE
  8
gg1
 62
1
 40
0.000000
 41
0.000000
 66
  1
  0
VERTEX
  8
gg1
 10
1.759400
 20
1.613500
  0
VERTEX
  8
gg1
 10
1.774400
 20
1.613500
  0
SEQEND
  8
gg1
  0
POLYLINE
  8
gg1
 62
1
 40
0.000000
 41
0.000000
 66
  1
  0
VERTEX
  8
gg1
 10
1.766900
 20
1.606000
  0
VERTEX
  8
gg1
 10
1.766900
 20
1.621000
  0
SEQEND
  8
gg1
  0
POLYLINE
  8
gg1
 62
1
 40
0.000000
 41
0.000000
 66
  1
  0
VERTEX
  8
gg1
 10
1.759400
 20
1.656000
  0
VERTEX
  8
gg1
 10
1.774400
 20
1.656000
  0
SEQEND
  8
gg1
  0
POLYLINE
  8
gg1
 62
1
 40
0.000000
 41
0.000000
 66
  1
  0
VERTEX
  8
gg1
 10
1.766900
 20
1.648500
  0
VERTEX
  8
gg1
 10
1.766900
 20
1.663500
  0
SEQEND
  8
gg1
  0
POLYLINE
  8
gg1
 62
1
 40
0.000000
 41
0.000000
 66
  1
  0
VERTEX
  8
gg1
 10
1.759400
 20
1.783500
  0
VERTEX
  8
gg1
 10
1.774400
 20
1.783500
  0
SEQEND
  8
gg1
  0
POLYLINE
  8
gg1
 62
1
 40
0.000000
 41
0.000000
 66
  1
  0
VERTEX
  8
gg1
 10
1.766900
 20
1.776000
  0
VERTEX
  8
gg1
 10
1.766900
 20
1.791000
  0
SEQEND
  8
gg1
  0
POLYLINE
  8
gg1
 62
1
 40
0.000000
 41
0.000000
 66
  1
  0
VERTEX
  8
gg1
 10
1.759400
 20
1.741000
  0
VERTEX
  8
gg1
 10
1.774400
 20
1.741000
  0
SEQEND
  8
gg1
  0
POLYLINE
  8
gg1
 62
1
 40
0.000000
 41
0.000000
 66
  1
  0
VERTEX
  8
gg1
 10
1.766900
 20
1.733500
  0
VERTEX
  8
gg1
 10
1.766900
 20
1.748500
  0
SEQEND
  8
gg1
  0
POLYLINE
  8
gg1
 62
1
 40
0.000000
 41
0.000000
 66
  1
  0
VERTEX
  8
gg1
 10
1.759400
 20
1.698500
  0
VERTEX
  8
gg1
 10
1.774400
 20
1.698500
  0
SEQEND
  8
gg1
  0
POLYLINE
  8
gg1
 62
1
 40
0.000000
 41
0.000000
 66
  1
  0
VERTEX
  8
gg1
 10
1.766900
 20
1.691000
  0
VERTEX
  8
gg1
 10
1.766900
 20
1.706000
  0
SEQEND
  8
gg1
  0
POLYLINE
  8
gg1
 62
1
 40
0.000000
 41
0.000000
 66
  1
  0
VERTEX
  8
gg1
 10
1.759400
 20
1.410300
  0
VERTEX
  8
gg1
 10
1.774400
 20
1.410300
  0
SEQEND
  8
gg1
  0
POLYLINE
  8
gg1
 62
1
 40
0.000000
 41
0.000000
 66
  1
  0
VERTEX
  8
gg1
 10
1.766900
 20
1.402800
  0
VERTEX
  8
gg1
 10
1.766900
 20
1.417800
  0
SEQEND
  8
gg1
  0
POLYLINE
  8
gg1
 62
1
 40
0.000000
 41
0.000000
 66
  1
  0
VERTEX
  8
gg1
 10
1.759400
 20
1.367800
  0
VERTEX
  8
gg1
 10
1.774400
 20
1.367800
  0
SEQEND
  8
gg1
  0
POLYLINE
  8
gg1
 62
1
 40
0.000000
 41
0.000000
 66
  1
  0
VERTEX
  8
gg1
 10
1.766900
 20
1.360300
  0
VERTEX
  8
gg1
 10
1.766900
 20
1.375300
  0
SEQEND
  8
gg1
  0
POLYLINE
  8
gg1
 62
1
 40
0.000000
 41
0.000000
 66
  1
  0
VERTEX
  8
gg1
 10
1.759400
 20
1.325300
  0
VERTEX
  8
gg1
 10
1.774400
 20
1.325300
  0
SEQEND
  8
gg1
  0
POLYLINE
  8
gg1
 62
1
 40
0.000000
 41
0.000000
 66
  1
  0
VERTEX
  8
gg1
 10
1.766900
 20
1.317800
  0
VERTEX
  8
gg1
 10
1.766900
 20
1.332800
  0
SEQEND
  8
gg1
  0
POLYLINE
  8
gg1
 62
1
 40
0.000000
 41
0.000000
 66
  1
  0
VERTEX
  8
gg1
 10
1.759400
 20
1.452800
  0
VERTEX
  8
gg1
 10
1.774400
 20
1.452800
  0
SEQEND
  8
gg1
  0
POLYLINE
  8
gg1
 62
1
 40
0.000000
 41
0.000000
 66
  1
  0
VERTEX
  8
gg1
 10
1.766900
 20
1.445300
  0
VERTEX
  8
gg1
 10
1.766900
 20
1.460300
  0
SEQEND
  8
gg1
  0
POLYLINE
  8
gg1
 62
1
 40
0.000000
 41
0.000000
 66
  1
  0
VERTEX
  8
gg1
 10
1.759400
 20
1.495400
  0
VERTEX
  8
gg1
 10
1.774400
 20
1.495400
  0
SEQEND
  8
gg1
  0
POLYLINE
  8
gg1
 62
1
 40
0.000000
 41
0.000000
 66
  1
  0
VERTEX
  8
gg1
 10
1.766900
 20
1.487900
  0
VERTEX
  8
gg1
 10
1.766900
 20
1.502900
  0
SEQEND
  8
gg1
  0
POLYLINE
  8
gg1
 62
1
 40
0.000000
 41
0.000000
 66
  1
  0
VERTEX
  8
gg1
 10
1.715100
 20
1.410300
  0
VERTEX
  8
gg1
 10
1.730100
 20
1.410300
  0
SEQEND
  8
gg1
  0
POLYLINE
  8
gg1
 62
1
 40
0.000000
 41
0.000000
 66
  1
  0
VERTEX
  8
gg1
 10
1.722600
 20
1.402800
  0
VERTEX
  8
gg1
 10
1.722600
 20
1.417800
  0
SEQEND
  8
gg1
  0
POLYLINE
  8
gg1
 62
1
 40
0.000000
 41
0.000000
 66
  1
  0
VERTEX
  8
gg1
 10
1.715100
 20
1.367800
  0
VERTEX
  8
gg1
 10
1.730100
 20
1.367800
  0
SEQEND
  8
gg1
  0
POLYLINE
  8
gg1
 62
1
 40
0.000000
 41
0.000000
 66
  1
  0
VERTEX
  8
gg1
 10
1.722600
 20
1.360300
  0
VERTEX
  8
gg1
 10
1.722600
 20
1.375300
  0
SEQEND
  8
gg1
  0
POLYLINE
  8
gg1
 62
1
 40
0.000000
 41
0.000000
 66
  1
  0
VERTEX
  8
gg1
 10
1.715100
 20
1.325300
  0
VERTEX
  8
gg1
 10
1.730100
 20
1.325300
  0
SEQEND
  8
gg1
  0
POLYLINE
  8
gg1
 62
1
 40
0.000000
 41
0.000000
 66
  1
  0
VERTEX
  8
gg1
 10
1.722600
 20
1.317800
  0
VERTEX
  8
gg1
 10
1.722600
 20
1.332800
  0
SEQEND
  8
gg1
  0
POLYLINE
  8
gg1
 62
1
 40
0.000000
 41
0.000000
 66
  1
  0
VERTEX
  8
gg1
 10
1.715100
 20
1.452800
  0
VERTEX
  8
gg1
 10
1.730100
 20
1.452800
  0
SEQEND
  8
gg1
  0
POLYLINE
  8
gg1
 62
1
 40
0.000000
 41
0.000000
 66
  1
  0
VERTEX
  8
gg1
 10
1.722600
 20
1.445300
  0
VERTEX
  8
gg1
 10
1.722600
 20
1.460300
  0
SEQEND
  8
gg1
  0
POLYLINE
  8
gg1
 62
1
 40
0.000000
 41
0.000000
 66
  1
  0
VERTEX
  8
gg1
 10
1.715100
 20
1.495400
  0
VERTEX
  8
gg1
 10
1.730100
 20
1.495400
  0
SEQEND
  8
gg1
  0
POLYLINE
  8
gg1
 62
1
 40
0.000000
 41
0.000000
 66
  1
  0
VERTEX
  8
gg1
 10
1.722600
 20
1.487900
  0
VERTEX
  8
gg1
 10
1.722600
 20
1.502900
  0
SEQEND
  8
gg1
  0
POLYLINE
  8
gg1
 62
1
 40
0.000000
 41
0.000000
 66
  1
  0
VERTEX
  8
gg1
 10
1.670800
 20
1.410300
  0
VERTEX
  8
gg1
 10
1.685800
 20
1.410300
  0
SEQEND
  8
gg1
  0
POLYLINE
  8
gg1
 62
1
 40
0.000000
 41
0.000000
 66
  1
  0
VERTEX
  8
gg1
 10
1.678300
 20
1.402800
  0
VERTEX
  8
gg1
 10
1.678300
 20
1.417800
  0
SEQEND
  8
gg1
  0
POLYLINE
  8
gg1
 62
1
 40
0.000000
 41
0.000000
 66
  1
  0
VERTEX
  8
gg1
 10
1.670800
 20
1.367800
  0
VERTEX
  8
gg1
 10
1.685800
 20
1.367800
  0
SEQEND
  8
gg1
  0
POLYLINE
  8
gg1
 62
1
 40
0.000000
 41
0.000000
 66
  1
  0
VERTEX
  8
gg1
 10
1.678300
 20
1.360300
  0
VERTEX
  8
gg1
 10
1.678300
 20
1.375300
  0
SEQEND
  8
gg1
  0
POLYLINE
  8
gg1
 62
1
 40
0.000000
 41
0.000000
 66
  1
  0
VERTEX
  8
gg1
 10
1.670800
 20
1.325300
  0
VERTEX
  8
gg1
 10
1.685800
 20
1.325300
  0
SEQEND
  8
gg1
  0
POLYLINE
  8
gg1
 62
1
 40
0.000000
 41
0.000000
 66
  1
  0
VERTEX
  8
gg1
 10
1.678300
 20
1.317800
  0
VERTEX
  8
gg1
 10
1.678300
 20
1.332800
  0
SEQEND
  8
gg1
  0
POLYLINE
  8
gg1
 62
1
 40
0.000000
 41
0.000000
 66
  1
  0
VERTEX
  8
gg1
 10
1.670800
 20
1.452800
  0
VERTEX
  8
gg1
 10
1.685800
 20
1.452800
  0
SEQEND
  8
gg1
  0
POLYLINE
  8
gg1
 62
1
 40
0.000000
 41
0.000000
 66
  1
  0
VERTEX
  8
gg1
 10
1.678300
 20
1.445300
  0
VERTEX
  8
gg1
 10
1.678300
 20
1.460300
  0
SEQEND
  8
gg1
  0
POLYLINE
  8
gg1
 62
1
 40
0.000000
 41
0.000000
 66
  1
  0
VERTEX
  8
gg1
 10
1.670800
 20
1.495400
  0
VERTEX
  8
gg1
 10
1.685800
 20
1.495400
  0
SEQEND
  8
gg1
  0
POLYLINE
  8
gg1
 62
1
 40
0.000000
 41
0.000000
 66
  1
  0
VERTEX
  8
gg1
 10
1.678300
 20
1.487900
  0
VERTEX
  8
gg1
 10
1.678300
 20
1.502900
  0
SEQEND
  8
gg1
  0
POLYLINE
  8
gg1
 62
1
 40
0.000000
 41
0.000000
 66
  1
  0
VERTEX
  8
gg1
 10
1.626600
 20
1.410300
  0
VERTEX
  8
gg1
 10
1.641600
 20
1.410300
  0
SEQEND
  8
gg1
  0
POLYLINE
  8
gg1
 62
1
 40
0.000000
 41
0.000000
 66
  1
  0
VERTEX
  8
gg1
 10
1.634100
 20
1.402800
  0
VERTEX
  8
gg1
 10
1.634100
 20
1.417800
  0
SEQEND
  8
gg1
  0
POLYLINE
  8
gg1
 62
1
 40
0.000000
 41
0.000000
 66
  1
  0
VERTEX
  8
gg1
 10
1.626600
 20
1.367800
  0
VERTEX
  8
gg1
 10
1.641600
 20
1.367800
  0
SEQEND
  8
gg1
  0
POLYLINE
  8
gg1
 62
1
 40
0.000000
 41
0.000000
 66
  1
  0
VERTEX
  8
gg1
 10
1.634100
 20
1.360300
  0
VERTEX
  8
gg1
 10
1.634100
 20
1.375300
  0
SEQEND
  8
gg1
  0
POLYLINE
  8
gg1
 62
1
 40
0.000000
 41
0.000000
 66
  1
  0
VERTEX
  8
gg1
 10
1.626600
 20
1.325300
  0
VERTEX
  8
gg1
 10
1.641600
 20
1.325300
  0
SEQEND
  8
gg1
  0
POLYLINE
  8
gg1
 62
1
 40
0.000000
 41
0.000000
 66
  1
  0
VERTEX
  8
gg1
 10
1.634100
 20
1.317800
  0
VERTEX
  8
gg1
 10
1.634100
 20
1.332800
  0
SEQEND
  8
gg1
  0
POLYLINE
  8
gg1
 62
1
 40
0.000000
 41
0.000000
 66
  1
  0
VERTEX
  8
gg1
 10
1.626600
 20
1.452800
  0
VERTEX
  8
gg1
 10
1.641600
 20
1.452800
  0
SEQEND
  8
gg1
  0
POLYLINE
  8
gg1
 62
1
 40
0.000000
 41
0.000000
 66
  1
  0
VERTEX
  8
gg1
 10
1.634100
 20
1.445300
  0
VERTEX
  8
gg1
 10
1.634100
 20
1.460300
  0
SEQEND
  8
gg1
  0
POLYLINE
  8
gg1
 62
1
 40
0.000000
 41
0.000000
 66
  1
  0
VERTEX
  8
gg1
 10
1.626600
 20
1.495400
  0
VERTEX
  8
gg1
 10
1.641600
 20
1.495400
  0
SEQEND
  8
gg1
  0
POLYLINE
  8
gg1
 62
1
 40
0.000000
 41
0.000000
 66
  1
  0
VERTEX
  8
gg1
 10
1.634100
 20
1.487900
  0
VERTEX
  8
gg1
 10
1.634100
 20
1.502900
  0
SEQEND
  8
gg1
  0
POLYLINE
  8
gg1
 62
1
 40
0.000000
 41
0.000000
 66
  1
  0
VERTEX
  8
gg1
 10
1.582300
 20
1.495400
  0
VERTEX
  8
gg1
 10
1.597300
 20
1.495400
  0
SEQEND
  8
gg1
  0
POLYLINE
  8
gg1
 62
1
 40
0.000000
 41
0.000000
 66
  1
  0
VERTEX
  8
gg1
 10
1.589800
 20
1.487900
  0
VERTEX
  8
gg1
 10
1.589800
 20
1.502900
  0
SEQEND
  8
gg1
  0
POLYLINE
  8
gg1
 62
1
 40
0.000000
 41
0.000000
 66
  1
  0
VERTEX
  8
gg1
 10
1.582300
 20
1.452800
  0
VERTEX
  8
gg1
 10
1.597300
 20
1.452800
  0
SEQEND
  8
gg1
  0
POLYLINE
  8
gg1
 62
1
 40
0.000000
 41
0.000000
 66
  1
  0
VERTEX
  8
gg1
 10
1.589800
 20
1.445300
  0
VERTEX
  8
gg1
 10
1.589800
 20
1.460300
  0
SEQEND
  8
gg1
  0
POLYLINE
  8
gg1
 62
1
 40
0.000000
 41
0.000000
 66
  1
  0
VERTEX
  8
gg1
 10
1.582300
 20
1.282800
  0
VERTEX
  8
gg1
 10
1.597300
 20
1.282800
  0
SEQEND
  8
gg1
  0
POLYLINE
  8
gg1
 62
1
 40
0.000000
 41
0.000000
 66
  1
  0
VERTEX
  8
gg1
 10
1.589800
 20
1.275300
  0
VERTEX
  8
gg1
 10
1.589800
 20
1.290300
  0
SEQEND
  8
gg1
  0
POLYLINE
  8
gg1
 62
1
 40
0.000000
 41
0.000000
 66
  1
  0
VERTEX
  8
gg1
 10
1.670800
 20
1.282800
  0
VERTEX
  8
gg1
 10
1.685800
 20
1.282800
  0
SEQEND
  8
gg1
  0
POLYLINE
  8
gg1
 62
1
 40
0.000000
 41
0.000000
 66
  1
  0
VERTEX
  8
gg1
 10
1.678300
 20
1.275300
  0
VERTEX
  8
gg1
 10
1.678300
 20
1.290300
  0
SEQEND
  8
gg1
  0
POLYLINE
  8
gg1
 62
1
 40
0.000000
 41
0.000000
 66
  1
  0
VERTEX
  8
gg1
 10
1.582300
 20
1.325300
  0
VERTEX
  8
gg1
 10
1.597300
 20
1.325300
  0
SEQEND
  8
gg1
  0
POLYLINE
  8
gg1
 62
1
 40
0.000000
 41
0.000000
 66
  1
  0
VERTEX
  8
gg1
 10
1.589800
 20
1.317800
  0
VERTEX
  8
gg1
 10
1.589800
 20
1.332800
  0
SEQEND
  8
gg1
  0
POLYLINE
  8
gg1
 62
1
 40
0.000000
 41
0.000000
 66
  1
  0
VERTEX
  8
gg1
 10
1.626600
 20
1.282800
  0
VERTEX
  8
gg1
 10
1.641600
 20
1.282800
  0
SEQEND
  8
gg1
  0
POLYLINE
  8
gg1
 62
1
 40
0.000000
 41
0.000000
 66
  1
  0
VERTEX
  8
gg1
 10
1.634100
 20
1.275300
  0
VERTEX
  8
gg1
 10
1.634100
 20
1.290300
  0
SEQEND
  8
gg1
  0
POLYLINE
  8
gg1
 62
1
 40
0.000000
 41
0.000000
 66
  1
  0
VERTEX
  8
gg1
 10
1.715100
 20
1.282800
  0
VERTEX
  8
gg1
 10
1.730100
 20
1.282800
  0
SEQEND
  8
gg1
  0
POLYLINE
  8
gg1
 62
1
 40
0.000000
 41
0.000000
 66
  1
  0
VERTEX
  8
gg1
 10
1.722600
 20
1.275300
  0
VERTEX
  8
gg1
 10
1.722600
 20
1.290300
  0
SEQEND
  8
gg1
  0
POLYLINE
  8
gg1
 62
1
 40
0.000000
 41
0.000000
 66
  1
  0
VERTEX
  8
gg1
 10
1.759400
 20
1.282800
  0
VERTEX
  8
gg1
 10
1.774400
 20
1.282800
  0
SEQEND
  8
gg1
  0
POLYLINE
  8
gg1
 62
1
 40
0.000000
 41
0.000000
 66
  1
  0
VERTEX
  8
gg1
 10
1.766900
 20
1.275300
  0
VERTEX
  8
gg1
 10
1.766900
 20
1.290300
  0
SEQEND
  8
gg1
  0
POLYLINE
  8
gg1
 62
1
 40
0.000000
 41
0.000000
 66
  1
  0
VERTEX
  8
gg1
 10
1.582300
 20
1.367800
  0
VERTEX
  8
gg1
 10
1.597300
 20
1.367800
  0
SEQEND
  8
gg1
  0
POLYLINE
  8
gg1
 62
1
 40
0.000000
 41
0.000000
 66
  1
  0
VERTEX
  8
gg1
 10
1.589800
 20
1.360300
  0
VERTEX
  8
gg1
 10
1.589800
 20
1.375300
  0
SEQEND
  8
gg1
  0
POLYLINE
  8
gg1
 62
1
 40
0.000000
 41
0.000000
 66
  1
  0
VERTEX
  8
gg1
 10
1.582300
 20
1.410300
  0
VERTEX
  8
gg1
 10
1.597300
 20
1.410300
  0
SEQEND
  8
gg1
  0
POLYLINE
  8
gg1
 62
1
 40
0.000000
 41
0.000000
 66
  1
  0
VERTEX
  8
gg1
 10
1.589800
 20
1.402800
  0
VERTEX
  8
gg1
 10
1.589800
 20
1.417800
  0
SEQEND
  8
gg1
  0
POLYLINE
  8
gg1
 62
1
 40
0.000000
 41
0.000000
 66
  1
  0
VERTEX
  8
gg1
 10
1.519300
 20
1.577000
  0
VERTEX
  8
gg1
 10
1.534300
 20
1.577000
  0
SEQEND
  8
gg1
  0
POLYLINE
  8
gg1
 62
1
 40
0.000000
 41
0.000000
 66
  1
  0
VERTEX
  8
gg1
 10
1.526800
 20
1.569500
  0
VERTEX
  8
gg1
 10
1.526800
 20
1.584500
  0
SEQEND
  8
gg1
  0
POLYLINE
  8
gg1
 62
1
 40
0.000000
 41
0.000000
 66
  1
  0
VERTEX
  8
gg1
 10
1.519300
 20
1.619600
  0
VERTEX
  8
gg1
 10
1.534300
 20
1.619600
  0
SEQEND
  8
gg1
  0
POLYLINE
  8
gg1
 62
1
 40
0.000000
 41
0.000000
 66
  1
  0
VERTEX
  8
gg1
 10
1.526800
 20
1.612100
  0
VERTEX
  8
gg1
 10
1.526800
 20
1.627100
  0
SEQEND
  8
gg1
  0
POLYLINE
  8
gg1
 62
1
 40
0.000000
 41
0.000000
 66
  1
  0
VERTEX
  8
gg1
 10
1.475000
 20
1.577000
  0
VERTEX
  8
gg1
 10
1.490000
 20
1.577000
  0
SEQEND
  8
gg1
  0
POLYLINE
  8
gg1
 62
1
 40
0.000000
 41
0.000000
 66
  1
  0
VERTEX
  8
gg1
 10
1.482500
 20
1.569500
  0
VERTEX
  8
gg1
 10
1.482500
 20
1.584500
  0
SEQEND
  8
gg1
  0
POLYLINE
  8
gg1
 62
1
 40
0.000000
 41
0.000000
 66
  1
  0
VERTEX
  8
gg1
 10
1.475000
 20
1.619600
  0
VERTEX
  8
gg1
 10
1.490000
 20
1.619600
  0
SEQEND
  8
gg1
  0
POLYLINE
  8
gg1
 62
1
 40
0.000000
 41
0.000000
 66
  1
  0
VERTEX
  8
gg1
 10
1.482500
 20
1.612100
  0
VERTEX
  8
gg1
 10
1.482500
 20
1.627100
  0
SEQEND
  8
gg1
  0
POLYLINE
  8
gg1
 62
1
 40
0.000000
 41
0.000000
 66
  1
  0
VERTEX
  8
gg1
 10
1.430700
 20
1.577000
  0
VERTEX
  8
gg1
 10
1.445700
 20
1.577000
  0
SEQEND
  8
gg1
  0
POLYLINE
  8
gg1
 62
1
 40
0.000000
 41
0.000000
 66
  1
  0
VERTEX
  8
gg1
 10
1.438200
 20
1.569500
  0
VERTEX
  8
gg1
 10
1.438200
 20
1.584500
  0
SEQEND
  8
gg1
  0
POLYLINE
  8
gg1
 62
1
 40
0.000000
 41
0.000000
 66
  1
  0
VERTEX
  8
gg1
 10
1.430700
 20
1.619600
  0
VERTEX
  8
gg1
 10
1.445700
 20
1.619600
  0
SEQEND
  8
gg1
  0
POLYLINE
  8
gg1
 62
1
 40
0.000000
 41
0.000000
 66
  1
  0
VERTEX
  8
gg1
 10
1.438200
 20
1.612100
  0
VERTEX
  8
gg1
 10
1.438200
 20
1.627100
  0
SEQEND
  8
gg1
  0
POLYLINE
  8
gg1
 62
1
 40
0.000000
 41
0.000000
 66
  1
  0
VERTEX
  8
gg1
 10
1.386400
 20
1.577000
  0
VERTEX
  8
gg1
 10
1.401400
 20
1.577000
  0
SEQEND
  8
gg1
  0
POLYLINE
  8
gg1
 62
1
 40
0.000000
 41
0.000000
 66
  1
  0
VERTEX
  8
gg1
 10
1.393900
 20
1.569500
  0
VERTEX
  8
gg1
 10
1.393900
 20
1.584500
  0
SEQEND
  8
gg1
  0
POLYLINE
  8
gg1
 62
1
 40
0.000000
 41
0.000000
 66
  1
  0
VERTEX
  8
gg1
 10
1.386400
 20
1.619600
  0
VERTEX
  8
gg1
 10
1.401400
 20
1.619600
  0
SEQEND
  8
gg1
  0
POLYLINE
  8
gg1
 62
1
 40
0.000000
 41
0.000000
 66
  1
  0
VERTEX
  8
gg1
 10
1.393900
 20
1.612100
  0
VERTEX
  8
gg1
 10
1.393900
 20
1.627100
  0
SEQEND
  8
gg1
  0
POLYLINE
  8
gg1
 62
1
 40
0.000000
 41
0.000000
 66
  1
  0
VERTEX
  8
gg1
 10
1.342100
 20
1.662100
  0
VERTEX
  8
gg1
 10
1.357100
 20
1.662100
  0
SEQEND
  8
gg1
  0
POLYLINE
  8
gg1
 62
1
 40
0.000000
 41
0.000000
 66
  1
  0
VERTEX
  8
gg1
 10
1.349600
 20
1.654600
  0
VERTEX
  8
gg1
 10
1.349600
 20
1.669600
  0
SEQEND
  8
gg1
  0
POLYLINE
  8
gg1
 62
1
 40
0.000000
 41
0.000000
 66
  1
  0
VERTEX
  8
gg1
 10
1.430700
 20
1.662100
  0
VERTEX
  8
gg1
 10
1.445700
 20
1.662100
  0
SEQEND
  8
gg1
  0
POLYLINE
  8
gg1
 62
1
 40
0.000000
 41
0.000000
 66
  1
  0
VERTEX
  8
gg1
 10
1.438200
 20
1.654600
  0
VERTEX
  8
gg1
 10
1.438200
 20
1.669600
  0
SEQEND
  8
gg1
  0
POLYLINE
  8
gg1
 62
1
 40
0.000000
 41
0.000000
 66
  1
  0
VERTEX
  8
gg1
 10
1.342100
 20
1.619600
  0
VERTEX
  8
gg1
 10
1.357100
 20
1.619600
  0
SEQEND
  8
gg1
  0
POLYLINE
  8
gg1
 62
1
 40
0.000000
 41
0.000000
 66
  1
  0
VERTEX
  8
gg1
 10
1.349600
 20
1.612100
  0
VERTEX
  8
gg1
 10
1.349600
 20
1.627100
  0
SEQEND
  8
gg1
  0
POLYLINE
  8
gg1
 62
1
 40
0.000000
 41
0.000000
 66
  1
  0
VERTEX
  8
gg1
 10
1.386400
 20
1.662100
  0
VERTEX
  8
gg1
 10
1.401400
 20
1.662100
  0
SEQEND
  8
gg1
  0
POLYLINE
  8
gg1
 62
1
 40
0.000000
 41
0.000000
 66
  1
  0
VERTEX
  8
gg1
 10
1.393900
 20
1.654600
  0
VERTEX
  8
gg1
 10
1.393900
 20
1.669600
  0
SEQEND
  8
gg1
  0
POLYLINE
  8
gg1
 62
1
 40
0.000000
 41
0.000000
 66
  1
  0
VERTEX
  8
gg1
 10
1.475000
 20
1.662100
  0
VERTEX
  8
gg1
 10
1.490000
 20
1.662100
  0
SEQEND
  8
gg1
  0
POLYLINE
  8
gg1
 62
1
 40
0.000000
 41
0.000000
 66
  1
  0
VERTEX
  8
gg1
 10
1.482500
 20
1.654600
  0
VERTEX
  8
gg1
 10
1.482500
 20
1.669600
  0
SEQEND
  8
gg1
  0
POLYLINE
  8
gg1
 62
1
 40
0.000000
 41
0.000000
 66
  1
  0
VERTEX
  8
gg1
 10
1.519300
 20
1.662100
  0
VERTEX
  8
gg1
 10
1.534300
 20
1.662100
  0
SEQEND
  8
gg1
  0
POLYLINE
  8
gg1
 62
1
 40
0.000000
 41
0.000000
 66
  1
  0
VERTEX
  8
gg1
 10
1.526800
 20
1.654600
  0
VERTEX
  8
gg1
 10
1.526800
 20
1.669600
  0
SEQEND
  8
gg1
  0
POLYLINE
  8
gg1
 62
1
 40
0.000000
 41
0.000000
 66
  1
  0
VERTEX
  8
gg1
 10
1.342100
 20
1.577000
  0
VERTEX
  8
gg1
 10
1.357100
 20
1.577000
  0
SEQEND
  8
gg1
  0
POLYLINE
  8
gg1
 62
1
 40
0.000000
 41
0.000000
 66
  1
  0
VERTEX
  8
gg1
 10
1.349600
 20
1.569500
  0
VERTEX
  8
gg1
 10
1.349600
 20
1.584500
  0
SEQEND
  8
gg1
  0
POLYLINE
  8
gg1
 62
1
 40
0.000000
 41
0.000000
 66
  1
  0
VERTEX
  8
gg1
 10
1.342100
 20
1.531800
  0
VERTEX
  8
gg1
 10
1.357100
 20
1.531800
  0
SEQEND
  8
gg1
  0
POLYLINE
  8
gg1
 62
1
 40
0.000000
 41
0.000000
 66
  1
  0
VERTEX
  8
gg1
 10
1.349600
 20
1.524300
  0
VERTEX
  8
gg1
 10
1.349600
 20
1.539300
  0
SEQEND
  8
gg1
  0
POLYLINE
  8
gg1
 62
1
 40
0.000000
 41
0.000000
 66
  1
  0
VERTEX
  8
gg1
 10
1.519300
 20
1.446700
  0
VERTEX
  8
gg1
 10
1.534300
 20
1.446700
  0
SEQEND
  8
gg1
  0
POLYLINE
  8
gg1
 62
1
 40
0.000000
 41
0.000000
 66
  1
  0
VERTEX
  8
gg1
 10
1.526800
 20
1.439200
  0
VERTEX
  8
gg1
 10
1.526800
 20
1.454200
  0
SEQEND
  8
gg1
  0
POLYLINE
  8
gg1
 62
1
 40
0.000000
 41
0.000000
 66
  1
  0
VERTEX
  8
gg1
 10
1.475000
 20
1.446700
  0
VERTEX
  8
gg1
 10
1.490000
 20
1.446700
  0
SEQEND
  8
gg1
  0
POLYLINE
  8
gg1
 62
1
 40
0.000000
 41
0.000000
 66
  1
  0
VERTEX
  8
gg1
 10
1.482500
 20
1.439200
  0
VERTEX
  8
gg1
 10
1.482500
 20
1.454200
  0
SEQEND
  8
gg1
  0
POLYLINE
  8
gg1
 62
1
 40
0.000000
 41
0.000000
 66
  1
  0
VERTEX
  8
gg1
 10
1.386400
 20
1.446700
  0
VERTEX
  8
gg1
 10
1.401400
 20
1.446700
  0
SEQEND
  8
gg1
  0
POLYLINE
  8
gg1
 62
1
 40
0.000000
 41
0.000000
 66
  1
  0
VERTEX
  8
gg1
 10
1.393900
 20
1.439200
  0
VERTEX
  8
gg1
 10
1.393900
 20
1.454200
  0
SEQEND
  8
gg1
  0
POLYLINE
  8
gg1
 62
1
 40
0.000000
 41
0.000000
 66
  1
  0
VERTEX
  8
gg1
 10
1.342100
 20
1.489300
  0
VERTEX
  8
gg1
 10
1.357100
 20
1.489300
  0
SEQEND
  8
gg1
  0
POLYLINE
  8
gg1
 62
1
 40
0.000000
 41
0.000000
 66
  1
  0
VERTEX
  8
gg1
 10
1.349600
 20
1.481800
  0
VERTEX
  8
gg1
 10
1.349600
 20
1.496800
  0
SEQEND
  8
gg1
  0
POLYLINE
  8
gg1
 62
1
 40
0.000000
 41
0.000000
 66
  1
  0
VERTEX
  8
gg1
 10
1.430700
 20
1.446700
  0
VERTEX
  8
gg1
 10
1.445700
 20
1.446700
  0
SEQEND
  8
gg1
  0
POLYLINE
  8
gg1
 62
1
 40
0.000000
 41
0.000000
 66
  1
  0
VERTEX
  8
gg1
 10
1.438200
 20
1.439200
  0
VERTEX
  8
gg1
 10
1.438200
 20
1.454200
  0
SEQEND
  8
gg1
  0
POLYLINE
  8
gg1
 62
1
 40
0.000000
 41
0.000000
 66
  1
  0
VERTEX
  8
gg1
 10
1.342100
 20
1.446700
  0
VERTEX
  8
gg1
 10
1.357100
 20
1.446700
  0
SEQEND
  8
gg1
  0
POLYLINE
  8
gg1
 62
1
 40
0.000000
 41
0.000000
 66
  1
  0
VERTEX
  8
gg1
 10
1.349600
 20
1.439200
  0
VERTEX
  8
gg1
 10
1.349600
 20
1.454200
  0
SEQEND
  8
gg1
  0
POLYLINE
  8
gg1
 62
1
 40
0.000000
 41
0.000000
 66
  1
  0
VERTEX
  8
gg1
 10
1.386400
 20
1.489300
  0
VERTEX
  8
gg1
 10
1.401400
 20
1.489300
  0
SEQEND
  8
gg1
  0
POLYLINE
  8
gg1
 62
1
 40
0.000000
 41
0.000000
 66
  1
  0
VERTEX
  8
gg1
 10
1.393900
 20
1.481800
  0
VERTEX
  8
gg1
 10
1.393900
 20
1.496800
  0
SEQEND
  8
gg1
  0
POLYLINE
  8
gg1
 62
1
 40
0.000000
 41
0.000000
 66
  1
  0
VERTEX
  8
gg1
 10
1.386400
 20
1.531800
  0
VERTEX
  8
gg1
 10
1.401400
 20
1.531800
  0
SEQEND
  8
gg1
  0
POLYLINE
  8
gg1
 62
1
 40
0.000000
 41
0.000000
 66
  1
  0
VERTEX
  8
gg1
 10
1.393900
 20
1.524300
  0
VERTEX
  8
gg1
 10
1.393900
 20
1.539300
  0
SEQEND
  8
gg1
  0
POLYLINE
  8
gg1
 62
1
 40
0.000000
 41
0.000000
 66
  1
  0
VERTEX
  8
gg1
 10
1.430700
 20
1.489300
  0
VERTEX
  8
gg1
 10
1.445700
 20
1.489300
  0
SEQEND
  8
gg1
  0
POLYLINE
  8
gg1
 62
1
 40
0.000000
 41
0.000000
 66
  1
  0
VERTEX
  8
gg1
 10
1.438200
 20
1.481800
  0
VERTEX
  8
gg1
 10
1.438200
 20
1.496800
  0
SEQEND
  8
gg1
  0
POLYLINE
  8
gg1
 62
1
 40
0.000000
 41
0.000000
 66
  1
  0
VERTEX
  8
gg1
 10
1.430700
 20
1.531800
  0
VERTEX
  8
gg1
 10
1.445700
 20
1.531800
  0
SEQEND
  8
gg1
  0
POLYLINE
  8
gg1
 62
1
 40
0.000000
 41
0.000000
 66
  1
  0
VERTEX
  8
gg1
 10
1.438200
 20
1.524300
  0
VERTEX
  8
gg1
 10
1.438200
 20
1.539300
  0
SEQEND
  8
gg1
  0
POLYLINE
  8
gg1
 62
1
 40
0.000000
 41
0.000000
 66
  1
  0
VERTEX
  8
gg1
 10
1.475000
 20
1.489300
  0
VERTEX
  8
gg1
 10
1.490000
 20
1.489300
  0
SEQEND
  8
gg1
  0
POLYLINE
  8
gg1
 62
1
 40
0.000000
 41
0.000000
 66
  1
  0
VERTEX
  8
gg1
 10
1.482500
 20
1.481800
  0
VERTEX
  8
gg1
 10
1.482500
 20
1.496800
  0
SEQEND
  8
gg1
  0
POLYLINE
  8
gg1
 62
1
 40
0.000000
 41
0.000000
 66
  1
  0
VERTEX
  8
gg1
 10
1.475000
 20
1.531800
  0
VERTEX
  8
gg1
 10
1.490000
 20
1.531800
  0
SEQEND
  8
gg1
  0
POLYLINE
  8
gg1
 62
1
 40
0.000000
 41
0.000000
 66
  1
  0
VERTEX
  8
gg1
 10
1.482500
 20
1.524300
  0
VERTEX
  8
gg1
 10
1.482500
 20
1.539300
  0
SEQEND
  8
gg1
  0
POLYLINE
  8
gg1
 62
1
 40
0.000000
 41
0.000000
 66
  1
  0
VERTEX
  8
gg1
 10
1.519300
 20
1.489300
  0
VERTEX
  8
gg1
 10
1.534300
 20
1.489300
  0
SEQEND
  8
gg1
  0
POLYLINE
  8
gg1
 62
1
 40
0.000000
 41
0.000000
 66
  1
  0
VERTEX
  8
gg1
 10
1.526800
 20
1.481800
  0
VERTEX
  8
gg1
 10
1.526800
 20
1.496800
  0
SEQEND
  8
gg1
  0
POLYLINE
  8
gg1
 62
1
 40
0.000000
 41
0.000000
 66
  1
  0
VERTEX
  8
gg1
 10
1.519300
 20
1.531800
  0
VERTEX
  8
gg1
 10
1.534300
 20
1.531800
  0
SEQEND
  8
gg1
  0
POLYLINE
  8
gg1
 62
1
 40
0.000000
 41
0.000000
 66
  1
  0
VERTEX
  8
gg1
 10
1.526800
 20
1.524300
  0
VERTEX
  8
gg1
 10
1.526800
 20
1.539300
  0
SEQEND
  8
gg1
  0
POLYLINE
  8
gg1
 62
1
 40
0.000000
 41
0.000000
 66
  1
  0
VERTEX
  8
gg1
 10
1.519300
 20
1.404200
  0
VERTEX
  8
gg1
 10
1.534300
 20
1.404200
  0
SEQEND
  8
gg1
  0
POLYLINE
  8
gg1
 62
1
 40
0.000000
 41
0.000000
 66
  1
  0
VERTEX
  8
gg1
 10
1.526800
 20
1.396700
  0
VERTEX
  8
gg1
 10
1.526800
 20
1.411700
  0
SEQEND
  8
gg1
  0
POLYLINE
  8
gg1
 62
1
 40
0.000000
 41
0.000000
 66
  1
  0
VERTEX
  8
gg1
 10
1.475000
 20
1.404200
  0
VERTEX
  8
gg1
 10
1.490000
 20
1.404200
  0
SEQEND
  8
gg1
  0
POLYLINE
  8
gg1
 62
1
 40
0.000000
 41
0.000000
 66
  1
  0
VERTEX
  8
gg1
 10
1.482500
 20
1.396700
  0
VERTEX
  8
gg1
 10
1.482500
 20
1.411700
  0
SEQEND
  8
gg1
  0
POLYLINE
  8
gg1
 62
1
 40
0.000000
 41
0.000000
 66
  1
  0
VERTEX
  8
gg1
 10
1.430700
 20
1.404200
  0
VERTEX
  8
gg1
 10
1.445700
 20
1.404200
  0
SEQEND
  8
gg1
  0
POLYLINE
  8
gg1
 62
1
 40
0.000000
 41
0.000000
 66
  1
  0
VERTEX
  8
gg1
 10
1.438200
 20
1.396700
  0
VERTEX
  8
gg1
 10
1.438200
 20
1.411700
  0
SEQEND
  8
gg1
  0
POLYLINE
  8
gg1
 62
1
 40
0.000000
 41
0.000000
 66
  1
  0
VERTEX
  8
gg1
 10
1.386400
 20
1.404200
  0
VERTEX
  8
gg1
 10
1.401400
 20
1.404200
  0
SEQEND
  8
gg1
  0
POLYLINE
  8
gg1
 62
1
 40
0.000000
 41
0.000000
 66
  1
  0
VERTEX
  8
gg1
 10
1.393900
 20
1.396700
  0
VERTEX
  8
gg1
 10
1.393900
 20
1.411700
  0
SEQEND
  8
gg1
  0
POLYLINE
  8
gg1
 62
1
 40
0.000000
 41
0.000000
 66
  1
  0
VERTEX
  8
gg1
 10
1.342100
 20
1.361700
  0
VERTEX
  8
gg1
 10
1.357100
 20
1.361700
  0
SEQEND
  8
gg1
  0
POLYLINE
  8
gg1
 62
1
 40
0.000000
 41
0.000000
 66
  1
  0
VERTEX
  8
gg1
 10
1.349600
 20
1.354200
  0
VERTEX
  8
gg1
 10
1.349600
 20
1.369200
  0
SEQEND
  8
gg1
  0
POLYLINE
  8
gg1
 62
1
 40
0.000000
 41
0.000000
 66
  1
  0
VERTEX
  8
gg1
 10
1.430700
 20
1.361700
  0
VERTEX
  8
gg1
 10
1.445700
 20
1.361700
  0
SEQEND
  8
gg1
  0
POLYLINE
  8
gg1
 62
1
 40
0.000000
 41
0.000000
 66
  1
  0
VERTEX
  8
gg1
 10
1.438200
 20
1.354200
  0
VERTEX
  8
gg1
 10
1.438200
 20
1.369200
  0
SEQEND
  8
gg1
  0
POLYLINE
  8
gg1
 62
1
 40
0.000000
 41
0.000000
 66
  1
  0
VERTEX
  8
gg1
 10
1.342100
 20
1.404200
  0
VERTEX
  8
gg1
 10
1.357100
 20
1.404200
  0
SEQEND
  8
gg1
  0
POLYLINE
  8
gg1
 62
1
 40
0.000000
 41
0.000000
 66
  1
  0
VERTEX
  8
gg1
 10
1.349600
 20
1.396700
  0
VERTEX
  8
gg1
 10
1.349600
 20
1.411700
  0
SEQEND
  8
gg1
  0
POLYLINE
  8
gg1
 62
1
 40
0.000000
 41
0.000000
 66
  1
  0
VERTEX
  8
gg1
 10
1.386400
 20
1.361700
  0
VERTEX
  8
gg1
 10
1.401400
 20
1.361700
  0
SEQEND
  8
gg1
  0
POLYLINE
  8
gg1
 62
1
 40
0.000000
 41
0.000000
 66
  1
  0
VERTEX
  8
gg1
 10
1.393900
 20
1.354200
  0
VERTEX
  8
gg1
 10
1.393900
 20
1.369200
  0
SEQEND
  8
gg1
  0
POLYLINE
  8
gg1
 62
1
 40
0.000000
 41
0.000000
 66
  1
  0
VERTEX
  8
gg1
 10
1.475000
 20
1.361700
  0
VERTEX
  8
gg1
 10
1.490000
 20
1.361700
  0
SEQEND
  8
gg1
  0
POLYLINE
  8
gg1
 62
1
 40
0.000000
 41
0.000000
 66
  1
  0
VERTEX
  8
gg1
 10
1.482500
 20
1.354200
  0
VERTEX
  8
gg1
 10
1.482500
 20
1.369200
  0
SEQEND
  8
gg1
  0
POLYLINE
  8
gg1
 62
1
 40
0.000000
 41
0.000000
 66
  1
  0
VERTEX
  8
gg1
 10
1.519300
 20
1.361700
  0
VERTEX
  8
gg1
 10
1.534300
 20
1.361700
  0
SEQEND
  8
gg1
  0
POLYLINE
  8
gg1
 62
1
 40
0.000000
 41
0.000000
 66
  1
  0
VERTEX
  8
gg1
 10
1.526800
 20
1.354200
  0
VERTEX
  8
gg1
 10
1.526800
 20
1.369200
  0
SEQEND
  8
gg1
  0
POLYLINE
  8
gg1
 62
1
 40
0.000000
 41
0.000000
 66
  1
  0
VERTEX
  8
gg1
 10
1.519300
 20
1.747100
  0
VERTEX
  8
gg1
 10
1.534300
 20
1.747100
  0
SEQEND
  8
gg1
  0
POLYLINE
  8
gg1
 62
1
 40
0.000000
 41
0.000000
 66
  1
  0
VERTEX
  8
gg1
 10
1.526800
 20
1.739600
  0
VERTEX
  8
gg1
 10
1.526800
 20
1.754600
  0
SEQEND
  8
gg1
  0
POLYLINE
  8
gg1
 62
1
 40
0.000000
 41
0.000000
 66
  1
  0
VERTEX
  8
gg1
 10
1.475000
 20
1.747100
  0
VERTEX
  8
gg1
 10
1.490000
 20
1.747100
  0
SEQEND
  8
gg1
  0
POLYLINE
  8
gg1
 62
1
 40
0.000000
 41
0.000000
 66
  1
  0
VERTEX
  8
gg1
 10
1.482500
 20
1.739600
  0
VERTEX
  8
gg1
 10
1.482500
 20
1.754600
  0
SEQEND
  8
gg1
  0
POLYLINE
  8
gg1
 62
1
 40
0.000000
 41
0.000000
 66
  1
  0
VERTEX
  8
gg1
 10
1.386400
 20
1.747100
  0
VERTEX
  8
gg1
 10
1.401400
 20
1.747100
  0
SEQEND
  8
gg1
  0
POLYLINE
  8
gg1
 62
1
 40
0.000000
 41
0.000000
 66
  1
  0
VERTEX
  8
gg1
 10
1.393900
 20
1.739600
  0
VERTEX
  8
gg1
 10
1.393900
 20
1.754600
  0
SEQEND
  8
gg1
  0
POLYLINE
  8
gg1
 62
1
 40
0.000000
 41
0.000000
 66
  1
  0
VERTEX
  8
gg1
 10
1.342100
 20
1.704600
  0
VERTEX
  8
gg1
 10
1.357100
 20
1.704600
  0
SEQEND
  8
gg1
  0
POLYLINE
  8
gg1
 62
1
 40
0.000000
 41
0.000000
 66
  1
  0
VERTEX
  8
gg1
 10
1.349600
 20
1.697100
  0
VERTEX
  8
gg1
 10
1.349600
 20
1.712100
  0
SEQEND
  8
gg1
  0
POLYLINE
  8
gg1
 62
1
 40
0.000000
 41
0.000000
 66
  1
  0
VERTEX
  8
gg1
 10
1.430700
 20
1.747100
  0
VERTEX
  8
gg1
 10
1.445700
 20
1.747100
  0
SEQEND
  8
gg1
  0
POLYLINE
  8
gg1
 62
1
 40
0.000000
 41
0.000000
 66
  1
  0
VERTEX
  8
gg1
 10
1.438200
 20
1.739600
  0
VERTEX
  8
gg1
 10
1.438200
 20
1.754600
  0
SEQEND
  8
gg1
  0
POLYLINE
  8
gg1
 62
1
 40
0.000000
 41
0.000000
 66
  1
  0
VERTEX
  8
gg1
 10
1.342100
 20
1.747100
  0
VERTEX
  8
gg1
 10
1.357100
 20
1.747100
  0
SEQEND
  8
gg1
  0
POLYLINE
  8
gg1
 62
1
 40
0.000000
 41
0.000000
 66
  1
  0
VERTEX
  8
gg1
 10
1.349600
 20
1.739600
  0
VERTEX
  8
gg1
 10
1.349600
 20
1.754600
  0
SEQEND
  8
gg1
  0
POLYLINE
  8
gg1
 62
1
 40
0.000000
 41
0.000000
 66
  1
  0
VERTEX
  8
gg1
 10
1.386400
 20
1.704600
  0
VERTEX
  8
gg1
 10
1.401400
 20
1.704600
  0
SEQEND
  8
gg1
  0
POLYLINE
  8
gg1
 62
1
 40
0.000000
 41
0.000000
 66
  1
  0
VERTEX
  8
gg1
 10
1.393900
 20
1.697100
  0
VERTEX
  8
gg1
 10
1.393900
 20
1.712100
  0
SEQEND
  8
gg1
  0
POLYLINE
  8
gg1
 62
1
 40
0.000000
 41
0.000000
 66
  1
  0
VERTEX
  8
gg1
 10
1.430700
 20
1.704600
  0
VERTEX
  8
gg1
 10
1.445700
 20
1.704600
  0
SEQEND
  8
gg1
  0
POLYLINE
  8
gg1
 62
1
 40
0.000000
 41
0.000000
 66
  1
  0
VERTEX
  8
gg1
 10
1.438200
 20
1.697100
  0
VERTEX
  8
gg1
 10
1.438200
 20
1.712100
  0
SEQEND
  8
gg1
  0
POLYLINE
  8
gg1
 62
1
 40
0.000000
 41
0.000000
 66
  1
  0
VERTEX
  8
gg1
 10
1.475000
 20
1.704600
  0
VERTEX
  8
gg1
 10
1.490000
 20
1.704600
  0
SEQEND
  8
gg1
  0
POLYLINE
  8
gg1
 62
1
 40
0.000000
 41
0.000000
 66
  1
  0
VERTEX
  8
gg1
 10
1.482500
 20
1.697100
  0
VERTEX
  8
gg1
 10
1.482500
 20
1.712100
  0
SEQEND
  8
gg1
  0
POLYLINE
  8
gg1
 62
1
 40
0.000000
 41
0.000000
 66
  1
  0
VERTEX
  8
gg1
 10
1.519300
 20
1.704600
  0
VERTEX
  8
gg1
 10
1.534300
 20
1.704600
  0
SEQEND
  8
gg1
  0
POLYLINE
  8
gg1
 62
1
 40
0.000000
 41
0.000000
 66
  1
  0
VERTEX
  8
gg1
 10
1.526800
 20
1.697100
  0
VERTEX
  8
gg1
 10
1.526800
 20
1.712100
  0
SEQEND
  8
gg1
  0
POLYLINE
  8
gg1
 62
1
 40
0.000000
 41
0.000000
 66
  1
  0
VERTEX
  8
gg1
 10
1.582300
 20
0.708500
  0
VERTEX
  8
gg1
 10
1.597300
 20
0.708500
  0
SEQEND
  8
gg1
  0
POLYLINE
  8
gg1
 62
1
 40
0.000000
 41
0.000000
 66
  1
  0
VERTEX
  8
gg1
 10
1.589800
 20
0.701000
  0
VERTEX
  8
gg1
 10
1.589800
 20
0.716000
  0
SEQEND
  8
gg1
  0
POLYLINE
  8
gg1
 62
1
 40
0.000000
 41
0.000000
 66
  1
  0
VERTEX
  8
gg1
 10
1.582300
 20
0.751000
  0
VERTEX
  8
gg1
 10
1.597300
 20
0.751000
  0
SEQEND
  8
gg1
  0
POLYLINE
  8
gg1
 62
1
 40
0.000000
 41
0.000000
 66
  1
  0
VERTEX
  8
gg1
 10
1.589800
 20
0.743500
  0
VERTEX
  8
gg1
 10
1.589800
 20
0.758500
  0
SEQEND
  8
gg1
  0
POLYLINE
  8
gg1
 62
1
 40
0.000000
 41
0.000000
 66
  1
  0
VERTEX
  8
gg1
 10
1.759400
 20
0.836100
  0
VERTEX
  8
gg1
 10
1.774400
 20
0.836100
  0
SEQEND
  8
gg1
  0
POLYLINE
  8
gg1
 62
1
 40
0.000000
 41
0.000000
 66
  1
  0
VERTEX
  8
gg1
 10
1.766900
 20
0.828600
  0
VERTEX
  8
gg1
 10
1.766900
 20
0.843600
  0
SEQEND
  8
gg1
  0
POLYLINE
  8
gg1
 62
1
 40
0.000000
 41
0.000000
 66
  1
  0
VERTEX
  8
gg1
 10
1.715100
 20
0.836100
  0
VERTEX
  8
gg1
 10
1.730100
 20
0.836100
  0
SEQEND
  8
gg1
  0
POLYLINE
  8
gg1
 62
1
 40
0.000000
 41
0.000000
 66
  1
  0
VERTEX
  8
gg1
 10
1.722600
 20
0.828600
  0
VERTEX
  8
gg1
 10
1.722600
 20
0.843600
  0
SEQEND
  8
gg1
  0
POLYLINE
  8
gg1
 62
1
 40
0.000000
 41
0.000000
 66
  1
  0
VERTEX
  8
gg1
 10
1.626600
 20
0.836100
  0
VERTEX
  8
gg1
 10
1.641600
 20
0.836100
  0
SEQEND
  8
gg1
  0
POLYLINE
  8
gg1
 62
1
 40
0.000000
 41
0.000000
 66
  1
  0
VERTEX
  8
gg1
 10
1.634100
 20
0.828600
  0
VERTEX
  8
gg1
 10
1.634100
 20
0.843600
  0
SEQEND
  8
gg1
  0
POLYLINE
  8
gg1
 62
1
 40
0.000000
 41
0.000000
 66
  1
  0
VERTEX
  8
gg1
 10
1.582300
 20
0.793500
  0
VERTEX
  8
gg1
 10
1.597300
 20
0.793500
  0
SEQEND
  8
gg1
  0
POLYLINE
  8
gg1
 62
1
 40
0.000000
 41
0.000000
 66
  1
  0
VERTEX
  8
gg1
 10
1.589800
 20
0.786000
  0
VERTEX
  8
gg1
 10
1.589800
 20
0.801000
  0
SEQEND
  8
gg1
  0
POLYLINE
  8
gg1
 62
1
 40
0.000000
 41
0.000000
 66
  1
  0
VERTEX
  8
gg1
 10
1.670800
 20
0.836100
  0
VERTEX
  8
gg1
 10
1.685800
 20
0.836100
  0
SEQEND
  8
gg1
  0
POLYLINE
  8
gg1
 62
1
 40
0.000000
 41
0.000000
 66
  1
  0
VERTEX
  8
gg1
 10
1.678300
 20
0.828600
  0
VERTEX
  8
gg1
 10
1.678300
 20
0.843600
  0
SEQEND
  8
gg1
  0
POLYLINE
  8
gg1
 62
1
 40
0.000000
 41
0.000000
 66
  1
  0
VERTEX
  8
gg1
 10
1.582300
 20
0.836100
  0
VERTEX
  8
gg1
 10
1.597300
 20
0.836100
  0
SEQEND
  8
gg1
  0
POLYLINE
  8
gg1
 62
1
 40
0.000000
 41
0.000000
 66
  1
  0
VERTEX
  8
gg1
 10
1.589800
 20
0.828600
  0
VERTEX
  8
gg1
 10
1.589800
 20
0.843600
  0
SEQEND
  8
gg1
  0
POLYLINE
  8
gg1
 62
1
 40
0.000000
 41
0.000000
 66
  1
  0
VERTEX
  8
gg1
 10
1.582300
 20
0.666000
  0
VERTEX
  8
gg1
 10
1.597300
 20
0.666000
  0
SEQEND
  8
gg1
  0
POLYLINE
  8
gg1
 62
1
 40
0.000000
 41
0.000000
 66
  1
  0
VERTEX
  8
gg1
 10
1.589800
 20
0.658500
  0
VERTEX
  8
gg1
 10
1.589800
 20
0.673500
  0
SEQEND
  8
gg1
  0
POLYLINE
  8
gg1
 62
1
 40
0.000000
 41
0.000000
 66
  1
  0
VERTEX
  8
gg1
 10
1.582300
 20
0.623500
  0
VERTEX
  8
gg1
 10
1.597300
 20
0.623500
  0
SEQEND
  8
gg1
  0
POLYLINE
  8
gg1
 62
1
 40
0.000000
 41
0.000000
 66
  1
  0
VERTEX
  8
gg1
 10
1.589800
 20
0.616000
  0
VERTEX
  8
gg1
 10
1.589800
 20
0.631000
  0
SEQEND
  8
gg1
  0
POLYLINE
  8
gg1
 62
1
 40
0.000000
 41
0.000000
 66
  1
  0
VERTEX
  8
gg1
 10
1.626600
 20
0.623500
  0
VERTEX
  8
gg1
 10
1.641600
 20
0.623500
  0
SEQEND
  8
gg1
  0
POLYLINE
  8
gg1
 62
1
 40
0.000000
 41
0.000000
 66
  1
  0
VERTEX
  8
gg1
 10
1.634100
 20
0.616000
  0
VERTEX
  8
gg1
 10
1.634100
 20
0.631000
  0
SEQEND
  8
gg1
  0
POLYLINE
  8
gg1
 62
1
 40
0.000000
 41
0.000000
 66
  1
  0
VERTEX
  8
gg1
 10
1.626600
 20
0.666000
  0
VERTEX
  8
gg1
 10
1.641600
 20
0.666000
  0
SEQEND
  8
gg1
  0
POLYLINE
  8
gg1
 62
1
 40
0.000000
 41
0.000000
 66
  1
  0
VERTEX
  8
gg1
 10
1.634100
 20
0.658500
  0
VERTEX
  8
gg1
 10
1.634100
 20
0.673500
  0
SEQEND
  8
gg1
  0
POLYLINE
  8
gg1
 62
1
 40
0.000000
 41
0.000000
 66
  1
  0
VERTEX
  8
gg1
 10
1.626600
 20
0.793500
  0
VERTEX
  8
gg1
 10
1.641600
 20
0.793500
  0
SEQEND
  8
gg1
  0
POLYLINE
  8
gg1
 62
1
 40
0.000000
 41
0.000000
 66
  1
  0
VERTEX
  8
gg1
 10
1.634100
 20
0.786000
  0
VERTEX
  8
gg1
 10
1.634100
 20
0.801000
  0
SEQEND
  8
gg1
  0
POLYLINE
  8
gg1
 62
1
 40
0.000000
 41
0.000000
 66
  1
  0
VERTEX
  8
gg1
 10
1.626600
 20
0.751000
  0
VERTEX
  8
gg1
 10
1.641600
 20
0.751000
  0
SEQEND
  8
gg1
  0
POLYLINE
  8
gg1
 62
1
 40
0.000000
 41
0.000000
 66
  1
  0
VERTEX
  8
gg1
 10
1.634100
 20
0.743500
  0
VERTEX
  8
gg1
 10
1.634100
 20
0.758500
  0
SEQEND
  8
gg1
  0
POLYLINE
  8
gg1
 62
1
 40
0.000000
 41
0.000000
 66
  1
  0
VERTEX
  8
gg1
 10
1.626600
 20
0.708500
  0
VERTEX
  8
gg1
 10
1.641600
 20
0.708500
  0
SEQEND
  8
gg1
  0
POLYLINE
  8
gg1
 62
1
 40
0.000000
 41
0.000000
 66
  1
  0
VERTEX
  8
gg1
 10
1.634100
 20
0.701000
  0
VERTEX
  8
gg1
 10
1.634100
 20
0.716000
  0
SEQEND
  8
gg1
  0
POLYLINE
  8
gg1
 62
1
 40
0.000000
 41
0.000000
 66
  1
  0
VERTEX
  8
gg1
 10
1.670800
 20
0.623500
  0
VERTEX
  8
gg1
 10
1.685800
 20
0.623500
  0
SEQEND
  8
gg1
  0
POLYLINE
  8
gg1
 62
1
 40
0.000000
 41
0.000000
 66
  1
  0
VERTEX
  8
gg1
 10
1.678300
 20
0.616000
  0
VERTEX
  8
gg1
 10
1.678300
 20
0.631000
  0
SEQEND
  8
gg1
  0
POLYLINE
  8
gg1
 62
1
 40
0.000000
 41
0.000000
 66
  1
  0
VERTEX
  8
gg1
 10
1.670800
 20
0.666000
  0
VERTEX
  8
gg1
 10
1.685800
 20
0.666000
  0
SEQEND
  8
gg1
  0
POLYLINE
  8
gg1
 62
1
 40
0.000000
 41
0.000000
 66
  1
  0
VERTEX
  8
gg1
 10
1.678300
 20
0.658500
  0
VERTEX
  8
gg1
 10
1.678300
 20
0.673500
  0
SEQEND
  8
gg1
  0
POLYLINE
  8
gg1
 62
1
 40
0.000000
 41
0.000000
 66
  1
  0
VERTEX
  8
gg1
 10
1.670800
 20
0.793500
  0
VERTEX
  8
gg1
 10
1.685800
 20
0.793500
  0
SEQEND
  8
gg1
  0
POLYLINE
  8
gg1
 62
1
 40
0.000000
 41
0.000000
 66
  1
  0
VERTEX
  8
gg1
 10
1.678300
 20
0.786000
  0
VERTEX
  8
gg1
 10
1.678300
 20
0.801000
  0
SEQEND
  8
gg1
  0
POLYLINE
  8
gg1
 62
1
 40
0.000000
 41
0.000000
 66
  1
  0
VERTEX
  8
gg1
 10
1.670800
 20
0.751000
  0
VERTEX
  8
gg1
 10
1.685800
 20
0.751000
  0
SEQEND
  8
gg1
  0
POLYLINE
  8
gg1
 62
1
 40
0.000000
 41
0.000000
 66
  1
  0
VERTEX
  8
gg1
 10
1.678300
 20
0.743500
  0
VERTEX
  8
gg1
 10
1.678300
 20
0.758500
  0
SEQEND
  8
gg1
  0
POLYLINE
  8
gg1
 62
1
 40
0.000000
 41
0.000000
 66
  1
  0
VERTEX
  8
gg1
 10
1.670800
 20
0.708500
  0
VERTEX
  8
gg1
 10
1.685800
 20
0.708500
  0
SEQEND
  8
gg1
  0
POLYLINE
  8
gg1
 62
1
 40
0.000000
 41
0.000000
 66
  1
  0
VERTEX
  8
gg1
 10
1.678300
 20
0.701000
  0
VERTEX
  8
gg1
 10
1.678300
 20
0.716000
  0
SEQEND
  8
gg1
  0
POLYLINE
  8
gg1
 62
1
 40
0.000000
 41
0.000000
 66
  1
  0
VERTEX
  8
gg1
 10
1.715100
 20
0.623500
  0
VERTEX
  8
gg1
 10
1.730100
 20
0.623500
  0
SEQEND
  8
gg1
  0
POLYLINE
  8
gg1
 62
1
 40
0.000000
 41
0.000000
 66
  1
  0
VERTEX
  8
gg1
 10
1.722600
 20
0.616000
  0
VERTEX
  8
gg1
 10
1.722600
 20
0.631000
  0
SEQEND
  8
gg1
  0
POLYLINE
  8
gg1
 62
1
 40
0.000000
 41
0.000000
 66
  1
  0
VERTEX
  8
gg1
 10
1.715100
 20
0.666000
  0
VERTEX
  8
gg1
 10
1.730100
 20
0.666000
  0
SEQEND
  8
gg1
  0
POLYLINE
  8
gg1
 62
1
 40
0.000000
 41
0.000000
 66
  1
  0
VERTEX
  8
gg1
 10
1.722600
 20
0.658500
  0
VERTEX
  8
gg1
 10
1.722600
 20
0.673500
  0
SEQEND
  8
gg1
  0
POLYLINE
  8
gg1
 62
1
 40
0.000000
 41
0.000000
 66
  1
  0
VERTEX
  8
gg1
 10
1.715100
 20
0.793500
  0
VERTEX
  8
gg1
 10
1.730100
 20
0.793500
  0
SEQEND
  8
gg1
  0
POLYLINE
  8
gg1
 62
1
 40
0.000000
 41
0.000000
 66
  1
  0
VERTEX
  8
gg1
 10
1.722600
 20
0.786000
  0
VERTEX
  8
gg1
 10
1.722600
 20
0.801000
  0
SEQEND
  8
gg1
  0
POLYLINE
  8
gg1
 62
1
 40
0.000000
 41
0.000000
 66
  1
  0
VERTEX
  8
gg1
 10
1.715100
 20
0.751000
  0
VERTEX
  8
gg1
 10
1.730100
 20
0.751000
  0
SEQEND
  8
gg1
  0
POLYLINE
  8
gg1
 62
1
 40
0.000000
 41
0.000000
 66
  1
  0
VERTEX
  8
gg1
 10
1.722600
 20
0.743500
  0
VERTEX
  8
gg1
 10
1.722600
 20
0.758500
  0
SEQEND
  8
gg1
  0
POLYLINE
  8
gg1
 62
1
 40
0.000000
 41
0.000000
 66
  1
  0
VERTEX
  8
gg1
 10
1.715100
 20
0.708500
  0
VERTEX
  8
gg1
 10
1.730100
 20
0.708500
  0
SEQEND
  8
gg1
  0
POLYLINE
  8
gg1
 62
1
 40
0.000000
 41
0.000000
 66
  1
  0
VERTEX
  8
gg1
 10
1.722600
 20
0.701000
  0
VERTEX
  8
gg1
 10
1.722600
 20
0.716000
  0
SEQEND
  8
gg1
  0
POLYLINE
  8
gg1
 62
1
 40
0.000000
 41
0.000000
 66
  1
  0
VERTEX
  8
gg1
 10
1.759400
 20
0.623500
  0
VERTEX
  8
gg1
 10
1.774400
 20
0.623500
  0
SEQEND
  8
gg1
  0
POLYLINE
  8
gg1
 62
1
 40
0.000000
 41
0.000000
 66
  1
  0
VERTEX
  8
gg1
 10
1.766900
 20
0.616000
  0
VERTEX
  8
gg1
 10
1.766900
 20
0.631000
  0
SEQEND
  8
gg1
  0
POLYLINE
  8
gg1
 62
1
 40
0.000000
 41
0.000000
 66
  1
  0
VERTEX
  8
gg1
 10
1.759400
 20
0.666000
  0
VERTEX
  8
gg1
 10
1.774400
 20
0.666000
  0
SEQEND
  8
gg1
  0
POLYLINE
  8
gg1
 62
1
 40
0.000000
 41
0.000000
 66
  1
  0
VERTEX
  8
gg1
 10
1.766900
 20
0.658500
  0
VERTEX
  8
gg1
 10
1.766900
 20
0.673500
  0
SEQEND
  8
gg1
  0
POLYLINE
  8
gg1
 62
1
 40
0.000000
 41
0.000000
 66
  1
  0
VERTEX
  8
gg1
 10
1.759400
 20
0.793500
  0
VERTEX
  8
gg1
 10
1.774400
 20
0.793500
  0
SEQEND
  8
gg1
  0
POLYLINE
  8
gg1
 62
1
 40
0.000000
 41
0.000000
 66
  1
  0
VERTEX
  8
gg1
 10
1.766900
 20
0.786000
  0
VERTEX
  8
gg1
 10
1.766900
 20
0.801000
  0
SEQEND
  8
gg1
  0
POLYLINE
  8
gg1
 62
1
 40
0.000000
 41
0.000000
 66
  1
  0
VERTEX
  8
gg1
 10
1.759400
 20
0.751000
  0
VERTEX
  8
gg1
 10
1.774400
 20
0.751000
  0
SEQEND
  8
gg1
  0
POLYLINE
  8
gg1
 62
1
 40
0.000000
 41
0.000000
 66
  1
  0
VERTEX
  8
gg1
 10
1.766900
 20
0.743500
  0
VERTEX
  8
gg1
 10
1.766900
 20
0.758500
  0
SEQEND
  8
gg1
  0
POLYLINE
  8
gg1
 62
1
 40
0.000000
 41
0.000000
 66
  1
  0
VERTEX
  8
gg1
 10
1.759400
 20
0.708500
  0
VERTEX
  8
gg1
 10
1.774400
 20
0.708500
  0
SEQEND
  8
gg1
  0
POLYLINE
  8
gg1
 62
1
 40
0.000000
 41
0.000000
 66
  1
  0
VERTEX
  8
gg1
 10
1.766900
 20
0.701000
  0
VERTEX
  8
gg1
 10
1.766900
 20
0.716000
  0
SEQEND
  8
gg1
  0
POLYLINE
  8
gg1
 62
1
 40
0.000000
 41
0.000000
 66
  1
  0
VERTEX
  8
gg1
 10
1.759400
 20
0.420300
  0
VERTEX
  8
gg1
 10
1.774400
 20
0.420300
  0
SEQEND
  8
gg1
  0
POLYLINE
  8
gg1
 62
1
 40
0.000000
 41
0.000000
 66
  1
  0
VERTEX
  8
gg1
 10
1.766900
 20
0.412800
  0
VERTEX
  8
gg1
 10
1.766900
 20
0.427800
  0
SEQEND
  8
gg1
  0
POLYLINE
  8
gg1
 62
1
 40
0.000000
 41
0.000000
 66
  1
  0
VERTEX
  8
gg1
 10
1.759400
 20
0.377800
  0
VERTEX
  8
gg1
 10
1.774400
 20
0.377800
  0
SEQEND
  8
gg1
  0
POLYLINE
  8
gg1
 62
1
 40
0.000000
 41
0.000000
 66
  1
  0
VERTEX
  8
gg1
 10
1.766900
 20
0.370300
  0
VERTEX
  8
gg1
 10
1.766900
 20
0.385300
  0
SEQEND
  8
gg1
  0
POLYLINE
  8
gg1
 62
1
 40
0.000000
 41
0.000000
 66
  1
  0
VERTEX
  8
gg1
 10
1.759400
 20
0.335300
  0
VERTEX
  8
gg1
 10
1.774400
 20
0.335300
  0
SEQEND
  8
gg1
  0
POLYLINE
  8
gg1
 62
1
 40
0.000000
 41
0.000000
 66
  1
  0
VERTEX
  8
gg1
 10
1.766900
 20
0.327800
  0
VERTEX
  8
gg1
 10
1.766900
 20
0.342800
  0
SEQEND
  8
gg1
  0
POLYLINE
  8
gg1
 62
1
 40
0.000000
 41
0.000000
 66
  1
  0
VERTEX
  8
gg1
 10
1.759400
 20
0.462800
  0
VERTEX
  8
gg1
 10
1.774400
 20
0.462800
  0
SEQEND
  8
gg1
  0
POLYLINE
  8
gg1
 62
1
 40
0.000000
 41
0.000000
 66
  1
  0
VERTEX
  8
gg1
 10
1.766900
 20
0.455300
  0
VERTEX
  8
gg1
 10
1.766900
 20
0.470300
  0
SEQEND
  8
gg1
  0
POLYLINE
  8
gg1
 62
1
 40
0.000000
 41
0.000000
 66
  1
  0
VERTEX
  8
gg1
 10
1.759400
 20
0.505400
  0
VERTEX
  8
gg1
 10
1.774400
 20
0.505400
  0
SEQEND
  8
gg1
  0
POLYLINE
  8
gg1
 62
1
 40
0.000000
 41
0.000000
 66
  1
  0
VERTEX
  8
gg1
 10
1.766900
 20
0.497900
  0
VERTEX
  8
gg1
 10
1.766900
 20
0.512900
  0
SEQEND
  8
gg1
  0
POLYLINE
  8
gg1
 62
1
 40
0.000000
 41
0.000000
 66
  1
  0
VERTEX
  8
gg1
 10
1.715100
 20
0.420300
  0
VERTEX
  8
gg1
 10
1.730100
 20
0.420300
  0
SEQEND
  8
gg1
  0
POLYLINE
  8
gg1
 62
1
 40
0.000000
 41
0.000000
 66
  1
  0
VERTEX
  8
gg1
 10
1.722600
 20
0.412800
  0
VERTEX
  8
gg1
 10
1.722600
 20
0.427800
  0
SEQEND
  8
gg1
  0
POLYLINE
  8
gg1
 62
1
 40
0.000000
 41
0.000000
 66
  1
  0
VERTEX
  8
gg1
 10
1.715100
 20
0.377800
  0
VERTEX
  8
gg1
 10
1.730100
 20
0.377800
  0
SEQEND
  8
gg1
  0
POLYLINE
  8
gg1
 62
1
 40
0.000000
 41
0.000000
 66
  1
  0
VERTEX
  8
gg1
 10
1.722600
 20
0.370300
  0
VERTEX
  8
gg1
 10
1.722600
 20
0.385300
  0
SEQEND
  8
gg1
  0
POLYLINE
  8
gg1
 62
1
 40
0.000000
 41
0.000000
 66
  1
  0
VERTEX
  8
gg1
 10
1.715100
 20
0.335300
  0
VERTEX
  8
gg1
 10
1.730100
 20
0.335300
  0
SEQEND
  8
gg1
  0
POLYLINE
  8
gg1
 62
1
 40
0.000000
 41
0.000000
 66
  1
  0
VERTEX
  8
gg1
 10
1.722600
 20
0.327800
  0
VERTEX
  8
gg1
 10
1.722600
 20
0.342800
  0
SEQEND
  8
gg1
  0
POLYLINE
  8
gg1
 62
1
 40
0.000000
 41
0.000000
 66
  1
  0
VERTEX
  8
gg1
 10
1.715100
 20
0.462800
  0
VERTEX
  8
gg1
 10
1.730100
 20
0.462800
  0
SEQEND
  8
gg1
  0
POLYLINE
  8
gg1
 62
1
 40
0.000000
 41
0.000000
 66
  1
  0
VERTEX
  8
gg1
 10
1.722600
 20
0.455300
  0
VERTEX
  8
gg1
 10
1.722600
 20
0.470300
  0
SEQEND
  8
gg1
  0
POLYLINE
  8
gg1
 62
1
 40
0.000000
 41
0.000000
 66
  1
  0
VERTEX
  8
gg1
 10
1.715100
 20
0.505400
  0
VERTEX
  8
gg1
 10
1.730100
 20
0.505400
  0
SEQEND
  8
gg1
  0
POLYLINE
  8
gg1
 62
1
 40
0.000000
 41
0.000000
 66
  1
  0
VERTEX
  8
gg1
 10
1.722600
 20
0.497900
  0
VERTEX
  8
gg1
 10
1.722600
 20
0.512900
  0
SEQEND
  8
gg1
  0
POLYLINE
  8
gg1
 62
1
 40
0.000000
 41
0.000000
 66
  1
  0
VERTEX
  8
gg1
 10
1.670800
 20
0.420300
  0
VERTEX
  8
gg1
 10
1.685800
 20
0.420300
  0
SEQEND
  8
gg1
  0
POLYLINE
  8
gg1
 62
1
 40
0.000000
 41
0.000000
 66
  1
  0
VERTEX
  8
gg1
 10
1.678300
 20
0.412800
  0
VERTEX
  8
gg1
 10
1.678300
 20
0.427800
  0
SEQEND
  8
gg1
  0
POLYLINE
  8
gg1
 62
1
 40
0.000000
 41
0.000000
 66
  1
  0
VERTEX
  8
gg1
 10
1.670800
 20
0.377800
  0
VERTEX
  8
gg1
 10
1.685800
 20
0.377800
  0
SEQEND
  8
gg1
  0
POLYLINE
  8
gg1
 62
1
 40
0.000000
 41
0.000000
 66
  1
  0
VERTEX
  8
gg1
 10
1.678300
 20
0.370300
  0
VERTEX
  8
gg1
 10
1.678300
 20
0.385300
  0
SEQEND
  8
gg1
  0
POLYLINE
  8
gg1
 62
1
 40
0.000000
 41
0.000000
 66
  1
  0
VERTEX
  8
gg1
 10
1.670800
 20
0.335300
  0
VERTEX
  8
gg1
 10
1.685800
 20
0.335300
  0
SEQEND
  8
gg1
  0
POLYLINE
  8
gg1
 62
1
 40
0.000000
 41
0.000000
 66
  1
  0
VERTEX
  8
gg1
 10
1.678300
 20
0.327800
  0
VERTEX
  8
gg1
 10
1.678300
 20
0.342800
  0
SEQEND
  8
gg1
  0
POLYLINE
  8
gg1
 62
1
 40
0.000000
 41
0.000000
 66
  1
  0
VERTEX
  8
gg1
 10
1.670800
 20
0.462800
  0
VERTEX
  8
gg1
 10
1.685800
 20
0.462800
  0
SEQEND
  8
gg1
  0
POLYLINE
  8
gg1
 62
1
 40
0.000000
 41
0.000000
 66
  1
  0
VERTEX
  8
gg1
 10
1.678300
 20
0.455300
  0
VERTEX
  8
gg1
 10
1.678300
 20
0.470300
  0
SEQEND
  8
gg1
  0
POLYLINE
  8
gg1
 62
1
 40
0.000000
 41
0.000000
 66
  1
  0
VERTEX
  8
gg1
 10
1.670800
 20
0.505400
  0
VERTEX
  8
gg1
 10
1.685800
 20
0.505400
  0
SEQEND
  8
gg1
  0
POLYLINE
  8
gg1
 62
1
 40
0.000000
 41
0.000000
 66
  1
  0
VERTEX
  8
gg1
 10
1.678300
 20
0.497900
  0
VERTEX
  8
gg1
 10
1.678300
 20
0.512900
  0
SEQEND
  8
gg1
  0
POLYLINE
  8
gg1
 62
1
 40
0.000000
 41
0.000000
 66
  1
  0
VERTEX
  8
gg1
 10
1.626600
 20
0.420300
  0
VERTEX
  8
gg1
 10
1.641600
 20
0.420300
  0
SEQEND
  8
gg1
  0
POLYLINE
  8
gg1
 62
1
 40
0.000000
 41
0.000000
 66
  1
  0
VERTEX
  8
gg1
 10
1.634100
 20
0.412800
  0
VERTEX
  8
gg1
 10
1.634100
 20
0.427800
  0
SEQEND
  8
gg1
  0
POLYLINE
  8
gg1
 62
1
 40
0.000000
 41
0.000000
 66
  1
  0
VERTEX
  8
gg1
 10
1.626600
 20
0.377800
  0
VERTEX
  8
gg1
 10
1.641600
 20
0.377800
  0
SEQEND
  8
gg1
  0
POLYLINE
  8
gg1
 62
1
 40
0.000000
 41
0.000000
 66
  1
  0
VERTEX
  8
gg1
 10
1.634100
 20
0.370300
  0
VERTEX
  8
gg1
 10
1.634100
 20
0.385300
  0
SEQEND
  8
gg1
  0
POLYLINE
  8
gg1
 62
1
 40
0.000000
 41
0.000000
 66
  1
  0
VERTEX
  8
gg1
 10
1.626600
 20
0.335300
  0
VERTEX
  8
gg1
 10
1.641600
 20
0.335300
  0
SEQEND
  8
gg1
  0
POLYLINE
  8
gg1
 62
1
 40
0.000000
 41
0.000000
 66
  1
  0
VERTEX
  8
gg1
 10
1.634100
 20
0.327800
  0
VERTEX
  8
gg1
 10
1.634100
 20
0.342800
  0
SEQEND
  8
gg1
  0
POLYLINE
  8
gg1
 62
1
 40
0.000000
 41
0.000000
 66
  1
  0
VERTEX
  8
gg1
 10
1.626600
 20
0.462800
  0
VERTEX
  8
gg1
 10
1.641600
 20
0.462800
  0
SEQEND
  8
gg1
  0
POLYLINE
  8
gg1
 62
1
 40
0.000000
 41
0.000000
 66
  1
  0
VERTEX
  8
gg1
 10
1.634100
 20
0.455300
  0
VERTEX
  8
gg1
 10
1.634100
 20
0.470300
  0
SEQEND
  8
gg1
  0
POLYLINE
  8
gg1
 62
1
 40
0.000000
 41
0.000000
 66
  1
  0
VERTEX
  8
gg1
 10
1.626600
 20
0.505400
  0
VERTEX
  8
gg1
 10
1.641600
 20
0.505400
  0
SEQEND
  8
gg1
  0
POLYLINE
  8
gg1
 62
1
 40
0.000000
 41
0.000000
 66
  1
  0
VERTEX
  8
gg1
 10
1.634100
 20
0.497900
  0
VERTEX
  8
gg1
 10
1.634100
 20
0.512900
  0
SEQEND
  8
gg1
  0
POLYLINE
  8
gg1
 62
1
 40
0.000000
 41
0.000000
 66
  1
  0
VERTEX
  8
gg1
 10
1.582300
 20
0.505400
  0
VERTEX
  8
gg1
 10
1.597300
 20
0.505400
  0
SEQEND
  8
gg1
  0
POLYLINE
  8
gg1
 62
1
 40
0.000000
 41
0.000000
 66
  1
  0
VERTEX
  8
gg1
 10
1.589800
 20
0.497900
  0
VERTEX
  8
gg1
 10
1.589800
 20
0.512900
  0
SEQEND
  8
gg1
  0
POLYLINE
  8
gg1
 62
1
 40
0.000000
 41
0.000000
 66
  1
  0
VERTEX
  8
gg1
 10
1.582300
 20
0.462800
  0
VERTEX
  8
gg1
 10
1.597300
 20
0.462800
  0
SEQEND
  8
gg1
  0
POLYLINE
  8
gg1
 62
1
 40
0.000000
 41
0.000000
 66
  1
  0
VERTEX
  8
gg1
 10
1.589800
 20
0.455300
  0
VERTEX
  8
gg1
 10
1.589800
 20
0.470300
  0
SEQEND
  8
gg1
  0
POLYLINE
  8
gg1
 62
1
 40
0.000000
 41
0.000000
 66
  1
  0
VERTEX
  8
gg1
 10
1.582300
 20
0.292800
  0
VERTEX
  8
gg1
 10
1.597300
 20
0.292800
  0
SEQEND
  8
gg1
  0
POLYLINE
  8
gg1
 62
1
 40
0.000000
 41
0.000000
 66
  1
  0
VERTEX
  8
gg1
 10
1.589800
 20
0.285300
  0
VERTEX
  8
gg1
 10
1.589800
 20
0.300300
  0
SEQEND
  8
gg1
  0
POLYLINE
  8
gg1
 62
1
 40
0.000000
 41
0.000000
 66
  1
  0
VERTEX
  8
gg1
 10
1.670800
 20
0.292800
  0
VERTEX
  8
gg1
 10
1.685800
 20
0.292800
  0
SEQEND
  8
gg1
  0
POLYLINE
  8
gg1
 62
1
 40
0.000000
 41
0.000000
 66
  1
  0
VERTEX
  8
gg1
 10
1.678300
 20
0.285300
  0
VERTEX
  8
gg1
 10
1.678300
 20
0.300300
  0
SEQEND
  8
gg1
  0
POLYLINE
  8
gg1
 62
1
 40
0.000000
 41
0.000000
 66
  1
  0
VERTEX
  8
gg1
 10
1.582300
 20
0.335300
  0
VERTEX
  8
gg1
 10
1.597300
 20
0.335300
  0
SEQEND
  8
gg1
  0
POLYLINE
  8
gg1
 62
1
 40
0.000000
 41
0.000000
 66
  1
  0
VERTEX
  8
gg1
 10
1.589800
 20
0.327800
  0
VERTEX
  8
gg1
 10
1.589800
 20
0.342800
  0
SEQEND
  8
gg1
  0
POLYLINE
  8
gg1
 62
1
 40
0.000000
 41
0.000000
 66
  1
  0
VERTEX
  8
gg1
 10
1.626600
 20
0.292800
  0
VERTEX
  8
gg1
 10
1.641600
 20
0.292800
  0
SEQEND
  8
gg1
  0
POLYLINE
  8
gg1
 62
1
 40
0.000000
 41
0.000000
 66
  1
  0
VERTEX
  8
gg1
 10
1.634100
 20
0.285300
  0
VERTEX
  8
gg1
 10
1.634100
 20
0.300300
  0
SEQEND
  8
gg1
  0
POLYLINE
  8
gg1
 62
1
 40
0.000000
 41
0.000000
 66
  1
  0
VERTEX
  8
gg1
 10
1.715100
 20
0.292800
  0
VERTEX
  8
gg1
 10
1.730100
 20
0.292800
  0
SEQEND
  8
gg1
  0
POLYLINE
  8
gg1
 62
1
 40
0.000000
 41
0.000000
 66
  1
  0
VERTEX
  8
gg1
 10
1.722600
 20
0.285300
  0
VERTEX
  8
gg1
 10
1.722600
 20
0.300300
  0
SEQEND
  8
gg1
  0
POLYLINE
  8
gg1
 62
1
 40
0.000000
 41
0.000000
 66
  1
  0
VERTEX
  8
gg1
 10
1.759400
 20
0.292800
  0
VERTEX
  8
gg1
 10
1.774400
 20
0.292800
  0
SEQEND
  8
gg1
  0
POLYLINE
  8
gg1
 62
1
 40
0.000000
 41
0.000000
 66
  1
  0
VERTEX
  8
gg1
 10
1.766900
 20
0.285300
  0
VERTEX
  8
gg1
 10
1.766900
 20
0.300300
  0
SEQEND
  8
gg1
  0
POLYLINE
  8
gg1
 62
1
 40
0.000000
 41
0.000000
 66
  1
  0
VERTEX
  8
gg1
 10
1.582300
 20
0.377800
  0
VERTEX
  8
gg1
 10
1.597300
 20
0.377800
  0
SEQEND
  8
gg1
  0
POLYLINE
  8
gg1
 62
1
 40
0.000000
 41
0.000000
 66
  1
  0
VERTEX
  8
gg1
 10
1.589800
 20
0.370300
  0
VERTEX
  8
gg1
 10
1.589800
 20
0.385300
  0
SEQEND
  8
gg1
  0
POLYLINE
  8
gg1
 62
1
 40
0.000000
 41
0.000000
 66
  1
  0
VERTEX
  8
gg1
 10
1.582300
 20
0.420300
  0
VERTEX
  8
gg1
 10
1.597300
 20
0.420300
  0
SEQEND
  8
gg1
  0
POLYLINE
  8
gg1
 62
1
 40
0.000000
 41
0.000000
 66
  1
  0
VERTEX
  8
gg1
 10
1.589800
 20
0.412800
  0
VERTEX
  8
gg1
 10
1.589800
 20
0.427800
  0
SEQEND
  8
gg1
  0
POLYLINE
  8
gg1
 62
1
 40
0.000000
 41
0.000000
 66
  1
  0
VERTEX
  8
gg1
 10
1.519300
 20
0.587000
  0
VERTEX
  8
gg1
 10
1.534300
 20
0.587000
  0
SEQEND
  8
gg1
  0
POLYLINE
  8
gg1
 62
1
 40
0.000000
 41
0.000000
 66
  1
  0
VERTEX
  8
gg1
 10
1.526800
 20
0.579500
  0
VERTEX
  8
gg1
 10
1.526800
 20
0.594500
  0
SEQEND
  8
gg1
  0
POLYLINE
  8
gg1
 62
1
 40
0.000000
 41
0.000000
 66
  1
  0
VERTEX
  8
gg1
 10
1.519300
 20
0.629600
  0
VERTEX
  8
gg1
 10
1.534300
 20
0.629600
  0
SEQEND
  8
gg1
  0
POLYLINE
  8
gg1
 62
1
 40
0.000000
 41
0.000000
 66
  1
  0
VERTEX
  8
gg1
 10
1.526800
 20
0.622100
  0
VERTEX
  8
gg1
 10
1.526800
 20
0.637100
  0
SEQEND
  8
gg1
  0
POLYLINE
  8
gg1
 62
1
 40
0.000000
 41
0.000000
 66
  1
  0
VERTEX
  8
gg1
 10
1.475000
 20
0.587000
  0
VERTEX
  8
gg1
 10
1.490000
 20
0.587000
  0
SEQEND
  8
gg1
  0
POLYLINE
  8
gg1
 62
1
 40
0.000000
 41
0.000000
 66
  1
  0
VERTEX
  8
gg1
 10
1.482500
 20
0.579500
  0
VERTEX
  8
gg1
 10
1.482500
 20
0.594500
  0
SEQEND
  8
gg1
  0
POLYLINE
  8
gg1
 62
1
 40
0.000000
 41
0.000000
 66
  1
  0
VERTEX
  8
gg1
 10
1.475000
 20
0.629600
  0
VERTEX
  8
gg1
 10
1.490000
 20
0.629600
  0
SEQEND
  8
gg1
  0
POLYLINE
  8
gg1
 62
1
 40
0.000000
 41
0.000000
 66
  1
  0
VERTEX
  8
gg1
 10
1.482500
 20
0.622100
  0
VERTEX
  8
gg1
 10
1.482500
 20
0.637100
  0
SEQEND
  8
gg1
  0
POLYLINE
  8
gg1
 62
1
 40
0.000000
 41
0.000000
 66
  1
  0
VERTEX
  8
gg1
 10
1.430700
 20
0.587000
  0
VERTEX
  8
gg1
 10
1.445700
 20
0.587000
  0
SEQEND
  8
gg1
  0
POLYLINE
  8
gg1
 62
1
 40
0.000000
 41
0.000000
 66
  1
  0
VERTEX
  8
gg1
 10
1.438200
 20
0.579500
  0
VERTEX
  8
gg1
 10
1.438200
 20
0.594500
  0
SEQEND
  8
gg1
  0
POLYLINE
  8
gg1
 62
1
 40
0.000000
 41
0.000000
 66
  1
  0
VERTEX
  8
gg1
 10
1.430700
 20
0.629600
  0
VERTEX
  8
gg1
 10
1.445700
 20
0.629600
  0
SEQEND
  8
gg1
  0
POLYLINE
  8
gg1
 62
1
 40
0.000000
 41
0.000000
 66
  1
  0
VERTEX
  8
gg1
 10
1.438200
 20
0.622100
  0
VERTEX
  8
gg1
 10
1.438200
 20
0.637100
  0
SEQEND
  8
gg1
  0
POLYLINE
  8
gg1
 62
1
 40
0.000000
 41
0.000000
 66
  1
  0
VERTEX
  8
gg1
 10
1.386400
 20
0.587000
  0
VERTEX
  8
gg1
 10
1.401400
 20
0.587000
  0
SEQEND
  8
gg1
  0
POLYLINE
  8
gg1
 62
1
 40
0.000000
 41
0.000000
 66
  1
  0
VERTEX
  8
gg1
 10
1.393900
 20
0.579500
  0
VERTEX
  8
gg1
 10
1.393900
 20
0.594500
  0
SEQEND
  8
gg1
  0
POLYLINE
  8
gg1
 62
1
 40
0.000000
 41
0.000000
 66
  1
  0
VERTEX
  8
gg1
 10
1.386400
 20
0.629600
  0
VERTEX
  8
gg1
 10
1.401400
 20
0.629600
  0
SEQEND
  8
gg1
  0
POLYLINE
  8
gg1
 62
1
 40
0.000000
 41
0.000000
 66
  1
  0
VERTEX
  8
gg1
 10
1.393900
 20
0.622100
  0
VERTEX
  8
gg1
 10
1.393900
 20
0.637100
  0
SEQEND
  8
gg1
  0
POLYLINE
  8
gg1
 62
1
 40
0.000000
 41
0.000000
 66
  1
  0
VERTEX
  8
gg1
 10
1.342100
 20
0.672100
  0
VERTEX
  8
gg1
 10
1.357100
 20
0.672100
  0
SEQEND
  8
gg1
  0
POLYLINE
  8
gg1
 62
1
 40
0.000000
 41
0.000000
 66
  1
  0
VERTEX
  8
gg1
 10
1.349600
 20
0.664600
  0
VERTEX
  8
gg1
 10
1.349600
 20
0.679600
  0
SEQEND
  8
gg1
  0
POLYLINE
  8
gg1
 62
1
 40
0.000000
 41
0.000000
 66
  1
  0
VERTEX
  8
gg1
 10
1.430700
 20
0.672100
  0
VERTEX
  8
gg1
 10
1.445700
 20
0.672100
  0
SEQEND
  8
gg1
  0
POLYLINE
  8
gg1
 62
1
 40
0.000000
 41
0.000000
 66
  1
  0
VERTEX
  8
gg1
 10
1.438200
 20
0.664600
  0
VERTEX
  8
gg1
 10
1.438200
 20
0.679600
  0
SEQEND
  8
gg1
  0
POLYLINE
  8
gg1
 62
1
 40
0.000000
 41
0.000000
 66
  1
  0
VERTEX
  8
gg1
 10
1.342100
 20
0.629600
  0
VERTEX
  8
gg1
 10
1.357100
 20
0.629600
  0
SEQEND
  8
gg1
  0
POLYLINE
  8
gg1
 62
1
 40
0.000000
 41
0.000000
 66
  1
  0
VERTEX
  8
gg1
 10
1.349600
 20
0.622100
  0
VERTEX
  8
gg1
 10
1.349600
 20
0.637100
  0
SEQEND
  8
gg1
  0
POLYLINE
  8
gg1
 62
1
 40
0.000000
 41
0.000000
 66
  1
  0
VERTEX
  8
gg1
 10
1.386400
 20
0.672100
  0
VERTEX
  8
gg1
 10
1.401400
 20
0.672100
  0
SEQEND
  8
gg1
  0
POLYLINE
  8
gg1
 62
1
 40
0.000000
 41
0.000000
 66
  1
  0
VERTEX
  8
gg1
 10
1.393900
 20
0.664600
  0
VERTEX
  8
gg1
 10
1.393900
 20
0.679600
  0
SEQEND
  8
gg1
  0
POLYLINE
  8
gg1
 62
1
 40
0.000000
 41
0.000000
 66
  1
  0
VERTEX
  8
gg1
 10
1.475000
 20
0.672100
  0
VERTEX
  8
gg1
 10
1.490000
 20
0.672100
  0
SEQEND
  8
gg1
  0
POLYLINE
  8
gg1
 62
1
 40
0.000000
 41
0.000000
 66
  1
  0
VERTEX
  8
gg1
 10
1.482500
 20
0.664600
  0
VERTEX
  8
gg1
 10
1.482500
 20
0.679600
  0
SEQEND
  8
gg1
  0
POLYLINE
  8
gg1
 62
1
 40
0.000000
 41
0.000000
 66
  1
  0
VERTEX
  8
gg1
 10
1.519300
 20
0.672100
  0
VERTEX
  8
gg1
 10
1.534300
 20
0.672100
  0
SEQEND
  8
gg1
  0
POLYLINE
  8
gg1
 62
1
 40
0.000000
 41
0.000000
 66
  1
  0
VERTEX
  8
gg1
 10
1.526800
 20
0.664600
  0
VERTEX
  8
gg1
 10
1.526800
 20
0.679600
  0
SEQEND
  8
gg1
  0
POLYLINE
  8
gg1
 62
1
 40
0.000000
 41
0.000000
 66
  1
  0
VERTEX
  8
gg1
 10
1.342100
 20
0.587000
  0
VERTEX
  8
gg1
 10
1.357100
 20
0.587000
  0
SEQEND
  8
gg1
  0
POLYLINE
  8
gg1
 62
1
 40
0.000000
 41
0.000000
 66
  1
  0
VERTEX
  8
gg1
 10
1.349600
 20
0.579500
  0
VERTEX
  8
gg1
 10
1.349600
 20
0.594500
  0
SEQEND
  8
gg1
  0
POLYLINE
  8
gg1
 62
1
 40
0.000000
 41
0.000000
 66
  1
  0
VERTEX
  8
gg1
 10
1.342100
 20
0.541800
  0
VERTEX
  8
gg1
 10
1.357100
 20
0.541800
  0
SEQEND
  8
gg1
  0
POLYLINE
  8
gg1
 62
1
 40
0.000000
 41
0.000000
 66
  1
  0
VERTEX
  8
gg1
 10
1.349600
 20
0.534300
  0
VERTEX
  8
gg1
 10
1.349600
 20
0.549300
  0
SEQEND
  8
gg1
  0
POLYLINE
  8
gg1
 62
1
 40
0.000000
 41
0.000000
 66
  1
  0
VERTEX
  8
gg1
 10
1.519300
 20
0.456700
  0
VERTEX
  8
gg1
 10
1.534300
 20
0.456700
  0
SEQEND
  8
gg1
  0
POLYLINE
  8
gg1
 62
1
 40
0.000000
 41
0.000000
 66
  1
  0
VERTEX
  8
gg1
 10
1.526800
 20
0.449200
  0
VERTEX
  8
gg1
 10
1.526800
 20
0.464200
  0
SEQEND
  8
gg1
  0
POLYLINE
  8
gg1
 62
1
 40
0.000000
 41
0.000000
 66
  1
  0
VERTEX
  8
gg1
 10
1.475000
 20
0.456700
  0
VERTEX
  8
gg1
 10
1.490000
 20
0.456700
  0
SEQEND
  8
gg1
  0
POLYLINE
  8
gg1
 62
1
 40
0.000000
 41
0.000000
 66
  1
  0
VERTEX
  8
gg1
 10
1.482500
 20
0.449200
  0
VERTEX
  8
gg1
 10
1.482500
 20
0.464200
  0
SEQEND
  8
gg1
  0
POLYLINE
  8
gg1
 62
1
 40
0.000000
 41
0.000000
 66
  1
  0
VERTEX
  8
gg1
 10
1.386400
 20
0.456700
  0
VERTEX
  8
gg1
 10
1.401400
 20
0.456700
  0
SEQEND
  8
gg1
  0
POLYLINE
  8
gg1
 62
1
 40
0.000000
 41
0.000000
 66
  1
  0
VERTEX
  8
gg1
 10
1.393900
 20
0.449200
  0
VERTEX
  8
gg1
 10
1.393900
 20
0.464200
  0
SEQEND
  8
gg1
  0
POLYLINE
  8
gg1
 62
1
 40
0.000000
 41
0.000000
 66
  1
  0
VERTEX
  8
gg1
 10
1.342100
 20
0.499300
  0
VERTEX
  8
gg1
 10
1.357100
 20
0.499300
  0
SEQEND
  8
gg1
  0
POLYLINE
  8
gg1
 62
1
 40
0.000000
 41
0.000000
 66
  1
  0
VERTEX
  8
gg1
 10
1.349600
 20
0.491800
  0
VERTEX
  8
gg1
 10
1.349600
 20
0.506800
  0
SEQEND
  8
gg1
  0
POLYLINE
  8
gg1
 62
1
 40
0.000000
 41
0.000000
 66
  1
  0
VERTEX
  8
gg1
 10
1.430700
 20
0.456700
  0
VERTEX
  8
gg1
 10
1.445700
 20
0.456700
  0
SEQEND
  8
gg1
  0
POLYLINE
  8
gg1
 62
1
 40
0.000000
 41
0.000000
 66
  1
  0
VERTEX
  8
gg1
 10
1.438200
 20
0.449200
  0
VERTEX
  8
gg1
 10
1.438200
 20
0.464200
  0
SEQEND
  8
gg1
  0
POLYLINE
  8
gg1
 62
1
 40
0.000000
 41
0.000000
 66
  1
  0
VERTEX
  8
gg1
 10
1.342100
 20
0.456700
  0
VERTEX
  8
gg1
 10
1.357100
 20
0.456700
  0
SEQEND
  8
gg1
  0
POLYLINE
  8
gg1
 62
1
 40
0.000000
 41
0.000000
 66
  1
  0
VERTEX
  8
gg1
 10
1.349600
 20
0.449200
  0
VERTEX
  8
gg1
 10
1.349600
 20
0.464200
  0
SEQEND
  8
gg1
  0
POLYLINE
  8
gg1
 62
1
 40
0.000000
 41
0.000000
 66
  1
  0
VERTEX
  8
gg1
 10
1.386400
 20
0.499300
  0
VERTEX
  8
gg1
 10
1.401400
 20
0.499300
  0
SEQEND
  8
gg1
  0
POLYLINE
  8
gg1
 62
1
 40
0.000000
 41
0.000000
 66
  1
  0
VERTEX
  8
gg1
 10
1.393900
 20
0.491800
  0
VERTEX
  8
gg1
 10
1.393900
 20
0.506800
  0
SEQEND
  8
gg1
  0
POLYLINE
  8
gg1
 62
1
 40
0.000000
 41
0.000000
 66
  1
  0
VERTEX
  8
gg1
 10
1.386400
 20
0.541800
  0
VERTEX
  8
gg1
 10
1.401400
 20
0.541800
  0
SEQEND
  8
gg1
  0
POLYLINE
  8
gg1
 62
1
 40
0.000000
 41
0.000000
 66
  1
  0
VERTEX
  8
gg1
 10
1.393900
 20
0.534300
  0
VERTEX
  8
gg1
 10
1.393900
 20
0.549300
  0
SEQEND
  8
gg1
  0
POLYLINE
  8
gg1
 62
1
 40
0.000000
 41
0.000000
 66
  1
  0
VERTEX
  8
gg1
 10
1.430700
 20
0.499300
  0
VERTEX
  8
gg1
 10
1.445700
 20
0.499300
  0
SEQEND
  8
gg1
  0
POLYLINE
  8
gg1
 62
1
 40
0.000000
 41
0.000000
 66
  1
  0
VERTEX
  8
gg1
 10
1.438200
 20
0.491800
  0
VERTEX
  8
gg1
 10
1.438200
 20
0.506800
  0
SEQEND
  8
gg1
  0
POLYLINE
  8
gg1
 62
1
 40
0.000000
 41
0.000000
 66
  1
  0
VERTEX
  8
gg1
 10
1.430700
 20
0.541800
  0
VERTEX
  8
gg1
 10
1.445700
 20
0.541800
  0
SEQEND
  8
gg1
  0
POLYLINE
  8
gg1
 62
1
 40
0.000000
 41
0.000000
 66
  1
  0
VERTEX
  8
gg1
 10
1.438200
 20
0.534300
  0
VERTEX
  8
gg1
 10
1.438200
 20
0.549300
  0
SEQEND
  8
gg1
  0
POLYLINE
  8
gg1
 62
1
 40
0.000000
 41
0.000000
 66
  1
  0
VERTEX
  8
gg1
 10
1.475000
 20
0.499300
  0
VERTEX
  8
gg1
 10
1.490000
 20
0.499300
  0
SEQEND
  8
gg1
  0
POLYLINE
  8
gg1
 62
1
 40
0.000000
 41
0.000000
 66
  1
  0
VERTEX
  8
gg1
 10
1.482500
 20
0.491800
  0
VERTEX
  8
gg1
 10
1.482500
 20
0.506800
  0
SEQEND
  8
gg1
  0
POLYLINE
  8
gg1
 62
1
 40
0.000000
 41
0.000000
 66
  1
  0
VERTEX
  8
gg1
 10
1.475000
 20
0.541800
  0
VERTEX
  8
gg1
 10
1.490000
 20
0.541800
  0
SEQEND
  8
gg1
  0
POLYLINE
  8
gg1
 62
1
 40
0.000000
 41
0.000000
 66
  1
  0
VERTEX
  8
gg1
 10
1.482500
 20
0.534300
  0
VERTEX
  8
gg1
 10
1.482500
 20
0.549300
  0
SEQEND
  8
gg1
  0
POLYLINE
  8
gg1
 62
1
 40
0.000000
 41
0.000000
 66
  1
  0
VERTEX
  8
gg1
 10
1.519300
 20
0.499300
  0
VERTEX
  8
gg1
 10
1.534300
 20
0.499300
  0
SEQEND
  8
gg1
  0
POLYLINE
  8
gg1
 62
1
 40
0.000000
 41
0.000000
 66
  1
  0
VERTEX
  8
gg1
 10
1.526800
 20
0.491800
  0
VERTEX
  8
gg1
 10
1.526800
 20
0.506800
  0
SEQEND
  8
gg1
  0
POLYLINE
  8
gg1
 62
1
 40
0.000000
 41
0.000000
 66
  1
  0
VERTEX
  8
gg1
 10
1.519300
 20
0.541800
  0
VERTEX
  8
gg1
 10
1.534300
 20
0.541800
  0
SEQEND
  8
gg1
  0
POLYLINE
  8
gg1
 62
1
 40
0.000000
 41
0.000000
 66
  1
  0
VERTEX
  8
gg1
 10
1.526800
 20
0.534300
  0
VERTEX
  8
gg1
 10
1.526800
 20
0.549300
  0
SEQEND
  8
gg1
  0
POLYLINE
  8
gg1
 62
1
 40
0.000000
 41
0.000000
 66
  1
  0
VERTEX
  8
gg1
 10
1.519300
 20
0.414200
  0
VERTEX
  8
gg1
 10
1.534300
 20
0.414200
  0
SEQEND
  8
gg1
  0
POLYLINE
  8
gg1
 62
1
 40
0.000000
 41
0.000000
 66
  1
  0
VERTEX
  8
gg1
 10
1.526800
 20
0.406700
  0
VERTEX
  8
gg1
 10
1.526800
 20
0.421700
  0
SEQEND
  8
gg1
  0
POLYLINE
  8
gg1
 62
1
 40
0.000000
 41
0.000000
 66
  1
  0
VERTEX
  8
gg1
 10
1.475000
 20
0.414200
  0
VERTEX
  8
gg1
 10
1.490000
 20
0.414200
  0
SEQEND
  8
gg1
  0
POLYLINE
  8
gg1
 62
1
 40
0.000000
 41
0.000000
 66
  1
  0
VERTEX
  8
gg1
 10
1.482500
 20
0.406700
  0
VERTEX
  8
gg1
 10
1.482500
 20
0.421700
  0
SEQEND
  8
gg1
  0
POLYLINE
  8
gg1
 62
1
 40
0.000000
 41
0.000000
 66
  1
  0
VERTEX
  8
gg1
 10
1.430700
 20
0.414200
  0
VERTEX
  8
gg1
 10
1.445700
 20
0.414200
  0
SEQEND
  8
gg1
  0
POLYLINE
  8
gg1
 62
1
 40
0.000000
 41
0.000000
 66
  1
  0
VERTEX
  8
gg1
 10
1.438200
 20
0.406700
  0
VERTEX
  8
gg1
 10
1.438200
 20
0.421700
  0
SEQEND
  8
gg1
  0
POLYLINE
  8
gg1
 62
1
 40
0.000000
 41
0.000000
 66
  1
  0
VERTEX
  8
gg1
 10
1.386400
 20
0.414200
  0
VERTEX
  8
gg1
 10
1.401400
 20
0.414200
  0
SEQEND
  8
gg1
  0
POLYLINE
  8
gg1
 62
1
 40
0.000000
 41
0.000000
 66
  1
  0
VERTEX
  8
gg1
 10
1.393900
 20
0.406700
  0
VERTEX
  8
gg1
 10
1.393900
 20
0.421700
  0
SEQEND
  8
gg1
  0
POLYLINE
  8
gg1
 62
1
 40
0.000000
 41
0.000000
 66
  1
  0
VERTEX
  8
gg1
 10
1.342100
 20
0.371700
  0
VERTEX
  8
gg1
 10
1.357100
 20
0.371700
  0
SEQEND
  8
gg1
  0
POLYLINE
  8
gg1
 62
1
 40
0.000000
 41
0.000000
 66
  1
  0
VERTEX
  8
gg1
 10
1.349600
 20
0.364200
  0
VERTEX
  8
gg1
 10
1.349600
 20
0.379200
  0
SEQEND
  8
gg1
  0
POLYLINE
  8
gg1
 62
1
 40
0.000000
 41
0.000000
 66
  1
  0
VERTEX
  8
gg1
 10
1.430700
 20
0.371700
  0
VERTEX
  8
gg1
 10
1.445700
 20
0.371700
  0
SEQEND
  8
gg1
  0
POLYLINE
  8
gg1
 62
1
 40
0.000000
 41
0.000000
 66
  1
  0
VERTEX
  8
gg1
 10
1.438200
 20
0.364200
  0
VERTEX
  8
gg1
 10
1.438200
 20
0.379200
  0
SEQEND
  8
gg1
  0
POLYLINE
  8
gg1
 62
1
 40
0.000000
 41
0.000000
 66
  1
  0
VERTEX
  8
gg1
 10
1.342100
 20
0.414200
  0
VERTEX
  8
gg1
 10
1.357100
 20
0.414200
  0
SEQEND
  8
gg1
  0
POLYLINE
  8
gg1
 62
1
 40
0.000000
 41
0.000000
 66
  1
  0
VERTEX
  8
gg1
 10
1.349600
 20
0.406700
  0
VERTEX
  8
gg1
 10
1.349600
 20
0.421700
  0
SEQEND
  8
gg1
  0
POLYLINE
  8
gg1
 62
1
 40
0.000000
 41
0.000000
 66
  1
  0
VERTEX
  8
gg1
 10
1.386400
 20
0.371700
  0
VERTEX
  8
gg1
 10
1.401400
 20
0.371700
  0
SEQEND
  8
gg1
  0
POLYLINE
  8
gg1
 62
1
 40
0.000000
 41
0.000000
 66
  1
  0
VERTEX
  8
gg1
 10
1.393900
 20
0.364200
  0
VERTEX
  8
gg1
 10
1.393900
 20
0.379200
  0
SEQEND
  8
gg1
  0
POLYLINE
  8
gg1
 62
1
 40
0.000000
 41
0.000000
 66
  1
  0
VERTEX
  8
gg1
 10
1.475000
 20
0.371700
  0
VERTEX
  8
gg1
 10
1.490000
 20
0.371700
  0
SEQEND
  8
gg1
  0
POLYLINE
  8
gg1
 62
1
 40
0.000000
 41
0.000000
 66
  1
  0
VERTEX
  8
gg1
 10
1.482500
 20
0.364200
  0
VERTEX
  8
gg1
 10
1.482500
 20
0.379200
  0
SEQEND
  8
gg1
  0
POLYLINE
  8
gg1
 62
1
 40
0.000000
 41
0.000000
 66
  1
  0
VERTEX
  8
gg1
 10
1.519300
 20
0.371700
  0
VERTEX
  8
gg1
 10
1.534300
 20
0.371700
  0
SEQEND
  8
gg1
  0
POLYLINE
  8
gg1
 62
1
 40
0.000000
 41
0.000000
 66
  1
  0
VERTEX
  8
gg1
 10
1.526800
 20
0.364200
  0
VERTEX
  8
gg1
 10
1.526800
 20
0.379200
  0
SEQEND
  8
gg1
  0
POLYLINE
  8
gg1
 62
1
 40
0.000000
 41
0.000000
 66
  1
  0
VERTEX
  8
gg1
 10
1.519300
 20
0.757100
  0
VERTEX
  8
gg1
 10
1.534300
 20
0.757100
  0
SEQEND
  8
gg1
  0
POLYLINE
  8
gg1
 62
1
 40
0.000000
 41
0.000000
 66
  1
  0
VERTEX
  8
gg1
 10
1.526800
 20
0.749600
  0
VERTEX
  8
gg1
 10
1.526800
 20
0.764600
  0
SEQEND
  8
gg1
  0
POLYLINE
  8
gg1
 62
1
 40
0.000000
 41
0.000000
 66
  1
  0
VERTEX
  8
gg1
 10
1.475000
 20
0.757100
  0
VERTEX
  8
gg1
 10
1.490000
 20
0.757100
  0
SEQEND
  8
gg1
  0
POLYLINE
  8
gg1
 62
1
 40
0.000000
 41
0.000000
 66
  1
  0
VERTEX
  8
gg1
 10
1.482500
 20
0.749600
  0
VERTEX
  8
gg1
 10
1.482500
 20
0.764600
  0
SEQEND
  8
gg1
  0
POLYLINE
  8
gg1
 62
1
 40
0.000000
 41
0.000000
 66
  1
  0
VERTEX
  8
gg1
 10
1.386400
 20
0.757100
  0
VERTEX
  8
gg1
 10
1.401400
 20
0.757100
  0
SEQEND
  8
gg1
  0
POLYLINE
  8
gg1
 62
1
 40
0.000000
 41
0.000000
 66
  1
  0
VERTEX
  8
gg1
 10
1.393900
 20
0.749600
  0
VERTEX
  8
gg1
 10
1.393900
 20
0.764600
  0
SEQEND
  8
gg1
  0
POLYLINE
  8
gg1
 62
1
 40
0.000000
 41
0.000000
 66
  1
  0
VERTEX
  8
gg1
 10
1.342100
 20
0.714600
  0
VERTEX
  8
gg1
 10
1.357100
 20
0.714600
  0
SEQEND
  8
gg1
  0
POLYLINE
  8
gg1
 62
1
 40
0.000000
 41
0.000000
 66
  1
  0
VERTEX
  8
gg1
 10
1.349600
 20
0.707100
  0
VERTEX
  8
gg1
 10
1.349600
 20
0.722100
  0
SEQEND
  8
gg1
  0
POLYLINE
  8
gg1
 62
1
 40
0.000000
 41
0.000000
 66
  1
  0
VERTEX
  8
gg1
 10
1.430700
 20
0.757100
  0
VERTEX
  8
gg1
 10
1.445700
 20
0.757100
  0
SEQEND
  8
gg1
  0
POLYLINE
  8
gg1
 62
1
 40
0.000000
 41
0.000000
 66
  1
  0
VERTEX
  8
gg1
 10
1.438200
 20
0.749600
  0
VERTEX
  8
gg1
 10
1.438200
 20
0.764600
  0
SEQEND
  8
gg1
  0
POLYLINE
  8
gg1
 62
1
 40
0.000000
 41
0.000000
 66
  1
  0
VERTEX
  8
gg1
 10
1.342100
 20
0.757100
  0
VERTEX
  8
gg1
 10
1.357100
 20
0.757100
  0
SEQEND
  8
gg1
  0
POLYLINE
  8
gg1
 62
1
 40
0.000000
 41
0.000000
 66
  1
  0
VERTEX
  8
gg1
 10
1.349600
 20
0.749600
  0
VERTEX
  8
gg1
 10
1.349600
 20
0.764600
  0
SEQEND
  8
gg1
  0
POLYLINE
  8
gg1
 62
1
 40
0.000000
 41
0.000000
 66
  1
  0
VERTEX
  8
gg1
 10
1.386400
 20
0.714600
  0
VERTEX
  8
gg1
 10
1.401400
 20
0.714600
  0
SEQEND
  8
gg1
  0
POLYLINE
  8
gg1
 62
1
 40
0.000000
 41
0.000000
 66
  1
  0
VERTEX
  8
gg1
 10
1.393900
 20
0.707100
  0
VERTEX
  8
gg1
 10
1.393900
 20
0.722100
  0
SEQEND
  8
gg1
  0
POLYLINE
  8
gg1
 62
1
 40
0.000000
 41
0.000000
 66
  1
  0
VERTEX
  8
gg1
 10
1.430700
 20
0.714600
  0
VERTEX
  8
gg1
 10
1.445700
 20
0.714600
  0
SEQEND
  8
gg1
  0
POLYLINE
  8
gg1
 62
1
 40
0.000000
 41
0.000000
 66
  1
  0
VERTEX
  8
gg1
 10
1.438200
 20
0.707100
  0
VERTEX
  8
gg1
 10
1.438200
 20
0.722100
  0
SEQEND
  8
gg1
  0
POLYLINE
  8
gg1
 62
1
 40
0.000000
 41
0.000000
 66
  1
  0
VERTEX
  8
gg1
 10
1.475000
 20
0.714600
  0
VERTEX
  8
gg1
 10
1.490000
 20
0.714600
  0
SEQEND
  8
gg1
  0
POLYLINE
  8
gg1
 62
1
 40
0.000000
 41
0.000000
 66
  1
  0
VERTEX
  8
gg1
 10
1.482500
 20
0.707100
  0
VERTEX
  8
gg1
 10
1.482500
 20
0.722100
  0
SEQEND
  8
gg1
  0
POLYLINE
  8
gg1
 62
1
 40
0.000000
 41
0.000000
 66
  1
  0
VERTEX
  8
gg1
 10
1.519300
 20
0.714600
  0
VERTEX
  8
gg1
 10
1.534300
 20
0.714600
  0
SEQEND
  8
gg1
  0
POLYLINE
  8
gg1
 62
1
 40
0.000000
 41
0.000000
 66
  1
  0
VERTEX
  8
gg1
 10
1.526800
 20
0.707100
  0
VERTEX
  8
gg1
 10
1.526800
 20
0.722100
  0
SEQEND
  8
gg1
  0
POLYLINE
  8
gg1
 62
1
 40
0.000000
 41
0.000000
 66
  1
  0
VERTEX
  8
gg1
 10
0.952500
 20
1.525000
  0
VERTEX
  8
gg1
 10
0.967500
 20
1.525000
  0
SEQEND
  8
gg1
  0
POLYLINE
  8
gg1
 62
1
 40
0.000000
 41
0.000000
 66
  1
  0
VERTEX
  8
gg1
 10
0.960000
 20
1.517500
  0
VERTEX
  8
gg1
 10
0.960000
 20
1.532500
  0
SEQEND
  8
gg1
  0
POLYLINE
  8
gg1
 62
1
 40
0.000000
 41
0.000000
 66
  1
  0
VERTEX
  8
gg1
 10
0.842500
 20
1.400000
  0
VERTEX
  8
gg1
 10
0.857500
 20
1.400000
  0
SEQEND
  8
gg1
  0
POLYLINE
  8
gg1
 62
1
 40
0.000000
 41
0.000000
 66
  1
  0
VERTEX
  8
gg1
 10
0.850000
 20
1.392500
  0
VERTEX
  8
gg1
 10
0.850000
 20
1.407500
  0
SEQEND
  8
gg1
  0
POLYLINE
  8
gg1
 62
1
 40
0.000000
 41
0.000000
 66
  1
  0
VERTEX
  8
gg1
 10
0.152500
 20
1.100000
  0
VERTEX
  8
gg1
 10
0.167500
 20
1.100000
  0
SEQEND
  8
gg1
  0
POLYLINE
  8
gg1
 62
1
 40
0.000000
 41
0.000000
 66
  1
  0
VERTEX
  8
gg1
 10
0.160000
 20
1.092500
  0
VERTEX
  8
gg1
 10
0.160000
 20
1.107500
  0
SEQEND
  8
gg1
  0
POLYLINE
  8
gg1
 62
1
 40
0.000000
 41
0.000000
 66
  1
  0
VERTEX
  8
gg1
 10
0.152500
 20
0.695000
  0
VERTEX
  8
gg1
 10
0.167500
 20
0.695000
  0
SEQEND
  8
gg1
  0
POLYLINE
  8
gg1
 62
1
 40
0.000000
 41
0.000000
 66
  1
  0
VERTEX
  8
gg1
 10
0.160000
 20
0.687500
  0
VERTEX
  8
gg1
 10
0.160000
 20
0.702500
  0
SEQEND
  8
gg1
  0
POLYLINE
  8
gg1
 62
1
 40
0.000000
 41
0.000000
 66
  1
  0
VERTEX
  8
gg1
 10
0.122500
 20
0.810000
  0
VERTEX
  8
gg1
 10
0.137500
 20
0.810000
  0
SEQEND
  8
gg1
  0
POLYLINE
  8
gg1
 62
1
 40
0.000000
 41
0.000000
 66
  1
  0
VERTEX
  8
gg1
 10
0.130000
 20
0.802500
  0
VERTEX
  8
gg1
 10
0.130000
 20
0.817500
  0
SEQEND
  8
gg1
  0
POLYLINE
  8
gg1
 62
1
 40
0.000000
 41
0.000000
 66
  1
  0
VERTEX
  8
gg1
 10
0.192500
 20
1.100000
  0
VERTEX
  8
gg1
 10
0.207500
 20
1.100000
  0
SEQEND
  8
gg1
  0
POLYLINE
  8
gg1
 62
1
 40
0.000000
 41
0.000000
 66
  1
  0
VERTEX
  8
gg1
 10
0.200000
 20
1.092500
  0
VERTEX
  8
gg1
 10
0.200000
 20
1.107500
  0
SEQEND
  8
gg1
  0
POLYLINE
  8
gg1
 62
1
 40
0.000000
 41
0.000000
 66
  1
  0
VERTEX
  8
gg1
 10
0.182500
 20
0.725000
  0
VERTEX
  8
gg1
 10
0.197500
 20
0.725000
  0
SEQEND
  8
gg1
  0
POLYLINE
  8
gg1
 62
1
 40
0.000000
 41
0.000000
 66
  1
  0
VERTEX
  8
gg1
 10
0.190000
 20
0.717500
  0
VERTEX
  8
gg1
 10
0.190000
 20
0.732500
  0
SEQEND
  8
gg1
  0
POLYLINE
  8
gg1
 62
1
 40
0.000000
 41
0.000000
 66
  1
  0
VERTEX
  8
gg1
 10
0.152500
 20
0.415000
  0
VERTEX
  8
gg1
 10
0.167500
 20
0.415000
  0
SEQEND
  8
gg1
  0
POLYLINE
  8
gg1
 62
1
 40
0.000000
 41
0.000000
 66
  1
  0
VERTEX
  8
gg1
 10
0.160000
 20
0.407500
  0
VERTEX
  8
gg1
 10
0.160000
 20
0.422500
  0
SEQEND
  8
gg1
  0
POLYLINE
  8
gg1
 62
1
 40
0.000000
 41
0.000000
 66
  1
  0
VERTEX
  8
gg1
 10
0.417500
 20
1.350000
  0
VERTEX
  8
gg1
 10
0.432500
 20
1.350000
  0
SEQEND
  8
gg1
  0
POLYLINE
  8
gg1
 62
1
 40
0.000000
 41
0.000000
 66
  1
  0
VERTEX
  8
gg1
 10
0.425000
 20
1.342500
  0
VERTEX
  8
gg1
 10
0.425000
 20
1.357500
  0
SEQEND
  8
gg1
  0
POLYLINE
  8
gg1
 62
1
 40
0.000000
 41
0.000000
 66
  1
  0
VERTEX
  8
gg1
 10
0.372500
 20
0.320000
  0
VERTEX
  8
gg1
 10
0.387500
 20
0.320000
  0
SEQEND
  8
gg1
  0
POLYLINE
  8
gg1
 62
1
 40
0.000000
 41
0.000000
 66
  1
  0
VERTEX
  8
gg1
 10
0.380000
 20
0.312500
  0
VERTEX
  8
gg1
 10
0.380000
 20
0.327500
  0
SEQEND
  8
gg1
  0
POLYLINE
  8
gg1
 62
1
 40
0.000000
 41
0.000000
 66
  1
  0
VERTEX
  8
gg1
 10
0.307500
 20
0.515000
  0
VERTEX
  8
gg1
 10
0.322500
 20
0.515000
  0
SEQEND
  8
gg1
  0
POLYLINE
  8
gg1
 62
1
 40
0.000000
 41
0.000000
 66
  1
  0
VERTEX
  8
gg1
 10
0.315000
 20
0.507500
  0
VERTEX
  8
gg1
 10
0.315000
 20
0.522500
  0
SEQEND
  8
gg1
  0
POLYLINE
  8
gg1
 62
1
 40
0.000000
 41
0.000000
 66
  1
  0
VERTEX
  8
gg1
 10
1.882500
 20
1.100000
  0
VERTEX
  8
gg1
 10
1.897500
 20
1.100000
  0
SEQEND
  8
gg1
  0
POLYLINE
  8
gg1
 62
1
 40
0.000000
 41
0.000000
 66
  1
  0
VERTEX
  8
gg1
 10
1.890000
 20
1.092500
  0
VERTEX
  8
gg1
 10
1.890000
 20
1.107500
  0
SEQEND
  8
gg1
  0
POLYLINE
  8
gg1
 62
1
 40
0.000000
 41
0.000000
 66
  1
  0
VERTEX
  8
gg1
 10
0.490000
 20
1.041000
  0
VERTEX
  8
gg1
 10
0.510000
 20
1.041000
  0
SEQEND
  8
gg1
  0
POLYLINE
  8
gg1
 62
1
 40
0.000000
 41
0.000000
 66
  1
  0
VERTEX
  8
gg1
 10
0.500000
 20
1.031000
  0
VERTEX
  8
gg1
 10
0.500000
 20
1.051000
  0
SEQEND
  8
gg1
  0
POLYLINE
  8
gg1
 62
1
 40
0.000000
 41
0.000000
 66
  1
  0
VERTEX
  8
gg1
 10
0.757500
 20
1.870500
  0
VERTEX
  8
gg1
 10
0.772500
 20
1.870500
  0
SEQEND
  8
gg1
  0
POLYLINE
  8
gg1
 62
1
 40
0.000000
 41
0.000000
 66
  1
  0
VERTEX
  8
gg1
 10
0.765000
 20
1.863000
  0
VERTEX
  8
gg1
 10
0.765000
 20
1.878000
  0
SEQEND
  8
gg1
  0
POLYLINE
  8
gg1
 62
1
 40
0.000000
 41
0.000000
 66
  1
  0
VERTEX
  8
gg1
 10
0.737500
 20
0.445000
  0
VERTEX
  8
gg1
 10
0.752500
 20
0.445000
  0
SEQEND
  8
gg1
  0
POLYLINE
  8
gg1
 62
1
 40
0.000000
 41
0.000000
 66
  1
  0
VERTEX
  8
gg1
 10
0.745000
 20
0.437500
  0
VERTEX
  8
gg1
 10
0.745000
 20
0.452500
  0
SEQEND
  8
gg1
  0
POLYLINE
  8
gg1
 62
1
 40
0.000000
 41
0.000000
 66
  1
  0
VERTEX
  8
gg1
 10
0.717500
 20
0.410000
  0
VERTEX
  8
gg1
 10
0.732500
 20
0.410000
  0
SEQEND
  8
gg1
  0
POLYLINE
  8
gg1
 62
1
 40
0.000000
 41
0.000000
 66
  1
  0
VERTEX
  8
gg1
 10
0.725000
 20
0.402500
  0
VERTEX
  8
gg1
 10
0.725000
 20
0.417500
  0
SEQEND
  8
gg1
  0
POLYLINE
  8
gg1
 62
1
 40
0.000000
 41
0.000000
 66
  1
  0
VERTEX
  8
gg1
 10
0.717500
 20
0.370000
  0
VERTEX
  8
gg1
 10
0.732500
 20
0.370000
  0
SEQEND
  8
gg1
  0
POLYLINE
  8
gg1
 62
1
 40
0.000000
 41
0.000000
 66
  1
  0
VERTEX
  8
gg1
 10
0.725000
 20
0.362500
  0
VERTEX
  8
gg1
 10
0.725000
 20
0.377500
  0
SEQEND
  8
gg1
  0
POLYLINE
  8
gg1
 62
1
 40
0.000000
 41
0.000000
 66
  1
  0
VERTEX
  8
gg1
 10
0.927500
 20
0.440000
  0
VERTEX
  8
gg1
 10
0.942500
 20
0.440000
  0
SEQEND
  8
gg1
  0
POLYLINE
  8
gg1
 62
1
 40
0.000000
 41
0.000000
 66
  1
  0
VERTEX
  8
gg1
 10
0.935000
 20
0.432500
  0
VERTEX
  8
gg1
 10
0.935000
 20
0.447500
  0
SEQEND
  8
gg1
  0
POLYLINE
  8
gg1
 62
1
 40
0.000000
 41
0.000000
 66
  1
  0
VERTEX
  8
gg1
 10
0.712500
 20
0.245000
  0
VERTEX
  8
gg1
 10
0.727500
 20
0.245000
  0
SEQEND
  8
gg1
  0
POLYLINE
  8
gg1
 62
1
 40
0.000000
 41
0.000000
 66
  1
  0
VERTEX
  8
gg1
 10
0.720000
 20
0.237500
  0
VERTEX
  8
gg1
 10
0.720000
 20
0.252500
  0
SEQEND
  8
gg1
  0
POLYLINE
  8
gg1
 62
1
 40
0.000000
 41
0.000000
 66
  1
  0
VERTEX
  8
gg1
 10
0.657500
 20
1.970000
  0
VERTEX
  8
gg1
 10
0.672500
 20
1.970000
  0
SEQEND
  8
gg1
  0
POLYLINE
  8
gg1
 62
1
 40
0.000000
 41
0.000000
 66
  1
  0
VERTEX
  8
gg1
 10
0.665000
 20
1.962500
  0
VERTEX
  8
gg1
 10
0.665000
 20
1.977500
  0
SEQEND
  8
gg1
  0
POLYLINE
  8
gg1
 62
1
 40
0.000000
 41
0.000000
 66
  1
  0
VERTEX
  8
gg1
 10
0.382500
 20
1.695000
  0
VERTEX
  8
gg1
 10
0.397500
 20
1.695000
  0
SEQEND
  8
gg1
  0
POLYLINE
  8
gg1
 62
1
 40
0.000000
 41
0.000000
 66
  1
  0
VERTEX
  8
gg1
 10
0.390000
 20
1.687500
  0
VERTEX
  8
gg1
 10
0.390000
 20
1.702500
  0
SEQEND
  8
gg1
  0
POLYLINE
  8
gg1
 62
1
 40
0.000000
 41
0.000000
 66
  1
  0
VERTEX
  8
gg1
 10
0.492500
 20
1.695000
  0
VERTEX
  8
gg1
 10
0.507500
 20
1.695000
  0
SEQEND
  8
gg1
  0
POLYLINE
  8
gg1
 62
1
 40
0.000000
 41
0.000000
 66
  1
  0
VERTEX
  8
gg1
 10
0.500000
 20
1.687500
  0
VERTEX
  8
gg1
 10
0.500000
 20
1.702500
  0
SEQEND
  8
gg1
  0
POLYLINE
  8
gg1
 62
1
 40
0.000000
 41
0.000000
 66
  1
  0
VERTEX
  8
gg1
 10
0.212500
 20
1.025000
  0
VERTEX
  8
gg1
 10
0.227500
 20
1.025000
  0
SEQEND
  8
gg1
  0
POLYLINE
  8
gg1
 62
1
 40
0.000000
 41
0.000000
 66
  1
  0
VERTEX
  8
gg1
 10
0.220000
 20
1.017500
  0
VERTEX
  8
gg1
 10
0.220000
 20
1.032500
  0
SEQEND
  8
gg1
  0
POLYLINE
  8
gg1
 62
1
 40
0.000000
 41
0.000000
 66
  1
  0
VERTEX
  8
gg1
 10
0.242500
 20
1.000000
  0
VERTEX
  8
gg1
 10
0.257500
 20
1.000000
  0
SEQEND
  8
gg1
  0
POLYLINE
  8
gg1
 62
1
 40
0.000000
 41
0.000000
 66
  1
  0
VERTEX
  8
gg1
 10
0.250000
 20
0.992500
  0
VERTEX
  8
gg1
 10
0.250000
 20
1.007500
  0
SEQEND
  8
gg1
  0
POLYLINE
  8
gg1
 62
1
 40
0.000000
 41
0.000000
 66
  1
  0
VERTEX
  8
gg1
 10
0.307500
 20
1.000000
  0
VERTEX
  8
gg1
 10
0.322500
 20
1.000000
  0
SEQEND
  8
gg1
  0
POLYLINE
  8
gg1
 62
1
 40
0.000000
 41
0.000000
 66
  1
  0
VERTEX
  8
gg1
 10
0.315000
 20
0.992500
  0
VERTEX
  8
gg1
 10
0.315000
 20
1.007500
  0
SEQEND
  8
gg1
  0
POLYLINE
  8
gg1
 62
1
 40
0.000000
 41
0.000000
 66
  1
  0
VERTEX
  8
gg1
 10
0.277500
 20
0.970000
  0
VERTEX
  8
gg1
 10
0.292500
 20
0.970000
  0
SEQEND
  8
gg1
  0
POLYLINE
  8
gg1
 62
1
 40
0.000000
 41
0.000000
 66
  1
  0
VERTEX
  8
gg1
 10
0.285000
 20
0.962500
  0
VERTEX
  8
gg1
 10
0.285000
 20
0.977500
  0
SEQEND
  8
gg1
  0
POLYLINE
  8
gg1
 62
1
 40
0.000000
 41
0.000000
 66
  1
  0
VERTEX
  8
gg1
 10
0.337500
 20
1.025000
  0
VERTEX
  8
gg1
 10
0.352500
 20
1.025000
  0
SEQEND
  8
gg1
  0
POLYLINE
  8
gg1
 62
1
 40
0.000000
 41
0.000000
 66
  1
  0
VERTEX
  8
gg1
 10
0.345000
 20
1.017500
  0
VERTEX
  8
gg1
 10
0.345000
 20
1.032500
  0
SEQEND
  8
gg1
  0
POLYLINE
  8
gg1
 62
1
 40
0.000000
 41
0.000000
 66
  1
  0
VERTEX
  8
gg1
 10
1.132500
 20
0.564400
  0
VERTEX
  8
gg1
 10
1.147500
 20
0.564400
  0
SEQEND
  8
gg1
  0
POLYLINE
  8
gg1
 62
1
 40
0.000000
 41
0.000000
 66
  1
  0
VERTEX
  8
gg1
 10
1.140000
 20
0.556900
  0
VERTEX
  8
gg1
 10
1.140000
 20
0.571900
  0
SEQEND
  8
gg1
  0
POLYLINE
  8
gg1
 62
1
 40
0.000000
 41
0.000000
 66
  1
  0
VERTEX
  8
gg1
 10
1.119000
 20
-0.136000
  0
VERTEX
  8
gg1
 10
1.079100
 20
-0.136000
  0
VERTEX
  8
gg1
 10
1.119000
 20
-0.096000
  0
VERTEX
  8
gg1
 10
1.119000
 20
-0.086000
  0
VERTEX
  8
gg1
 10
1.109100
 20
-0.076000
  0
VERTEX
  8
gg1
 10
1.089100
 20
-0.076000
  0
VERTEX
  8
gg1
 10
1.079100
 20
-0.086000
  0
SEQEND
  8
gg1
  0
POLYLINE
  8
gg1
 62
1
 40
0.000000
 41
0.000000
 66
  1
  0
VERTEX
  8
gg1
 10
1.179000
 20
-0.076000
  0
VERTEX
  8
gg1
 10
1.139000
 20
-0.076000
  0
VERTEX
  8
gg1
 10
1.139000
 20
-0.106000
  0
VERTEX
  8
gg1
 10
1.159000
 20
-0.096000
  0
VERTEX
  8
gg1
 10
1.169000
 20
-0.096000
  0
VERTEX
  8
gg1
 10
1.179000
 20
-0.106000
  0
VERTEX
  8
gg1
 10
1.179000
 20
-0.126000
  0
VERTEX
  8
gg1
 10
1.169000
 20
-0.136000
  0
VERTEX
  8
gg1
 10
1.149000
 20
-0.136000
  0
VERTEX
  8
gg1
 10
1.139000
 20
-0.126000
  0
SEQEND
  8
gg1
  0
POLYLINE
  8
gg1
 62
1
 40
0.000000
 41
0.000000
 66
  1
  0
VERTEX
  8
gg1
 10
1.239000
 20
-0.076000
  0
VERTEX
  8
gg1
 10
1.219000
 20
-0.086000
  0
VERTEX
  8
gg1
 10
1.199000
 20
-0.106000
  0
VERTEX
  8
gg1
 10
1.199000
 20
-0.126000
  0
VERTEX
  8
gg1
 10
1.209000
 20
-0.136000
  0
VERTEX
  8
gg1
 10
1.229000
 20
-0.136000
  0
VERTEX
  8
gg1
 10
1.239000
 20
-0.126000
  0
VERTEX
  8
gg1
 10
1.239000
 20
-0.116000
  0
VERTEX
  8
gg1
 10
1.229000
 20
-0.106000
  0
VERTEX
  8
gg1
 10
1.199000
 20
-0.106000
  0
SEQEND
  8
gg1
  0
POLYLINE
  8
gg1
 62
1
 40
0.000000
 41
0.000000
 66
  1
  0
VERTEX
  8
gg1
 10
1.259000
 20
-0.086000
  0
VERTEX
  8
gg1
 10
1.269000
 20
-0.076000
  0
VERTEX
  8
gg1
 10
1.289000
 20
-0.076000
  0
VERTEX
  8
gg1
 10
1.299000
 20
-0.086000
  0
VERTEX
  8
gg1
 10
1.299000
 20
-0.126000
  0
VERTEX
  8
gg1
 10
1.289000
 20
-0.136000
  0
VERTEX
  8
gg1
 10
1.269000
 20
-0.136000
  0
VERTEX
  8
gg1
 10
1.259000
 20
-0.126000
  0
VERTEX
  8
gg1
 10
1.259000
 20
-0.086000
  0
SEQEND
  8
gg1
  0
POLYLINE
  8
gg1
 62
1
 40
0.000000
 41
0.000000
 66
  1
  0
VERTEX
  8
gg1
 10
1.319000
 20
-0.136000
  0
VERTEX
  8
gg1
 10
1.319000
 20
-0.096000
  0
VERTEX
  8
gg1
 10
1.329000
 20
-0.096000
  0
VERTEX
  8
gg1
 10
1.339000
 20
-0.106000
  0
VERTEX
  8
gg1
 10
1.339000
 20
-0.136000
  0
VERTEX
  8
gg1
 10
1.339000
 20
-0.106000
  0
VERTEX
  8
gg1
 10
1.349000
 20
-0.096000
  0
VERTEX
  8
gg1
 10
1.359000
 20
-0.106000
  0
VERTEX
  8
gg1
 10
1.359000
 20
-0.136000
  0
SEQEND
  8
gg1
  0
POLYLINE
  8
gg1
 62
1
 40
0.000000
 41
0.000000
 66
  1
  0
VERTEX
  8
gg1
 10
1.379000
 20
-0.136000
  0
VERTEX
  8
gg1
 10
1.399000
 20
-0.136000
  0
VERTEX
  8
gg1
 10
1.389000
 20
-0.136000
  0
VERTEX
  8
gg1
 10
1.389000
 20
-0.096000
  0
VERTEX
  8
gg1
 10
1.379000
 20
-0.096000
  0
SEQEND
  8
gg1
  0
POLYLINE
  8
gg1
 62
1
 40
0.000000
 41
0.000000
 66
  1
  0
VERTEX
  8
gg1
 10
1.428900
 20
-0.136000
  0
VERTEX
  8
gg1
 10
1.448900
 20
-0.136000
  0
VERTEX
  8
gg1
 10
1.438900
 20
-0.136000
  0
VERTEX
  8
gg1
 10
1.438900
 20
-0.076000
  0
VERTEX
  8
gg1
 10
1.428900
 20
-0.076000
  0
SEQEND
  8
gg1
  0
POLYLINE
  8
gg1
 62
1
 40
0.000000
 41
0.000000
 66
  1
  0
VERTEX
  8
gg1
 10
-0.064000
 20
0.849000
  0
VERTEX
  8
gg1
 10
-0.064000
 20
0.809100
  0
VERTEX
  8
gg1
 10
-0.104000
 20
0.849000
  0
VERTEX
  8
gg1
 10
-0.114000
 20
0.849000
  0
VERTEX
  8
gg1
 10
-0.124000
 20
0.839000
  0
VERTEX
  8
gg1
 10
-0.124000
 20
0.819100
  0
VERTEX
  8
gg1
 10
-0.114000
 20
0.809100
  0
SEQEND
  8
gg1
  0
POLYLINE
  8
gg1
 62
1
 40
0.000000
 41
0.000000
 66
  1
  0
VERTEX
  8
gg1
 10
-0.114000
 20
0.869000
  0
VERTEX
  8
gg1
 10
-0.124000
 20
0.879000
  0
VERTEX
  8
gg1
 10
-0.124000
 20
0.899000
  0
VERTEX
  8
gg1
 10
-0.114000
 20
0.909000
  0
VERTEX
  8
gg1
 10
-0.074000
 20
0.909000
  0
VERTEX
  8
gg1
 10
-0.064000
 20
0.899000
  0
VERTEX
  8
gg1
 10
-0.064000
 20
0.879000
  0
VERTEX
  8
gg1
 10
-0.074000
 20
0.869000
  0
VERTEX
  8
gg1
 10
-0.114000
 20
0.869000
  0
SEQEND
  8
gg1
  0
POLYLINE
  8
gg1
 62
1
 40
0.000000
 41
0.000000
 66
  1
  0
VERTEX
  8
gg1
 10
-0.064000
 20
0.969000
  0
VERTEX
  8
gg1
 10
-0.064000
 20
0.929000
  0
VERTEX
  8
gg1
 10
-0.104000
 20
0.969000
  0
VERTEX
  8
gg1
 10
-0.114000
 20
0.969000
  0
VERTEX
  8
gg1
 10
-0.124000
 20
0.959000
  0
VERTEX
  8
gg1
 10
-0.124000
 20
0.939000
  0
VERTEX
  8
gg1
 10
-0.114000
 20
0.929000
  0
SEQEND
  8
gg1
  0
POLYLINE
  8
gg1
 62
1
 40
0.000000
 41
0.000000
 66
  1
  0
VERTEX
  8
gg1
 10
-0.114000
 20
0.989000
  0
VERTEX
  8
gg1
 10
-0.124000
 20
0.999000
  0
VERTEX
  8
gg1
 10
-0.124000
 20
1.019000
  0
VERTEX
  8
gg1
 10
-0.114000
 20
1.029000
  0
VERTEX
  8
gg1
 10
-0.074000
 20
1.029000
  0
VERTEX
  8
gg1
 10
-0.064000
 20
1.019000
  0
VERTEX
  8
gg1
 10
-0.064000
 20
0.999000
  0
VERTEX
  8
gg1
 10
-0.074000
 20
0.989000
  0
VERTEX
  8
gg1
 10
-0.114000
 20
0.989000
  0
SEQEND
  8
gg1
  0
POLYLINE
  8
gg1
 62
1
 40
0.000000
 41
0.000000
 66
  1
  0
VERTEX
  8
gg1
 10
-0.064000
 20
1.049000
  0
VERTEX
  8
gg1
 10
-0.104000
 20
1.049000
  0
VERTEX
  8
gg1
 10
-0.104000
 20
1.059000
  0
VERTEX
  8
gg1
 10
-0.094000
 20
1.069000
  0
VERTEX
  8
gg1
 10
-0.064000
 20
1.069000
  0
VERTEX
  8
gg1
 10
-0.094000
 20
1.069000
  0
VERTEX
  8
gg1
 10
-0.104000
 20
1.079000
  0
VERTEX
  8
gg1
 10
-0.094000
 20
1.089000
  0
VERTEX
  8
gg1
 10
-0.064000
 20
1.089000
  0
SEQEND
  8
gg1
  0
POLYLINE
  8
gg1
 62
1
 40
0.000000
 41
0.000000
 66
  1
  0
VERTEX
  8
gg1
 10
-0.064000
 20
1.109000
  0
VERTEX
  8
gg1
 10
-0.064000
 20
1.129000
  0
VERTEX
  8
gg1
 10
-0.064000
 20
1.119000
  0
VERTEX
  8
gg1
 10
-0.104000
 20
1.119000
  0
VERTEX
  8
gg1
 10
-0.104000
 20
1.109000
  0
SEQEND
  8
gg1
  0
POLYLINE
  8
gg1
 62
1
 40
0.000000
 41
0.000000
 66
  1
  0
VERTEX
  8
gg1
 10
-0.064000
 20
1.158900
  0
VERTEX
  8
gg1
 10
-0.064000
 20
1.178900
  0
VERTEX
  8
gg1
 10
-0.064000
 20
1.168900
  0
VERTEX
  8
gg1
 10
-0.124000
 20
1.168900
  0
VERTEX
  8
gg1
 10
-0.124000
 20
1.158900
  0
SEQEND
  8
gg1
  0
ENDSEC
  0
EOF
