  0
SECTION
  2
HEADER
  9
$ACADVER
  1
AC1009
  9
$INSBASE
 10
0.0
 20
0.0
 30
0.0
  9
$EXTMIN
 10
-186.7037751056796
 20
-5.6082448315272257
 30
0.0
  9
$EXTMAX
 10
206.27999999999969
 20
228.83353773542581
 30
0.0
  9
$LIMMIN
 10
0.0
 20
0.0
  9
$LIMMAX
 10
420.0
 20
297.0
  9
$ORTHOMODE
 70
     0
  9
$REGENMODE
 70
     1
  9
$FILLMODE
 70
     1
  9
$QTEXTMODE
 70
     0
  9
$MIRRTEXT
 70
     0
  9
$DRAGMODE
 70
     2
  9
$LTSCALE
 40
1.0
  9
$OSMODE
 70
    55
  9
$ATTMODE
 70
     1
  9
$TEXTSIZE
 40
2.5
  9
$TRACEWID
 40
1.0
  9
$TEXTSTYLE
  7
STANDARD
  9
$CLAYER
  8
0
  9
$CELTYPE
  6
BYLAYER
  9
$CECOLOR
 62
   256
  9
$DIMSCALE
 40
1.0
  9
$DIMASZ
 40
3.5
  9
$DIMEXO
 40
1.0
  9
$DIMDLI
 40
10.0
  9
$DIMRND
 40
0.0
  9
$DIMDLE
 40
0.0
  9
$DIMEXE
 40
1.0
  9
$DIMTP
 40
0.1
  9
$DIMTM
 40
0.1
  9
$DIMTXT
 40
3.5
  9
$DIMCEN
 40
0.0
  9
$DIMTSZ
 40
0.0
  9
$DIMTOL
 70
     0
  9
$DIMLIM
 70
     0
  9
$DIMTIH
 70
     0
  9
$DIMTOH
 70
     0
  9
$DIMSE1
 70
     0
  9
$DIMSE2
 70
     0
  9
$DIMTAD
 70
     1
  9
$DIMZIN
 70
     8
  9
$DIMBLK
  1

  9
$DIMASO
 70
     1
  9
$DIMSHO
 70
     1
  9
$DIMPOST
  1

  9
$DIMAPOST
  1
"
  9
$DIMALT
 70
     0
  9
$DIMALTD
 70
     2
  9
$DIMALTF
 40
0.0393701
  9
$DIMLFAC
 40
1.0
  9
$DIMTOFL
 70
     1
  9
$DIMTVP
 40
0.0
  9
$DIMTIX
 70
     0
  9
$DIMSOXD
 70
     0
  9
$DIMSAH
 70
     0
  9
$DIMBLK1
  1

  9
$DIMBLK2
  1

  9
$DIMSTYLE
  2
AM_ISO
  9
$DIMCLRD
 70
   256
  9
$DIMCLRE
 70
   256
  9
$DIMCLRT
 70
     2
  9
$DIMTFAC
 40
0.71
  9
$DIMGAP
 40
1.5
  9
$LUNITS
 70
     2
  9
$LUPREC
 70
     4
  9
$SKETCHINC
 40
1.0
  9
$FILLETRAD
 40
0.0
  9
$AUNITS
 70
     0
  9
$AUPREC
 70
     0
  9
$MENU
  1
.
  9
$ELEVATION
 40
0.0
  9
$PELEVATION
 40
0.0
  9
$THICKNESS
 40
0.0
  9
$LIMCHECK
 70
     0
  9
$BLIPMODE
 70
     0
  9
$CHAMFERA
 40
0.0
  9
$CHAMFERB
 40
0.0
  9
$SKPOLY
 70
     0
  9
$TDCREATE
 40
2457803.5222726041
  9
$TDUPDATE
 40
2457999.5381724201
  9
$TDINDWG
 40
0.2313769907
  9
$TDUSRTIMER
 40
0.231376956
  9
$USRTIMER
 70
     1
  9
$ANGBASE
 50
0.0
  9
$ANGDIR
 70
     0
  9
$PDMODE
 70
     0
  9
$PDSIZE
 40
0.0
  9
$PLINEWID
 40
0.0
  9
$COORDS
 70
     1
  9
$SPLFRAME
 70
     0
  9
$SPLINETYPE
 70
     6
  9
$SPLINESEGS
 70
     8
  9
$ATTDIA
 70
     1
  9
$ATTREQ
 70
     1
  9
$HANDLING
 70
     1
  9
$HANDSEED
  5
668
  9
$SURFTAB1
 70
     6
  9
$SURFTAB2
 70
     6
  9
$SURFTYPE
 70
     6
  9
$SURFU
 70
     6
  9
$SURFV
 70
     6
  9
$UCSNAME
  2

  9
$UCSORG
 10
0.0
 20
0.0
 30
0.0
  9
$UCSXDIR
 10
1.0
 20
0.0
 30
0.0
  9
$UCSYDIR
 10
0.0
 20
1.0
 30
0.0
  9
$PUCSNAME
  2

  9
$PUCSORG
 10
0.0
 20
0.0
 30
0.0
  9
$PUCSXDIR
 10
1.0
 20
0.0
 30
0.0
  9
$PUCSYDIR
 10
0.0
 20
1.0
 30
0.0
  9
$USERI1
 70
     0
  9
$USERI2
 70
     0
  9
$USERI3
 70
     0
  9
$USERI4
 70
     0
  9
$USERI5
 70
     0
  9
$USERR1
 40
0.0
  9
$USERR2
 40
0.0
  9
$USERR3
 40
0.0
  9
$USERR4
 40
0.0
  9
$USERR5
 40
0.0
  9
$WORLDVIEW
 70
     1
  9
$SHADEDGE
 70
     3
  9
$SHADEDIF
 70
    70
  9
$TILEMODE
 70
     1
  9
$MAXACTVP
 70
    64
  9
$PLIMCHECK
 70
     0
  9
$PEXTMIN
 10
0.0
 20
0.0
 30
0.0
  9
$PEXTMAX
 10
0.0
 20
0.0
 30
0.0
  9
$PLIMMIN
 10
0.0
 20
0.0
  9
$PLIMMAX
 10
12.0
 20
9.0
  9
$UNITMODE
 70
     0
  9
$VISRETAIN
 70
     1
  9
$PLINEGEN
 70
     0
  9
$PSLTSCALE
 70
     1
  0
ENDSEC
  0
SECTION
  2
TABLES
  0
TABLE
  2
VPORT
 70
     1
  0
VPORT
  2
*ACTIVE
 70
     0
 10
0.0
 20
0.0
 11
1.0
 21
1.0
 12
17.652483038764039
 22
76.394494754016563
 13
0.0
 23
0.0
 14
10.0
 24
10.0
 15
10.0
 25
10.0
 16
0.0
 26
0.0
 36
1.0
 17
0.0
 27
0.0
 37
0.0
 40
251.32587252266711
 41
2.6000000000000001
 42
50.0
 43
0.0
 44
0.0
 50
0.0
 51
0.0
 71
     0
 72
  1000
 73
     1
 74
     3
 75
     0
 76
     1
 77
     0
 78
     0
  0
ENDTAB
  0
TABLE
  2
LTYPE
 70
    15
  0
LTYPE
  2
CONTINUOUS
 70
     0
  3
Solid line
 72
    65
 73
     0
 40
0.0
  0
LTYPE
  2
HIDDEN
 70
     0
  3
Hidden __ __ __ __ __ __ __ __ __ __ __ __ __ _
 72
    65
 73
     2
 40
9.5249999999999986
 49
6.3499999999999988
 49
-3.1749999999999989
  0
LTYPE
  2
PHANTOM2
 70
     0
  3
Phantom (.5x) ___ _ _ ___ _ _ ___ _ _ ___ _ _
 72
    65
 73
     6
 40
31.75
 49
15.875
 49
-3.1749999999999989
 49
3.1749999999999989
 49
-3.1749999999999989
 49
3.1749999999999989
 49
-3.1749999999999989
  0
LTYPE
  2
CENTER
 70
     0
  3
Center ____ _ ____ _ ____ _ ____ _ ____ _ ____
 72
    65
 73
     4
 40
50.799999999999997
 49
31.75
 49
-6.3499999999999988
 49
6.3499999999999988
 49
-6.3499999999999988
  0
LTYPE
  2
AM_ISO02W050
 70
     0
  3
__ __ __ __ __ __ __ __ __ __ __ __ __ __ __
 72
    65
 73
     2
 40
7.5
 49
6.0
 49
-1.5
  0
LTYPE
  2
AM_ISO08W050
 70
     0
  3
____ . ____ . ____ . ____ . ____ . ____ . ____
 72
    65
 73
     4
 40
18.0
 49
12.0
 49
-1.5
 49
3.0
 49
-1.5
  0
LTYPE
  2
AM_ISO09W050
 70
     0
  3
_____ . . _____ . . _____ . . ____ .. ____
 72
    65
 73
     6
 40
22.5
 49
12.0
 49
-1.5
 49
3.0
 49
-1.5
 49
3.0
 49
-1.5
  0
LTYPE
  2
AMCONSTR
 70
     0
  3
_______________________
 72
    65
 73
     2
 40
9999.0
 49
9999.0
 49
0.0
  0
LTYPE
  2
AM_ISO08W050X2
 70
     0
  3
__ . __ . __ . __ . __ . __
 72
    65
 73
     4
 40
9.0
 49
6.0
 49
-0.75
 49
1.5
 49
-0.75
  0
LTYPE
  2
AM_ISO02W050X2
 70
     0
  3
 _ _ _ _ _ _ _ _ _ _ _ _
 72
    65
 73
     2
 40
3.75
 49
3.0
 49
-0.75
  0
LTYPE
  2
AMZIGZAG
 70
     0
  3
/\/-/\/-/\/-/\/-/\/-/\/
 72
    65
 73
     2
 40
11.0001
 49
0.0001
 49
-11.0
  0
LTYPE
  2
ACISOWELD
 70
     0
  3
_ _ _ _ _
 72
    65
 73
     2
 40
2.0
 49
2.0
 49
-1.0
  0
LTYPE
  2
ACISOTGL
 70
     0
  3
_ _ _ _ _
 72
    65
 73
     2
 40
3.0
 49
2.0
 49
-1.0
  0
LTYPE
  2
ACISOTGB
 70
     0
  3
__ . . __ . .
 72
    65
 73
     6
 40
9.0
 49
4.0
 49
-1.0
 49
1.0
 49
-1.0
 49
1.0
 49
-1.0
  0
ENDTAB
  0
TABLE
  2
LAYER
 70
     7
  0
LAYER
  2
0
 70
     0
 62
     7
  6
CONTINUOUS
  0
LAYER
  2
AM_0
 70
     0
 62
     7
  6
CONTINUOUS
  0
LAYER
  2
AM_7
 70
     0
 62
     4
  6
AM_ISO08W050
  0
LAYER
  2
AM_4
 70
     0
 62
     3
  6
CONTINUOUS
  0
LAYER
  2
AM_9
 70
     0
 62
  -253
  6
CONTINUOUS
  0
LAYER
  2
AM_5
 70
     0
 62
     3
  6
CONTINUOUS
  0
LAYER
  2
â∫èëÇ´ê¸
 70
     0
 62
     1
  6
CONTINUOUS
  0
ENDTAB
  0
TABLE
  2
STYLE
 70
     5
  0
STYLE
  2
STANDARD
 70
     0
 40
0.0
 41
1.0
 50
0.0
 71
     0
 42
2.5
  3
txt
  4

  0
STYLE
  2
ANNOTATIVE
 70
     0
 40
0.0
 41
1.0
 50
0.0
 71
     0
 42
2.5
  3
txt
  4

  0
STYLE
  2

 70
     1
 40
0.0
 41
1.0
 50
0.0
 71
     0
 42
2.5
  3
genltshp.shx
  4

  0
STYLE
  2
ACISOTS
 70
     0
 40
0.0
 41
1.0
 50
0.0
 71
     0
 42
2.5
  3
isocp.shx
  4
extfont.shx
  0
STYLE
  2
ACISOGDT
 70
     0
 40
0.0
 41
1.0
 50
0.0
 71
     0
 42
2.5
  3
amgdt.shx
  4
extfont2.shx
  0
ENDTAB
  0
TABLE
  2
VIEW
 70
     1
  0
ENDTAB
  0
TABLE
  2
UCS
 70
     0
  0
ENDTAB
  0
TABLE
  2
APPID
 70
    29
  0
APPID
  2
ACAD
 70
     0
  0
APPID
  2
ACAD_PSEXT
 70
     0
  0
APPID
  2
ACADANNOPO
 70
     0
  0
APPID
  2
ACADANNOTATIVE
 70
     0
  0
APPID
  2
ACAD_DSTYLE_DIMJAG
 70
     0
  0
APPID
  2
ACAD_DSTYLE_DIMTALN
 70
     0
  0
APPID
  2
ACAD_MLEADERVER
 70
     0
  0
APPID
  2
ACAD_NAV_VCDISPLAY
 70
     0
  0
APPID
  2
MCAD_NO_VIS
 70
     0
  0
APPID
  2
ACAD_TEMP_GRAPHIC
 70
     0
  0
APPID
  2
ACATTRIBSERVICES
 70
     0
  0
APPID
  2
DESIGNERASSEMBLIES
 70
     0
  0
APPID
  2
ACAD_DSTYLE_DIMBREAK
 70
     0
  0
APPID
  2
ACAECLAYERSTANDARD
 70
     0
  0
APPID
  2
GEVID1390825338
 70
     0
  0
APPID
  2
GENIUS_GENBH_13
 70
     0
  0
APPID
  2
GENIUS_GENOENT_13
 70
     0
  0
APPID
  2
GENIUS_GENOLIS_13
 70
     0
  0
APPID
  2
GENIUS_GENOBJ-NBEHI-BHF_13
 70
     0
  0
APPID
  2
GENIUS_GENODEF_13
 70
     0
  0
APPID
  2
GENIUS_GENOREF_13
 70
     0
  0
APPID
  2
GENIUS_GENOBJ-NBEHI-BHB_13
 70
     0
  0
APPID
  2
GEVID1390825339
 70
     0
  0
APPID
  2
GENIUS_GENREC_14
 70
     0
  0
APPID
  2
GENIUS_GENOBJ-N-REC_13
 70
     0
  0
APPID
  2
AD_DRAW
 70
     0
  0
APPID
  2
ACADM_DIM_EDIT
 70
     0
  0
APPID
  2
AMDT_DM_ADJ
 70
     0
  0
APPID
  2
ACAD_EXEMPT_FROM_CAD_STANDARDS
 70
     0
  0
ENDTAB
  0
TABLE
  2
DIMSTYLE
 70
    11
  0
DIMSTYLE
  2
STANDARD
 70
     0
  3

  4

  5

  6

  7

 40
1.0
 41
0.18
 42
0.0625
 43
0.38
 44
0.18
 45
0.0
 46
0.0
 47
0.0
 48
0.0
140
0.18
141
0.09
142
0.0
143
25.399999999999999
144
1.0
145
0.0
146
1.0
147
0.09
 71
     0
 72
     0
 73
     1
 74
     1
 75
     0
 76
     0
 77
     0
 78
     0
170
     0
171
     2
172
     0
173
     0
174
     0
175
     0
176
     0
177
     0
178
     0
  0
DIMSTYLE
  2
ANNOTATIVE
 70
     0
  3

  4

  5

  6

  7

 40
0.0
 41
2.5
 42
0.625
 43
3.75
 44
1.25
 45
0.0
 46
0.0
 47
0.0
 48
0.0
140
2.5
141
2.5
142
0.0
143
0.03937007874016
144
1.0
145
0.0
146
1.0
147
0.625
 71
     0
 72
     0
 73
     0
 74
     0
 75
     0
 76
     0
 77
     1
 78
     8
170
     0
171
     3
172
     1
173
     0
174
     0
175
     0
176
     0
177
     0
178
     0
  0
DIMSTYLE
  2
ISO-25
 70
     0
  3

  4

  5

  6

  7

 40
1.0
 41
2.5
 42
0.625
 43
3.75
 44
1.25
 45
0.0
 46
0.0
 47
0.0
 48
0.0
140
2.5
141
2.5
142
0.0
143
0.03937007874016
144
1.0
145
0.0
146
1.0
147
0.625
 71
     0
 72
     0
 73
     0
 74
     0
 75
     0
 76
     0
 77
     1
 78
     8
170
     0
171
     3
172
     1
173
     0
174
     0
175
     0
176
     0
177
     0
178
     0
  0
DIMSTYLE
  2
AM_ISO
 70
     0
  3

  4
"
  5

  6

  7

 40
1.0
 41
3.5
 42
1.0
 43
10.0
 44
1.0
 45
0.0
 46
0.0
 47
0.1
 48
0.1
140
3.5
141
0.0
142
0.0
143
0.0393701
144
1.0
145
0.0
146
0.71
147
1.5
 71
     0
 72
     0
 73
     0
 74
     0
 75
     0
 76
     0
 77
     1
 78
     8
170
     0
171
     2
172
     1
173
     0
174
     0
175
     0
176
   256
177
   256
178
     2
  0
DIMSTYLE
  2
AM_ISO$3
 70
     0
  3

  4
"
  5

  6

  7

 40
1.0
 41
3.5
 42
1.0
 43
10.0
 44
1.0
 45
0.0
 46
0.0
 47
0.1
 48
0.1
140
3.5
141
0.0
142
0.0
143
0.0393701
144
1.0
145
0.0
146
0.71
147
1.5
 71
     0
 72
     0
 73
     0
 74
     1
 75
     0
 76
     0
 77
     1
 78
     8
170
     0
171
     2
172
     0
173
     0
174
     0
175
     0
176
   256
177
   256
178
     2
  0
DIMSTYLE
  2
AM_ISO$4
 70
     0
  3

  4
"
  5

  6

  7

 40
1.0
 41
3.5
 42
1.0
 43
10.0
 44
1.0
 45
0.0
 46
0.0
 47
0.1
 48
0.1
140
3.5
141
0.0
142
0.0
143
0.0393701
144
1.0
145
0.0
146
0.71
147
1.5
 71
     0
 72
     0
 73
     0
 74
     0
 75
     0
 76
     0
 77
     1
 78
     8
170
     0
171
     2
172
     1
173
     0
174
     0
175
     0
176
   256
177
   256
178
     2
  0
DIMSTYLE
  2
AM_ISO$6
 70
     0
  3

  4
"
  5

  6

  7

 40
1.0
 41
3.5
 42
1.0
 43
10.0
 44
1.0
 45
0.0
 46
0.0
 47
0.1
 48
0.1
140
3.5
141
0.0
142
0.0
143
0.0393701
144
1.0
145
0.0
146
0.71
147
1.5
 71
     0
 72
     0
 73
     0
 74
     0
 75
     0
 76
     0
 77
     0
 78
     8
170
     0
171
     2
172
     1
173
     0
174
     0
175
     0
176
   256
177
   256
178
     2
  0
DIMSTYLE
  2
AM_ISO$7
 70
     0
  3

  4
"
  5

  6

  7

 40
1.0
 41
3.5
 42
1.0
 43
10.0
 44
1.0
 45
0.0
 46
0.0
 47
0.1
 48
0.1
140
3.5
141
0.0
142
0.0
143
0.0393701
144
1.0
145
0.0
146
0.71
147
1.5
 71
     0
 72
     0
 73
     0
 74
     0
 75
     0
 76
     0
 77
     1
 78
     8
170
     0
171
     2
172
     1
173
     0
174
     0
175
     0
176
   256
177
   256
178
     2
  0
DIMSTYLE
  2
AM_ISO$SF
 70
     0
  3

  4
"
  5

  6

  7

 40
1.0
 41
3.5
 42
1.0
 43
10.0
 44
1.0
 45
0.0
 46
0.0
 47
0.1
 48
0.1
140
3.5
141
0.0
142
0.0
143
0.0393701
144
1.0
145
0.0
146
0.71
147
1.5
 71
     0
 72
     0
 73
     0
 74
     0
 75
     1
 76
     1
 77
     1
 78
     8
170
     0
171
     2
172
     1
173
     0
174
     0
175
     0
176
   256
177
   256
178
     2
  0
DIMSTYLE
  2
AM_ISO$SH
 70
     0
  3

  4
"
  5

  6
GENAXEH
  7

 40
1.0
 41
3.5
 42
1.0
 43
10.0
 44
1.0
 45
0.0
 46
0.0
 47
0.1
 48
0.1
140
3.5
141
0.0
142
0.0
143
0.0393701
144
2.0
145
0.0
146
0.71
147
1.5
 71
     0
 72
     0
 73
     0
 74
     0
 75
     1
 76
     1
 77
     1
 78
     8
170
     0
171
     2
172
     1
173
     1
174
     0
175
     0
176
   256
177
   256
178
     2
  0
ENDTAB
  0
ENDSEC
  0
SECTION
  2
BLOCKS
  0
BLOCK
  8
0
  2
$MODEL_SPACE
 70
     0
 10
0.0
 20
0.0
 30
0.0
  3
$MODEL_SPACE
  1

  0
ENDBLK
  5
21
  8
0
  0
BLOCK
 67
     1
  8
0
  2
$PAPER_SPACE
 70
     0
 10
0.0
 20
0.0
 30
0.0
  3
$PAPER_SPACE
  1

  0
ENDBLK
  5
D5
 67
     1
  8
0
  0
BLOCK
  8
0
  2
GENAXEH
 70
     0
 10
0.0
 20
0.0
 30
0.0
  3
GENAXEH
  1

  0
LINE
  5
2A3
  8
0
 10
-1.0
 20
0.0
 30
0.0
 11
1.0
 21
0.0
 31
0.0
  0
ENDBLK
  5
2A5
  8
0
  0
BLOCK
  8
0
  2
_ACMFILLED15
 70
     0
 10
0.0
 20
0.0
 30
0.0
  3
_ACMFILLED15
  1

  0
TRACE
  5
2D1
  8
0
 62
     0
 10
-1.0
 20
-0.131652497
 30
0.0
 11
-1.0
 21
0.131652497
 31
0.0
 12
0.0
 22
0.0
 32
0.0
 13
0.0
 23
0.0
 33
0.0
  0
ENDBLK
  5
2D0
  8
0
  0
BLOCK
  8
0
  2
*S5
 70
     1
 10
0.0
 20
0.0
 30
0.0
  3
*S5
  1

  0
LINE
  5
5A2
  8
AM_5
 10
-39.250597535190941
 20
184.53619147968399
 30
0.0
 11
-16.002570281067161
 21
184.53619147968399
 31
0.0
  0
LINE
  5
5A3
  8
AM_5
 10
-16.002570281067161
 20
184.53619147968399
 30
0.0
 11
-13.51859094439896
 21
184.53619147968399
 31
0.0
  0
LINE
  5
5A4
  8
AM_5
 10
-13.51859094439896
 20
184.53619147968399
 30
0.0
 11
-3.2973153621815401
 21
180.897680094968
 31
0.0
  0
TRACE
  5
5A5
  8
AM_5
  6
CONTINUOUS
 10
-3.4929419474644261
 20
180.34812753680259
 30
0.0
 11
-3.101688776898655
 21
181.4472326531334
 31
0.0
 12
0.0
 22
179.72392057857559
 32
0.0
 13
0.0
 23
179.72392057857559
 33
0.0
  0
INSERT
  5
5A6
  8
0
  2
*U10
 10
0.0
 20
0.0
 30
0.0
  0
ENDBLK
  5
5A8
  8
0
  0
BLOCK
  8
0
  2
*U6
 70
     1
 10
0.0
 20
0.0
 30
0.0
  3
*U6
  1

  0
LINE
  5
5AB
  8
AM_7
  6
AM_ISO08W050X2
 10
6.3999999999999773
 20
186.7239205785757
 30
0.0
 11
15.600000000000019
 21
186.7239205785757
 31
0.0
  0
CIRCLE
  5
5AC
  8
AM_0
 10
11.0
 20
186.7239205785757
 30
0.0
 40
1.599999999999999
  0
LINE
  5
5AD
  8
AM_7
  6
AM_ISO08W050X2
 10
11.0
 20
182.12392057857571
 30
0.0
 11
11.0
 21
191.3239205785757
 31
0.0
  0
ENDBLK
  5
5AF
  8
0
  0
BLOCK
  8
0
  2
*U7
 70
     1
 10
0.0
 20
0.0
 30
0.0
  3
*U7
  1

  0
LINE
  5
5B2
  8
AM_7
  6
AM_ISO08W050X2
 10
120.39999999999991
 20
186.72392057857559
 30
0.0
 11
129.59999999999999
 21
186.72392057857559
 31
0.0
  0
CIRCLE
  5
5B3
  8
AM_0
 10
125.0
 20
186.72392057857559
 30
0.0
 40
1.599999999999999
  0
LINE
  5
5B4
  8
AM_7
  6
AM_ISO08W050X2
 10
125.0
 20
182.12392057857559
 30
0.0
 11
125.0
 21
191.3239205785757
 31
0.0
  0
ENDBLK
  5
5B6
  8
0
  0
BLOCK
  8
0
  2
*U8
 70
     1
 10
0.0
 20
0.0
 30
0.0
  3
*U8
  1

  0
LINE
  5
5B9
  8
AM_7
  6
AM_ISO08W050X2
 10
6.3999999999999773
 20
7.999999999999992
 30
0.0
 11
15.600000000000019
 21
7.999999999999992
 31
0.0
  0
CIRCLE
  5
5BA
  8
AM_0
 10
11.0
 20
7.999999999999992
 30
0.0
 40
1.599999999999999
  0
LINE
  5
5BB
  8
AM_7
  6
AM_ISO08W050X2
 10
11.0
 20
3.3999999999999981
 30
0.0
 11
11.0
 21
12.599999999999991
 31
0.0
  0
ENDBLK
  5
5BD
  8
0
  0
BLOCK
  8
0
  2
*U9
 70
     1
 10
0.0
 20
0.0
 30
0.0
  3
*U9
  1

  0
LINE
  5
5C0
  8
AM_7
  6
AM_ISO08W050X2
 10
120.39999999999991
 20
7.999999999999992
 30
0.0
 11
129.59999999999999
 21
7.999999999999992
 31
0.0
  0
CIRCLE
  5
5C1
  8
AM_0
 10
125.0
 20
7.999999999999992
 30
0.0
 40
1.599999999999999
  0
LINE
  5
5C2
  8
AM_7
  6
AM_ISO08W050X2
 10
125.0
 20
3.3999999999999981
 30
0.0
 11
125.0
 21
12.599999999999991
 31
0.0
  0
ENDBLK
  5
5C4
  8
0
  0
BLOCK
  8
0
  2
*U10
 70
     1
 10
0.0
 20
0.0
 30
0.0
  3
*U10
  1

  0
TEXT
  5
664
  8
AM_5
 62
     2
 10
-39.45591813546379
 20
186.72369147968399
 30
0.0
 40
3.5
  1
3mm
  0
TEXT
  5
665
  8
AM_5
 62
     2
 10
-28.590638462885352
 20
186.72369147968399
 30
0.0
 40
3.5
  1
å@ÇÈ
  0
ENDBLK
  5
667
  8
0
  0
ENDSEC
  0
SECTION
  2
ENTITIES
  0
POINT
  5
2EA
  8
0
 10
0.0
 20
0.0
 30
0.0
1001
GENIUS_GENOLIS_13
1002
{
1000
ENT
1002
}
1001
GENIUS_GENODEF_13
1002
{
1000
HIER
1070
     1
1002
}
1002
{
1000
MANEDIT
1070
     0
1002
}
1002
{
1000
NOSEL
1070
     1
1002
}
1002
{
1000
BEHIND
1070
     0
1002
}
1002
{
1000
OTHER
1070
     1
1002
}
1002
{
1000
REACTOR
1002
}
1001
GENIUS_GENOENT_13
1002
{
1000
MYREF
1005
2EA
1002
}
1002
{
1000
GRP
1005
0
1002
}
1001
GENIUS_GENOBJ-NBEHI-BHB_13
1002
{
1000
OWNER
1000
genbehi
1002
}
1001
GENIUS_GENBH_13
1002
{
1000
FGO
1005
2E4
1002
}
  0
CIRCLE
  5
376
  8
0
 10
131.3499999999998
 20
19.000000000000011
 30
0.0
 40
1.7999999999999969
  0
CIRCLE
  5
378
  8
0
 10
122.3499999999998
 20
19.000000000000011
 30
0.0
 40
1.7999999999999969
  0
INSERT
  5
379
  8
AM_0
  2
*U6
 10
0.0
 20
0.0
 30
0.0
1001
GENIUS_GENOREF_13
1005
3A2
  0
INSERT
  5
37A
  8
AM_0
  2
*U7
 10
0.0
 20
0.0
 30
0.0
1001
GENIUS_GENOREF_13
1005
3A1
  0
INSERT
  5
37B
  8
AM_0
  2
*U8
 10
0.0
 20
0.0
 30
0.0
1001
GENIUS_GENOREF_13
1005
3A0
  0
INSERT
  5
37C
  8
AM_0
  2
*U9
 10
0.0
 20
0.0
 30
0.0
1001
GENIUS_GENOREF_13
1005
39F
  0
CIRCLE
  5
380
  8
0
 10
4.6500000000002037
 20
71.0
 30
0.0
 40
1.7999999999999969
  0
CIRCLE
  5
382
  8
0
 10
13.650000000000199
 20
71.0
 30
0.0
 40
1.7999999999999969
  0
CIRCLE
  5
38F
  8
0
 10
4.6500000000002037
 20
175.72392057857559
 30
0.0
 40
1.7999999999999969
  0
CIRCLE
  5
391
  8
0
 10
13.650000000000199
 20
175.72392057857559
 30
0.0
 40
1.7999999999999969
  0
CIRCLE
  5
394
  8
0
 10
131.34999999999971
 20
123.7239205785757
 30
0.0
 40
1.7999999999999969
  0
CIRCLE
  5
396
  8
0
 10
122.3499999999997
 20
123.7239205785757
 30
0.0
 40
1.7999999999999969
  0
LINE
  5
397
  8
0
 10
0.0
 20
179.72392057857559
 30
0.0
 11
0.0
 21
22.999999999999989
 31
0.0
  0
LINE
  5
398
  8
0
 10
0.0
 20
22.999999999999989
 30
0.0
 11
3.0
 21
0.0
 31
0.0
  0
LINE
  5
399
  8
0
 10
133.0
 20
0.0
 30
0.0
 11
136.0
 21
15.000000000000011
 31
0.0
  0
LINE
  5
39A
  8
0
 10
136.0
 20
15.000000000000011
 30
0.0
 11
135.99999999999989
 21
171.7239205785757
 31
0.0
  0
LINE
  5
39B
  8
0
 10
135.99999999999989
 20
171.7239205785757
 30
0.0
 11
133.0
 21
194.7239205785757
 31
0.0
  0
LINE
  5
39C
  8
0
 10
0.0
 20
179.72392057857559
 30
0.0
 11
3.0
 21
194.7239205785757
 31
0.0
  0
POINT
  5
39F
  8
0
 10
-122.6092982011855
 20
-209.0986605610355
 30
0.0
1001
GENIUS_GENODEF_13
1002
{
1000
HIER
1070
     1
1002
}
1002
{
1000
MANEDIT
1070
     0
1002
}
1002
{
1000
NOSEL
1070
     1
1002
}
1002
{
1000
BEHIND
1070
     0
1002
}
1002
{
1000
OTHER
1070
     0
1002
}
1002
{
1000
REACTOR
1002
}
1001
GENIUS_GENOBJ-NBEHI-BHF_13
1002
{
1000
OWNER
1000
genbehi
1002
}
1001
GENIUS_GENOENT_13
1002
{
1000
MYREF
1005
39F
1002
}
1002
{
1000
GRP
1005
0
1002
}
1001
GENIUS_GENOLIS_13
1002
{
1000
ENT
1005
37C
1002
}
1001
GENIUS_GENBH_13
1002
{
1000
BGZLEVEL
1070
    -1
1002
}
1002
{
1000
FGZLEVEL
1070
    -1
1002
}
1002
{
1000
OIUMAP
1000
OIU
1002
}
1002
{
1000
FLAGS
1070
    32
1002
}
1002
{
1000
FGLEVEL
1040
4.1415926535900001
1002
}
1002
{
1000
BGO
1005
0
1002
}
  0
POINT
  5
3A0
  8
0
 10
-236.6092982011856
 20
-209.0986605610355
 30
0.0
1001
GENIUS_GENODEF_13
1002
{
1000
HIER
1070
     1
1002
}
1002
{
1000
MANEDIT
1070
     0
1002
}
1002
{
1000
NOSEL
1070
     1
1002
}
1002
{
1000
BEHIND
1070
     0
1002
}
1002
{
1000
OTHER
1070
     0
1002
}
1002
{
1000
REACTOR
1002
}
1001
GENIUS_GENOBJ-NBEHI-BHF_13
1002
{
1000
OWNER
1000
genbehi
1002
}
1001
GENIUS_GENOENT_13
1002
{
1000
MYREF
1005
3A0
1002
}
1002
{
1000
GRP
1005
0
1002
}
1001
GENIUS_GENOLIS_13
1002
{
1000
ENT
1005
37B
1002
}
1001
GENIUS_GENBH_13
1002
{
1000
BGZLEVEL
1070
    -1
1002
}
1002
{
1000
FGZLEVEL
1070
    -1
1002
}
1002
{
1000
OIUMAP
1000
OIU
1002
}
1002
{
1000
FLAGS
1070
    32
1002
}
1002
{
1000
FGLEVEL
1040
4.1415926535900001
1002
}
1002
{
1000
BGO
1005
0
1002
}
  0
POINT
  5
3A1
  8
0
 10
-122.6092982011855
 20
-30.374739982459801
 30
0.0
1001
GENIUS_GENODEF_13
1002
{
1000
HIER
1070
     1
1002
}
1002
{
1000
MANEDIT
1070
     0
1002
}
1002
{
1000
NOSEL
1070
     1
1002
}
1002
{
1000
BEHIND
1070
     0
1002
}
1002
{
1000
OTHER
1070
     0
1002
}
1002
{
1000
REACTOR
1002
}
1001
GENIUS_GENOBJ-NBEHI-BHF_13
1002
{
1000
OWNER
1000
genbehi
1002
}
1001
GENIUS_GENOENT_13
1002
{
1000
MYREF
1005
3A1
1002
}
1002
{
1000
GRP
1005
0
1002
}
1001
GENIUS_GENOLIS_13
1002
{
1000
ENT
1005
37A
1002
}
1001
GENIUS_GENBH_13
1002
{
1000
BGZLEVEL
1070
    -1
1002
}
1002
{
1000
FGZLEVEL
1070
    -1
1002
}
1002
{
1000
OIUMAP
1000
OIU
1002
}
1002
{
1000
FLAGS
1070
    32
1002
}
1002
{
1000
FGLEVEL
1040
4.1415926535900001
1002
}
1002
{
1000
BGO
1005
0
1002
}
  0
POINT
  5
3A2
  8
0
 10
-236.60929820118551
 20
-30.374739982459769
 30
0.0
1001
GENIUS_GENODEF_13
1002
{
1000
HIER
1070
     1
1002
}
1002
{
1000
MANEDIT
1070
     0
1002
}
1002
{
1000
NOSEL
1070
     1
1002
}
1002
{
1000
BEHIND
1070
     0
1002
}
1002
{
1000
OTHER
1070
     0
1002
}
1002
{
1000
REACTOR
1002
}
1001
GENIUS_GENOBJ-NBEHI-BHF_13
1002
{
1000
OWNER
1000
genbehi
1002
}
1001
GENIUS_GENOENT_13
1002
{
1000
MYREF
1005
3A2
1002
}
1002
{
1000
GRP
1005
0
1002
}
1001
GENIUS_GENOLIS_13
1002
{
1000
ENT
1005
379
1002
}
1001
GENIUS_GENBH_13
1002
{
1000
BGZLEVEL
1070
    -1
1002
}
1002
{
1000
FGZLEVEL
1070
    -1
1002
}
1002
{
1000
OIUMAP
1000
OIU
1002
}
1002
{
1000
FLAGS
1070
    32
1002
}
1002
{
1000
FGLEVEL
1040
4.1415926535900001
1002
}
1002
{
1000
BGO
1005
0
1002
}
  0
POLYLINE
  5
3AB
  8
0
 66
     1
 10
0.0
 20
0.0
 30
0.0
 70
     1
1001
GENIUS_GENREC_14
1002
{
1000
PYDIR
1011
-0.0000000000000032
1021
0.0
1031
0.0
1021
23.000000000000011
1031
0.0
1002
}
1002
{
1000
PXDIR
1011
18.300000000000288
1021
0.0
1031
0.0
1021
75.0
1031
0.0
1002
}
1002
{
1000
PORI
1011
0.0
1021
0.0
1031
0.0
1021
75.0
1031
0.0
1002
}
1002
{
1000
PINS
1011
0.0
1021
0.0
1031
0.0
1021
75.0
1031
0.0
1002
}
1002
{
1000
PINS2
1011
18.300000000000288
1021
0.0
1031
0.0
1021
23.000000000000011
1031
0.0
1002
}
1002
{
1000
C
1070
     1
1002
}
1001
GENIUS_GENODEF_13
1002
{
1000
HIER
1070
     0
1002
}
1002
{
1000
MANEDIT
1070
     0
1002
}
1002
{
1000
NOSEL
1070
     0
1002
}
1002
{
1000
BEHIND
1070
     0
1002
}
1002
{
1000
OTHER
1070
     0
1002
}
1002
{
1000
REACTOR
1002
}
1001
GENIUS_GENOBJ-N-REC_13
1002
{
1000
OWNER
1000
GEN
1002
}
  0
VERTEX
  5
61A
  8
0
 10
0.0
 20
75.0
 30
0.0
  0
VERTEX
  5
61B
  8
0
 10
18.300000000000288
 20
75.0
 30
0.0
  0
VERTEX
  5
61C
  8
0
 10
18.300000000000288
 20
23.000000000000011
 30
0.0
  0
VERTEX
  5
61D
  8
0
 10
-0.0000000000000036
 20
23.000000000000011
 30
0.0
  0
SEQEND
  5
61E
  8
0
  0
POLYLINE
  5
3AC
  8
0
 66
     1
 10
0.0
 20
0.0
 30
0.0
 70
     1
1001
GENIUS_GENREC_14
1002
{
1000
PYDIR
1011
-0.0000000000000032
1021
0.0
1031
0.0
1021
127.7239205785756
1031
0.0
1002
}
1002
{
1000
PXDIR
1011
18.300000000000288
1021
0.0
1031
0.0
1021
179.72392057857559
1031
0.0
1002
}
1002
{
1000
PORI
1011
0.0
1021
0.0
1031
0.0
1021
179.72392057857559
1031
0.0
1002
}
1002
{
1000
PINS
1011
0.0
1021
0.0
1031
0.0
1021
179.72392057857559
1031
0.0
1002
}
1002
{
1000
PINS2
1011
18.300000000000288
1021
0.0
1031
0.0
1021
127.7239205785756
1031
0.0
1002
}
1002
{
1000
C
1070
     1
1002
}
1001
GENIUS_GENOBJ-N-REC_13
1002
{
1000
OWNER
1000
GEN
1002
}
1001
GENIUS_GENODEF_13
1002
{
1000
HIER
1070
     0
1002
}
1002
{
1000
MANEDIT
1070
     0
1002
}
1002
{
1000
NOSEL
1070
     0
1002
}
1002
{
1000
BEHIND
1070
     0
1002
}
1002
{
1000
OTHER
1070
     0
1002
}
1002
{
1000
REACTOR
1002
}
  0
VERTEX
  5
61F
  8
0
 10
0.0
 20
179.72392057857559
 30
0.0
  0
VERTEX
  5
620
  8
0
 10
18.300000000000288
 20
179.72392057857559
 30
0.0
  0
VERTEX
  5
621
  8
0
 10
18.300000000000288
 20
127.7239205785756
 30
0.0
  0
VERTEX
  5
622
  8
0
 10
-0.0000000000000036
 20
127.7239205785756
 30
0.0
  0
SEQEND
  5
623
  8
0
  0
POLYLINE
  5
3AD
  8
0
 66
     1
 10
0.0
 20
0.0
 30
0.0
 70
     1
1001
GENIUS_GENREC_14
1002
{
1000
PYDIR
1011
46.0
1021
0.0
1031
0.0
1021
168.42392057857541
1031
0.0
1002
}
1002
{
1000
PXDIR
1011
98.0
1021
0.0
1031
0.0
1021
186.7239205785757
1031
0.0
1002
}
1002
{
1000
PORI
1011
46.0
1021
0.0
1031
0.0
1021
186.7239205785757
1031
0.0
1002
}
1002
{
1000
PINS
1011
46.0
1021
0.0
1031
0.0
1021
186.7239205785757
1031
0.0
1002
}
1002
{
1000
PINS2
1011
98.0
1021
0.0
1031
0.0
1021
168.42392057857541
1031
0.0
1002
}
1002
{
1000
C
1070
     1
1002
}
1001
GENIUS_GENOBJ-N-REC_13
1002
{
1000
OWNER
1000
GEN
1002
}
1001
GENIUS_GENODEF_13
1002
{
1000
HIER
1070
     0
1002
}
1002
{
1000
MANEDIT
1070
     0
1002
}
1002
{
1000
NOSEL
1070
     0
1002
}
1002
{
1000
BEHIND
1070
     0
1002
}
1002
{
1000
OTHER
1070
     0
1002
}
1002
{
1000
REACTOR
1002
}
  0
VERTEX
  5
624
  8
0
 10
46.0
 20
186.7239205785757
 30
0.0
  0
VERTEX
  5
625
  8
0
 10
98.0
 20
186.7239205785757
 30
0.0
  0
VERTEX
  5
626
  8
0
 10
98.0
 20
168.42392057857541
 30
0.0
  0
VERTEX
  5
627
  8
0
 10
46.0
 20
168.42392057857541
 30
0.0
  0
SEQEND
  5
628
  8
0
  0
POLYLINE
  5
3AE
  8
0
 66
     1
 10
0.0
 20
0.0
 30
0.0
 70
     1
1001
GENIUS_GENREC_14
1002
{
1000
PYDIR
1011
117.6999999999996
1021
0.0
1031
0.0
1021
119.7239205785757
1031
0.0
1002
}
1002
{
1000
PXDIR
1011
135.99999999999989
1021
0.0
1031
0.0
1021
171.7239205785757
1031
0.0
1002
}
1002
{
1000
PORI
1011
117.6999999999996
1021
0.0
1031
0.0
1021
171.7239205785757
1031
0.0
1002
}
1002
{
1000
PINS
1011
117.6999999999996
1021
0.0
1031
0.0
1021
171.7239205785757
1031
0.0
1002
}
1002
{
1000
PINS2
1011
135.99999999999989
1021
0.0
1031
0.0
1021
119.7239205785757
1031
0.0
1002
}
1002
{
1000
C
1070
     1
1002
}
1001
GENIUS_GENODEF_13
1002
{
1000
HIER
1070
     0
1002
}
1002
{
1000
MANEDIT
1070
     0
1002
}
1002
{
1000
NOSEL
1070
     0
1002
}
1002
{
1000
BEHIND
1070
     0
1002
}
1002
{
1000
OTHER
1070
     0
1002
}
1002
{
1000
REACTOR
1002
}
1001
GENIUS_GENOBJ-N-REC_13
1002
{
1000
OWNER
1000
GEN
1002
}
  0
VERTEX
  5
629
  8
0
 10
117.6999999999996
 20
171.7239205785757
 30
0.0
  0
VERTEX
  5
62A
  8
0
 10
135.99999999999989
 20
171.7239205785757
 30
0.0
  0
VERTEX
  5
62B
  8
0
 10
135.99999999999989
 20
119.7239205785757
 30
0.0
  0
VERTEX
  5
62C
  8
0
 10
117.6999999999996
 20
119.7239205785757
 30
0.0
  0
SEQEND
  5
62D
  8
0
  0
POLYLINE
  5
3AF
  8
0
 66
     1
 10
0.0
 20
0.0
 30
0.0
 70
     1
1001
GENIUS_GENREC_14
1002
{
1000
PYDIR
1011
117.6999999999997
1021
0.0
1031
0.0
1021
15.000000000000011
1031
0.0
1002
}
1002
{
1000
PXDIR
1011
136.0
1021
0.0
1031
0.0
1021
67.0
1031
0.0
1002
}
1002
{
1000
PORI
1011
117.6999999999997
1021
0.0
1031
0.0
1021
67.0
1031
0.0
1002
}
1002
{
1000
PINS
1011
117.6999999999997
1021
0.0
1031
0.0
1021
67.0
1031
0.0
1002
}
1002
{
1000
PINS2
1011
136.0
1021
0.0
1031
0.0
1021
15.000000000000011
1031
0.0
1002
}
1002
{
1000
C
1070
     1
1002
}
1001
GENIUS_GENODEF_13
1002
{
1000
HIER
1070
     0
1002
}
1002
{
1000
MANEDIT
1070
     0
1002
}
1002
{
1000
NOSEL
1070
     0
1002
}
1002
{
1000
BEHIND
1070
     0
1002
}
1002
{
1000
OTHER
1070
     0
1002
}
1002
{
1000
REACTOR
1002
}
1001
GENIUS_GENOBJ-N-REC_13
1002
{
1000
OWNER
1000
GEN
1002
}
  0
VERTEX
  5
62E
  8
0
 10
117.6999999999997
 20
67.0
 30
0.0
  0
VERTEX
  5
62F
  8
0
 10
136.0
 20
67.0
 30
0.0
  0
VERTEX
  5
630
  8
0
 10
136.0
 20
15.000000000000011
 30
0.0
  0
VERTEX
  5
631
  8
0
 10
117.6999999999997
 20
15.000000000000011
 30
0.0
  0
SEQEND
  5
632
  8
0
  0
POLYLINE
  5
3B0
  8
0
 66
     1
 10
0.0
 20
0.0
 30
0.0
 70
     1
1001
GENIUS_GENREC_14
1002
{
1000
PYDIR
1011
38.000000000000057
1021
0.0
1031
0.0
1021
7.9999999999999929
1031
0.0
1002
}
1002
{
1000
PXDIR
1011
90.000000000000057
1021
0.0
1031
0.0
1021
26.300000000000288
1031
0.0
1002
}
1002
{
1000
PORI
1011
38.000000000000057
1021
0.0
1031
0.0
1021
26.300000000000288
1031
0.0
1002
}
1002
{
1000
PINS
1011
38.000000000000057
1021
0.0
1031
0.0
1021
26.300000000000288
1031
0.0
1002
}
1002
{
1000
PINS2
1011
90.000000000000057
1021
0.0
1031
0.0
1021
7.9999999999999929
1031
0.0
1002
}
1002
{
1000
C
1070
     1
1002
}
1001
GENIUS_GENODEF_13
1002
{
1000
HIER
1070
     0
1002
}
1002
{
1000
MANEDIT
1070
     0
1002
}
1002
{
1000
NOSEL
1070
     0
1002
}
1002
{
1000
BEHIND
1070
     0
1002
}
1002
{
1000
OTHER
1070
     0
1002
}
1002
{
1000
REACTOR
1002
}
1001
GENIUS_GENOBJ-N-REC_13
1002
{
1000
OWNER
1000
GEN
1002
}
  0
VERTEX
  5
633
  8
0
 10
38.000000000000057
 20
26.300000000000288
 30
0.0
  0
VERTEX
  5
634
  8
0
 10
90.000000000000057
 20
26.300000000000288
 30
0.0
  0
VERTEX
  5
635
  8
0
 10
90.000000000000057
 20
7.9999999999999929
 30
0.0
  0
VERTEX
  5
636
  8
0
 10
38.000000000000057
 20
8.0
 30
0.0
  0
SEQEND
  5
637
  8
0
  0
INSERT
  5
3C8
  8
AM_5
  2
*S5
 10
0.0
 20
0.0
 30
0.0
  0
CIRCLE
  5
42C
  8
0
 10
42.00000000000005
 20
12.650000000000199
 30
0.0
 40
1.7999999999999969
  0
CIRCLE
  5
42D
  8
0
 10
42.00000000000005
 20
21.650000000000201
 30
0.0
 40
1.7999999999999969
  0
CIRCLE
  5
42E
  8
0
 10
94.0
 20
182.0739205785755
 30
0.0
 40
1.7999999999999969
  0
CIRCLE
  5
42F
  8
0
 10
94.0
 20
173.0739205785755
 30
0.0
 40
1.7999999999999969
  0
LINE
  5
430
  8
0
 10
3.0
 20
194.7239205785757
 30
0.0
 11
46.0
 21
186.7239205785757
 31
0.0
  0
LINE
  5
431
  8
0
 10
98.0
 20
186.7239205785757
 30
0.0
 11
133.0
 21
194.7239205785757
 31
0.0
  0
LINE
  5
432
  8
0
 10
3.0
 20
0.0
 30
0.0
 11
38.000000000000057
 21
8.0
 31
0.0
  0
LINE
  5
433
  8
0
 10
38.000000000000057
 20
8.0
 30
0.0
 11
90.000000000000057
 21
8.0
 31
0.0
  0
LINE
  5
434
  8
0
 10
90.000000000000057
 20
8.0
 30
0.0
 11
133.0
 21
0.0
 31
0.0
  0
LINE
  5
435
  8
0
 10
46.0
 20
186.7239205785757
 30
0.0
 11
98.0
 21
186.7239205785757
 31
0.0
  0
POLYLINE
  5
4D1
  8
â∫èëÇ´ê¸
 66
     1
 10
0.0
 20
0.0
 30
0.0
 70
     1
1001
GENIUS_GENREC_14
1002
{
1000
PYDIR
1011
46.00000000000005
1021
0.0
1031
0.0
1021
29.36196028928785
1031
0.0
1002
}
1002
{
1000
PXDIR
1011
90.000000000000057
1021
0.0
1031
0.0
1021
26.36196028928785
1031
0.0
1002
}
1002
{
1000
PORI
1011
46.00000000000005
1021
0.0
1031
0.0
1021
26.36196028928785
1031
0.0
1002
}
1002
{
1000
PINS
1011
46.00000000000005
1021
0.0
1031
0.0
1021
26.36196028928785
1031
0.0
1002
}
1002
{
1000
PINS2
1011
90.000000000000057
1021
0.0
1031
0.0
1021
29.36196028928785
1031
0.0
1002
}
1002
{
1000
C
1070
     1
1002
}
1001
GENIUS_GENODEF_13
1002
{
1000
HIER
1070
     0
1002
}
1002
{
1000
MANEDIT
1070
     0
1002
}
1002
{
1000
NOSEL
1070
     0
1002
}
1002
{
1000
BEHIND
1070
     0
1002
}
1002
{
1000
OTHER
1070
     0
1002
}
1002
{
1000
REACTOR
1002
}
1001
GENIUS_GENOBJ-N-REC_13
1002
{
1000
OWNER
1000
GEN
1002
}
  0
VERTEX
  5
638
  8
â∫èëÇ´ê¸
 10
46.00000000000005
 20
26.36196028928785
 30
0.0
  0
VERTEX
  5
639
  8
â∫èëÇ´ê¸
 10
90.000000000000057
 20
26.36196028928785
 30
0.0
  0
VERTEX
  5
63A
  8
â∫èëÇ´ê¸
 10
90.000000000000057
 20
29.36196028928785
 30
0.0
  0
VERTEX
  5
63B
  8
â∫èëÇ´ê¸
 10
46.00000000000005
 20
29.36196028928785
 30
0.0
  0
SEQEND
  5
63C
  8
â∫èëÇ´ê¸
  0
POLYLINE
  5
4D2
  8
â∫èëÇ´ê¸
 66
     1
 10
0.0
 20
0.0
 30
0.0
 70
     1
1001
GENIUS_GENREC_14
1002
{
1000
PYDIR
1011
46.00000000000005
1021
0.0
1031
0.0
1021
11.061960289287549
1031
0.0
1002
}
1002
{
1000
PXDIR
1011
90.000000000000057
1021
0.0
1031
0.0
1021
26.36196028928785
1031
0.0
1002
}
1002
{
1000
PORI
1011
46.00000000000005
1021
0.0
1031
0.0
1021
26.36196028928785
1031
0.0
1002
}
1002
{
1000
PINS
1011
46.00000000000005
1021
0.0
1031
0.0
1021
26.36196028928785
1031
0.0
1002
}
1002
{
1000
PINS2
1011
90.000000000000057
1021
0.0
1031
0.0
1021
11.061960289287549
1031
0.0
1002
}
1002
{
1000
C
1070
     1
1002
}
1001
GENIUS_GENODEF_13
1002
{
1000
HIER
1070
     0
1002
}
1002
{
1000
MANEDIT
1070
     0
1002
}
1002
{
1000
NOSEL
1070
     0
1002
}
1002
{
1000
BEHIND
1070
     0
1002
}
1002
{
1000
OTHER
1070
     0
1002
}
1002
{
1000
REACTOR
1002
}
1001
GENIUS_GENOBJ-N-REC_13
1002
{
1000
OWNER
1000
GEN
1002
}
  0
VERTEX
  5
63D
  8
â∫èëÇ´ê¸
 10
46.00000000000005
 20
26.36196028928785
 30
0.0
  0
VERTEX
  5
63E
  8
â∫èëÇ´ê¸
 10
90.000000000000057
 20
26.36196028928785
 30
0.0
  0
VERTEX
  5
63F
  8
â∫èëÇ´ê¸
 10
90.000000000000057
 20
11.061960289287549
 30
0.0
  0
VERTEX
  5
640
  8
â∫èëÇ´ê¸
 10
46.00000000000005
 20
11.061960289287549
 30
0.0
  0
SEQEND
  5
641
  8
â∫èëÇ´ê¸
  0
CIRCLE
  5
4D3
  8
â∫èëÇ´ê¸
 10
42.00000000000005
 20
15.711960289287759
 30
0.0
 40
1.7999999999999969
  0
CIRCLE
  5
4D4
  8
â∫èëÇ´ê¸
 10
42.00000000000005
 20
24.711960289287759
 30
0.0
 40
1.7999999999999969
  0
POLYLINE
  5
4DB
  8
â∫èëÇ´ê¸
 66
     1
 10
0.0
 20
0.0
 30
0.0
 70
     1
1001
GENIUS_GENREC_14
1002
{
1000
PYDIR
1011
38.000000000000057
1021
0.0
1031
0.0
1021
8.0
1031
0.0
1002
}
1002
{
1000
PXDIR
1011
90.000000000000057
1021
0.0
1031
0.0
1021
29.36196028928785
1031
0.0
1002
}
1002
{
1000
PORI
1011
38.000000000000057
1021
0.0
1031
0.0
1021
29.36196028928785
1031
0.0
1002
}
1002
{
1000
PINS
1011
38.000000000000057
1021
0.0
1031
0.0
1021
29.36196028928785
1031
0.0
1002
}
1002
{
1000
PINS2
1011
90.000000000000057
1021
0.0
1031
0.0
1021
8.0
1031
0.0
1002
}
1002
{
1000
C
1070
     1
1002
}
1001
GENIUS_GENODEF_13
1002
{
1000
HIER
1070
     0
1002
}
1002
{
1000
MANEDIT
1070
     0
1002
}
1002
{
1000
NOSEL
1070
     0
1002
}
1002
{
1000
BEHIND
1070
     0
1002
}
1002
{
1000
OTHER
1070
     0
1002
}
1002
{
1000
REACTOR
1002
}
1001
GENIUS_GENOBJ-N-REC_13
1002
{
1000
OWNER
1000
GEN
1002
}
  0
VERTEX
  5
642
  8
â∫èëÇ´ê¸
 10
38.000000000000057
 20
29.36196028928785
 30
0.0
  0
VERTEX
  5
643
  8
â∫èëÇ´ê¸
 10
90.000000000000057
 20
29.36196028928785
 30
0.0
  0
VERTEX
  5
644
  8
â∫èëÇ´ê¸
 10
90.000000000000057
 20
8.0
 30
0.0
  0
VERTEX
  5
645
  8
â∫èëÇ´ê¸
 10
38.000000000000057
 20
8.0
 30
0.0
  0
SEQEND
  5
646
  8
â∫èëÇ´ê¸
  0
POLYLINE
  5
4DC
  8
â∫èëÇ´ê¸
 66
     1
 10
0.0
 20
0.0
 30
0.0
 70
     1
1001
GENIUS_GENREC_14
1002
{
1000
PYDIR
1011
90.0
1021
0.0
1031
0.0
1021
165.36196028928779
1031
0.0
1002
}
1002
{
1000
PXDIR
1011
46.0
1021
0.0
1031
0.0
1021
168.36196028928779
1031
0.0
1002
}
1002
{
1000
PORI
1011
90.0
1021
0.0
1031
0.0
1021
168.36196028928779
1031
0.0
1002
}
1002
{
1000
PINS
1011
90.0
1021
0.0
1031
0.0
1021
168.36196028928779
1031
0.0
1002
}
1002
{
1000
PINS2
1011
46.0
1021
0.0
1031
0.0
1021
165.36196028928779
1031
0.0
1002
}
1002
{
1000
C
1070
     1
1002
}
1001
GENIUS_GENODEF_13
1002
{
1000
HIER
1070
     0
1002
}
1002
{
1000
MANEDIT
1070
     0
1002
}
1002
{
1000
NOSEL
1070
     0
1002
}
1002
{
1000
BEHIND
1070
     0
1002
}
1002
{
1000
OTHER
1070
     0
1002
}
1002
{
1000
REACTOR
1002
}
1001
GENIUS_GENOBJ-N-REC_13
1002
{
1000
OWNER
1000
GEN
1002
}
  0
VERTEX
  5
647
  8
â∫èëÇ´ê¸
 10
90.0
 20
168.36196028928779
 30
0.0
  0
VERTEX
  5
648
  8
â∫èëÇ´ê¸
 10
46.0
 20
168.36196028928779
 30
0.0
  0
VERTEX
  5
649
  8
â∫èëÇ´ê¸
 10
46.0
 20
165.36196028928779
 30
0.0
  0
VERTEX
  5
64A
  8
â∫èëÇ´ê¸
 10
90.0
 20
165.36196028928779
 30
0.0
  0
SEQEND
  5
64B
  8
â∫èëÇ´ê¸
  0
POLYLINE
  5
4DD
  8
â∫èëÇ´ê¸
 66
     1
 10
0.0
 20
0.0
 30
0.0
 70
     1
1001
GENIUS_GENREC_14
1002
{
1000
PYDIR
1011
90.0
1021
0.0
1031
0.0
1021
183.66196028928809
1031
0.0
1002
}
1002
{
1000
PXDIR
1011
46.0
1021
0.0
1031
0.0
1021
168.36196028928779
1031
0.0
1002
}
1002
{
1000
PORI
1011
90.0
1021
0.0
1031
0.0
1021
168.36196028928779
1031
0.0
1002
}
1002
{
1000
PINS
1011
90.0
1021
0.0
1031
0.0
1021
168.36196028928779
1031
0.0
1002
}
1002
{
1000
PINS2
1011
46.0
1021
0.0
1031
0.0
1021
183.66196028928809
1031
0.0
1002
}
1002
{
1000
C
1070
     1
1002
}
1001
GENIUS_GENODEF_13
1002
{
1000
HIER
1070
     0
1002
}
1002
{
1000
MANEDIT
1070
     0
1002
}
1002
{
1000
NOSEL
1070
     0
1002
}
1002
{
1000
BEHIND
1070
     0
1002
}
1002
{
1000
OTHER
1070
     0
1002
}
1002
{
1000
REACTOR
1002
}
1001
GENIUS_GENOBJ-N-REC_13
1002
{
1000
OWNER
1000
GEN
1002
}
  0
VERTEX
  5
64C
  8
â∫èëÇ´ê¸
 10
90.0
 20
168.36196028928779
 30
0.0
  0
VERTEX
  5
64D
  8
â∫èëÇ´ê¸
 10
46.0
 20
168.36196028928779
 30
0.0
  0
VERTEX
  5
64E
  8
â∫èëÇ´ê¸
 10
46.0
 20
183.66196028928809
 30
0.0
  0
VERTEX
  5
64F
  8
â∫èëÇ´ê¸
 10
90.0
 20
183.66196028928809
 30
0.0
  0
SEQEND
  5
650
  8
â∫èëÇ´ê¸
  0
CIRCLE
  5
4DE
  8
â∫èëÇ´ê¸
 10
94.0
 20
179.01196028928791
 30
0.0
 40
1.7999999999999969
  0
POLYLINE
  5
4DF
  8
â∫èëÇ´ê¸
 66
     1
 10
0.0
 20
0.0
 30
0.0
 70
     1
1001
GENIUS_GENREC_14
1002
{
1000
PYDIR
1011
90.0
1021
0.0
1031
0.0
1021
183.66196028928809
1031
0.0
1002
}
1002
{
1000
PXDIR
1011
98.0
1021
0.0
1031
0.0
1021
165.36196028928779
1031
0.0
1002
}
1002
{
1000
PORI
1011
90.0
1021
0.0
1031
0.0
1021
165.36196028928779
1031
0.0
1002
}
1002
{
1000
PINS
1011
90.0
1021
0.0
1031
0.0
1021
165.36196028928779
1031
0.0
1002
}
1002
{
1000
PINS2
1011
98.0
1021
0.0
1031
0.0
1021
183.66196028928809
1031
0.0
1002
}
1002
{
1000
C
1070
     1
1002
}
1001
GENIUS_GENODEF_13
1002
{
1000
HIER
1070
     0
1002
}
1002
{
1000
MANEDIT
1070
     0
1002
}
1002
{
1000
NOSEL
1070
     0
1002
}
1002
{
1000
BEHIND
1070
     0
1002
}
1002
{
1000
OTHER
1070
     0
1002
}
1002
{
1000
REACTOR
1002
}
1001
GENIUS_GENOBJ-N-REC_13
1002
{
1000
OWNER
1000
GEN
1002
}
  0
VERTEX
  5
651
  8
â∫èëÇ´ê¸
 10
90.0
 20
165.36196028928779
 30
0.0
  0
VERTEX
  5
652
  8
â∫èëÇ´ê¸
 10
98.0
 20
165.36196028928779
 30
0.0
  0
VERTEX
  5
653
  8
â∫èëÇ´ê¸
 10
98.0
 20
183.66196028928809
 30
0.0
  0
VERTEX
  5
654
  8
â∫èëÇ´ê¸
 10
90.0
 20
183.66196028928809
 30
0.0
  0
SEQEND
  5
655
  8
â∫èëÇ´ê¸
  0
CIRCLE
  5
4E0
  8
â∫èëÇ´ê¸
 10
94.0
 20
170.01196028928791
 30
0.0
 40
1.7999999999999969
  0
POLYLINE
  5
4E1
  8
â∫èëÇ´ê¸
 66
     1
 10
0.0
 20
0.0
 30
0.0
 70
     1
1001
GENIUS_GENREC_14
1002
{
1000
PYDIR
1011
46.0
1021
0.0
1031
0.0
1021
165.36196028928779
1031
0.0
1002
}
1002
{
1000
PXDIR
1011
98.0
1021
0.0
1031
0.0
1021
186.7239205785757
1031
0.0
1002
}
1002
{
1000
PORI
1011
46.0
1021
0.0
1031
0.0
1021
186.7239205785757
1031
0.0
1002
}
1002
{
1000
PINS
1011
46.0
1021
0.0
1031
0.0
1021
186.7239205785757
1031
0.0
1002
}
1002
{
1000
PINS2
1011
98.0
1021
0.0
1031
0.0
1021
165.36196028928779
1031
0.0
1002
}
1002
{
1000
C
1070
     1
1002
}
1001
GENIUS_GENODEF_13
1002
{
1000
HIER
1070
     0
1002
}
1002
{
1000
MANEDIT
1070
     0
1002
}
1002
{
1000
NOSEL
1070
     0
1002
}
1002
{
1000
BEHIND
1070
     0
1002
}
1002
{
1000
OTHER
1070
     0
1002
}
1002
{
1000
REACTOR
1002
}
1001
GENIUS_GENOBJ-N-REC_13
1002
{
1000
OWNER
1000
GEN
1002
}
  0
VERTEX
  5
656
  8
â∫èëÇ´ê¸
 10
46.0
 20
186.7239205785757
 30
0.0
  0
VERTEX
  5
657
  8
â∫èëÇ´ê¸
 10
98.0
 20
186.7239205785757
 30
0.0
  0
VERTEX
  5
658
  8
â∫èëÇ´ê¸
 10
98.0
 20
165.36196028928779
 30
0.0
  0
VERTEX
  5
659
  8
â∫èëÇ´ê¸
 10
46.0
 20
165.36196028928779
 30
0.0
  0
SEQEND
  5
65A
  8
â∫èëÇ´ê¸
  0
CIRCLE
  5
576
  8
0
 10
23.710000000000001
 20
156.2919602892878
 30
0.0
 40
1.5900000000000001
  0
CIRCLE
  5
577
  8
0
 10
112.29000000000001
 20
156.2919602892878
 30
0.0
 40
1.5900000000000001
  0
CIRCLE
  5
578
  8
0
 10
112.28999999999991
 20
38.431960289287829
 30
0.0
 40
1.5900000000000001
  0
CIRCLE
  5
579
  8
0
 10
23.710000000000001
 20
38.431960289287829
 30
0.0
 40
1.5900000000000001
  0
ARC
  5
582
  8
0
 10
112.29000000000001
 20
156.2919602892878
 30
0.0
 40
7.0
 50
180.0
 51
270.0
  0
ARC
  5
583
  8
0
 10
23.710000000000001
 20
156.2919602892878
 30
0.0
 40
7.0
 50
270.0
 51
0.0
  0
ARC
  5
585
  8
0
 10
112.29000000000001
 20
156.2919602892878
 30
0.0
 40
7.0
 50
39.388844333314452
 51
39.965747978402383
  0
ARC
  5
586
  8
0
 10
112.29000000000001
 20
156.2919602892878
 30
0.0
 40
7.0
 50
320.03425202159758
 51
320.61115566668548
  0
LINE
  5
587
  8
0
 10
30.710000000000001
 20
156.2919602892878
 30
0.0
 11
105.29000000000001
 21
156.2919602892878
 31
0.0
  0
ARC
  5
588
  8
0
 10
23.710000000000001
 20
38.431960289287822
 30
0.0
 40
7.0
 50
0.0
 51
90.000000000000028
  0
ARC
  5
589
  8
0
 10
112.29000000000001
 20
38.431960289287822
 30
0.0
 40
7.0
 50
90.000000000000028
 51
180.0
  0
LINE
  5
58A
  8
0
 10
30.710000000000001
 20
38.431960289287822
 30
0.0
 11
105.29000000000001
 21
38.431960289287822
 31
0.0
  0
LINE
  5
58B
  8
0
 10
23.710000000000001
 20
45.431960289287822
 30
0.0
 11
23.710000000000001
 21
149.2919602892878
 31
0.0
  0
LINE
  5
58C
  8
0
 10
112.29000000000001
 20
149.2919602892878
 30
0.0
 11
112.29000000000001
 21
45.431960289287822
 31
0.0
  0
POLYLINE
  5
58D
  8
0
 66
     1
 10
0.0
 20
0.0
 30
0.0
 70
     1
1001
GENIUS_GENREC_14
1002
{
1000
PYDIR
1011
4.4067770532560644
1021
0.0
1031
0.0
1021
85.861960289287836
1031
0.0
1002
}
1002
{
1000
PXDIR
1011
16.406777053256061
1021
0.0
1031
0.0
1021
109.86196028928779
1031
0.0
1002
}
1002
{
1000
PORI
1011
16.406777053256061
1021
0.0
1031
0.0
1021
85.861960289287836
1031
0.0
1002
}
1002
{
1000
PINS
1011
16.406777053256061
1021
0.0
1031
0.0
1021
85.861960289287836
1031
0.0
1002
}
1002
{
1000
PINS2
1011
4.4067770532560644
1021
0.0
1031
0.0
1021
109.86196028928779
1031
0.0
1002
}
1002
{
1000
C
1070
     1
1002
}
1001
GENIUS_GENODEF_13
1002
{
1000
HIER
1070
     0
1002
}
1002
{
1000
MANEDIT
1070
     0
1002
}
1002
{
1000
NOSEL
1070
     0
1002
}
1002
{
1000
BEHIND
1070
     0
1002
}
1002
{
1000
OTHER
1070
     0
1002
}
1002
{
1000
REACTOR
1002
}
1001
GENIUS_GENOBJ-N-REC_13
1002
{
1000
OWNER
1000
GEN
1002
}
  0
VERTEX
  5
65E
  8
0
 10
16.406777053256061
 20
85.861960289287836
 30
0.0
  0
VERTEX
  5
65F
  8
0
 10
16.406777053256061
 20
108.86196028928779
 30
0.0
  0
VERTEX
  5
660
  8
0
 10
4.4067770532560644
 20
108.86196028928779
 30
0.0
  0
VERTEX
  5
661
  8
0
 10
4.4067770532560644
 20
85.861960289287836
 30
0.0
  0
SEQEND
  5
662
  8
0
  0
CIRCLE
  5
591
  8
0
 10
10.406777053256061
 20
110.36196028928779
 30
0.0
 40
1.149999999999999
  0
CIRCLE
  5
592
  8
0
 10
10.406777053256061
 20
84.361960289287836
 30
0.0
 40
1.149999999999999
  0
ENDSEC
  0
EOF
