  0
SECTION
  2
HEADER
  9
$ACADVER
  1
AC1009
  9
$INSBASE
 10
0.0
 20
0.0
 30
0.0
  9
$EXTMIN
 10
-3.0000010677731548
 20
-3.000000045007674
 30
0.0
  9
$EXTMAX
 10
132.99999893222679
 20
197.72392053356799
 30
0.0
  9
$LIMMIN
 10
0.0
 20
0.0
  9
$LIMMAX
 10
420.0
 20
297.0
  9
$ORTHOMODE
 70
     0
  9
$REGENMODE
 70
     1
  9
$FILLMODE
 70
     1
  9
$QTEXTMODE
 70
     0
  9
$MIRRTEXT
 70
     0
  9
$DRAGMODE
 70
     2
  9
$LTSCALE
 40
1.0
  9
$OSMODE
 70
    55
  9
$ATTMODE
 70
     1
  9
$TEXTSIZE
 40
2.5
  9
$TRACEWID
 40
1.0
  9
$TEXTSTYLE
  7
STANDARD
  9
$CLAYER
  8
0
  9
$CELTYPE
  6
BYLAYER
  9
$CECOLOR
 62
   256
  9
$DIMSCALE
 40
1.0
  9
$DIMASZ
 40
3.5
  9
$DIMEXO
 40
1.0
  9
$DIMDLI
 40
10.0
  9
$DIMRND
 40
0.0
  9
$DIMDLE
 40
0.0
  9
$DIMEXE
 40
1.0
  9
$DIMTP
 40
0.1
  9
$DIMTM
 40
0.1
  9
$DIMTXT
 40
3.5
  9
$DIMCEN
 40
0.0
  9
$DIMTSZ
 40
0.0
  9
$DIMTOL
 70
     0
  9
$DIMLIM
 70
     0
  9
$DIMTIH
 70
     0
  9
$DIMTOH
 70
     0
  9
$DIMSE1
 70
     0
  9
$DIMSE2
 70
     0
  9
$DIMTAD
 70
     1
  9
$DIMZIN
 70
     8
  9
$DIMBLK
  1

  9
$DIMASO
 70
     1
  9
$DIMSHO
 70
     1
  9
$DIMPOST
  1

  9
$DIMAPOST
  1
"
  9
$DIMALT
 70
     0
  9
$DIMALTD
 70
     2
  9
$DIMALTF
 40
0.0393701
  9
$DIMLFAC
 40
1.0
  9
$DIMTOFL
 70
     1
  9
$DIMTVP
 40
0.0
  9
$DIMTIX
 70
     0
  9
$DIMSOXD
 70
     0
  9
$DIMSAH
 70
     0
  9
$DIMBLK1
  1

  9
$DIMBLK2
  1

  9
$DIMSTYLE
  2
AM_ISO
  9
$DIMCLRD
 70
   256
  9
$DIMCLRE
 70
   256
  9
$DIMCLRT
 70
     2
  9
$DIMTFAC
 40
0.71
  9
$DIMGAP
 40
1.5
  9
$LUNITS
 70
     2
  9
$LUPREC
 70
     4
  9
$SKETCHINC
 40
1.0
  9
$FILLETRAD
 40
0.0
  9
$AUNITS
 70
     0
  9
$AUPREC
 70
     0
  9
$MENU
  1
.
  9
$ELEVATION
 40
0.0
  9
$PELEVATION
 40
0.0
  9
$THICKNESS
 40
0.0
  9
$LIMCHECK
 70
     0
  9
$BLIPMODE
 70
     0
  9
$CHAMFERA
 40
0.0
  9
$CHAMFERB
 40
0.0
  9
$SKPOLY
 70
     0
  9
$TDCREATE
 40
2457803.5304395719
  9
$TDUPDATE
 40
2457805.634249121
  9
$TDINDWG
 40
0.0302993171
  9
$TDUSRTIMER
 40
0.0302992824
  9
$USRTIMER
 70
     1
  9
$ANGBASE
 50
0.0
  9
$ANGDIR
 70
     0
  9
$PDMODE
 70
     0
  9
$PDSIZE
 40
0.0
  9
$PLINEWID
 40
0.0
  9
$COORDS
 70
     1
  9
$SPLFRAME
 70
     0
  9
$SPLINETYPE
 70
     6
  9
$SPLINESEGS
 70
     8
  9
$ATTDIA
 70
     1
  9
$ATTREQ
 70
     1
  9
$HANDLING
 70
     1
  9
$HANDSEED
  5
498
  9
$SURFTAB1
 70
     6
  9
$SURFTAB2
 70
     6
  9
$SURFTYPE
 70
     6
  9
$SURFU
 70
     6
  9
$SURFV
 70
     6
  9
$UCSNAME
  2

  9
$UCSORG
 10
0.0
 20
0.0
 30
0.0
  9
$UCSXDIR
 10
1.0
 20
0.0
 30
0.0
  9
$UCSYDIR
 10
0.0
 20
1.0
 30
0.0
  9
$PUCSNAME
  2

  9
$PUCSORG
 10
0.0
 20
0.0
 30
0.0
  9
$PUCSXDIR
 10
1.0
 20
0.0
 30
0.0
  9
$PUCSYDIR
 10
0.0
 20
1.0
 30
0.0
  9
$USERI1
 70
     0
  9
$USERI2
 70
     0
  9
$USERI3
 70
     0
  9
$USERI4
 70
     0
  9
$USERI5
 70
     0
  9
$USERR1
 40
0.0
  9
$USERR2
 40
0.0
  9
$USERR3
 40
0.0
  9
$USERR4
 40
0.0
  9
$USERR5
 40
0.0
  9
$WORLDVIEW
 70
     1
  9
$SHADEDGE
 70
     3
  9
$SHADEDIF
 70
    70
  9
$TILEMODE
 70
     1
  9
$MAXACTVP
 70
    64
  9
$PLIMCHECK
 70
     0
  9
$PEXTMIN
 10
0.0
 20
0.0
 30
0.0
  9
$PEXTMAX
 10
0.0
 20
0.0
 30
0.0
  9
$PLIMMIN
 10
0.0
 20
0.0
  9
$PLIMMAX
 10
12.0
 20
9.0
  9
$UNITMODE
 70
     0
  9
$VISRETAIN
 70
     1
  9
$PLINEGEN
 70
     0
  9
$PSLTSCALE
 70
     1
  0
ENDSEC
  0
SECTION
  2
TABLES
  0
TABLE
  2
VPORT
 70
     1
  0
VPORT
  2
*ACTIVE
 70
     0
 10
0.0
 20
0.0
 11
1.0
 21
1.0
 12
156.5023296777311
 22
102.8129270790926
 13
0.0
 23
0.0
 14
10.0
 24
10.0
 15
10.0
 25
10.0
 16
0.0
 26
0.0
 36
1.0
 17
0.0
 27
0.0
 37
0.0
 40
220.55793552504849
 41
2.308308308308308
 42
50.0
 43
0.0
 44
0.0
 50
0.0
 51
0.0
 71
     0
 72
  1000
 73
     1
 74
     3
 75
     0
 76
     1
 77
     0
 78
     0
  0
ENDTAB
  0
TABLE
  2
LTYPE
 70
    14
  0
LTYPE
  2
CONTINUOUS
 70
     0
  3
Solid line
 72
    65
 73
     0
 40
0.0
  0
LTYPE
  2
HIDDEN
 70
     0
  3
Hidden __ __ __ __ __ __ __ __ __ __ __ __ __ _
 72
    65
 73
     2
 40
9.5249999999999986
 49
6.3499999999999988
 49
-3.1749999999999989
  0
LTYPE
  2
PHANTOM2
 70
     0
  3
Phantom (.5x) ___ _ _ ___ _ _ ___ _ _ ___ _ _
 72
    65
 73
     6
 40
31.75
 49
15.875
 49
-3.1749999999999989
 49
3.1749999999999989
 49
-3.1749999999999989
 49
3.1749999999999989
 49
-3.1749999999999989
  0
LTYPE
  2
CENTER
 70
     0
  3
Center ____ _ ____ _ ____ _ ____ _ ____ _ ____
 72
    65
 73
     4
 40
50.799999999999997
 49
31.75
 49
-6.3499999999999988
 49
6.3499999999999988
 49
-6.3499999999999988
  0
LTYPE
  2
AM_ISO02W050
 70
     0
  3
__ __ __ __ __ __ __ __ __ __ __ __ __ __ __
 72
    65
 73
     2
 40
7.5
 49
6.0
 49
-1.5
  0
LTYPE
  2
AM_ISO08W050
 70
     0
  3
____ . ____ . ____ . ____ . ____ . ____ . ____
 72
    65
 73
     4
 40
18.0
 49
12.0
 49
-1.5
 49
3.0
 49
-1.5
  0
LTYPE
  2
AM_ISO09W050
 70
     0
  3
_____ . . _____ . . _____ . . ____ .. ____
 72
    65
 73
     6
 40
22.5
 49
12.0
 49
-1.5
 49
3.0
 49
-1.5
 49
3.0
 49
-1.5
  0
LTYPE
  2
AMCONSTR
 70
     0
  3
_______________________
 72
    65
 73
     2
 40
9999.0
 49
9999.0
 49
0.0
  0
LTYPE
  2
AM_ISO08W050X2
 70
     0
  3
__ . __ . __ . __ . __ . __
 72
    65
 73
     4
 40
9.0
 49
6.0
 49
-0.75
 49
1.5
 49
-0.75
  0
LTYPE
  2
AM_ISO02W050X2
 70
     0
  3
 _ _ _ _ _ _ _ _ _ _ _ _
 72
    65
 73
     2
 40
3.75
 49
3.0
 49
-0.75
  0
LTYPE
  2
AMZIGZAG
 70
     0
  3
/\/-/\/-/\/-/\/-/\/-/\/
 72
    65
 73
     2
 40
11.0001
 49
0.0001
 49
-11.0
  0
LTYPE
  2
ACISOWELD
 70
     0
  3
_ _ _ _ _
 72
    65
 73
     2
 40
2.0
 49
2.0
 49
-1.0
  0
LTYPE
  2
ACISOTGL
 70
     0
  3
_ _ _ _ _
 72
    65
 73
     2
 40
3.0
 49
2.0
 49
-1.0
  0
LTYPE
  2
ACISOTGB
 70
     0
  3
__ . . __ . .
 72
    65
 73
     6
 40
9.0
 49
4.0
 49
-1.0
 49
1.0
 49
-1.0
 49
1.0
 49
-1.0
  0
ENDTAB
  0
TABLE
  2
LAYER
 70
     7
  0
LAYER
  2
0
 70
     0
 62
     7
  6
CONTINUOUS
  0
LAYER
  2
AM_0
 70
     0
 62
     7
  6
CONTINUOUS
  0
LAYER
  2
AM_7
 70
     0
 62
     4
  6
AM_ISO08W050
  0
LAYER
  2
AM_4
 70
     0
 62
     3
  6
CONTINUOUS
  0
LAYER
  2
AM_9
 70
     0
 62
  -253
  6
CONTINUOUS
  0
LAYER
  2
îjê¸ÇQ
 70
     0
 62
     6
  6
AM_ISO02W050
  0
LAYER
  2
AM_7N
 70
     0
 62
     4
  6
AM_ISO08W050
  0
ENDTAB
  0
TABLE
  2
STYLE
 70
     5
  0
STYLE
  2
STANDARD
 70
     0
 40
0.0
 41
1.0
 50
0.0
 71
     0
 42
2.5
  3
txt
  4

  0
STYLE
  2
ANNOTATIVE
 70
     0
 40
0.0
 41
1.0
 50
0.0
 71
     0
 42
2.5
  3
txt
  4

  0
STYLE
  2

 70
     1
 40
0.0
 41
1.0
 50
0.0
 71
     0
 42
2.5
  3
genltshp.shx
  4

  0
STYLE
  2
ACISOTS
 70
     0
 40
0.0
 41
1.0
 50
0.0
 71
     0
 42
2.5
  3
isocp.shx
  4
extfont.shx
  0
STYLE
  2
ACISOGDT
 70
     0
 40
0.0
 41
1.0
 50
0.0
 71
     0
 42
2.5
  3
amgdt.shx
  4
extfont2.shx
  0
ENDTAB
  0
TABLE
  2
VIEW
 70
     0
  0
ENDTAB
  0
TABLE
  2
UCS
 70
     0
  0
ENDTAB
  0
TABLE
  2
APPID
 70
    30
  0
APPID
  2
ACAD
 70
     0
  0
APPID
  2
ACAD_PSEXT
 70
     0
  0
APPID
  2
ACADANNOPO
 70
     0
  0
APPID
  2
ACADANNOTATIVE
 70
     0
  0
APPID
  2
ACAD_DSTYLE_DIMJAG
 70
     0
  0
APPID
  2
ACAD_DSTYLE_DIMTALN
 70
     0
  0
APPID
  2
ACAD_MLEADERVER
 70
     0
  0
APPID
  2
ACAD_NAV_VCDISPLAY
 70
     0
  0
APPID
  2
MCAD_NO_VIS
 70
     0
  0
APPID
  2
ACAD_TEMP_GRAPHIC
 70
     0
  0
APPID
  2
ACATTRIBSERVICES
 70
     0
  0
APPID
  2
DESIGNERASSEMBLIES
 70
     0
  0
APPID
  2
ACAD_DSTYLE_DIMBREAK
 70
     0
  0
APPID
  2
ACAECLAYERSTANDARD
 70
     0
  0
APPID
  2
GEVID1390825338
 70
     0
  0
APPID
  2
GENIUS_GENBH_13
 70
     0
  0
APPID
  2
GENIUS_GENOENT_13
 70
     0
  0
APPID
  2
GENIUS_GENOLIS_13
 70
     0
  0
APPID
  2
GENIUS_GENOBJ-NBEHI-BHF_13
 70
     0
  0
APPID
  2
GENIUS_GENODEF_13
 70
     0
  0
APPID
  2
GENIUS_GENOREF_13
 70
     0
  0
APPID
  2
GENIUS_GENOBJ-NBEHI-BHB_13
 70
     0
  0
APPID
  2
GEVID1390825339
 70
     0
  0
APPID
  2
GENIUS_GENREC_14
 70
     0
  0
APPID
  2
GENIUS_GENOBJ-N-REC_13
 70
     0
  0
APPID
  2
AD_DRAW
 70
     0
  0
APPID
  2
ACADM_DIM_EDIT
 70
     0
  0
APPID
  2
AMDT_DM_ADJ
 70
     0
  0
APPID
  2
GENIUS_GENOBJ-N-CEN_13
 70
     0
  0
APPID
  2
GENIUS_GENCEN_19
 70
     0
  0
ENDTAB
  0
TABLE
  2
DIMSTYLE
 70
    10
  0
DIMSTYLE
  2
STANDARD
 70
     0
  3

  4

  5

  6

  7

 40
1.0
 41
0.18
 42
0.0625
 43
0.38
 44
0.18
 45
0.0
 46
0.0
 47
0.0
 48
0.0
140
0.18
141
0.09
142
0.0
143
25.399999999999999
144
1.0
145
0.0
146
1.0
147
0.09
 71
     0
 72
     0
 73
     1
 74
     1
 75
     0
 76
     0
 77
     0
 78
     0
170
     0
171
     2
172
     0
173
     0
174
     0
175
     0
176
     0
177
     0
178
     0
  0
DIMSTYLE
  2
ANNOTATIVE
 70
     0
  3

  4

  5

  6

  7

 40
0.0
 41
2.5
 42
0.625
 43
3.75
 44
1.25
 45
0.0
 46
0.0
 47
0.0
 48
0.0
140
2.5
141
2.5
142
0.0
143
0.03937007874016
144
1.0
145
0.0
146
1.0
147
0.625
 71
     0
 72
     0
 73
     0
 74
     0
 75
     0
 76
     0
 77
     1
 78
     8
170
     0
171
     3
172
     1
173
     0
174
     0
175
     0
176
     0
177
     0
178
     0
  0
DIMSTYLE
  2
ISO-25
 70
     0
  3

  4

  5

  6

  7

 40
1.0
 41
2.5
 42
0.625
 43
3.75
 44
1.25
 45
0.0
 46
0.0
 47
0.0
 48
0.0
140
2.5
141
2.5
142
0.0
143
0.03937007874016
144
1.0
145
0.0
146
1.0
147
0.625
 71
     0
 72
     0
 73
     0
 74
     0
 75
     0
 76
     0
 77
     1
 78
     8
170
     0
171
     3
172
     1
173
     0
174
     0
175
     0
176
     0
177
     0
178
     0
  0
DIMSTYLE
  2
AM_ISO
 70
     0
  3

  4
"
  5

  6

  7

 40
1.0
 41
3.5
 42
1.0
 43
10.0
 44
1.0
 45
0.0
 46
0.0
 47
0.1
 48
0.1
140
3.5
141
0.0
142
0.0
143
0.0393701
144
1.0
145
0.0
146
0.71
147
1.5
 71
     0
 72
     0
 73
     0
 74
     0
 75
     0
 76
     0
 77
     1
 78
     8
170
     0
171
     2
172
     1
173
     0
174
     0
175
     0
176
   256
177
   256
178
     2
  0
DIMSTYLE
  2
AM_ISO$3
 70
     0
  3

  4
"
  5

  6

  7

 40
1.0
 41
3.5
 42
1.0
 43
10.0
 44
1.0
 45
0.0
 46
0.0
 47
0.1
 48
0.1
140
3.5
141
0.0
142
0.0
143
0.0393701
144
1.0
145
0.0
146
0.71
147
1.5
 71
     0
 72
     0
 73
     0
 74
     1
 75
     0
 76
     0
 77
     1
 78
     8
170
     0
171
     2
172
     0
173
     0
174
     0
175
     0
176
   256
177
   256
178
     2
  0
DIMSTYLE
  2
AM_ISO$4
 70
     0
  3

  4
"
  5

  6

  7

 40
1.0
 41
3.5
 42
1.0
 43
10.0
 44
1.0
 45
0.0
 46
0.0
 47
0.1
 48
0.1
140
3.5
141
0.0
142
0.0
143
0.0393701
144
1.0
145
0.0
146
0.71
147
1.5
 71
     0
 72
     0
 73
     0
 74
     0
 75
     0
 76
     0
 77
     1
 78
     8
170
     0
171
     2
172
     1
173
     0
174
     0
175
     0
176
   256
177
   256
178
     2
  0
DIMSTYLE
  2
AM_ISO$6
 70
     0
  3

  4
"
  5

  6

  7

 40
1.0
 41
3.5
 42
1.0
 43
10.0
 44
1.0
 45
0.0
 46
0.0
 47
0.1
 48
0.1
140
3.5
141
0.0
142
0.0
143
0.0393701
144
1.0
145
0.0
146
0.71
147
1.5
 71
     0
 72
     0
 73
     0
 74
     0
 75
     0
 76
     0
 77
     0
 78
     8
170
     0
171
     2
172
     1
173
     0
174
     0
175
     0
176
   256
177
   256
178
     2
  0
DIMSTYLE
  2
AM_ISO$7
 70
     0
  3

  4
"
  5

  6

  7

 40
1.0
 41
3.5
 42
1.0
 43
10.0
 44
1.0
 45
0.0
 46
0.0
 47
0.1
 48
0.1
140
3.5
141
0.0
142
0.0
143
0.0393701
144
1.0
145
0.0
146
0.71
147
1.5
 71
     0
 72
     0
 73
     0
 74
     0
 75
     0
 76
     0
 77
     1
 78
     8
170
     0
171
     2
172
     1
173
     0
174
     0
175
     0
176
   256
177
   256
178
     2
  0
DIMSTYLE
  2
AM_ISO$SF
 70
     0
  3

  4
"
  5

  6

  7

 40
1.0
 41
3.5
 42
1.0
 43
10.0
 44
1.0
 45
0.0
 46
0.0
 47
0.1
 48
0.1
140
3.5
141
0.0
142
0.0
143
0.0393701
144
1.0
145
0.0
146
0.71
147
1.5
 71
     0
 72
     0
 73
     0
 74
     0
 75
     1
 76
     1
 77
     1
 78
     8
170
     0
171
     2
172
     1
173
     0
174
     0
175
     0
176
   256
177
   256
178
     2
  0
DIMSTYLE
  2
AM_ISO$SH
 70
     0
  3

  4
"
  5

  6
GENAXEH
  7

 40
1.0
 41
3.5
 42
1.0
 43
10.0
 44
1.0
 45
0.0
 46
0.0
 47
0.1
 48
0.1
140
3.5
141
0.0
142
0.0
143
0.0393701
144
2.0
145
0.0
146
0.71
147
1.5
 71
     0
 72
     0
 73
     0
 74
     0
 75
     1
 76
     1
 77
     1
 78
     8
170
     0
171
     2
172
     1
173
     1
174
     0
175
     0
176
   256
177
   256
178
     2
  0
ENDTAB
  0
ENDSEC
  0
SECTION
  2
BLOCKS
  0
BLOCK
  8
0
  2
$MODEL_SPACE
 70
     0
 10
0.0
 20
0.0
 30
0.0
  3
$MODEL_SPACE
  1

  0
ENDBLK
  5
21
  8
0
  0
BLOCK
 67
     1
  8
0
  2
$PAPER_SPACE
 70
     0
 10
0.0
 20
0.0
 30
0.0
  3
$PAPER_SPACE
  1

  0
ENDBLK
  5
D5
 67
     1
  8
0
  0
BLOCK
  8
0
  2
GENAXEH
 70
     0
 10
0.0
 20
0.0
 30
0.0
  3
GENAXEH
  1

  0
LINE
  5
2A3
  8
0
 10
-1.0
 20
0.0
 30
0.0
 11
1.0
 21
0.0
 31
0.0
  0
ENDBLK
  5
2A5
  8
0
  0
BLOCK
  8
0
  2
_ACMFILLED15
 70
     0
 10
0.0
 20
0.0
 30
0.0
  3
_ACMFILLED15
  1

  0
TRACE
  5
2D1
  8
0
 62
     0
 10
-1.0
 20
-0.131652497
 30
0.0
 11
-1.0
 21
0.131652497
 31
0.0
 12
0.0
 22
0.0
 32
0.0
 13
0.0
 23
0.0
 33
0.0
  0
ENDBLK
  5
2D0
  8
0
  0
BLOCK
  8
0
  2
*U4
 70
     1
 10
0.0
 20
0.0
 30
0.0
  3
*U4
  1

  0
LINE
  5
41D
  8
AM_7
  6
AM_ISO08W050X2
 10
3.399998932226822
 20
186.72392053356799
 30
0.0
 11
12.599998932226869
 21
186.72392053356799
 31
0.0
  0
CIRCLE
  5
41E
  8
AM_0
 10
7.9999989322268439
 20
186.72392053356799
 30
0.0
 40
1.599999999999999
  0
LINE
  5
41F
  8
AM_7
  6
AM_ISO08W050X2
 10
7.9999989322268439
 20
182.123920533568
 30
0.0
 11
7.9999989322268439
 21
191.32392053356801
 31
0.0
  0
ENDBLK
  5
421
  8
0
  0
BLOCK
  8
0
  2
*U5
 70
     1
 10
0.0
 20
0.0
 30
0.0
  3
*U5
  1

  0
LINE
  5
424
  8
AM_7
  6
AM_ISO08W050X2
 10
117.39999893222679
 20
186.72392053356799
 30
0.0
 11
126.5999989322268
 21
186.72392053356799
 31
0.0
  0
CIRCLE
  5
425
  8
AM_0
 10
121.9999989322268
 20
186.72392053356799
 30
0.0
 40
1.599999999999999
  0
LINE
  5
426
  8
AM_7
  6
AM_ISO08W050X2
 10
121.9999989322268
 20
182.123920533568
 30
0.0
 11
121.9999989322268
 21
191.32392053356801
 31
0.0
  0
ENDBLK
  5
428
  8
0
  0
BLOCK
  8
0
  2
*U6
 70
     1
 10
0.0
 20
0.0
 30
0.0
  3
*U6
  1

  0
LINE
  5
42B
  8
AM_7
  6
AM_ISO08W050X2
 10
117.39999893222679
 20
7.9999999549922904
 30
0.0
 11
126.5999989322268
 21
7.9999999549922904
 31
0.0
  0
CIRCLE
  5
42C
  8
AM_0
 10
121.9999989322268
 20
7.9999999549922904
 30
0.0
 40
1.599999999999999
  0
LINE
  5
42D
  8
AM_7
  6
AM_ISO08W050X2
 10
121.9999989322268
 20
3.3999999549922961
 30
0.0
 11
121.9999989322268
 21
12.599999954992279
 31
0.0
  0
ENDBLK
  5
42F
  8
0
  0
BLOCK
  8
0
  2
*U7
 70
     1
 10
0.0
 20
0.0
 30
0.0
  3
*U7
  1

  0
LINE
  5
432
  8
AM_7
  6
AM_ISO08W050X2
 10
3.3999989322267932
 20
7.999999954992318
 30
0.0
 11
12.599998932226841
 21
7.999999954992318
 31
0.0
  0
CIRCLE
  5
433
  8
AM_0
 10
7.9999989322268164
 20
7.999999954992318
 30
0.0
 40
1.599999999999999
  0
LINE
  5
434
  8
AM_7
  6
AM_ISO08W050X2
 10
7.9999989322268164
 20
3.3999999549923241
 30
0.0
 11
7.9999989322268164
 21
12.59999995499231
 31
0.0
  0
ENDBLK
  5
436
  8
0
  0
BLOCK
  8
0
  2
*U8
 70
     1
 10
0.0
 20
0.0
 30
0.0
  3
*U8
  1

  0
LINE
  5
439
  8
AM_7
  6
AM_ISO08W050X2
 10
117.39999893222679
 20
147.72392053356799
 30
0.0
 11
126.5999989322268
 21
147.72392053356799
 31
0.0
  0
CIRCLE
  5
43A
  8
AM_0
 10
121.9999989322268
 20
147.72392053356799
 30
0.0
 40
1.599999999999999
  0
LINE
  5
43B
  8
AM_7
  6
AM_ISO08W050X2
 10
121.9999989322268
 20
143.123920533568
 30
0.0
 11
121.9999989322268
 21
152.32392053356801
 31
0.0
  0
ENDBLK
  5
43D
  8
0
  0
ENDSEC
  0
SECTION
  2
ENTITIES
  0
POINT
  5
2EA
  8
0
 10
0.0
 20
0.0
 30
0.0
1001
GENIUS_GENOLIS_13
1002
{
1000
ENT
1002
}
1001
GENIUS_GENODEF_13
1002
{
1000
HIER
1070
     1
1002
}
1002
{
1000
MANEDIT
1070
     0
1002
}
1002
{
1000
NOSEL
1070
     1
1002
}
1002
{
1000
BEHIND
1070
     0
1002
}
1002
{
1000
OTHER
1070
     1
1002
}
1002
{
1000
REACTOR
1002
}
1001
GENIUS_GENOENT_13
1002
{
1000
MYREF
1005
2EA
1002
}
1002
{
1000
GRP
1005
0
1002
}
1001
GENIUS_GENOBJ-NBEHI-BHB_13
1002
{
1000
OWNER
1000
genbehi
1002
}
1001
GENIUS_GENBH_13
1002
{
1000
FGO
1005
2E4
1002
}
  0
POLYLINE
  5
35E
  8
0
 66
     1
 10
0.0
 20
0.0
 30
0.0
 70
     1
1001
GENIUS_GENREC_14
1002
{
1000
PYDIR
1011
-0.0000010677731552
1021
0.0
1031
0.0
1021
217.3619602442802
1031
0.0
1002
}
1002
{
1000
PXDIR
1011
129.99999893222679
1021
0.0
1031
0.0
1021
-22.638039755719849
1031
0.0
1002
}
1002
{
1000
PORI
1011
-0.0000010677731552
1021
0.0
1031
0.0
1021
-22.638039755719849
1031
0.0
1002
}
1002
{
1000
PINS
1011
-0.0000010677731552
1021
0.0
1031
0.0
1021
-22.638039755719849
1031
0.0
1002
}
1002
{
1000
PINS2
1011
129.99999893222679
1021
0.0
1031
0.0
1021
217.3619602442802
1031
0.0
1002
}
1002
{
1000
C
1070
     1
1002
}
1001
GENIUS_GENOBJ-N-REC_13
1002
{
1000
OWNER
1000
GEN
1002
}
1001
GENIUS_GENODEF_13
1002
{
1000
HIER
1070
     0
1002
}
1002
{
1000
MANEDIT
1070
     0
1002
}
1002
{
1000
NOSEL
1070
     0
1002
}
1002
{
1000
BEHIND
1070
     0
1002
}
1002
{
1000
OTHER
1070
     0
1002
}
1002
{
1000
REACTOR
1002
}
  0
VERTEX
  5
493
  8
0
 10
-0.0000010677731552
 20
-0.0000000450076743
 30
0.0
  0
VERTEX
  5
494
  8
0
 10
129.99999893222679
 20
-0.0000000450076743
 30
0.0
  0
VERTEX
  5
495
  8
0
 10
129.99999893222679
 20
194.72392053356799
 30
0.0
  0
VERTEX
  5
496
  8
0
 10
-0.0000010677731552
 20
194.72392053356799
 30
0.0
  0
SEQEND
  5
497
  8
0
  0
CIRCLE
  5
361
  8
0
 10
77.999998932226845
 20
186.72392052870759
 30
0.0
 40
2.1499999999999981
  0
CIRCLE
  5
363
  8
0
 10
91.999998932226845
 20
186.72392052143729
 30
0.0
 40
2.1499999999999981
  0
CIRCLE
  5
365
  8
0
 10
51.999998932226852
 20
186.7239205037811
 30
0.0
 40
2.1499999999999981
  0
CIRCLE
  5
367
  8
0
 10
37.999998932226852
 20
186.72392051105129
 30
0.0
 40
2.1499999999999981
  0
CIRCLE
  5
369
  8
0
 10
77.999998932226845
 20
7.9999999598527154
 30
0.0
 40
2.1499999999999981
  0
CIRCLE
  5
36B
  8
0
 10
91.999998932226845
 20
7.9999999671229878
 30
0.0
 40
2.1499999999999981
  0
CIRCLE
  5
36D
  8
0
 10
51.999998932226852
 20
7.9999999847792358
 30
0.0
 40
2.1499999999999981
  0
CIRCLE
  5
36F
  8
0
 10
37.999998932226852
 20
7.9999999775089909
 30
0.0
 40
2.1499999999999981
  0
INSERT
  5
370
  8
AM_0
  2
*U4
 10
0.0
 20
0.0
 30
0.0
1001
GENIUS_GENOREF_13
1005
37A
  0
INSERT
  5
371
  8
AM_0
  2
*U5
 10
0.0
 20
0.0
 30
0.0
1001
GENIUS_GENOREF_13
1005
379
  0
INSERT
  5
372
  8
AM_0
  2
*U6
 10
0.0
 20
0.0
 30
0.0
1001
GENIUS_GENOREF_13
1005
378
  0
INSERT
  5
373
  8
AM_0
  2
*U7
 10
0.0
 20
0.0
 30
0.0
1001
GENIUS_GENOREF_13
1005
377
  0
INSERT
  5
374
  8
AM_0
  2
*U8
 10
0.0
 20
0.0
 30
0.0
1001
GENIUS_GENOREF_13
1005
376
  0
POINT
  5
376
  8
0
 10
-188.79747435718491
 20
-69.374740267325535
 30
0.0
1001
GENIUS_GENODEF_13
1002
{
1000
HIER
1070
     1
1002
}
1002
{
1000
MANEDIT
1070
     0
1002
}
1002
{
1000
NOSEL
1070
     1
1002
}
1002
{
1000
BEHIND
1070
     0
1002
}
1002
{
1000
OTHER
1070
     0
1002
}
1002
{
1000
REACTOR
1002
}
1001
GENIUS_GENOBJ-NBEHI-BHF_13
1002
{
1000
OWNER
1000
genbehi
1002
}
1001
GENIUS_GENOENT_13
1002
{
1000
MYREF
1005
376
1002
}
1002
{
1000
GRP
1005
0
1002
}
1001
GENIUS_GENOLIS_13
1002
{
1000
ENT
1005
374
1002
}
1001
GENIUS_GENBH_13
1002
{
1000
BGZLEVEL
1070
    -1
1002
}
1002
{
1000
FGZLEVEL
1070
    -1
1002
}
1002
{
1000
OIUMAP
1000
OIU
1002
}
1002
{
1000
FLAGS
1070
    32
1002
}
1002
{
1000
FGLEVEL
1040
4.1415926535900001
1002
}
1002
{
1000
BGO
1005
0
1002
}
  0
POINT
  5
377
  8
0
 10
-302.79747435718491
 20
-209.09866084590121
 30
0.0
1001
GENIUS_GENODEF_13
1002
{
1000
HIER
1070
     1
1002
}
1002
{
1000
MANEDIT
1070
     0
1002
}
1002
{
1000
NOSEL
1070
     1
1002
}
1002
{
1000
BEHIND
1070
     0
1002
}
1002
{
1000
OTHER
1070
     0
1002
}
1002
{
1000
REACTOR
1002
}
1001
GENIUS_GENOBJ-NBEHI-BHF_13
1002
{
1000
OWNER
1000
genbehi
1002
}
1001
GENIUS_GENOENT_13
1002
{
1000
MYREF
1005
377
1002
}
1002
{
1000
GRP
1005
0
1002
}
1001
GENIUS_GENOLIS_13
1002
{
1000
ENT
1005
373
1002
}
1001
GENIUS_GENBH_13
1002
{
1000
BGZLEVEL
1070
    -1
1002
}
1002
{
1000
FGZLEVEL
1070
    -1
1002
}
1002
{
1000
OIUMAP
1000
OIU
1002
}
1002
{
1000
FLAGS
1070
    32
1002
}
1002
{
1000
FGLEVEL
1040
4.1415926535900001
1002
}
1002
{
1000
BGO
1005
0
1002
}
  0
POINT
  5
378
  8
0
 10
-188.79747435718491
 20
-209.09866084590121
 30
0.0
1001
GENIUS_GENODEF_13
1002
{
1000
HIER
1070
     1
1002
}
1002
{
1000
MANEDIT
1070
     0
1002
}
1002
{
1000
NOSEL
1070
     1
1002
}
1002
{
1000
BEHIND
1070
     0
1002
}
1002
{
1000
OTHER
1070
     0
1002
}
1002
{
1000
REACTOR
1002
}
1001
GENIUS_GENOBJ-NBEHI-BHF_13
1002
{
1000
OWNER
1000
genbehi
1002
}
1001
GENIUS_GENOENT_13
1002
{
1000
MYREF
1005
378
1002
}
1002
{
1000
GRP
1005
0
1002
}
1001
GENIUS_GENOLIS_13
1002
{
1000
ENT
1005
372
1002
}
1001
GENIUS_GENBH_13
1002
{
1000
BGZLEVEL
1070
    -1
1002
}
1002
{
1000
FGZLEVEL
1070
    -1
1002
}
1002
{
1000
OIUMAP
1000
OIU
1002
}
1002
{
1000
FLAGS
1070
    32
1002
}
1002
{
1000
FGLEVEL
1040
4.1415926535900001
1002
}
1002
{
1000
BGO
1005
0
1002
}
  0
POINT
  5
379
  8
0
 10
-188.79747435718491
 20
-30.374740267325532
 30
0.0
1001
GENIUS_GENODEF_13
1002
{
1000
HIER
1070
     1
1002
}
1002
{
1000
MANEDIT
1070
     0
1002
}
1002
{
1000
NOSEL
1070
     1
1002
}
1002
{
1000
BEHIND
1070
     0
1002
}
1002
{
1000
OTHER
1070
     0
1002
}
1002
{
1000
REACTOR
1002
}
1001
GENIUS_GENOBJ-NBEHI-BHF_13
1002
{
1000
OWNER
1000
genbehi
1002
}
1001
GENIUS_GENOENT_13
1002
{
1000
MYREF
1005
379
1002
}
1002
{
1000
GRP
1005
0
1002
}
1001
GENIUS_GENOLIS_13
1002
{
1000
ENT
1005
371
1002
}
1001
GENIUS_GENBH_13
1002
{
1000
BGZLEVEL
1070
    -1
1002
}
1002
{
1000
FGZLEVEL
1070
    -1
1002
}
1002
{
1000
OIUMAP
1000
OIU
1002
}
1002
{
1000
FLAGS
1070
    32
1002
}
1002
{
1000
FGLEVEL
1040
4.1415926535900001
1002
}
1002
{
1000
BGO
1005
0
1002
}
  0
POINT
  5
37A
  8
0
 10
-302.79747435718491
 20
-30.37474026732551
 30
0.0
1001
GENIUS_GENODEF_13
1002
{
1000
HIER
1070
     1
1002
}
1002
{
1000
MANEDIT
1070
     0
1002
}
1002
{
1000
NOSEL
1070
     1
1002
}
1002
{
1000
BEHIND
1070
     0
1002
}
1002
{
1000
OTHER
1070
     0
1002
}
1002
{
1000
REACTOR
1002
}
1001
GENIUS_GENOBJ-NBEHI-BHF_13
1002
{
1000
OWNER
1000
genbehi
1002
}
1001
GENIUS_GENOENT_13
1002
{
1000
MYREF
1005
37A
1002
}
1002
{
1000
GRP
1005
0
1002
}
1001
GENIUS_GENOLIS_13
1002
{
1000
ENT
1005
370
1002
}
1001
GENIUS_GENBH_13
1002
{
1000
BGZLEVEL
1070
    -1
1002
}
1002
{
1000
FGZLEVEL
1070
    -1
1002
}
1002
{
1000
OIUMAP
1000
OIU
1002
}
1002
{
1000
FLAGS
1070
    32
1002
}
1002
{
1000
FGLEVEL
1040
4.1415926535900001
1002
}
1002
{
1000
BGO
1005
0
1002
}
  0
CIRCLE
  5
3BB
  8
0
 10
95.499998881666386
 20
52.361959933950708
 30
0.0
 40
1.6000000000000001
  0
CIRCLE
  5
3BC
  8
0
 10
45.499998881666379
 20
52.361959933950708
 30
0.0
 40
1.6000000000000001
  0
CIRCLE
  5
3BD
  8
0
 10
55.499998881666379
 20
52.361959933950708
 30
0.0
 40
1.6000000000000001
  0
CIRCLE
  5
3BE
  8
0
 10
65.499998881666386
 20
52.361959933950708
 30
0.0
 40
1.6000000000000001
  0
CIRCLE
  5
3BF
  8
0
 10
75.499998881666386
 20
52.361959933950708
 30
0.0
 40
1.6000000000000001
  0
CIRCLE
  5
3C0
  8
0
 10
85.499998881666386
 20
52.361959933950708
 30
0.0
 40
1.6000000000000001
  0
CIRCLE
  5
3C1
  8
0
 10
95.499998881666386
 20
82.361959933950715
 30
0.0
 40
1.6000000000000001
  0
CIRCLE
  5
3C2
  8
0
 10
45.499998881666379
 20
82.361959933950715
 30
0.0
 40
1.6000000000000001
  0
CIRCLE
  5
3C3
  8
0
 10
55.499998881666379
 20
82.361959933950715
 30
0.0
 40
1.6000000000000001
  0
CIRCLE
  5
3C4
  8
0
 10
65.499998881666386
 20
82.361959933950715
 30
0.0
 40
1.6000000000000001
  0
CIRCLE
  5
3C5
  8
0
 10
75.499998881666386
 20
82.361959933950715
 30
0.0
 40
1.6000000000000001
  0
CIRCLE
  5
3C6
  8
0
 10
85.499998881666386
 20
82.361959933950715
 30
0.0
 40
1.6000000000000001
  0
CIRCLE
  5
3C7
  8
0
 10
34.499999006155981
 20
142.36196055123409
 30
0.0
 40
1.6000000000000001
  0
CIRCLE
  5
3C8
  8
0
 10
84.499999006155974
 20
142.3619605252689
 30
0.0
 40
1.6000000000000001
  0
CIRCLE
  5
3C9
  8
0
 10
74.499999006155974
 20
142.361960530462
 30
0.0
 40
1.6000000000000001
  0
CIRCLE
  5
3CA
  8
0
 10
64.499999006155974
 20
142.36196053565499
 30
0.0
 40
1.6000000000000001
  0
CIRCLE
  5
3CB
  8
0
 10
54.499999006155981
 20
142.361960540848
 30
0.0
 40
1.6000000000000001
  0
CIRCLE
  5
3CC
  8
0
 10
44.499999006155967
 20
142.3619605460411
 30
0.0
 40
1.6000000000000001
  0
CIRCLE
  5
3CD
  8
0
 10
34.49999899057687
 20
112.36196055123411
 30
0.0
 40
1.6000000000000001
  0
CIRCLE
  5
3CE
  8
0
 10
84.499998990576856
 20
112.3619605252689
 30
0.0
 40
1.6000000000000001
  0
CIRCLE
  5
3CF
  8
0
 10
74.499998990576842
 20
112.3619605304619
 30
0.0
 40
1.6000000000000001
  0
CIRCLE
  5
3D0
  8
0
 10
64.499998990576842
 20
112.361960535655
 30
0.0
 40
1.6000000000000001
  0
CIRCLE
  5
3D1
  8
0
 10
54.499998990576842
 20
112.361960540848
 30
0.0
 40
1.6000000000000001
  0
CIRCLE
  5
3D2
  8
0
 10
44.49999899057687
 20
112.3619605460411
 30
0.0
 40
1.6000000000000001
  0
CIRCLE
  5
3D3
  8
0
 10
64.999998895687824
 20
26.999999954992301
 30
0.0
 40
8.9999999999998064
  0
CIRCLE
  5
3D4
  8
0
 10
64.999998932226845
 20
97.361960244280155
 30
0.0
 40
8.0
  0
CIRCLE
  5
3D5
  8
0
 10
64.999998895687824
 20
167.72392053356799
 30
0.0
 40
8.9999999999998064
  0
LINE
  5
3D6
  8
AM_7
 10
64.999998932226845
 20
197.72392053356799
 30
0.0
 11
64.999998932226845
 21
-3.000000045007674
 31
0.0
1001
GENIUS_GENOBJ-N-CEN_13
1002
{
1000
OWNER
1000
GEN
1002
}
1001
GENIUS_GENODEF_13
1002
{
1000
HIER
1070
     0
1002
}
1002
{
1000
MANEDIT
1070
     0
1002
}
1002
{
1000
NOSEL
1070
     0
1002
}
1002
{
1000
BEHIND
1070
     0
1002
}
1002
{
1000
OTHER
1070
     0
1002
}
1002
{
1000
REACTOR
1002
}
1001
GENIUS_GENCEN_19
1002
{
1040
3.0
1002
}
  0
LINE
  5
3D9
  8
AM_7
 10
-3.0000010677731548
 20
97.361960244280155
 30
0.0
 11
132.99999893222679
 21
97.361960244280155
 31
0.0
1001
GENIUS_GENOBJ-N-CEN_13
1002
{
1000
OWNER
1000
GEN
1002
}
1001
GENIUS_GENODEF_13
1002
{
1000
HIER
1070
     0
1002
}
1002
{
1000
MANEDIT
1070
     0
1002
}
1002
{
1000
NOSEL
1070
     0
1002
}
1002
{
1000
BEHIND
1070
     0
1002
}
1002
{
1000
OTHER
1070
     0
1002
}
1002
{
1000
REACTOR
1002
}
1001
GENIUS_GENCEN_19
1002
{
1040
3.0
1002
}
  0
ENDSEC
  0
EOF
